<?xml version="1.0" standalone="no"?><!DOCTYPE svg PUBLIC "-//W3C//DTD SVG 1.1//EN" "http://www.w3.org/Graphics/SVG/1.1/DTD/svg11.dtd"><svg t="1641886918587" class="icon" viewBox="0 0 1024 1024" version="1.1" xmlns="http://www.w3.org/2000/svg" p-id="2688" xmlns:xlink="http://www.w3.org/1999/xlink" width="200" height="200"><defs><style type="text/css"></style></defs><path d="M801.10986327 505.49820964L644.80187988 757.63444011l-1.56555176 101.67846679L733.70874022 812.84073894l156.30798341-252.13623047-88.90686036-55.20629883zM856.23376464 416.59134928L819.48449707 475.8351237l88.90686034 55.20629883 36.74926758-59.32617188-88.90686036-55.12390137zM593.38586425 799.73954265l-71.10900879-38.89160157-25.21362305-13.76037597-25.21362305 13.76037597-71.60339355 38.97399903-71.43859863-38.97399903-25.21362305-13.76037597-25.21362305 13.76037597-18.78662109 10.1348877V200.62760417c0-14.58435059 11.78283692-26.3671875 26.3671875-26.3671875h421.54541016c14.58435059 0 26.3671875 11.78283692 26.3671875 26.3671875v263.671875h52.734375V174.26041667c0-29.08630372-21.58813477-52.734375-48.28491211-52.734375H255.1442871C228.44750976 121.52604167 206.85937499 145.17411295 206.85937499 174.26041667v685.546875l96.56982422-52.734375 96.65222168 52.734375L496.89843749 807.07291667l96.4050293 52.734375v-60.06774903z" p-id="2689"></path><path d="M628.40478515 332.46354167H364.98010252c-14.58435059 0-26.3671875-11.78283692-26.36718749-26.3671875s11.78283692-26.3671875 26.3671875-26.3671875h263.50708007c14.58435059 0 26.3671875 11.78283692 26.36718751 26.3671875-0.08239747 14.58435059-11.86523438 26.3671875-26.44958496 26.3671875zM628.40478515 464.29947917H364.98010252c-14.58435059 0-26.3671875-11.78283692-26.36718749-26.3671875s11.78283692-26.3671875 26.3671875-26.3671875h263.50708007c14.58435059 0 26.3671875 11.78283692 26.36718751 26.3671875-0.08239747 14.58435059-11.86523438 26.3671875-26.44958496 26.3671875zM575.7528076 596.13541667H364.98010252c-14.58435059 0-26.3671875-11.78283692-26.36718749-26.3671875s11.78283692-26.3671875 26.3671875-26.3671875h210.77270507c14.58435059 0 26.3671875 11.78283692 26.36718751 26.3671875s-11.78283692 26.3671875-26.3671875 26.3671875z" p-id="2690"></path></svg>