<?xml version="1.0" standalone="no"?><!DOCTYPE svg PUBLIC "-//W3C//DTD SVG 1.1//EN" "http://www.w3.org/Graphics/SVG/1.1/DTD/svg11.dtd"><svg t="1641886961387" class="icon" viewBox="0 0 1024 1024" version="1.1" xmlns="http://www.w3.org/2000/svg" p-id="4171" xmlns:xlink="http://www.w3.org/1999/xlink" width="200" height="200"><defs><style type="text/css"></style></defs><path d="M511.46119785 141.21142578C306.97998953 141.21142578 141.21142578 306.97998953 141.21142578 511.46119785 141.21142578 592.96516133 167.86547554 668.07084929 212.49335658 729.22778976l27.82000602-28.96278799c-37.36274243-53.55070531-59.43262875-118.55674982-59.43262875-188.80452812 0-182.573542 148.00692201-330.580464 330.580464-330.580464 182.56195486 0 330.57104945 148.00692201 330.57104945 330.580464 0 182.57064521-148.00837041 330.57104945-330.57104945 330.57104946-69.59672571 0-134.09003914-21.61509096-187.35613524-58.34488571l-24.90294278 30.85728586c60.13147831 42.19168425 133.22462439 67.15763212 212.25907802 67.15763211 204.47758734 0 370.24180591-165.76421857 370.24180591-370.24108172C881.70227957 306.97998953 715.938061 141.21142578 511.46119785 141.21142578z" p-id="4172"></path><path d="M498.22505963 326.33051824L498.22505963 498.230129 326.32544887 498.230129 326.32544887 537.89871287 498.22505963 537.89871287 498.22505963 709.79832363 537.8943677 709.79832363 537.8943677 537.89871287 709.79325426 537.89871287 709.79325426 498.230129 537.8943677 498.230129 537.8943677 326.33051824Z" p-id="4173"></path></svg>