<?xml version="1.0" standalone="no"?><!DOCTYPE svg PUBLIC "-//W3C//DTD SVG 1.1//EN" "http://www.w3.org/Graphics/SVG/1.1/DTD/svg11.dtd"><svg t="1641886964700" class="icon" viewBox="0 0 1024 1024" version="1.1" xmlns="http://www.w3.org/2000/svg" p-id="4304" xmlns:xlink="http://www.w3.org/1999/xlink" width="200" height="200"><defs><style type="text/css"></style></defs><path d="M674.34977722 471.95483398c-14.43109131-8.34645081-32.21411133-8.34645081-46.64149475 0s-23.31889343 23.77125549-23.31889343 40.46415711 8.88780213 32.1177063 23.31889343 40.46044922c14.43109131 8.34645081 32.21411133 8.34645081 46.64149475 0 14.43479919-8.34274292 23.31889343-23.76754761 23.31889343-40.46044922S688.78457641 480.30128479 674.34977722 471.95483398z" p-id="4305"></path><path d="M863.7559967 400.26286316c-7.91633606-24.91699219-18.24279786-48.79206848-31.27230834-71.45095826-8.80993652-15.32098388-29.22184753-16.60762024-39.13673401-2.46203612-6.19958497 8.83589172-5.21328735 17.82380677-0.14460755 27.05644226 43.1709137 78.61459351 53.65681458 161.53775024 29.06240845 247.73126221-49.7746582 174.47085571-230.78622437 273.13398742-404.40055847 221.47943115-127.21385193-37.84268188-219.6736908-152.82421875-229.48475647-285.5998993-4.01193237-54.29827881 5.00193787-106.3903656 26.71531677-156.36524963 59.78224182-137.58110047 212.35061646-216.95951843 359.03457641-186.71058654 33.72322083 6.95228576 65.62586975 18.68403625 95.59300232 35.66986083 5.13171386 2.90327453 10.43399047 4.84620667 16.42964172 3.91923523 10.07432557-1.5610199 17.91279602-8.91004943 19.71853638-18.41706848 1.98371887-10.42286682-2.68080139-19.89651489-12.83670044-25.53250122C609.93638611 143.41020203 521.74803162 129.9468689 429.08425903 150.68507385 260.98725891 188.3052826 141.25221253 339.04937744 141.21142578 511.74786377c-0.00370789 27.62745667 2.91069031 54.94715881 8.99533081 81.88124084 47.07902527 208.438797 260.36402893 334.16578674 464.96887208 274.14624024 144.57046508-42.41079712 249.0067749-168.38621521 264.18315123-319.15997315C884.43858338 498.15846253 879.1251831 448.64335632 863.7559967 400.26286316z" p-id="4306"></path><path d="M487.83200073 471.95483398c-14.43109131 8.34645081-23.32260132 23.77125549-23.32260131 40.46415711 0 25.80317688 20.8828125 46.72306823 46.64149475 46.72306823s46.64149475-20.91989136 46.64149474-46.72306823c0-16.69290161-8.88780213-32.1177063-23.32260131-40.46415711C520.04240417 463.60838318 502.26309204 463.60838318 487.83200073 471.95483398z" p-id="4307"></path><path d="M348.04841614 471.95483398c-14.43109131 8.34645081-23.32260132 23.77125549-23.32260132 40.46415711s8.88780213 32.1177063 23.32260132 40.46044922c14.43109131 8.34645081 32.21040344 8.34645081 46.64149475 0 14.43109131-8.34274292 23.31889343-23.76754761 23.31889343-40.46044922s-8.88780213-32.1177063-23.31889343-40.46415711C380.25881958 463.60838318 362.47579956 463.60838318 348.04841614 471.95483398z" p-id="4308"></path></svg>