<?xml version="1.0" standalone="no"?><!DOCTYPE svg PUBLIC "-//W3C//DTD SVG 1.1//EN" "http://www.w3.org/Graphics/SVG/1.1/DTD/svg11.dtd"><svg t="1641887000352" class="icon" viewBox="0 0 1024 1024" version="1.1" xmlns="http://www.w3.org/2000/svg" p-id="5767" xmlns:xlink="http://www.w3.org/1999/xlink" width="200" height="200"><defs><style type="text/css"></style></defs><path d="M864.29375 408.54062501h-19.575l-5.821875-19.74375h53.55a28.125 28.125 0 1 0 0-56.25h-70.14375l-31.275-105.946875C778.45625 192.48437501 740.09375 166.75000001 701.84375 166.75000001H327.95c-38.25 0-76.584375 25.734375-89.746875 61.621875l-30.7125 104.175H146.375a28.125 28.125 0 0 0 0 56.25h44.49375l-5.821875 19.74375H174.5c-31.021875 0-56.25 25.228125-56.25 56.25v248.68125h44.915625v30.6a28.125 28.125 0 1 0 56.25 0v-30.6h606.909375v30.6a28.125 28.125 0 1 0 56.25 0v-30.6h37.996875v-248.68125a56.3625 56.3625 0 0 0-56.278125-56.25zM174.5 657.19375001v-92.25h64.85625c23.259375 0 44.409375-14.653125 52.621875-36.39375l21.15-55.996875c0.95625-2.559375 1.06875-5.175 1.265625-7.7625h395.971875c0.196875 2.5875 0.309375 5.203125 1.265625 7.7625l21.15 55.940625a56.475 56.475 0 0 0 52.621875 36.45h78.890625v92.25H174.5z m689.79375-148.5l-78.890625-0.028125-16.565625-43.903125h95.45625v43.93125zM254.065625 373.24375001a27.196875 27.196875 0 0 0 2.475-8.409375L291.55625 246.06250001c3.9375-10.6875 20.671875-23.0625 36.39375-23.0625H701.84375c15.721875 0 32.45625 12.375 35.803125 21.2625l48.43125 164.25H243.6875l10.378125-35.26875z m1.884375 91.546875l-16.59375 43.93125H174.5v-43.93125h81.45z" p-id="5768"></path><path d="M602.309375 548.40625001h-165.796875a28.125 28.125 0 1 0 0 56.25h165.796875a28.125 28.125 0 1 0 0-56.25z" p-id="5769"></path></svg>