<?xml version="1.0" standalone="no"?><!DOCTYPE svg PUBLIC "-//W3C//DTD SVG 1.1//EN" "http://www.w3.org/Graphics/SVG/1.1/DTD/svg11.dtd"><svg t="1640500097244" class="icon" viewBox="0 0 1024 1024" version="1.1" xmlns="http://www.w3.org/2000/svg" p-id="2614" xmlns:xlink="http://www.w3.org/1999/xlink" width="200" height="200"><defs><style type="text/css"></style></defs><path d="M899.518796 159.9998L860.798844 43.839945A63.99992 63.99992 0 0 0 799.99892 0H223.99964a63.99992 63.99992 0 0 0-60.799924 43.839945L124.159765 159.9998A63.99992 63.99992 0 0 0 63.99984 223.99972v95.99988a63.99992 63.99992 0 0 0 63.99992 63.99992h31.99996a59.839925 59.839925 0 0 0 0 7.039991l63.99992 575.99928A63.99992 63.99992 0 0 0 287.99956 1023.99872h447.99944a63.99992 63.99992 0 0 0 63.99992-56.959929l63.99992-575.99928a53.759933 53.759933 0 0 0 0-7.039991h31.99996a63.99992 63.99992 0 0 0 63.99992-63.99992V223.99972a63.99992 63.99992 0 0 0-60.479924-63.99992zM223.99964 63.99992h575.99928l31.99996 95.99988H191.99968z m63.99992 895.99888l-10.559987-95.99988h469.119414L735.999 959.9988z m462.079422-127.99984H273.919578L238.079622 511.99936h547.839316z m39.039952-351.99956H234.559627L223.99964 383.99952h575.99928zM895.9988 319.9996H127.99976V223.99972h767.99904z" fill="#343231" p-id="2615"></path></svg>