<?xml version="1.0" standalone="no"?><!DOCTYPE svg PUBLIC "-//W3C//DTD SVG 1.1//EN" "http://www.w3.org/Graphics/SVG/1.1/DTD/svg11.dtd"><svg t="1641886977955" class="icon" viewBox="0 0 1024 1024" version="1.1" xmlns="http://www.w3.org/2000/svg" p-id="4966" xmlns:xlink="http://www.w3.org/1999/xlink" width="200" height="200"><defs><style type="text/css"></style></defs><path d="M792.63973018 257.08271039L764.59887901 172.96015762A46.34851384 46.34851384 0 0 0 720.56779087 141.21142578H303.43116629a46.34851384 46.34851384 0 0 0-44.03108815 31.74873184L231.12748484 257.08271039A46.34851384 46.34851384 0 0 0 187.55988168 303.43122423v69.52277076a46.34851384 46.34851384 0 0 0 46.34851385 46.34851383h23.17425693a43.3358603 43.3358603 0 0 0 0 5.09833638l46.34851383 417.13662458A46.34851384 46.34851384 0 0 0 349.77968013 882.78764725h324.43959689a46.34851384 46.34851384 0 0 0 46.34851385-41.25017747l46.34851384-417.13662458a38.93275177 38.93275177 0 0 0 0-5.09833638h23.17425691a46.34851384 46.34851384 0 0 0 46.34851385-46.34851383V303.43122423a46.34851384 46.34851384 0 0 0-43.7993453-46.34851384zM303.43116629 187.55993962h417.13662458l23.17425692 69.52277077H280.25690937z m46.34851384 648.87919379l-7.64750493-69.52277077h339.73460675L674.21927702 836.43913341z m334.63626966-92.69702769H339.58300738L313.62783904 511.99953652h396.74327908z m28.27259402-254.91682612H311.07867122L303.43116629 419.30250883h417.13662458zM790.09056162 372.95399499H233.90839553V303.43122423h556.18216609z" fill="#343231" p-id="4967"></path></svg>