<?xml version="1.0" standalone="no"?><!DOCTYPE svg PUBLIC "-//W3C//DTD SVG 1.1//EN" "http://www.w3.org/Graphics/SVG/1.1/DTD/svg11.dtd"><svg t="1641886980536" class="icon" viewBox="0 0 1024 1024" version="1.1" xmlns="http://www.w3.org/2000/svg" p-id="5098" xmlns:xlink="http://www.w3.org/1999/xlink" width="200" height="200"><defs><style type="text/css"></style></defs><path d="M746.81541772 382.71025735a484.98027658 484.98027658 0 0 0-56.06775682-53.18875889c-2.84991729-2.3264627-5.03097602-3.95498696-7.56100396-5.90339983 35.44947878-12.91186933 60.25538967-43.82474528 60.25538968-80.43745502 0-49.26285256-44.14463384-86.98063276-96.54821163-86.98063276a87.67857119 87.67857119 0 0 0-33.12301532 6.42685441 68.71789884 68.71789884 0 0 0-10.93437583 5.52534919c-1.86117016 0.81426175-5.75799586-0.11632333-6.8339849-1.51220095l-0.02908064 0.02908065a110.79779651 110.79779651 0 0 0-18.81526914-22.27588217C560.4948181 129.03855662 540.77804528 119.55822045 518.21135518 119.55822045c-22.53760947 0-42.28346369 9.48033617-58.94675474 24.83499153a110.09985731 110.09985731 0 0 0-18.43721853 21.81058962l-0.02908063-0.02908064c-1.54128158 1.89025081-5.46718792 2.87899793-6.8339849 2.18105874a72.44023916 72.44023916 0 0 0-11.31242569-5.72891445 88.11478309 88.11478309 0 0 0-33.12301609-6.4268544c-52.403577 0-96.51913021 37.71778021-96.51913021 86.98063276 0 31.29092657 18.20457263 58.39421951 45.59867352 73.69071281-2.93715921 2.23922078-5.87431918 4.47844079-8.75331711 6.77582362a446.39007257 446.39007257 0 0 0-55.95143349 52.6653043C222.11078681 434.38681452 190.64537563 500.8073313 190.64537563 574.52712475c0 204.4379288 143.71724659 301.65499821 316.83516896 301.6549982 72.55656248 0 143.4846007-15.35465536 200.86099245-51.56023461 77.90742709-49.17560987 122.1974649-131.76504375 122.1974649-250.09476359 0-69.32859535-31.66897642-133.68437519-83.72358422-191.8168674z m-239.33487313 447.78595018c-152.35424037 0-273.94100876-82.21138327-273.94100876-255.99816341 0-60.34263159 26.57983912-116.43946904 71.48057345-166.77831065a402.71073125 402.71073125 0 0 1 50.39700287-47.45984367 356.12331138 356.12331138 0 0 1 22.27588217-16.16891711c24.16613374-16.95409822 21.89783231-46.79098512-1.77392747-59.52836984l0.05816127-0.26172729-0.14540396-0.0872427-0.29080794-0.14540396-0.81426174-0.40713048-1.13415111-0.58161587v0.02908064l-0.6106965-0.31988857-0.46529253-0.17448462-0.08724192-0.05816128-0.02908065 0.02908065-2.47186743-1.01782777c-20.90908519-6.48501569-34.02452053-22.18864026-34.02451976-38.41571862 0-21.57794375 23.0901447-41.29471656 53.62497002-41.29471734a47.34352034 47.34352034 0 0 1 23.09014469 5.96156109l2.61727063 1.59944364c19.39688424 10.03287141 44.3772805 3.72234031 58.27789619-13.72613108l1.80300887-2.64635204a68.04904028 68.04904028 0 0 1 12.01036489-14.10418093c9.48033617-8.75331711 19.83309614-13.75521172 30.91287595-13.75521249 11.02161775 0 21.37437773 5.00189538 30.88379532 13.75521249 6.01972314 5.5253492 10.207356 11.05069916 11.98128347 14.10418093l1.45403967 2.1810595c13.52256583 17.91376471 38.76468862 23.90440644 58.2197349 14.42407028l3.05348254-1.8320903a47.83789353 47.83789353 0 0 1 23.06106327-5.96156109c30.56390673 0 53.65405143 19.74585423 53.65405143 41.32379797 0 16.19799774-13.14451522 31.90162308-34.02452054 38.38663799l-3.05348252 1.22139302a67.00213188 67.00213188 0 0 1-11.51599171 4.76924871c-30.06953356 9.85838679-35.18775149 42.39978701-10.81805251 60.57527825 2.35554335 1.59944364 4.65292616 3.22796713 6.95030823 4.85649141a438.10204877 438.10204877 0 0 1 67.64190903 61.21505617c45.22062289 50.45516493 71.91678534 104.71991209 71.91678534 160.29329495 0 182.77274314-116.03233778 255.99816341-280.16429715 255.99816342z m89.39433814-268.8809521c9.85838679 0 17.85560266-8.66607442 17.85560266-19.39688424 0-10.67264854-7.99721663-19.3678036-17.85560266-19.36780438h-73.02185502l67.78731299-73.45806616a20.53103533 20.53103533 0 0 0 0-27.39410088 16.95409822 16.95409822 0 0 0-25.30028406 0l-58.83043141 63.77416475-58.85951128-63.77416475a16.95409822 16.95409822 0 0 0-25.30028484 0 20.58919661 20.58919661 0 0 0 0 27.39410088l67.8163944 73.45806616H418.11528785c-9.85838679 0-17.88468406 8.69515506-17.88468408 19.36780438 0 10.7308106 8.02629727 19.39688424 17.88468408 19.39688424h71.50965408v19.3678036H418.11528785c-9.85838679 0-17.88468406 8.66607442-17.88468408 19.36780438 0 10.70172918 8.02629727 19.3678036 17.88468408 19.36780359h71.50965408v55.80602953c0 8.17170125 7.99721663 14.80212012 17.85560266 14.80212012 9.88746743 0 17.88468406-6.63041965 17.88468407-14.80212012v-55.80602953h71.50965407c9.85838679 0 17.85560266-8.66607442 17.85560266-19.36780359 0-10.70172918-7.99721663-19.3678036-17.85560266-19.36780438h-71.50965407v-19.3678036h71.50965407z" p-id="5099"></path></svg>