<?xml version="1.0" standalone="no"?><!DOCTYPE svg PUBLIC "-//W3C//DTD SVG 1.1//EN" "http://www.w3.org/Graphics/SVG/1.1/DTD/svg11.dtd"><svg t="1640500106512" class="icon" viewBox="0 0 1024 1024" version="1.1" xmlns="http://www.w3.org/2000/svg" p-id="3010" xmlns:xlink="http://www.w3.org/1999/xlink" width="200" height="200"><defs><style type="text/css"></style></defs><path d="M928 1024a32 32 0 0 1-32-32V32a32 32 0 0 1 64 0v960a32 32 0 0 1-32 32z" p-id="3011"></path><path d="M928 704h-256a32 32 0 0 1-32-32v-384A288.64 288.64 0 0 1 928 0a32 32 0 0 1 32 32 32 32 0 0 1-32 32A224 224 0 0 0 704 288V640h224a32 32 0 0 1 0 64zM288 1024a32 32 0 0 1-32-32v-448a32 32 0 0 1 64 0v448a32 32 0 0 1-32 32z" p-id="3012"></path><path d="M288 576A224 224 0 0 1 64 352v-128a224 224 0 0 1 448 0v128A224 224 0 0 1 288 576z m0-512A160 160 0 0 0 128 224v128a160 160 0 0 0 320 0v-128A160 160 0 0 0 288 64z" p-id="3013"></path></svg>