<?xml version="1.0" standalone="no"?><!DOCTYPE svg PUBLIC "-//W3C//DTD SVG 1.1//EN" "http://www.w3.org/Graphics/SVG/1.1/DTD/svg11.dtd"><svg t="1640183814532" class="icon" viewBox="0 0 1024 1024" version="1.1" xmlns="http://www.w3.org/2000/svg" p-id="2692" xmlns:xlink="http://www.w3.org/1999/xlink" width="200" height="200"><defs><style type="text/css"></style></defs><path d="M716.29 893.94h-406.9c-6.8 0-12.38-5.38-12.62-12.18L282.91 503.2l-37.14 34.6c-4.69 4.38-11.94 4.54-16.81 0.37l-95.59-81.51a12.61 12.61 0 0 1-3.43-14.56l94.69-222.27c6.48-15.21 17.31-27.86 31.33-36.6l80.76-50.34c16.65-10.39 38.45-8.37 53.03 4.91 45.43 41.34 135.69 96.44 230.16 1.34 14.1-14.2 36.12-16.89 53.49-6.48l85.05 51.02c15.44 9.27 27.43 23.64 33.77 40.5L897.6 438.3c2.52 5.12 1.28 11.3-3 15.08l-96.48 84.68c-4.78 4.15-11.85 4.16-16.6 0.06l-43.15-37.28c-3.02 64.81-7.11 251.4-9.45 380.69-0.12 6.89-5.74 12.41-12.63 12.41z m-394.72-25.28h382.31c7.38-406.23 7.54-406.19 24.02-406.19 3.04 0 5.96 1.09 8.25 3.07l53.56 46.26 80.93-71.04-101.56-206.54c-4.84-12.67-13.04-22.52-23.62-28.86l-85.05-51.02c-7.28-4.37-16.77-3.26-22.57 2.63-116.53 117.33-232.35 29.29-265.08-0.48-6.35-5.76-15.46-6.66-22.65-2.15l-80.76 50.34c-9.6 5.98-17.02 14.65-21.46 25.06l-91.05 213.72 79.96 68.19 49.12-45.78c3.6-3.38 8.88-4.37 13.44-2.43 4.58 1.89 7.63 6.27 7.8 11.22l14.41 394z" fill="#0049FF" p-id="2693"></path></svg>