<?xml version="1.0" standalone="no"?><!DOCTYPE svg PUBLIC "-//W3C//DTD SVG 1.1//EN" "http://www.w3.org/Graphics/SVG/1.1/DTD/svg11.dtd"><svg t="1641887018335" class="icon" viewBox="0 0 1024 1024" version="1.1" xmlns="http://www.w3.org/2000/svg" p-id="6567" xmlns:xlink="http://www.w3.org/1999/xlink" width="200" height="200"><defs><style type="text/css"></style></defs><path d="M797.00000029 152H287a60.00000029 60.00000029 0 0 0-60.00000029 60.00000029v599.99999942a60.00000029 60.00000029 0 0 0 60.00000029 60.00000029h510.00000029a60.00000029 60.00000029 0 0 0 59.99999942-60.00000029V212.00000029a60.00000029 60.00000029 0 0 0-59.99999942-60.00000029z m-510.00000029 60.00000029h510.00000029v599.99999942H287V212.00000029z" fill="#444444" p-id="6568"></path><path d="M316.99999971 339.49999971a29.99999971 29.99999971 0 0 1 2.25 59.92500058L316.99999971 399.5H197a29.99999971 29.99999971 0 0 1-2.25-59.92499971L197 339.49999971h119.99999971zM316.99999971 624.5a29.99999971 29.99999971 0 0 1 2.25 59.92499971L316.99999971 684.50000029H197a29.99999971 29.99999971 0 0 1-2.25-59.92500058L197 624.5h119.99999971z" fill="#444444" p-id="6569"></path><path d="M707.00000029 392.00000029v239.99999942a29.99999971 29.99999971 0 0 1-30.00000058 30.00000058h-29.99999971V361.99999971h29.99999971a29.99999971 29.99999971 0 0 1 30.00000058 30.00000058z" fill="#00B386" p-id="6570"></path></svg>