<?xml version="1.0" standalone="no"?><!DOCTYPE svg PUBLIC "-//W3C//DTD SVG 1.1//EN" "http://www.w3.org/Graphics/SVG/1.1/DTD/svg11.dtd"><svg t="1641886992300" class="icon" viewBox="0 0 1024 1024" version="1.1" xmlns="http://www.w3.org/2000/svg" p-id="5494" xmlns:xlink="http://www.w3.org/1999/xlink" width="200" height="200"><defs><style type="text/css"></style></defs><path d="M879.38281277 355.07552057c-1.75781223-3.51562527-5.2734375-7.03124973-10.546875-8.78906196l-298.82812527-105.46875H476.84374973V135.34895861h70.31250054v56.24999946h35.15624946V117.77083307c0-10.546875-7.03124973-17.57812473-17.57812473-17.57812473h-105.46875c-10.546875 0-17.57812473 7.03124973-17.57812473 17.57812473v128.32031304L155.16406223 346.28645861c-5.2734375 1.75781223-8.78906277 5.2734375-10.546875 8.78906196s-1.75781223 8.78906277 0 14.06250027l35.15625027 89.6484375c1.75781223 7.03124973 8.78906277 10.546875 15.8203125 10.546875h87.89062527v351.56250027c0 10.546875 7.03124973 17.57812473 17.57812473 17.57812473h421.875c10.546875 0 17.57812473-7.03124973 17.57812473-17.57812473V469.33333334h87.89062527c7.03124973 0 14.06250027-5.2734375 15.8203125-10.546875l35.15625027-89.6484375c1.75781223-3.51562527 1.75781223-8.78906277 0-14.06250027zM318.64062473 803.31770807v-35.15624946h386.71875054v35.15624946H318.64062473z m386.71875054-70.31249973H318.64062473V434.17708307h386.71875054v298.82812527z m110.7421875-298.82812527H740.51562473v-17.57812473c0-10.546875-7.03124973-17.57812473-17.57812473-17.57812473H301.0625c-10.546875 0-17.57812473 7.03124973-17.57812473 17.57812473v17.57812473H207.89843723l-24.60937446-61.52343696L461.02343723 275.97395807h100.1953125l277.73437527 98.43750027-22.85156223 59.76562473z" p-id="5495"></path></svg>