<?xml version="1.0" standalone="no"?><!DOCTYPE svg PUBLIC "-//W3C//DTD SVG 1.1//EN" "http://www.w3.org/Graphics/SVG/1.1/DTD/svg11.dtd"><svg t="1640500108827" class="icon" viewBox="0 0 1024 1024" version="1.1" xmlns="http://www.w3.org/2000/svg" p-id="3144" xmlns:xlink="http://www.w3.org/1999/xlink" width="200" height="200"><defs><style type="text/css"></style></defs><path d="M957.866667 373.333333c-2.133333-4.266667-6.4-8.533333-12.8-10.666666l-362.666667-128H469.333333V106.666667h85.333334v68.266666h42.666666V85.333333c0-12.8-8.533333-21.333333-21.333333-21.333333h-128c-12.8 0-21.333333 8.533333-21.333333 21.333333v155.733334L78.933333 362.666667c-6.4 2.133333-10.666667 6.4-12.8 10.666666s-2.133333 10.666667 0 17.066667l42.666667 108.8c2.133333 8.533333 10.666667 12.8 19.2 12.8h106.666667v426.666667c0 12.8 8.533333 21.333333 21.333333 21.333333h512c12.8 0 21.333333-8.533333 21.333333-21.333333V512h106.666667c8.533333 0 17.066667-6.4 19.2-12.8l42.666667-108.8c2.133333-4.266667 2.133333-10.666667 0-17.066667zM277.333333 917.333333v-42.666666h469.333334v42.666666H277.333333z m469.333334-85.333333H277.333333V469.333333h469.333334v362.666667z m134.4-362.666667H789.333333v-21.333333c0-12.8-8.533333-21.333333-21.333333-21.333333H256c-12.8 0-21.333333 8.533333-21.333333 21.333333v21.333333H142.933333l-29.866666-74.666666L450.133333 277.333333h121.6l337.066667 119.466667-27.733333 72.533333z" p-id="3145"></path></svg>