<?xml version="1.0" standalone="no"?><!DOCTYPE svg PUBLIC "-//W3C//DTD SVG 1.1//EN" "http://www.w3.org/Graphics/SVG/1.1/DTD/svg11.dtd"><svg t="1641886997784" class="icon" viewBox="0 0 1024 1024" version="1.1" xmlns="http://www.w3.org/2000/svg" p-id="5626" xmlns:xlink="http://www.w3.org/1999/xlink" width="200" height="200"><defs><style type="text/css"></style></defs><path d="M195.59375 244.5729164a35.15625027 35.15625027 0 0 0-35.15625027 35.15625027v492.18749973a35.15625027 35.15625027 0 0 0 35.15625027 35.15625027h632.8125a35.15625027 35.15625027 0 0 0 35.15625027-35.15625027V279.72916667a35.15625027 35.15625027 0 0 0-35.15625027-35.15625027H195.59375z m0-35.15624946h632.8125a70.31249973 70.31249973 0 0 1 70.31249973 70.31249973v492.18749973a70.31249973 70.31249973 0 0 1-70.31249973 70.31250054H195.59375a70.31249973 70.31249973 0 0 1-70.31249973-70.31250054V279.72916667a70.31249973 70.31249973 0 0 1 70.31249973-70.31249973z" p-id="5627"></path><path d="M125.28125027 385.19791667m17.57812473 0l738.28125 0q17.57812473 0 17.57812473 17.57812473l0 0q0 17.57812473-17.57812473 17.57812554l-738.28125 0q-17.57812473 0-17.57812473-17.57812554l0 0q0-17.57812473 17.57812473-17.57812473Z" p-id="5628"></path><path d="M230.75000027 525.82291694m17.57812473 0l105.46875 0q17.57812473 0 17.57812473 17.57812473l0 0q0 17.57812473-17.57812473 17.57812473l-105.46875 0q-17.57812473 0-17.57812473-17.57812473l0 0q0-17.57812473 17.57812473-17.57812473Z" p-id="5629"></path><path d="M441.68750027 525.82291694m17.57812473 0l105.46875 0q17.57812473 0 17.57812473 17.57812473l0 0q0 17.57812473-17.57812473 17.57812473l-105.46875 0q-17.57812473 0-17.57812473-17.57812473l0 0q0-17.57812473 17.57812473-17.57812473Z" p-id="5630"></path><path d="M652.62500027 525.82291694m17.57812473 0l105.46875 0q17.57812473 0 17.57812473 17.57812473l0 0q0 17.57812473-17.57812473 17.57812473l-105.46875 0q-17.57812473 0-17.57812473-17.57812473l0 0q0-17.57812473 17.57812473-17.57812473Z" p-id="5631"></path><path d="M230.75000027 666.4479164m17.57812473 0l105.46875 0q17.57812473 0 17.57812473 17.57812554l0 0q0 17.57812473-17.57812473 17.57812473l-105.46875 0q-17.57812473 0-17.57812473-17.57812473l0 0q0-17.57812473 17.57812473-17.57812554Z" p-id="5632"></path><path d="M441.68750027 666.4479164m17.57812473 0l105.46875 0q17.57812473 0 17.57812473 17.57812554l0 0q0 17.57812473-17.57812473 17.57812473l-105.46875 0q-17.57812473 0-17.57812473-17.57812473l0 0q0-17.57812473 17.57812473-17.57812554Z" p-id="5633"></path><path d="M652.62500027 666.4479164m17.57812473 0l105.46875 0q17.57812473 0 17.57812473 17.57812554l0 0q0 17.57812473-17.57812473 17.57812473l-105.46875 0q-17.57812473 0-17.57812473-17.57812473l0 0q0-17.57812473 17.57812473-17.57812554Z" p-id="5634"></path><path d="M301.0625 139.1041664m17.57812473 0l0 0q17.57812473 0 17.57812554 17.57812554l0 140.62499946q0 17.57812473-17.57812554 17.57812554l0 0q-17.57812473 0-17.57812473-17.57812554l0-140.62499946q0-17.57812473 17.57812473-17.57812554Z" p-id="5635"></path><path d="M687.78124973 139.1041664m17.57812554 0l0 0q17.57812473 0 17.57812473 17.57812554l0 140.62499946q0 17.57812473-17.57812473 17.57812554l0 0q-17.57812473 0-17.57812554-17.57812554l0-140.62499946q0-17.57812473 17.57812554-17.57812554Z" p-id="5636"></path></svg>