<?xml version="1.0" standalone="no"?><!DOCTYPE svg PUBLIC "-//W3C//DTD SVG 1.1//EN" "http://www.w3.org/Graphics/SVG/1.1/DTD/svg11.dtd"><svg t="1640500111646" class="icon" viewBox="0 0 1024 1024" version="1.1" xmlns="http://www.w3.org/2000/svg" p-id="3276" xmlns:xlink="http://www.w3.org/1999/xlink" width="200" height="200"><defs><style type="text/css"></style></defs><path d="M128 213.333333a42.666667 42.666667 0 0 0-42.666667 42.666667v597.333333a42.666667 42.666667 0 0 0 42.666667 42.666667h768a42.666667 42.666667 0 0 0 42.666667-42.666667V256a42.666667 42.666667 0 0 0-42.666667-42.666667H128z m0-42.666666h768a85.333333 85.333333 0 0 1 85.333333 85.333333v597.333333a85.333333 85.333333 0 0 1-85.333333 85.333334H128a85.333333 85.333333 0 0 1-85.333333-85.333334V256a85.333333 85.333333 0 0 1 85.333333-85.333333z" p-id="3277"></path><path d="M42.666667 384m21.333333 0l896 0q21.333333 0 21.333333 21.333333l0 0q0 21.333333-21.333333 21.333334l-896 0q-21.333333 0-21.333333-21.333334l0 0q0-21.333333 21.333333-21.333333Z" p-id="3278"></path><path d="M170.666667 554.666667m21.333333 0l128 0q21.333333 0 21.333333 21.333333l0 0q0 21.333333-21.333333 21.333333l-128 0q-21.333333 0-21.333333-21.333333l0 0q0-21.333333 21.333333-21.333333Z" p-id="3279"></path><path d="M426.666667 554.666667m21.333333 0l128 0q21.333333 0 21.333333 21.333333l0 0q0 21.333333-21.333333 21.333333l-128 0q-21.333333 0-21.333333-21.333333l0 0q0-21.333333 21.333333-21.333333Z" p-id="3280"></path><path d="M682.666667 554.666667m21.333333 0l128 0q21.333333 0 21.333333 21.333333l0 0q0 21.333333-21.333333 21.333333l-128 0q-21.333333 0-21.333333-21.333333l0 0q0-21.333333 21.333333-21.333333Z" p-id="3281"></path><path d="M170.666667 725.333333m21.333333 0l128 0q21.333333 0 21.333333 21.333334l0 0q0 21.333333-21.333333 21.333333l-128 0q-21.333333 0-21.333333-21.333333l0 0q0-21.333333 21.333333-21.333334Z" p-id="3282"></path><path d="M426.666667 725.333333m21.333333 0l128 0q21.333333 0 21.333333 21.333334l0 0q0 21.333333-21.333333 21.333333l-128 0q-21.333333 0-21.333333-21.333333l0 0q0-21.333333 21.333333-21.333334Z" p-id="3283"></path><path d="M682.666667 725.333333m21.333333 0l128 0q21.333333 0 21.333333 21.333334l0 0q0 21.333333-21.333333 21.333333l-128 0q-21.333333 0-21.333333-21.333333l0 0q0-21.333333 21.333333-21.333334Z" p-id="3284"></path><path d="M256 85.333333m21.333333 0l0 0q21.333333 0 21.333334 21.333334l0 170.666666q0 21.333333-21.333334 21.333334l0 0q-21.333333 0-21.333333-21.333334l0-170.666666q0-21.333333 21.333333-21.333334Z" p-id="3285"></path><path d="M725.333333 85.333333m21.333334 0l0 0q21.333333 0 21.333333 21.333334l0 170.666666q0 21.333333-21.333333 21.333334l0 0q-21.333333 0-21.333334-21.333334l0-170.666666q0-21.333333 21.333334-21.333334Z" p-id="3286"></path></svg>