<?xml version="1.0" standalone="no"?><!DOCTYPE svg PUBLIC "-//W3C//DTD SVG 1.1//EN" "http://www.w3.org/Graphics/SVG/1.1/DTD/svg11.dtd"><svg t="1641887015935" class="icon" viewBox="0 0 1024 1024" version="1.1" xmlns="http://www.w3.org/2000/svg" p-id="6434" xmlns:xlink="http://www.w3.org/1999/xlink" width="200" height="200"><defs><style type="text/css"></style></defs><path d="M852.00000031 222.00000031H369.99999969c-19.99999969 0-37.99999969 7.99999969-51.99999938 21.99999938l-204 220.00000031c-24 25.99999969-24 67.99999969 0 94.00000031l204 219.99999938c13.99999969 13.99999969 31.99999969 22.00000031 51.99999938 22.00000031H852.00000031c37.99999969 0 70.00000031-31.99999969 69.99999938-70.00000031V291.99999969c0-37.99999969-31.99999969-70.00000031-69.99999938-69.99999938z m9.99999938 510c0 6-4.00000031 10.00000031-9.99999938 9.99999938H369.99999969c-1.99999969 0-6-1.99999969-7.99999969-3.99999938l-204-220.00000031c-4.00000031-4.00000031-4.00000031-10.00000031 0-13.99999969l204-220.00000031c1.99999969-1.99999969 4.00000031-4.00000031 7.99999969-4.00000031H852.00000031c6 0 10.00000031 4.00000031 9.99999938 10.00000031V732.00000031z" p-id="6435"></path><path d="M674 410c-12-12-30-12-42 0l-60 60-58.00000031-58.00000031c-12-12-30-12-42 0-12 12-12 30 0 42l58.00000031 58.00000031-58.00000031 58.00000031c-12 12-12 30 0 42 6 6 13.99999969 7.99999969 22.00000031 7.99999969s16.00000031-1.99999969 22.00000031-7.99999969l57.99999938-58.00000031L632 612.00000031c6 6 13.99999969 7.99999969 22.00000031 7.99999969s16.00000031-1.99999969 21.99999938-7.99999969c12-12 12-30 0-42L614 512l58.00000031-58.00000031c12-12 12-31.99999969 1.99999969-43.99999969z" p-id="6436"></path></svg>