<?xml version="1.0" standalone="no"?><!DOCTYPE svg PUBLIC "-//W3C//DTD SVG 1.1//EN" "http://www.w3.org/Graphics/SVG/1.1/DTD/svg11.dtd"><svg class="icon" width="200px" height="200.00px" viewBox="0 0 1024 1024" version="1.1" xmlns="http://www.w3.org/2000/svg"><path fill="#333333" d="M763.420444 879.274667a120.135111 120.135111 0 0 1-85.475555-35.413334L512 677.930667 346.055111 843.861333c-22.812444 22.826667-53.176889 35.413333-85.475555 35.413334s-62.634667-12.586667-85.475556-35.413334a120.064 120.064 0 0 1-35.413333-85.475555c0-32.298667 12.586667-62.648889 35.427555-85.489778l165.916445-165.930667-155.875556-155.889777c-22.826667-22.812444-35.413333-53.176889-35.413333-85.475556s12.586667-62.648889 35.413333-85.475556a120.092444 120.092444 0 0 1 85.489778-35.413333c32.298667 0 62.648889 12.586667 85.475555 35.413333L512 336.014222l155.875556-155.875555c22.826667-22.826667 53.162667-35.413333 85.475555-35.413334s62.663111 12.586667 85.475556 35.413334c22.826667 22.812444 35.413333 53.176889 35.413333 85.475555s-12.586667 62.648889-35.413333 85.475556l-155.861334 155.875555 165.916445 165.944889a120.035556 120.035556 0 0 1 35.413333 85.475556 120.092444 120.092444 0 0 1-35.413333 85.475555 120.007111 120.007111 0 0 1-85.461334 35.413334zM512 609.265778c7.267556 0 14.549333 2.773333 20.110222 8.334222l186.055111 186.040889a63.573333 63.573333 0 0 0 45.255111 18.744889 63.559111 63.559111 0 0 0 45.255112-18.744889 63.488 63.488 0 0 0 18.744888-45.255111 63.459556 63.459556 0 0 0-18.744888-45.240889L622.648889 527.075556a28.444444 28.444444 0 0 1 0-40.220445l175.971555-176c12.117333-12.103111 18.744889-28.145778 18.744889-45.255111s-6.641778-33.152-18.744889-45.255111c-12.088889-12.103111-28.16-18.744889-45.255111-18.744889s-33.166222 6.656-45.226666 18.744889L532.110222 396.344889a28.444444 28.444444 0 0 1-40.220444 0L315.875556 220.359111a63.488 63.488 0 0 0-45.240889-18.744889 63.573333 63.573333 0 0 0-45.255111 18.744889c-12.103111 12.103111-18.759111 28.145778-18.759112 45.255111s6.670222 33.152 18.744889 45.255111L401.351111 486.869333a28.444444 28.444444 0 0 1 0 40.220445L215.324444 713.144889a63.559111 63.559111 0 0 0-18.744888 45.255111c0 17.080889 6.670222 33.152 18.744888 45.255111a63.544889 63.544889 0 0 0 45.255112 18.744889 63.573333 63.573333 0 0 0 45.255111-18.744889l186.069333-186.040889c5.546667-5.575111 12.828444-8.348444 20.096-8.348444z"  /></svg>