<?xml version="1.0" standalone="no"?><!DOCTYPE svg PUBLIC "-//W3C//DTD SVG 1.1//EN" "http://www.w3.org/Graphics/SVG/1.1/DTD/svg11.dtd"><svg t="1642320008426" class="icon" viewBox="0 0 1024 1024" version="1.1" xmlns="http://www.w3.org/2000/svg" p-id="1912" xmlns:xlink="http://www.w3.org/1999/xlink" width="200" height="200"><defs><style type="text/css"></style></defs><path d="M680.55339178 875.08544159c-113.98040771 0-206.38092041-92.39974022-206.38092042-206.38092042s92.40128517-206.38092041 206.38092042-206.3809204S886.93431218 554.72411346 886.93431218 668.70452118 794.53457196 875.08544159 680.55339178 875.08544159z m0-361.16352081c-85.4845333 0-154.78569031 69.29806709-154.78569031 154.78414535 0 85.48376084 69.301157 154.78569031 154.78569031 154.78569031 85.48685074 0 154.78569031-69.30270195 154.7856903-154.78569031 0-85.48607827-69.29883957-154.78337287-154.7856903-154.78337287z m68.79364013 206.3778305H642.69510586l19.99631882 33.72322082c1.97522163 3.33091736-2.74847031 9.58411216-10.54816246 13.96868706-7.79737473 4.38534737-15.72220803 5.23970603-17.69742965 1.90801621 0 0-39.88371848-60.2763176-39.8837185-66.79833412 0-0.60871125 0.28349876-1.12318039 0.34529687-1.71489716 0.04248619-0.49438477 0.10660171-0.97486496 0.30744551-1.51946067 1.55962944-7.8923893 8.19365501-13.96327972 16.54489518-13.96327974h4.2903328c1.35028838-0.1884842 2.48428344-0.13904572 3.55184555 0h129.74510193c9.49759483 0 17.19763756 7.70004273 17.19763755 17.19841004 0.00077248 9.49759483-7.69927025 17.19763756-17.19763755 17.19763756z m16.54489517-82.75691986c-1.55962944 7.8923893-8.19288254 13.96327972-16.54489517 13.96327972h-4.2903328c-1.35028838 0.18925667-2.48351097 0.13904572-3.55184555 1e-8h-129.74510193c-9.49759483 0-17.19763756-7.70004273-17.19763756-17.19841003s7.70004273-17.19841003 17.19841003-17.19841004h106.65192605l-19.99631882-33.72244835c-1.97444917-3.33091736 2.74847031-9.58488464 10.54816247-13.96868706 7.7981472-4.38534737 15.72220803-5.24047852 17.69742965-1.90878868 0 0 39.88371848 60.2763176 39.88371849 66.79833412 0 0.60871125-0.28349876 1.12318039-0.34529686 1.71489715-0.04325867 0.49515725-0.10660171 0.97486496-0.308218 1.52023316zM663.35498174 324.73632049c9.49836731 0 17.19841003 7.7008152 17.19841004 17.19918251 0 9.49836731-7.70004273 17.19841003-17.19841004 17.19841003h-85.99205017c-9.49759483 0-17.19763756-7.70004273-17.19763757-17.19841003s7.70004273-17.19841003 17.19841004-17.19841003h85.9912777z m-343.96820069 309.57138062H405.38037617c9.49836731 0 17.19841003 7.70004273 17.19841004 17.19841004s-7.70004273 17.19841003-17.19841004 17.19841003h-85.99205016c-9.49836731 0-17.19841003-7.70004273-17.19841004-17.19841003s7.70004273-17.19841003 17.19841004-17.19841003z m171.98410035-189.18251038c9.49836731 0 17.19841003 7.70004273 17.19841004 17.19841004s-7.70004273 17.19841003-17.19841004 17.19841004h-68.79364014v68.79441261c0 9.49836731-7.70004273 17.19841003-17.19841003 17.19841003s-17.19841003-7.70004273-17.19841004-17.19841003v-68.79441261h-68.79364014c-9.49836731 0-17.19918251-7.70004273-17.19918251-17.19841004s7.7008152-17.19841003 17.19918251-17.19841003h68.79364014v-68.79364014h-68.79364014c-9.49836731 0-17.19918251-7.70004273-17.19918251-17.19841003s7.7008152-17.19841003 17.19918251-17.19841004h17.19841004v-34.39682006c0-9.49836731 7.70004273-17.19841003 17.19841004-17.19841004s17.19841003 7.70004273 17.19841003 17.19841004v34.39682006h68.79364013v-34.39682006c0-9.49836731 7.70004273-17.19841003 17.19841004-17.19841004s17.19841003 7.70004273 17.19841003 17.19841004v34.39682006h17.19841004c9.49836731 0 17.19841003 7.70004273 17.19841004 17.19841004s-7.70004273 17.19841003-17.19841004 17.19841003h-68.79364014v68.79364014h68.79364014z m257.97615051-206.38014793c0-18.9975071-15.39931297-34.39682007-34.39682007-34.39682007H267.79155095c-18.9975071 0-34.39682007 15.39931297-34.39682006 34.39682007v498.75389099c0 18.9975071 15.39931297 34.39682007 34.39682006 34.39682007h195.46737671c8.85721207 18.61281395 19.85881806 35.98734856 32.97932624 51.5952301H250.59391339c-37.99269676 0-68.79364013-30.8001709-68.79364014-68.79364013V221.54663277c0-37.99269676 30.8001709-68.79364013 68.79364014-68.79364014h481.55470849c37.99269676 0 68.79441262 30.8001709 68.79441261 68.79364014v238.85504722c-16.13239288-9.3461895-33.37328911-16.94426536-51.59600258-22.37013817V238.7450428z" fill="#515151" p-id="1913"></path></svg>