<?xml version="1.0" standalone="no"?><!DOCTYPE svg PUBLIC "-//W3C//DTD SVG 1.1//EN" "http://www.w3.org/Graphics/SVG/1.1/DTD/svg11.dtd"><svg t="1641886921903" class="icon" viewBox="0 0 1024 1024" version="1.1" xmlns="http://www.w3.org/2000/svg" p-id="2821" xmlns:xlink="http://www.w3.org/1999/xlink" width="200" height="200"><defs><style type="text/css"></style></defs><path d="M433.01505533 623.27777099H347.222819c-13.98284912 0-25.33721924 11.38732911-25.33721924 25.37841797 0 13.91693115 11.35437012 25.30426026 25.33721924 25.30426026h85.79223633c13.98284912 0 25.33721924-11.38732911 25.33721924-25.30426026 0-13.99108887-11.35437012-25.37841797-25.33721924-25.37841797z m85.79223633-240.987854c13.99108887 0 25.33721924-11.34613037 25.33721924-25.30426025 0-13.94989013-11.35437012-25.33721924-25.33721924-25.33721924h-8.99780273v-26.14471435c0-13.99108887-11.34613037-25.37841797-25.33721925-25.37841797-13.98284912 0-25.33721924 11.38732911-25.33721924 25.37841797v26.14471435h-52.26470946v-26.14471435c0-13.99108887-11.34613037-25.37841797-25.33721924-25.37841797-13.95812989 0-25.34545898 11.38732911-25.34545899 25.37841797v26.14471435h-8.956604c-13.98284912 0-25.33721924 11.38732911-25.33721924 25.33721924s11.35437012 25.30426026 25.33721924 25.30426025h60.41381836V434.54638672h-60.41381836c-13.98284912 0-25.33721924 11.38732911-25.33721923 25.33721924 0 14.02404786 11.35437012 25.37841797 25.33721923 25.37841797h60.41381836v60.41381836c0 13.98284912 11.38732911 25.37841797 25.37841797 25.37841797 13.98284912 0 25.33721924-11.38732911 25.33721924-25.37841797v-60.41381836h60.44677734c13.99108887 0 25.33721924-11.35437012 25.33721924-25.37841797 0-13.95812989-11.35437012-25.33721924-25.33721924-25.33721924h-60.44677734v-52.26470948h60.44677734z m85.7510376-67.82958985c-13.99108887 0-25.30426026 11.38732911-25.30426026 25.37017823 0 13.95812989 11.31317138 25.33721924 25.30426026 25.33721924h85.75103759c13.99108887 0 25.37841797-11.38732911 25.37841798-25.33721924 0-13.98284912-11.38732911-25.37017823-25.37841797-25.37017823H604.55832926z m0 0" p-id="2822"></path><path d="M481.66251627 812.97320557l-3.04046631-10.40679932-191.07147217-0.82397461c-12.26074219-1.29364013-36.53503418-14.14764404-36.85638428-36.85638427V240.17077636c0-14.37835693 18.32519531-33.49456787 32.73651124-33.49456787h445.13580322c14.47723388 0 32.73651123 13.34838867 32.73651122 27.72674562l1.64794922 207.38616943 5.90789796 1.75506591c17.01507568 5.05920411 23.87054443 10.6539917 39.7567749 19.89898682l14.83978271 7.1685791-1.64794922-247.61260987c0-42.35229492-51.74560547-80.12329102-94.13085937-80.12329101H286.85843912c-58.08197021-0.12359619-101.32415771 49.13360596-101.54663085 101.54663086l0.82397461 523.61938476c3.37005615 60.89172364 54.36584473 97.42675781 104.84252929 97.42675782h233.76983642l-12.75512695-21.88476563c-11.75811768-19.44580078-21.65405273-12.34313965-30.33050537-30.61065673z m0 0.82397461" p-id="2823"></path><path d="M777.77427164 684.10357666H661.30546061c-0.70037842-0.05767822-1.52435302-0.05767822-3.94683838 0h-3.88092041c-10.7611084 0-20.11322021 7.17681885-21.83532716 15.81207275-0.57678223 1.40075684-0.70037842 2.51312256-0.70037841 2.51312257l-0.37902832 2.74383544c0 1.98577881 0 7.40753174 37.03765869 58.7576294 1.21124268 1.87042237 4.20227051 5.07568359 10.94238281 5.01800537 4.58129883 0 9.86297607-1.45843506 15.0869751-4.14459229 3.30413818-1.68914795 11.32965088-6.47644043 13.30718994-13.19183349 0.76629638-2.80151367 0.37902832-5.4876709-1.08764648-7.76184082l-11.39556885-17.68249512h83.31207275c12.66448974 0 22.98065185-9.45098877 22.98065186-21.00311279 0.00823974-11.66748047-10.30792237-21.06079102-22.97241211-21.06079102z m0 0" fill="#0173FE" p-id="2824"></path><path d="M715.58890788 463.71508789c-114.82910156 0-208.38317872 93.50463867-208.38317872 208.51501465 0 114.93621826 93.55407715 208.5067749 208.38317872 208.5067749 114.96917724 0 208.45733643-93.57055664 208.45733641-208.50677491 0-115.01037597-93.48815918-208.51501465-208.45733641-208.51501464z m-0.27191163 353.04016114c-79.79370117 0-144.82177734-65.05279541-144.82177735-144.86297608 0-79.88433838 65.02807617-144.86297607 144.82177735-144.86297608 79.85961914 0 144.82177734 64.9786377 144.82177734 144.86297608 0 79.81018067-64.95391846 144.86297607-144.82177734 144.86297608z m0 7.26745605" p-id="2825"></path><path d="M764.59067789 571.40032959c-1.23596192-1.90338135-4.28466797-5.11688232-11.09893798-5.11688232-4.67193604 0-10.12664795 1.4831543-15.44128419 4.22698974-7.01202393 3.62548828-12.13714599 8.67645263-13.49670409 13.48846435-0.84869385 2.7355957-0.51910401 5.58654786 1.038208 7.84423828l11.618042 17.95440674h-84.95178224c-12.91168213 0-23.35968018 9.63226318-23.35968017 21.5222168 0 11.77459717 10.44799805 21.3986206 23.35968017 21.3986206l121.23138428 0.11535645 5.50415039-0.11535645c10.96710205 0 20.50872802-7.25097656 22.32147218-16.28997802 0.45318604-1.25244141 0.65093994-2.31536865 0.65093993-2.49664307l0.45318604-2.61199951c0-2.07641602 0-7.60528565-37.82867432-59.91943359z m8.88244629 74.51202393h0.01647949v0.03295898l-0.01647949-0.03295898z m0 0" fill="#0173FE" p-id="2826"></path></svg>