<?xml version="1.0" standalone="no"?><!DOCTYPE svg PUBLIC "-//W3C//DTD SVG 1.1//EN" "http://www.w3.org/Graphics/SVG/1.1/DTD/svg11.dtd"><svg t="1642310894306" class="icon" viewBox="0 0 1024 1024" version="1.1" xmlns="http://www.w3.org/2000/svg" p-id="4469" xmlns:xlink="http://www.w3.org/1999/xlink" width="200" height="200"><defs><style type="text/css"></style></defs><path d="M851.0674124 270.13058721c-27.06624932-13.53312422-49.82621748-22.4074081-50.78856533-22.7752585-9.89239307-3.83859756-21.06551777 1.0936582-24.91310918 11.05260645-3.84759141 9.9490544 1.13323183 21.13387119 11.08228623 24.97246875 0.21675323 0.08454287 21.86057812 8.58198164 47.30432783 21.30385605 19.36117354 9.67563984 35.47824609 39.35371816 35.4782461 64.80736084l0 332.99652832c0 20.80379531-13.48545674 41.80455615-34.33691953 41.80455615l-19.31350518 0c-21.00166084 0-42.58432793-20.47281943-42.58432793-41.80455615L772.99584453 513.79068623 772.99584453 504.1339332l0-63.46816875c0-51.04848955-32.09743828-93.00324375-73.30030224-93.00324375l-42.72103477 0L656.97450752 179.56828848c0-30.33823096-19.94487714-63.04995175-53.84829111-63.04995176L236.16151807 116.51833672c-31.72509052 0-62.15865645 31.32486211-62.15865645 63.04995175l0 689.73965684L135.8201498 869.30794531c-10.66586836 0-19.31440518 8.67102099-19.31440517 19.33688936s8.64763682 19.33688935 19.31440518 19.33688936l57.94231552 0 444.22141816 0 57.94231553 0c10.66586836 0 19.31350518-8.67102099 19.31350518-19.33688936s-8.64763682-19.33688935-19.31350518-19.33688936l-38.94899238 0 0-482.97254502 42.72103477 0c20.85146279 0 34.62652354 29.01792568 34.62652353 54.32946504l0 63.46816875 0 9.65675303 0 188.69746289c0 42.75880927 38.84826094 80.47833575 81.25810664 80.47833574L834.89457763 782.96558575c40.52382451 0 73.01069912-35.42787949 73.01069912-80.47833575L907.90527588 369.49251992C907.90527588 329.11979258 883.60375273 286.39875781 851.0674124 270.13058721zM212.67664121 869.30794531L212.67664121 179.56828848c0-10.57143252 12.91344433-24.37617305 23.48487686-24.37617305l366.96559745 0c9.2987956 0 15.17451153 13.22913076 15.17451153 24.37617305l0 689.73965683L212.67664121 869.30794531z" p-id="4470"></path><path d="M550.84736182 241.96078672c0-10.66676836-8.64673769-19.31440518-19.31350518-19.31440518L309.33860469 222.64638154c-10.66676836 0-19.31440518 8.64673769-19.31440518 19.31440518L290.02419951 396.70177256c0 10.66676836 8.64673769 19.31440518 19.31440518 19.31440517l222.19525195 0c10.66676836 0 19.31350518-8.64673769 19.31350518-19.31440517L550.84736182 241.96078672zM512.17358223 377.34149815l-183.47560313 0 0-116.02133789 183.47560312 0L512.17358223 377.34149815z" p-id="4471"></path></svg>