<?xml version="1.0" standalone="no"?><!DOCTYPE svg PUBLIC "-//W3C//DTD SVG 1.1//EN" "http://www.w3.org/Graphics/SVG/1.1/DTD/svg11.dtd"><svg t="1642235759187" class="icon" viewBox="0 0 1024 1024" version="1.1" xmlns="http://www.w3.org/2000/svg" p-id="4184" xmlns:xlink="http://www.w3.org/1999/xlink" width="200" height="200"><defs><style type="text/css"></style></defs><path d="M559.261538 653.745231a45.449846 45.449846 0 0 0-37.612307-70.892308h-20.558769a45.449846 45.449846 0 0 0-37.651693 70.892308 57.816615 57.816615 0 0 0 95.862154 0z" fill="#515151" p-id="4185"></path><path d="M518.065231 634.052923a19.692308 19.692308 0 0 1 19.692307 19.692308 82.038154 82.038154 0 0 1-164.115692 0 19.692308 19.692308 0 1 1 39.384616 0 42.653538 42.653538 0 1 0 85.346461 0 19.692308 19.692308 0 0 1 19.692308-19.692308z" fill="#515151" p-id="4186"></path><path d="M636.061538 634.052923a19.692308 19.692308 0 0 1 19.692308 19.692308 82.038154 82.038154 0 0 1-164.076308 0 19.692308 19.692308 0 1 1 39.384616 0 42.653538 42.653538 0 0 0 85.346461 0 19.692308 19.692308 0 0 1 19.692308-19.692308z" fill="#515151" p-id="4187"></path><path d="M518.065231 204.209231h-0.984616C301.843692 214.921846 137.846154 379.510154 137.846154 574.818462c0 184.753231 154.624 298.535385 380.219077 298.535384 222.877538 0 368.088615-112.167385 368.088615-298.535384 0-200.034462-159.940923-370.609231-368.088615-370.609231zM508.297846 244.184615l10.515692-0.669538h-0.748307c185.816615 0 328.704 152.418462 328.704 331.264 0 162.067692-125.676308 259.150769-328.704 259.150769-205.981538 0-340.834462-99.249231-340.834462-259.150769 0-170.653538 141.745231-316.100923 331.067077-330.594462z" fill="#515151" p-id="4188"></path><path d="M319.409231 155.175385l-3.465846-29.026462-25.6 14.178462c-107.086769 59.116308-142.729846 148.48-104.211693 261.986461l14.41477 42.456616 21.504-39.384616c27.372308-50.136615 69.356308-88.694154 126.424615-115.987692l18.510769-8.822154-9.570461-18.116923c-21.779692-41.235692-34.382769-77.036308-38.006154-107.283692z m-33.555693 33.988923l0.984616 4.01723a377.698462 377.698462 0 0 0 22.606769 61.164308l4.174769 8.704-6.971077 3.859692a313.737846 313.737846 0 0 0-90.427077 76.406154l-3.426461 4.371693-0.315077-2.166154c-9.137231-61.715692 12.130462-111.064615 64.669538-150.134154l8.704-6.222769zM726.409846 155.175385l3.505231-28.987077 25.6 14.099692c107.913846 59.470769 140.760615 151.906462 96.492308 270.572308l-17.526154 46.946461-19.101539-46.355692c-22.567385-54.626462-61.636923-95.113846-118.035692-122.052923l-18.510769-8.822154 9.570461-18.116923c21.779692-41.235692 34.382769-77.036308 38.006154-107.283692z m33.555692 34.028307l-0.94523 3.938462a377.698462 377.698462 0 0 1-22.646154 61.203692l-4.174769 8.782769 4.332307 2.363077a267.460923 267.460923 0 0 1 86.921846 78.887385l4.726154 7.010461 0.157539-0.787692c12.130462-64.748308-7.522462-115.633231-59.707077-155.136l-8.664616-6.262154z" fill="#515151" p-id="4189"></path><path d="M535.158154 311.020308a19.692308 19.692308 0 0 1 24.497231-13.193846c104.014769 31.271385 176.443077 92.868923 215.945846 184.123076a19.692308 19.692308 0 0 1-36.155077 15.635693c-34.737231-80.265846-97.949538-134.025846-191.094154-162.067693a19.692308 19.692308 0 0 1-13.193846-24.49723z" fill="#515151" p-id="4190"></path></svg>