<?xml version="1.0" standalone="no"?><!DOCTYPE svg PUBLIC "-//W3C//DTD SVG 1.1//EN" "http://www.w3.org/Graphics/SVG/1.1/DTD/svg11.dtd"><svg t="1642235406091" class="icon" viewBox="0 0 1365 1024" version="1.1" xmlns="http://www.w3.org/2000/svg" p-id="4849" xmlns:xlink="http://www.w3.org/1999/xlink" width="266.6015625" height="200"><defs><style type="text/css"></style></defs><path d="M1137.71875015 112.27083327H167.5312504a76.59374963 76.59374963 0 0 0 0 153.18750009v638.28124997a25.5312496 25.5312496 0 1 0 51.0624992 0v-153.18750009h868.06250053v153.18750009a25.5312496 25.5312496 0 0 0 51.06250002 0V265.45833336a76.59374963 76.59374963 0 1 0 0-153.18750008zM218.5937496 265.45833336h306.37500018v434.03124984H218.56250037V265.4270833z m357.43750022 434.03124984v-204.25000011h510.6250003v204.25000011H576.06249988z m510.6250003-255.31250014H576.06249988v-178.74999976h510.6250003v178.74999976z m51.06250003-229.78124973H167.5312504a25.5312496 25.5312496 0 1 1 0-51.06250003h970.18749975a25.5312496 25.5312496 0 1 1 0 51.06250003z" p-id="4850"></path><path d="M754.75000033 367.58333342h153.18749927a25.5312496 25.5312496 0 0 0 0-51.06250004h-153.18749927a25.5312496 25.5312496 0 1 0 0 51.06250004z m153.18749927 204.25000013h-153.18749927a25.5312496 25.5312496 0 0 0 0 51.06250002h153.18749927a25.5312496 25.5312496 0 1 0 0-51.06250002z" p-id="4851"></path></svg>