<?xml version="1.0" standalone="no"?><!DOCTYPE svg PUBLIC "-//W3C//DTD SVG 1.1//EN" "http://www.w3.org/Graphics/SVG/1.1/DTD/svg11.dtd"><svg t="1642234845884" class="icon" viewBox="0 0 1024 1024" version="1.1" xmlns="http://www.w3.org/2000/svg" p-id="5291" xmlns:xlink="http://www.w3.org/1999/xlink" width="200" height="200"><defs><style type="text/css"></style></defs><path d="M740.51562473 710.0703125l64.96875-37.51171848a17.57812473 17.57812473 0 1 1 17.57812554 30.44531223L758.09375027 740.51562473l64.96875 37.51171929a17.57812473 17.57812473 0 0 1-17.57812554 30.44531223L740.51562473 770.96093777V845.98437473a17.57812473 17.57812473 0 0 1-35.15624946 0v-75.02343696l-64.96875 37.51171848a17.57812473 17.57812473 0 1 1-17.57812554-30.44531223L687.78124973 740.51562473l-64.96875-37.51171848a17.57812473 17.57812473 0 0 1 17.57812554-30.44531223L705.35937527 710.0703125V635.04687473a17.57812473 17.57812473 0 0 1 35.15624946 0v75.02343777zM213.17187473 160.43749973h597.65625054a70.31249973 70.31249973 0 0 1 70.31249973 70.31250054v210.9375a70.31249973 70.31249973 0 0 1-70.31249973 70.31249973H213.17187473a70.31249973 70.31249973 0 0 1-70.31249973-70.31249973V230.75000027a70.31249973 70.31249973 0 0 1 70.31249973-70.31250054z m0 35.15625027a35.15625027 35.15625027 0 0 0-35.15624946 35.15625027v210.9375a35.15625027 35.15625027 0 0 0 35.15624946 35.15624946h597.65625054a35.15625027 35.15625027 0 0 0 35.15624946-35.15624946V230.75000027a35.15625027 35.15625027 0 0 0-35.15624946-35.15625027H213.17187473z m52.734375 193.35937527h492.18750054a17.57812473 17.57812473 0 0 1 0 35.15624946H265.90624973a17.57812473 17.57812473 0 0 1 0-35.15624946zM221.08203098 637.68359348a17.57812473 17.57812473 0 0 1 10.23046875-33.62695258c50.625 15.3984375 77.76562527 85.16601563 34.85742187 134.52539062-28.265625 32.50195285-23.55468777 74.7949216 1.72265652 94.39453125a17.57812473 17.57812473 0 0 1-21.53320285 27.77343696c-41.09765598-31.81640598-48.37499973-97.34765625-6.73242215-145.2480466 25.0136716-28.74023438 9.21093777-69.36328098-18.54492214-77.81835965z m246.09375027 0a17.57812473 17.57812473 0 0 1 10.23046875-33.62695258c50.625 15.3984375 77.76562527 85.16601563 34.85742187 134.52539062-28.265625 32.50195285-23.55468777 74.7949216 1.72265653 94.39453125a17.57812473 17.57812473 0 0 1-21.53320367 27.77343696c-41.09765598-31.81640598-48.37499973-97.34765625-6.73242133-145.2480466 25.0136716-28.74023438 9.21093777-69.36328098-18.54492215-77.81835965z m-123.04687473 3.33984429a17.57812473 17.57812473 0 0 1 10.23046875-33.64453125c50.625 15.41601535 77.76562527 85.18359348 34.85742188 134.52539063-28.265625 32.51953152-23.55468777 74.81250027 1.7226557 94.39453125a17.57812473 17.57812473 0 1 1-21.53320285 27.79101562c-41.09765598-31.81640598-48.37499973-97.34765625-6.73242215-145.24804742 25.0136716-28.75781223 9.21093777-69.38085965-18.54492133-77.8359375z" fill="#3D3D3D" p-id="5292"></path></svg>