<?xml version="1.0" standalone="no"?><!DOCTYPE svg PUBLIC "-//W3C//DTD SVG 1.1//EN" "http://www.w3.org/Graphics/SVG/1.1/DTD/svg11.dtd"><svg t="1642235777913" class="icon" viewBox="0 0 1024 1024" version="1.1" xmlns="http://www.w3.org/2000/svg" p-id="5346" xmlns:xlink="http://www.w3.org/1999/xlink" width="200" height="200"><defs><style type="text/css"></style></defs><path d="M181.175 620.1875c-7.03125 0-12.721875 5.7-12.721875 12.721875 0 7.03125 5.7 12.721875 12.721875 12.721875h661.65c7.03125 0 12.721875-5.7 12.721875-12.721875 0-7.03125-5.7-12.721875-12.721875-12.721875H181.175z m267.9-185.484375l18.909375 17.025-34.059375 37.81875-18.909375-17.025 34.059375-37.81875z m-56.7375-51.084375l18.909375 17.025-34.059375 37.81875-18.909375-17.025 34.059375-37.81875z m141.871875-43.471875l18.909375 17.025-51.084375 56.7375-18.909375-17.025 51.084375-56.7375z m-56.7375-51.084375l18.909375 17.025-51.084375 56.7375-18.909375-17.025 51.084375-56.7375z m81.628125 212.23125L524.45 559.8125l-21.9-12.965625 34.659375-58.51875 21.890625 12.965625z m66.234375-111.58125l-34.659375 58.51875-21.9-12.965625 34.659375-58.51875 21.9 12.965625z m-300.1875-99.403125l14.1 21.1875-56.625 37.66875-14.1-21.1875 56.625-37.66875z m104.053125-77.53125l14.1 21.1875-56.625 37.66875-14.1-21.1875 56.625-37.66875z m215.90625-33.825c-43.8-39.440625-109.678125-38.83125-152.690625-0.515625l169.1625 152.315625c33.609375-46.78125 27.3375-112.359375-16.471875-151.8zM226.203125 671.084375v114.515625c0 49.190625 39.88125 89.071875 89.071875 89.071875h404.5875c49.190625 0 89.071875-39.88125 89.071875-89.071875V671.084375H226.203125z m578.446875-76.340625h38.175c21.084375 0 38.175 17.090625 38.175 38.175s-17.090625 38.175-38.175 38.175h-8.446875v114.515625c0 63.24375-51.271875 114.515625-114.515625 114.515625H315.275c-63.24375 0-114.515625-51.271875-114.515625-114.515625V671.084375h-19.575c-21.084375 0-38.175-17.090625-38.175-38.175s17.090625-38.175 38.175-38.175h598.03125V276.565625c0-49.059375-40.021875-88.9875-89.315625-88.9875h-4.14375c33.871875 51.8625 30.15 121.93125-13.246875 170.1375l-8.5125 9.459375-208.03125-187.3125 8.5125-9.459375c51.721875-57.440625 140.221875-62.08125 197.671875-10.359375 0.76875 0.69375 1.51875 1.3875 2.26875 2.090625h25.490625c63.328125 0 114.759375 51.309375 114.759375 114.43125v318.178125z" p-id="5347"></path></svg>