<?xml version="1.0" standalone="no"?><!DOCTYPE svg PUBLIC "-//W3C//DTD SVG 1.1//EN" "http://www.w3.org/Graphics/SVG/1.1/DTD/svg11.dtd"><svg t="1642234786386" class="icon" viewBox="0 0 1024 1024" version="1.1" xmlns="http://www.w3.org/2000/svg" p-id="11368" xmlns:xlink="http://www.w3.org/1999/xlink" width="200" height="200"><defs><style type="text/css"></style></defs><path d="M392 472h240c34.00000031 0 60-25.99999969 60-60V212.00000031c0-34.00000031-25.99999969-60-60-60H392c-34.00000031 0-60 25.99999969-60 60v199.99999969c0 34.00000031 25.99999969 60 60 60zM372.00000031 212.00000031c0-12 7.99999969-19.99999969 19.99999969-20.00000063h240c12 0 19.99999969 7.99999969 19.99999969 20.00000063v199.99999969c0 12-7.99999969 19.99999969-19.99999969 19.99999968H392c-12 0-19.99999969-7.99999969-19.99999969-19.99999968V212.00000031z" fill="#666666" p-id="11369"></path><path d="M812 371.99999968h-19.99999969c-43.99999969 0-79.99999969 36-80.00000062 80.00000063v75.99999937c-10.00000031-10.00000031-24-16.00000031-39.99999938-15.99999937H351.99999969c-16.00000031 0-30 6-39.99999938 15.99999937V452.00000031c0-43.99999969-36-79.99999969-80.00000062-80.00000063H212c-43.99999969 0-79.99999969 36-79.99999969 80.00000063v279.99999937c0 43.99999969 36 79.99999969 79.99999969 80.00000063h79.99999969v39.99999937c0 12 7.99999969 19.99999969 20.00000062 20.00000063s19.99999969-7.99999969 19.99999969-20.00000063v-39.99999937h360v39.99999937c0 12 7.99999969 19.99999969 19.99999969 20.00000063s19.99999969-7.99999969 20.00000062-20.00000063v-39.99999937h79.99999969c43.99999969 0 79.99999969-36 79.99999969-80.00000063V452.00000031c0-43.99999969-36-79.99999969-79.99999969-80.00000063zM332 572.00000031c0-12 7.99999969-19.99999969 19.99999969-20.00000063h320.00000062c12 0 19.99999969 7.99999969 19.99999969 20.00000063v39.99999937c0 12-7.99999969 19.99999969-19.99999969 20.00000063H351.99999969c-12 0-19.99999969-7.99999969-19.99999969-20.00000063v-39.99999937z m520.00000031 159.99999937c0 22.00000031-18 40.00000031-40.00000031 40.00000032H212c-22.00000031 0-40.00000031-18-40.00000031-40.00000032V452.00000031c0-22.00000031 18-40.00000031 40.00000031-40.00000031h19.99999969c22.00000031 0 40.00000031 18 40.00000031 40.00000031v180c0 22.00000031 18 40.00000031 40.00000031 39.99999937h399.99999938c22.00000031 0 40.00000031-18 40.00000031-39.99999937v-180c0-22.00000031 18-40.00000031 40.00000031-40.00000031h19.99999969c22.00000031 0 40.00000031 18 40.00000031 40.00000031v279.99999937z" fill="#666666" p-id="11370"></path></svg>