<?xml version="1.0" standalone="no"?><!DOCTYPE svg PUBLIC "-//W3C//DTD SVG 1.1//EN" "http://www.w3.org/Graphics/SVG/1.1/DTD/svg11.dtd"><svg t="1642235783061" class="icon" viewBox="0 0 1024 1024" version="1.1" xmlns="http://www.w3.org/2000/svg" p-id="5628" xmlns:xlink="http://www.w3.org/1999/xlink" width="200" height="200"><defs><style type="text/css"></style></defs><path d="M269.75146484 576.88800049c0 136.57379151 109.3826294 248.42834473 241.6305542 248.42834472 132.86590576 0 242.24853516-111.85455323 242.24853516-248.42834472 0-74.7756958-100.73089599-228.03497315-242.24853516-376.96838379-140.8996582 149.55139161-241.6305542 302.19268799-241.6305542 376.96838379z m525.90179443 0c0 159.43908692-127.9220581 290.45104981-284.27124023 290.4510498s-284.27124023-131.01196289-284.27124023-290.4510498c0-92.69714356 112.47253418-260.16998291 268.8217163-422.08099365l14.83154297-16.06750489 15.44952393 16.06750489c156.96716309 162.5289917 269.43969727 329.3838501 269.43969726 422.08099365z" p-id="5629"></path><path d="M732.0012207 598.51733398c3.08990479-11.74163818-6.79779052-23.48327637-21.62933349-21.62933349-9.88769531 1.85394287-16.68548584 6.79779052-17.92144776 13.59558105-22.86529541 71.68579102-80.33752442 129.77600098-156.34918213 158.203125-8.03375244 3.08990479-12.9776001 9.88769531-11.74163818 18.53942872 1.85394287 9.26971435 9.88769531 16.06750489 19.15740967 16.68548583 2.47192383 0 4.94384766-0.61798096 6.79779052-1.23596192 87.7532959-33.98895263 155.11322021-102.58483887 181.68640137-184.15832519M616.43878174 474.92114258c0-9.88769531-8.03375244-17.92144776-17.92144776-17.92144776h-58.09020996l43.87664796-44.4946289c6.79779052-7.41577148 6.79779052-18.53942872 0-25.9552002-6.79779052-6.79779052-17.92144776-6.79779052-25.33721925 0L512 433.51641846l-46.96655273-47.58453369c-6.79779052-6.79779052-17.92144776-7.41577148-25.33721925-0.61798096-3.70788575 3.70788575-5.56182862 8.03375244-5.56182861 12.9776001s1.85394287 9.26971435 4.94384766 12.9776001l43.87664795 44.4946289h-59.32617187C414.97698974 456.38171386 406.9432373 465.03344727 406.9432373 474.92114258s8.03375244 17.92144776 17.92144776 17.92144775h69.83184814v42.64068603H424.86468506c-9.88769531 0-17.92144776 8.03375244-17.92144775 17.92144776 0 9.88769531 8.03375244 17.92144776 17.92144775 17.92144776h69.83184814V635.59619141c0 9.88769531 8.03375244 17.92144776 17.92144776 17.92144775 9.88769531 0 17.92144776-8.03375244 17.92144776-17.92144775V571.94415283h67.97790526c9.88769531 0 17.92144776-8.03375244 17.92144776-17.92144775 0-9.88769531-8.03375244-17.92144776-17.92144776-17.92144776H530.53942872V493.46057128h67.97790526c9.26971435-0.61798096 17.92144776-8.6517334 17.92144776-18.5394287" p-id="5630"></path></svg>