<?xml version="1.0" standalone="no"?><!DOCTYPE svg PUBLIC "-//W3C//DTD SVG 1.1//EN" "http://www.w3.org/Graphics/SVG/1.1/DTD/svg11.dtd"><svg t="1642236484588" class="icon" viewBox="0 0 1024 1024" version="1.1" xmlns="http://www.w3.org/2000/svg" p-id="8181" xmlns:xlink="http://www.w3.org/1999/xlink" width="200" height="200"><defs><style type="text/css"></style></defs><path d="M707.2243042 532.61584473c12.80456543-13.99932862 20.03082276-32.3739624 20.03082275-51.53137207 0-31.22039795-18.86077881-58.09020997-45.77178955-69.90600586 2.47192383-3.95507813 3.96331787-8.59405518 3.96331788-13.59558106V332.62072753c0-14.22180175-11.56860352-25.79040528-25.79864502-25.79040526h-10.52215576c-5.78430176-42.55828857-33.58520508-76.80267334-76.24237062-93.79302979 0.20599365-2.05993653 0.6262207-4.07867432 0.62622071-6.17980957 0-33.87359619-27.55371094-61.42730713-61.42730712-61.42730713s-61.42730713 27.55371094-61.42730714 61.42730713c0 2.09289551 0.42022705 4.1116333 0.62622071 6.17156982-42.10510254 16.85852051-70.28503418 51.54785156-76.20117188 93.80126954H364.50854492c-14.22180175 0-25.79864502 11.56860352-25.79864502 25.79040527v64.9621582c0 5.00152588 1.49139404 9.63226318 3.96331787 13.59558106-26.91101075 11.8157959-45.77178955 38.68560791-45.77178954 69.90600586 0 19.16564942 7.22625732 37.50732422 20.03082274 51.50665283v218.31207275c-12.80456543 14.00756836-20.03082276 32.38220215-20.03082274 51.52313233 0 42.08862305 34.24438477 76.34124756 76.34124755 76.34124755h277.64648438c42.09686279 0 76.34124756-34.25262451 76.34124755-76.34124755 0-19.19036865-7.22625732-37.48260498-20.03082274-51.4819336V532.61584473zM374.8741455 342.99456787h274.40826417v44.22271729H374.8741455v-44.22271729z m102.57659913-100.68969727c9.64874268-2.56256104 15.3918457-12.46673584 12.83752441-22.11547851-0.37902832-1.41723633-0.95581055-2.72735596-1.62322998-3.96331787-1.19476318-2.97454834-1.84570313-6.10565185-1.84570312-9.36035156 0-13.93341065 11.33789063-25.27130127 25.27130127-25.27130128 13.93341065 0 25.26306153 11.33789063 25.26306152 25.27130128 0 3.49365234-0.69213867 6.86370849-2.05169678 10.01953125-2.99926758 6.92138672-1.31011963 14.68322754 3.64196778 19.78363037 2.27416992 2.79327393 5.37231445 4.96032715 9.09667969 6.0067749 35.24963379 9.9206543 58.23852539 33.37921143 64.36065673 64.16290283H411.82116699c6.3446045-31.06384278 30.18218994-55.12390137 65.62957764-64.53369141z m173.45489501 600.30670167H373.25915527c-22.15667724 0-40.1852417-18.02856445-40.1852417-40.1852417 0-11.06597901 4.67193604-21.59637451 12.71392823-29.17694093 4.41650391-3.29589844 7.30865479-8.51989747 7.30865478-14.4442749v-49.77630615h70.32623291c9.98657227 0 18.07800293-8.09967041 18.07800293-18.07800293s-8.09143067-18.07800293-18.07800292-18.07800293h-70.32623292V579.75543213h70.32623291c9.98657227 0 18.07800293-8.09967041 18.07800293-18.07800293s-8.09143067-18.07800293-18.07800292-18.07800293h-70.32623292V525.76037598c0-0.33782959-0.08239747-0.65093994-0.09887695-0.98052979-0.06591797-4.9685669-2.09289551-9.87945557-6.13037109-13.39782715a40.1720581 40.1720581 0 0 1-13.79333497-30.29754638c0-22.1484375 18.02856445-40.1852417 40.18524171-40.1852417h277.64648436c22.15667724 0 40.1852417 18.02856445 40.18524171 40.1852417 0 11.50268555-4.94384766 22.4697876-13.56262208 30.08331299-2.31536865 2.04345703-3.8973999 4.57305908-4.89440917 7.28393554-0.17303467 0.38726807-0.28839112 0.79101563-0.4284668 1.18652344-0.07415771 0.24719239-0.16479492 0.47790528-0.23071289 0.7333374-0.53558349 1.71386719-0.91461182 3.50189209-0.91461182 5.3970337V755.15490723c-0.69213867 4.08691406 0.02471924 8.29742432 2.10113526 11.94763183 1.21124268 2.3236084 2.88391114 4.33410645 4.93560791 5.93261719 8.20678711 7.5970459 12.99407959 18.16864013 12.99407959 29.39941406 0 22.1484375-18.02856445 40.17700195-40.1852417 40.17700196z" fill="#666666" p-id="8182"></path></svg>