<?xml version="1.0" standalone="no"?><!DOCTYPE svg PUBLIC "-//W3C//DTD SVG 1.1//EN" "http://www.w3.org/Graphics/SVG/1.1/DTD/svg11.dtd"><svg t="1642234806821" class="icon" viewBox="0 0 1024 1024" version="1.1" xmlns="http://www.w3.org/2000/svg" p-id="12505" xmlns:xlink="http://www.w3.org/1999/xlink" width="200" height="200"><defs><style type="text/css"></style></defs><path d="M739.41699219 869.93457031c-9.22851563 0-17.13867188-7.25097656-17.13867188-16.47949219v-17.79785156H301.72167969v17.79785156c0 9.22851563-7.91015625 16.47949219-17.13867188 16.47949219s-17.13867188-7.25097656-17.13867187-16.47949219V834.99804688l-1.97753907-0.65917969c-35.59570313-6.59179688-61.30371094-36.25488281-61.30371093-71.19140625v-164.79492188l0.65917968-18.45703125h-1.97753906C139.56347656 571.32617188 92.76171875 517.93261719 92.76171875 457.28808594c0-62.62207031 48.77929688-115.35644531 112.71972656-123.26660157h1.97753907v-63.94042968c0-53.39355469 29.66308594-107.44628906 95.58105468-107.44628907h421.875c25.70800781 0 48.12011719 8.56933594 64.59960938 25.04882813 19.11621094 19.11621094 29.66308594 48.77929688 29.66308593 82.39746094l0.65917969 63.94042968h1.97753906c61.96289063 9.22851563 108.76464844 61.96289063 108.76464844 122.60742188s-47.4609375 113.37890625-109.42382812 122.60742188h-1.97753907l0.65917969 18.45703124v165.45410157c0 34.93652344-25.70800781 64.59960938-61.30371094 71.19140625l-1.97753906 0.65917968v18.45703125c-0.65917969 9.22851563-7.91015625 16.47949219-17.13867187 16.47949219zM221.9609375 365.66210937c-52.734375 0-95.58105469 41.52832031-95.58105469 91.62597657s42.84667969 92.28515625 95.58105469 92.28515625c4.61425781 0 9.22851563 1.97753906 11.86523438 4.61425781 3.29589844 3.29589844 4.61425781 7.25097656 4.61425781 11.86523437l-0.65917969 33.61816407v164.79492187c0 21.75292969 18.45703125 40.20996094 41.52832031 40.20996094h464.72167969c23.07128906 0 41.52832031-17.79785156 41.52832031-40.20996094v-164.79492187l-0.65917968-33.61816407c0-4.61425781 1.31835938-8.56933594 4.61425781-11.86523437s7.25097656-4.61425781 11.86523437-4.61425781c52.734375 0 95.58105469-40.86914063 95.58105469-91.62597657s-42.1875-92.28515625-94.921875-92.28515624c-52.07519531 0-94.921875 40.86914063-95.58105469 90.96679687l1.31835938 16.47949219v166.77246094c0 9.22851563-7.91015625 16.47949219-17.13867188 16.47949218H332.703125c-9.22851563 0-17.13867188-7.25097656-17.13867188-16.47949218V473.10839844l1.31835938-15.8203125c0-50.75683594-42.84667969-91.62597656-94.921875-91.62597657zM309.63183594 202.18554687c-40.86914063 0-58.66699219 36.25488281-58.66699219 71.85058594v62.62207032l1.97753906 0.65917968c53.39355469 9.22851563 94.26269531 50.09765625 101.51367188 101.51367188V617.46875H670.203125V438.171875c7.91015625-51.41601563 51.41601563-93.60351563 105.46875-101.51367188h1.97753906V274.6953125c0-35.59570313-17.79785156-71.85058594-58.0078125-71.85058594H309.63183594V202.18554687z" fill="" p-id="12506"></path></svg>