<?xml version="1.0" standalone="no"?><!DOCTYPE svg PUBLIC "-//W3C//DTD SVG 1.1//EN" "http://www.w3.org/Graphics/SVG/1.1/DTD/svg11.dtd"><svg t="1642235411223" class="icon" viewBox="0 0 1024 1024" version="1.1" xmlns="http://www.w3.org/2000/svg" p-id="5130" xmlns:xlink="http://www.w3.org/1999/xlink" width="200" height="200"><defs><style type="text/css"></style></defs><path d="M890.56524658 502.45507812h-3.43927002V475.57208252c-0.03460693-28.23596191-22.8265686-51.23556518-50.84005737-51.27099609h-26.12905884V283.96255493c0-62.28259277-46.14587402-112.95373536-102.86828613-112.95373535h-404.62097169c-56.72158813 0-102.86828614 50.67114258-102.86828612 112.95373535v140.3385315h-15.28060914c-27.98135376 0.03460693-50.77331543 23.03585815-50.80709839 51.3031311v26.85086059h-0.31311034C109.56832886 502.48803711 90.15631104 522.04507446 90.125 546.08618164v167.29980469c0.03131104 24.0081482 19.4449768 43.56518555 43.30975342 43.5956726h63.99234009v56.21484375c0 21.94326782 17.73934937 39.79467773 39.54418945 39.79467774h86.29238892c21.80484008 0 39.54418945-17.85140992 39.54418945-39.79467774v-56.21484375h280.20657349v56.21484375c0 21.94326782 17.73934937 39.79467773 39.54418945 39.79467774h86.29238891c21.80484008 0 39.54418945-17.85140992 39.54418945-39.79467774v-56.21484375h82.20465089c23.83264161-0.03048706 43.24548339-19.58834839 43.27597046-43.63027953V546.05322266c-0.03131104-24.00732422-19.44415283-43.56518555-43.3105774-43.59814454zM252.53121948 283.96255493c0-33.20535278 22.49121094-60.21936036 50.13638306-60.21936035h404.62097168c27.64517212 0 50.13638305 27.01400757 50.13638305 60.21936035v140.3385315h-18.12991332V363.44561768c-0.02883911-26.06890869-21.08633422-47.30108643-46.96902466-47.33074952h-124.49432374c-25.85467529 0.02966309-46.91217041 21.26266479-46.93936157 47.3604126v60.82580567h-9.13870239v-60.85382081c-0.02801513-26.06973266-21.08551026-47.30273438-46.96984863-47.33157348H340.2902832c-25.85467529 0.02966309-46.91134643 21.26184082-46.93936157 47.3604126v60.82580566h-40.81970215v-140.33935547z m434.03192139 140.3385315H573.62423706v-55.45101929h112.93890381v55.45101929z m-227.54141235 0H346.08282471v-55.45101929h112.93890381v55.45101929z m-272.57821656 52.734375h647.95056153v25.41961669H186.44351196v-25.41961669z m123.63162232 323.22134399h-59.9161377v-43.27514649h59.91613769v43.27514649z m445.58734131 0H695.74633789v-43.27514649h59.9161377v43.27514649z m125.48062133-96.00952149H142.85690307V555.18945313h738.28619385v149.0578308z" p-id="5131"></path></svg>