<?xml version="1.0" standalone="no"?><!DOCTYPE svg PUBLIC "-//W3C//DTD SVG 1.1//EN" "http://www.w3.org/Graphics/SVG/1.1/DTD/svg11.dtd"><svg t="1642236457835" class="icon" viewBox="0 0 1024 1024" version="1.1" xmlns="http://www.w3.org/2000/svg" p-id="6759" xmlns:xlink="http://www.w3.org/1999/xlink" width="200" height="200"><defs><style type="text/css"></style></defs><path d="M784.4 224.1c0.4-9.9-7.4-18.2-17.3-18.6-9.8-0.3-18.2 7.4-18.6 17.3-0.2 4.7-19.3 465.6-233.6 465.6-214.4 0-233.5-461-233.7-465.6-0.4-9.9-8.5-17.9-18.6-17.3-9.9 0.4-17.6 8.7-17.3 18.6 0.7 20.4 20.7 500.2 269.5 500.2 0.9 0 1.8-0.2 2.7-0.2L499 761.5l-51 7.5c-3.4 0.5-6.2 2.9-7.2 6.1-1.1 3.2-0.2 6.8 2.3 9.2l37 36-8.7 50.9c-0.6 3.4 0.8 6.8 3.6 8.8 1.6 1.1 3.4 1.7 5.3 1.7 1.4 0 2.9-0.3 4.2-1l45.7-24 45.7 24c3 1.6 6.7 1.3 9.4-0.7 2.8-2 4.1-5.4 3.6-8.8l-8.7-50.9 37-36c2.4-2.4 3.3-5.9 2.3-9.2-1.1-3.2-3.9-5.6-7.2-6.1l-51.1-7.4-19.4-39.4C765 689.3 783.7 243.8 784.4 224.1z" fill="#333333" p-id="6760"></path></svg>