<?xml version="1.0" standalone="no"?><!DOCTYPE svg PUBLIC "-//W3C//DTD SVG 1.1//EN" "http://www.w3.org/Graphics/SVG/1.1/DTD/svg11.dtd"><svg t="1642310877451" class="icon" viewBox="0 0 1024 1024" version="1.1" xmlns="http://www.w3.org/2000/svg" p-id="3612" xmlns:xlink="http://www.w3.org/1999/xlink" width="200" height="200"><defs><style type="text/css"></style></defs><path d="M755.68022234 143.92230637L268.31893472 143.92230637c-51.76187402 0-93.72348633 41.96161231-93.72348633 93.72348633l0 59.63968926c0 0.00084293 0 0.00168667 0 0.00168669 0 0.00084293 0 0.00168667 0 0.00168667l0 489.06366448c0 51.76187402 41.96161231 93.72348633 93.72348633 93.72348633l487.36128762 0c51.76187402 0 93.72348633-41.96161231 93.72348633-93.72348633L849.40370868 237.64579351C849.40370868 185.8839195 807.44293931 143.92230637 755.68022234 143.92230637zM268.31893472 178.00357465l487.36128762-1e-8c32.9396045 0 59.64221887 26.70261438 59.64221888 59.64221887l0 42.60158516L208.67671585 280.24737867l0-42.60158515C208.67671585 204.70618903 235.37933022 178.00357465 268.31893472 178.00357465zM755.68022234 845.99558243L268.31893472 845.99558243c-32.9396045 0-59.64221887-26.70261438-59.64221887-59.64221888L208.67671585 314.32864612l606.64572537 0 0 472.02471743C815.32244123 819.29296805 788.61982685 845.99558243 755.68022234 845.99558243z" p-id="3613"></path><path d="M512.83221683 355.87878775c-124.03068805 0-224.93636801 100.90567996-224.936368 224.93636801s100.90567996 224.93636801 224.936368 224.93636801 224.93636801-100.90567996 224.93636801-224.93636801S636.86206195 355.87878775 512.83221683 355.87878775zM512.83221683 389.9600552c92.34826282 0 169.58086797 65.93232898 187.11560467 153.19538389-1.40642166 1.01771658-2.68383691 2.26309075-3.76394815 3.73949587-0.11467254 0.15683121-11.69909966 15.86102756-31.33250629 31.74987992-17.55497269 14.20502563-45.07294042 31.13941855-76.47121472 31.13941854-30.668082 0-52.52157779-16.11566702-75.65586136-33.17569463-24.45976043-18.03895725-49.75342356-36.69090463-85.66270174-36.69090463-44.21374173 0-82.13568668 29.12506595-104.78177024 51.54770654-0.19477441-3.52617215-0.30270108-7.07595282-0.30270108-10.65018577C321.97711709 475.57722577 407.59428684 389.9600552 512.83221683 389.9600552zM512.83221683 771.66941257c-86.70571353 0-160.08246442-58.12365427-183.23951358-137.44987179 9.48406971-11.91073672 50.83943692-60.22148209 97.46888515-60.22148209 24.70175189 0 43.57714224 13.92003094 65.43485432 30.03907131 25.31474287 18.66796792 54.0072584 39.82752795 95.88370962 39.82752796 51.00469986 0 92.06411188-31.36707697 115.08878211-54.04773037C698.75050812 690.89040008 615.05072565 771.66941257 512.83221683 771.66941257z" p-id="3614"></path><path d="M299.82429275 257.04311082c14.09456854 0 25.56095059-11.46638205 25.5609506-25.5609506S313.9188613 205.92120881 299.82429275 205.92120881s-25.56095059 11.46638205-25.56095059 25.56095058S285.72972339 257.04311082 299.82429275 257.04311082z" p-id="3615"></path><path d="M385.02746222 257.04311082c14.09456854 0 25.56095059-11.46638205 25.56095059-25.5609506S399.12118783 205.92120881 385.02746222 205.92120881s-25.56095059 11.46638205-25.5609506 25.56095058S370.93289368 257.04311082 385.02746222 257.04311082z" p-id="3616"></path></svg>