<?xml version="1.0" standalone="no"?><!DOCTYPE svg PUBLIC "-//W3C//DTD SVG 1.1//EN" "http://www.w3.org/Graphics/SVG/1.1/DTD/svg11.dtd"><svg t="1642236487298" class="icon" viewBox="0 0 1024 1024" version="1.1" xmlns="http://www.w3.org/2000/svg" p-id="8323" xmlns:xlink="http://www.w3.org/1999/xlink" width="200" height="200"><defs><style type="text/css"></style></defs><path d="M655.41759796 148.28493117c6.60900073 0 12.85128721 2.94186117 16.89329038 7.71729139l123.77819018 146.54705352c3.30042603 3.66713955 5.1339958 8.80928474 5.50885872 13.95142922V532.37299849H757.51891741V340.00299641H653.94259303a22.10062919 22.10062919 0 0 1-22.02728619-22.03543485V191.98093797H224.96058504c-5.86742359 0-10.65100391 4.78358032-10.65100318 10.6591533v593.15577894c0 5.87557296 4.77543095 10.65100391 10.65100318 10.65100391H524.20733753v44.07087042H224.96873442c-29.47565448 0-53.67062718-23.56748473-54.68112814-52.80681218l-0.04074619-1.91506215V203.01495417C170.23871143 172.89551294 194.84929321 148.28493117 224.96873442 148.28493117z m20.56857932 80.07403327v67.93987579h57.28887188l-57.28887188-67.93987579z" p-id="8324"></path><path d="M563.23385391 397.30816706H346.16362828a22.10062919 22.10062919 0 0 1-22.03543485-22.04358424 22.10062919 22.10062919 0 0 1 22.03543485-22.03543558H563.2420033a22.10062919 22.10062919 0 0 1 22.03543485 22.03543558 22.10062919 22.10062919 0 0 1-22.03543485 22.04358424z m-36.72844193 134.05433045h-180.3417837a22.10062919 22.10062919 0 0 1-22.03543485-22.03543486 22.10062919 22.10062919 0 0 1 22.03543486-22.03543558h180.34178369a22.10062919 22.10062919 0 0 1 22.03543557 22.03543558 21.86430217 21.86430217 0 0 1-22.03543557 22.03543486z m-77.49888635 139.56318989h-102.84289734a22.10062919 22.10062919 0 0 1-22.03543486-22.03543557 22.10062919 22.10062919 0 0 1 22.03543486-22.03543486h102.84289734a22.10062919 22.10062919 0 0 1 22.03543486 22.03543486 22.10062919 22.10062919 0 0 1-22.03543486 22.03543557zM686.33566055 882.78857422a25.66997833 25.66997833 0 0 1-19.15061864-8.64630072c-34.50371049-38.45607192-37.17664784-80.6200303-31.45591025-112.7686214-18.75945697 27.5035481-18.77575573 56.32726647-16.45323315 73.23685489a19.05282822 19.05282822 0 0 1-8.60555452 18.62092109c-6.27488328 3.99310761-14.01662283 3.94421276-20.22631323-0.11408918-49.93014462-32.72718495-81.54088952-90.29313005-82.51064431-150.25493927-0.83121818-51.89410235 21.0249346-97.35848532 59.96180922-124.7316462 75.60827233-53.13278024 67.36943204-97.34218727 67.27979102-97.78224379L629.86170808 459.03020379l21.15532183 6.07115379c90.57835191 25.09138522 109.37040568 104.15491822 112.44265408 149.53780953 1.0349484-4.13164422 1.87431596-8.64630072 2.47735651-13.47062724a23.32300903 23.32300903 0 0 1 13.72325157-18.5394287 23.00518964 23.00518964 0 0 1 22.77701272 2.11879237c25.21362305 17.58597268 43.40263627 56.72657752 44.16866085 58.3890139l0.61933931 1.63798893c17.73265796 58.4868043 14.20405428 108.67772339-10.48801987 149.19554344-39.48287093 64.78613574-121.62680172 84.05899222-145.86252061 88.41881335-1.5157511 0.26892383-3.0315022 0.39931105-4.53910392 0.39931106z m-44.15236281-167.34381049c3.35747026 0 23.02148841 1.06754521 25.95520019 3.21078501a16.74660512 16.74660512 0 0 1 5.76963317 19.72921175c-9.15970023 23.99939258-19.19951421 70.24609889 16.42878644 110.38905532 20.17741765-3.4797081 87.82392218-19.39509432 119.23093687-71.51737431 19.06912698-31.6433417 21.58722895-71.7944468 7.49726314-119.34502532-4.18053906-8.91522382-16.34729408-31.01585301-29.86681543-42.20470385-1.86616658 12.56606533-6.00596018 28.63628692-15.19010782 40.06146405a18.63721913 18.63721913 0 0 1-21.26941102 5.78593193 19.08542503 19.08542503 0 0 1-12.13415747-18.62092109c1.22237985-31.6107449-11.97932283-104.64386958-80.38370329-132.7993538-2.95815922 21.51388668-17.01552822 58.19343307-71.95743082 97.25254624-29.52454933 20.98418842-46.083723 56.22947605-45.43178688 96.71469859 0.6926823 43.76120113 20.11222404 83.05664063 53.57283675 110.17717644-0.57044374-24.78986457 6.8616258-62.39027089 45.3910407-94.89742757 3.08854643-2.60774374 6.80458156-3.93606338 10.53691545-3.93606339h-8.14919998z" p-id="8325"></path></svg>