<?xml version="1.0" standalone="no"?><!DOCTYPE svg PUBLIC "-//W3C//DTD SVG 1.1//EN" "http://www.w3.org/Graphics/SVG/1.1/DTD/svg11.dtd"><svg t="1642236460990" class="icon" viewBox="0 0 1024 1024" version="1.1" xmlns="http://www.w3.org/2000/svg" p-id="6901" xmlns:xlink="http://www.w3.org/1999/xlink" width="200" height="200"><defs><style type="text/css"></style></defs><path d="M772.71071625 164.38571167a34.76142883 34.76142883 0 0 1 34.76142883 34.76142883v625.705719a34.76142883 34.76142883 0 0 1-32.15432167 34.67452526L772.71071625 859.61428833H251.28928375a34.76142883 34.76142883 0 0 1-34.76142883-34.76142883V199.1471405a34.76142883 34.76142883 0 0 1 34.76142884-34.76142883h521.42143249z m-17.38071442 538.80214691H268.66999817a17.38071443 17.38071443 0 0 0-17.38071442 17.38071442v86.90357208a17.38071443 17.38071443 0 0 0 17.38071442 17.38071442h486.66000366a17.38071443 17.38071443 0 0 0 17.38071442-17.38071442v-86.90357208a17.38071443 17.38071443 0 0 0-17.38071442-17.38071442z m-364.99500275 52.14214325a17.38071443 17.38071443 0 1 1 1e-8 34.76142883H303.431427a17.38071443 17.38071443 0 1 1 0-34.76142883h86.90357209z m86.90357209 0a17.38071443 17.38071443 0 1 1 0 34.76142883h-17.38071443a17.38071443 17.38071443 0 1 1 1e-8-34.76142883h17.38071442zM772.71071625 199.1471405H251.28928375v469.27928925h521.42143249V199.1471405zM512 251.28928375a17.38071443 17.38071443 0 0 1 17.38071443 17.38071442v18.33665371A156.49595261 156.49595261 0 0 1 667.48787117 425.09642791H685.80714417a17.38071443 17.38071443 0 1 1 0 34.76142884h-18.33665371a156.49595261 156.49595261 0 0 1-138.07239533 138.08977603L529.38071443 616.2842865a17.38071443 17.38071443 0 1 1-34.76142886 0v-18.33665371a156.49595261 156.49595261 0 0 1-138.08977603-138.07239532L338.19285583 459.85785674a17.38071443 17.38071443 0 1 1 0-34.76142883h18.33665371A156.49595261 156.49595261 0 0 1 494.61928557 287.00665188V268.66999817a17.38071443 17.38071443 0 0 1 17.38071443-17.38071442z m17.39809513 70.75688839L529.38071443 338.19285583a17.38071443 17.38071443 0 1 1-34.76142886 0v-16.1640644A121.75190449 121.75190449 0 0 0 391.55164909 425.09642791H407.7157135a17.38071443 17.38071443 0 1 1 0 34.76142884l-16.14668369 0.01738072A121.75190449 121.75190449 0 0 0 494.61928557 562.90811252V546.76142883a17.38071443 17.38071443 0 1 1 34.76142886 0l0.0173807 16.14668369a121.75190449 121.75190449 0 0 0 103.03287506-103.03287505L616.2842865 459.85785674a17.38071443 17.38071443 0 1 1 0-34.76142883h16.16406441A121.75190449 121.75190449 0 0 0 529.38071443 322.04617214z" fill="#202020" p-id="6902"></path></svg>