<?xml version="1.0" standalone="no"?><!DOCTYPE svg PUBLIC "-//W3C//DTD SVG 1.1//EN" "http://www.w3.org/Graphics/SVG/1.1/DTD/svg11.dtd"><svg t="1642234799399" class="icon" viewBox="0 0 1024 1024" version="1.1" xmlns="http://www.w3.org/2000/svg" p-id="12078" xmlns:xlink="http://www.w3.org/1999/xlink" width="200" height="200"><defs><style type="text/css"></style></defs><path d="M854.1125 487.8935a28.215 28.215 0 0 0 3.3075-13.3965 28.6965 28.6965 0 0 0-14.841-25.245 27.675 27.675 0 0 0-13.977-3.645 28.782 28.782 0 0 0-24.534 13.608c-21.8115-8.271-44.829-12.222-68.013-12.168-52.533 0-106.191 19.944-153.0495 55.629l11.565 25.956a43.065 43.065 0 0 1 8.415-0.855c6.6375 0.036 12.717 1.5525 18.2835 4.644 8.5725 4.8015 14.6025 12.717 18.1665 23.445l4.1445 13.0095 13.2705-3.3435a45.3015 45.3015 0 0 1 11.2455-1.3905c6.579 0 12.6315 1.4175 18.2115 4.5765 8.4555 4.7295 14.5215 12.699 18.0945 23.463l4.1265 13.005 13.2345-3.3435a35.7885 35.7885 0 0 1 8.6625-1.0485c3.5775 0 7.4025 0.657 11.5335 1.962l-95.8905 174.555c-33.3765-6.4935-70.542-11.07-110.016-11.1015-26.4015 0.0315-51.786 2.079-75.735 5.337l-51.66-357.579c9.585 1.2645 16.668 4.554 24.462 10.674l11.3355 9.162 9.252-11.313c11.7225-14.3955 26.3475-23.4495 42.9795-25.7805a54.648 54.648 0 0 1 8.451-0.6255c13.8375 0 27.486 4.734 40.149 13.5765l11.1555 7.83 8.5725-10.5525c11.7225-14.409 26.352-23.463 43.128-25.83a58.9545 58.9545 0 0 1 8.3745-0.567c16.4565 0 32.859 6.687 47.3085 19.215l22.185-18.288c-65.754-114.444-173.0475-188.811-289.395-189.252v-0.4455c0-1.566-0.09-3.15-0.3195-4.8915a36.1215 36.1215 0 0 0-35.757-31.0815c-1.7595 0-3.4515 0.09-5.157 0.3555-17.8965 2.5425-30.9915 17.8605-31.041 35.721 0 1.7595 0.1215 3.5055 0.3915 5.175a28.35 28.35 0 0 0 0.837 4.2885c-110.3355 29.7-193.293 126.567-227.646 250.3845l24.8535 13.752c11.1555-12.258 24.6915-20.0115 40.041-22.149a60.75 60.75 0 0 1 8.361-0.567c13.842 0 27.54 4.6935 40.1895 13.518l11.1555 7.8435 8.541-10.584c11.691-14.355 26.3115-23.3775 43.0695-25.7445a61.7265 61.7265 0 0 1 8.307-0.621c13.824 0.054 27.5715 4.7295 40.221 13.608l11.1555 7.848 8.5905-10.602c8.523-10.4085 19.692-18.288 37.0215-22.239l52.092 360.4815c-90.855 16.92-154.08 49.3335-154.935 49.689a14.6295 14.6295 0 0 0-7.542 16.4205 14.598 14.598 0 0 0 14.1795 11.1555h505.7415a14.5665 14.5665 0 0 0 14.175-11.1555 14.5665 14.5665 0 0 0-7.5465-16.4205c-0.729-0.3195-48.177-24.642-119.7765-42.129l90.1575-164.0565c1.278 2.277 2.187 4.734 3.0555 7.758l3.5055 14.175 14.1975-3.483c3.8925-0.981 7.686-1.44 11.439-1.44 6.5475 0 12.5415 1.476 18.0225 4.536 8.5365 4.8375 14.661 12.7575 18.162 23.4675l4.1445 12.897 13.1715-3.1635a46.557 46.557 0 0 1 11.3985-1.4085c6.543 0 12.5955 1.476 18.1845 4.536 9.819 5.571 16.56 15.4125 19.44 28.818l28.773-1.152c1.6155-12.969 2.4885-25.7985 2.4885-38.502 0.0585-71.694-26.577-137.7675-77.8455-178.9155zM359.549 185.0345c0.477-0.09 0.747-0.09 1.0125-0.09h0.054c3.2895 0 6.3315 2.5425 6.777 6.048 0.036 0.18 0.09 0.4275 0.09 0.783 0 1.4805-0.7515 3.3255-2.6325 5.0895l-3.3795 3.042-4.077-2.187c-2.511-1.4085-3.5055-2.88-3.771-4.8195-0.09-0.4275-0.09-0.783-0.09-1.0485 0.018-3.3165 2.565-6.39 6.0165-6.8175z m-30.9375 225.117c-14.175-7.704-29.8485-12.186-46.1295-12.114-4.0725 0-8.2215 0.2475-12.4335 0.837-20.4975 2.88-38.5515 12.681-52.929 26.7345-14.1435-7.668-29.727-12.042-45.936-12.042-4.0725 0-8.217 0.2655-12.4695 0.8685-6.705 0.927-13.1805 2.601-19.3005 4.914 40.401-103.3605 117.9315-177.1875 213.696-194.4135l9.3195-1.7055 13.4325-1.1025a257.112 257.112 0 0 1 19.908-0.783c88.9875-0.09 174.699 49.1895 236.4345 131.3595-5.175-0.8685-10.4265-1.35-15.7095-1.35-4.0905 0-8.253 0.2655-12.483 0.8685-20.4795 2.9025-38.6055 12.7035-52.983 26.739-14.085-7.65-29.655-12.0825-45.9135-12.0825-4.113 0-8.307 0.3195-12.564 0.873-20.2275 2.7945-38.142 12.5235-52.443 26.361-11.6505-6.579-25.047-10.1205-39.744-9.9945-5.517 0-11.295 0.4455-17.379 1.314-22.689 3.0825-40.9095 12.1905-54.3735 24.7185z m383.427 414.189H360.116a634.185 634.185 0 0 1 75.627-19.125l0.18 1.3905 28.89-4.1265-0.3015-1.9755c22.698-3.096 46.737-5.0715 71.568-5.0355 67.7115 0 129.546 14.1435 174.2895 28.359 0.603 0.171 1.152 0.315 1.6695 0.513z m183.42-172.1385c-10.089-5.661-21.222-8.2935-32.256-8.2935h-0.1215c-1.9395 0-3.861 0.072-5.778 0.2295-5.9625-11.574-14.895-21.6495-26.829-28.3185-10.071-5.6745-21.2805-8.2395-32.292-8.2395-1.8495 0-3.6495 0.0405-5.499 0.162-5.58-10.764-14.958-19.872-27.2205-26.415-11.718-6.5835-23.679-9.7155-35.01-9.675-1.0665 0-2.007 0-3.024 0.072-5.922-11.691-14.9265-21.816-26.9325-28.4985a66.231 66.231 0 0 0-32.391-8.2395c-1.908 0-3.843 0.072-5.769 0.1935-5.9715-11.529-14.8725-21.5595-26.802-28.215-1.1295-0.603-2.2635-1.2105-3.4065-1.7415 33.8895-19.053 69.741-29.034 103.932-29.034 25.6545 0 50.346 5.5665 73.1745 17.1135l5.355 2.7045 7.3485 4.68c49.545 31.4145 78.0075 88.8615 80.622 156.0555a66.4515 66.4515 0 0 0-7.101-4.5405z" p-id="12079"></path></svg>