<?xml version="1.0" standalone="no"?><!DOCTYPE svg PUBLIC "-//W3C//DTD SVG 1.1//EN" "http://www.w3.org/Graphics/SVG/1.1/DTD/svg11.dtd"><svg t="1642236467778" class="icon" viewBox="0 0 1024 1024" version="1.1" xmlns="http://www.w3.org/2000/svg" p-id="7189" xmlns:xlink="http://www.w3.org/1999/xlink" width="200" height="200"><defs><style type="text/css"></style></defs><path d="M512.26953686 192.40192965c61.63500063 0 119.82237362 24.99835566 163.78607601 69.82430443 43.96370239 45.25707197 67.66936742 104.30601239 67.66936742 168.52707323 0 94.82401795-45.25639303 144.8214082-106.89139367 212.49077563l-4.74167614 4.74167615-1.29336957 1.29269063v1.29336957c-48.70469962 53.44569682-55.60063385 92.66772307-60.34163106 116.37406703 0 1.29336956-1.29336956 3.44830658-1.29336957 4.74099721-6.03436678 1.29336956-21.55072801 3.44830658-53.44569684 3.44830659-28.44734118 0-47.41200898-1.29336956-58.18737298-2.58673913v-1.29269064c-4.74099721-23.70566503-12.06873358-62.9283702-66.37667678-121.11506425l-10.77468508-12.06873357c-58.18737298-66.37599784-99.5656941-115.94294384-99.5656941-207.31865522 0-64.22106083 23.70634395-123.27000127 67.67004634-168.52707323 43.96370239-44.82526984 102.15107538-69.82430443 163.78607602-69.82430443z m0-28.01621798c-71.97992037 0-137.92547397 30.17115499-184.04411338 78.87585461-47.84245324 48.70469962-76.72023866 114.65025321-76.72023866 188.78443166 0 105.59938196 52.15232726 163.35563176 112.49463726 230.59387599l4.74167615 4.74167614c107.75364005 115.94294384-1.29336956 131.89042825 146.97566628 133.18379783 141.37378055 0 41.80876538-26.72284842 137.92547397-131.89110719l1.29336957-1.29269064 4.74099722-4.74167614c61.20387744-68.53161381 112.49531619-124.99449402 112.49531619-230.59319706 0-74.13485739-28.87846436-140.08041099-76.28979441-188.78443165C649.76388764 194.55618774 583.81765512 164.38571167 512.26953686 164.38571167" p-id="7190"></path><path d="M575.62903024 824.70213611H448.47892029c-6.89593423 0-11.63693145 4.74099721-11.63693146 11.63693146v11.63761037c0 6.89661316 4.74099721 11.63761039 11.63693146 11.63761039h127.58123314c6.89593423 0 11.63693145-4.74099721 11.63693146-11.63693145v-11.63761039c-0.43112319-6.89661316-4.74099721-11.63761039-12.06805465-11.63761038z" p-id="7191"></path><path d="M510.97616728 492.38898688l-22.41229545-9.48267338 44.39414667-115.08137638H452.79015218l54.3079432-131.02886081 22.41297439 9.91379656-39.65382836 96.54715284H571.31847729l-60.34231001 149.13196117z" p-id="7192"></path></svg>