<?xml version="1.0" standalone="no"?><!DOCTYPE svg PUBLIC "-//W3C//DTD SVG 1.1//EN" "http://www.w3.org/Graphics/SVG/1.1/DTD/svg11.dtd"><svg t="1642234796935" class="icon" viewBox="0 0 1024 1024" version="1.1" xmlns="http://www.w3.org/2000/svg" p-id="11936" xmlns:xlink="http://www.w3.org/1999/xlink" width="200" height="200"><defs><style type="text/css"></style></defs><path d="M524.74484375 773.86625c88.83 0 157.190625-51.3675 157.190625-108.54 0-57.15984375-68.360625-108.523125-157.190625-108.523125-88.83 0-157.19484375 51.36328125-157.19484375 108.523125 0 57.1725 68.360625 108.54 157.19484375 108.54z m0 37.84640625c-107.7553125 0-195.04125-65.65640625-195.04125-146.3821875 0-80.713125 87.2859375-146.36953125 195.04125-146.36953125 107.75109375 0 195.03703125 65.65640625 195.03703125 146.36953125 0 80.7215625-87.2859375 146.3821875-195.03703125 146.3821875z m-146.3821875-298.164375c37.4625 0 67.58859375-30.12609375 67.58859375-67.58859375s-30.12609375-67.58859375-67.58859375-67.58859375-67.58859375 30.1303125-67.58859375 67.58859375 30.12609375 67.58859375 67.58859375 67.58859375z m0-37.45828125c-16.60921875 0-29.73796875-13.52109375-29.73796875-29.7421875 0-16.22109375 13.52109375-29.73796875 29.73796875-29.73796875 16.60921875 0 29.73796875 13.52109375 29.73796875 29.73796875 0.00421875 16.22109375-13.12875 29.7421875-29.73796875 29.7421875z m292.7559375 37.45828125c37.46671875 0 67.58859375-30.12609375 67.58859375-67.58859375s-30.12609375-67.58859375-67.58859375-67.58859375-67.58859375 30.1303125-67.58859375 67.58859375 30.12609375 67.58859375 67.58859375 67.58859375z m0-37.45828125c-16.605 0-29.73796875-13.52109375-29.73796875-29.7421875 0-16.22109375 13.516875-29.73796875 29.73796875-29.73796875 16.60921875 0 29.7421875 13.52109375 29.7421875 29.73796875 0 16.22109375-13.516875 29.7421875-29.7421875 29.7421875z m162.5990625 240.2240625c33.2184375-51.75140625 51.37171875-111.22734375 51.37171875-173.02359375 0-185.77265625-161.44734375-336.01078125-360.34453125-336.01078125-198.90140625 0-360.34453125 149.85421875-360.34453125 336.01078125 0 186.16078125 161.443125 336.01078125 360.34453125 336.01078125 91.918125 0 178.43625-32.44640625 244.8646875-89.21390625 7.7203125-6.9525 8.88046875-18.9253125 1.92796875-26.6540625-6.94828125-7.7203125-18.9253125-8.87625-26.64984375-1.92796875-59.0878125 50.98359375-137.10515625 80.33765625-220.1428125 80.33765625-178.43625 0-322.49390625-133.633125-322.49390625-298.16859375 0-164.143125 144.05765625-298.16015625 322.49390625-298.16015625s322.4896875 133.633125 322.4896875 298.16015625c0 54.45984375-15.83296875 106.60359375-45.1828125 152.55421875-5.7965625 8.8846875-3.0965625 20.4778125 5.79234375 26.274375 8.4965625 5.40421875 20.08125 2.69578125 25.87359375-6.18890625z m0.7678125-321.33375c31.674375-25.4896875 50.5996875-64.11234375 50.5996875-105.43921875 0-74.92921875-60.6403125-135.5653125-135.5653125-135.5653125-54.84375 0-103.8909375 32.8303125-125.13234375 82.64953125l34.75828125 14.67703125c15.0609375-35.9184375 50.59546875-59.8640625 89.9859375-59.8640625 54.0675 0 97.71046875 43.64296875 97.71046875 97.7146875 0 30.121875-13.51265625 57.54796875-36.298125 76.08515625l23.94140625 29.7421875zM230.05671875 365.63046875c-22.78546875-18.54140625-36.3065625-46.3471875-36.3065625-76.08515625 0-54.07171875 43.64296875-97.7146875 97.7146875-97.7146875 39.7828125 0 74.92921875 23.945625 89.99015625 59.8640625l34.75828125-14.67703125c-21.24140625-49.8234375-69.90890625-82.64953125-125.1365625-82.64953125-74.92921875 0-135.5653125 60.63609375-135.5653125 135.56109375 0 41.326875 18.9253125 79.94953125 50.59546875 105.43921875l23.94984375-29.73796875z m303.56859375 294.29578125c28.9659375 0 52.14375-23.56171875 52.14375-52.1353125 0-28.9659375-23.5659375-52.14375-52.14375-52.14375-28.5778125 0-52.13953125 23.56171875-52.13953125 52.14375 0 28.57359375 23.17359375 52.1353125 52.13953125 52.1353125z m0-37.84640625c-8.11265625 0-14.28890625-6.564375-14.28890625-14.28890625s6.564375-14.293125 14.28890625-14.293125c8.11265625 0 14.28890625 6.56859375 14.28890625 14.293125s-6.17625 14.28890625-14.28890625 14.28890625z" p-id="11937"></path></svg>