<?xml version="1.0" standalone="no"?><!DOCTYPE svg PUBLIC "-//W3C//DTD SVG 1.1//EN" "http://www.w3.org/Graphics/SVG/1.1/DTD/svg11.dtd"><svg t="1642235762122" class="icon" viewBox="0 0 1189 1024" version="1.1" xmlns="http://www.w3.org/2000/svg" p-id="4327" xmlns:xlink="http://www.w3.org/1999/xlink" width="232.2265625" height="200"><defs><style type="text/css"></style></defs><path d="M917.32208508 512.93272525h63.11831809v237.31354193S985.06860757 910.92288403 813.2937457 933.875H339.75287213S186.50263379 920.36819973 179.74923407 754.96892462v-242.03619937h60.98131522v248.1048144s5.90332159 108.0189852 120.66390142 112.75344936H786.71699014s126.92142169 3.37669986 130.29812238-120.85280667z" p-id="4328"></path><path d="M443.72217868 90.125m30.22500778 0l212.29526431 0q30.22500861 0 30.22500861 30.22500861l0 0q0 30.22500861-30.2250086 30.22500778l-212.29526432 0q-30.22500861 0-30.22500778-30.22500778l0 0q0-30.22500861 30.22500779-30.22500861Z" p-id="4329"></path><path d="M90.125 455.08016934m30.22500861 0l919.48962084 0q30.22500861 0 30.22500778 30.22500861l0 0q0 30.22500861-30.22500778 30.2250086l-919.48962084 0q-30.22500861 0-30.22500861-30.2250086l0 0q0-30.22500861 30.22500861-30.22500861Z" p-id="4330"></path><path d="M808.09882227 931.43102457H353.61387189c-21.4526717 0-76.05840015-5.1004704-121.43133243-50.47340268s-50.40256311-99.97866074-50.47340268-121.34868612l-1.51125019-282.09614256 60.45001639-0.33058603 1.51125019 282.17878968c0 10.89753223 2.49120154 48.57253281 32.76343707 78.85657425s67.95904202 32.72801688 78.78573468 32.76343707h454.39049735a111.58459194 111.58459194 0 0 0 111.45471871-111.45471872V476.30851559h60.45001639v283.21777387c0 94.78373731-77.12099781 171.90473511-171.9047351 171.90473511zM956.62640317 407.88901431A30.4611416 30.4611416 0 0 1 928.39671748 388.79767092c-10.17732733-24.79395218-39.57587046-49.10383163-84.02788505-68.64382754-66.31791861-29.16241013-160.18073823-45.23125314-264.26811045-45.23125314s-197.95019182 16.06884219-264.31533736 45.23125314c-44.45201459 19.53999591-73.85055772 43.80264926-84.02788422 68.64382754a30.44933486 30.44933486 0 0 1-28.18245878 19.09134339c-21.25195889-0.05903284-36.06929737-21.53531882-28.13523266-41.2642208 16.11606912-40.14258948 55.93987848-75.3972281 116.02388947-101.80869021 74.93676883-32.94053641 174.7383294-50.34352944 288.63702355-50.34352945s213.70025473 17.40299304 288.63702356 50.34352945c60.08401099 26.41146213 99.90782034 61.66610074 116.02388947 101.80869021 7.93406469 19.72890198-6.8596603 41.20518713-28.13523184 41.2642208z" p-id="4331"></path></svg>