<?xml version="1.0" standalone="no"?><!DOCTYPE svg PUBLIC "-//W3C//DTD SVG 1.1//EN" "http://www.w3.org/Graphics/SVG/1.1/DTD/svg11.dtd"><svg t="1642236162054" class="icon" viewBox="0 0 1024 1024" version="1.1" xmlns="http://www.w3.org/2000/svg" p-id="3594" xmlns:xlink="http://www.w3.org/1999/xlink" width="200" height="200"><defs><style type="text/css"></style></defs><path d="M909.72265625 640.94609375c-20.32734375-27.6890625-45.63984375-128.06015625-57.121875-190.490625a42.2015625 42.2015625 0 0 0-30.0234375-32.96953125 41.9484375 41.9484375 0 0 0-10.7296875-1.53984375c-28.3921875-48.2625-59.77265625-54.58359375-81.30234375-58.81640625-15.046875-2.96015625-16.678125-3.853125-19.4203125-10.56796875-24.271875-59.50546875-67.55625-59.42109375-88.41796875-59.3015625-1.85625 0-4.11328125-0.82265625-5.9625-0.87890625C585.378125 240.76953125 560.70546875 230.75 529.2546875 230.75h-0.140625c-31.2046875 0-51.43359375 17.89453125-66.21328125 30.35390625-17.00859375 14.34375-21.234375 16.50234375-30.15 12.8390625-36.05625-14.79375-67.26796875-6.34921875-92.75625 24.70078125C328.80078125 312.29140625 323.03515625 322.3953125 319.22421875 329.01171875c-0.23203125 0.39375-0.47109375 0.86484375-0.71015625 1.2796875a324.7734375 324.7734375 0 0 1-14.36484375-2.278125c-48.95859375-8.6484375-74.3484375 51.93984375-85.04296875 88.31953125a42.58828125 42.58828125 0 0 0-5.84296875-0.45 42.1875 42.1875 0 0 0-41.79375 36.48515625c-8.1703125 59.56171875-30.74765625 156.8671875-55.35703125 186.69375-21.965625 26.62734375-22.8515625 52.9734375-19.73671875 70.3828125 5.34375 29.84765625 28.01953125 58.99921875 60.64453125 77.9625 45.028125 26.20546875 128.86875 74.9953125 364.68984375 74.9953125 218.74921875 0 290.69296875-42.53203125 338.3015625-70.678125 2.503125-1.4765625 4.94296875-2.925 7.34765625-4.32421875 14.94140625-8.690625 50.6390625-33.37734375 59.259375-74.7703125 3.60703125-17.2828125 3.6-43.7625-16.89609375-71.68359375zM296.85078125 369.59609375c30.83203125 5.4140625 43.9453125 6.58125 58.921875-19.40625 3.31171875-5.74453125 7.83984375-13.60546875 16.83984375-24.5671875 15.58125-18.97734375 27.984375-18.84375 44.128125-12.22734375 34.0171875 13.9640625 56.75625-6.03984375 73.35703125-20.0390625C502.55703125 282.8515625 513.321875 272.9375 529.12109375 272.9375h0.0703125c16.05234375 0 28.73671875 0.87890625 55.65234375 41.58984375 0.17578125 0.2671875 0.365625 0.94921875 0.55546875 1.209375 9.759375 13.38046875 25.06640625 13.45078125 37.4484375 13.5 19.3078125-0.09140625 35.69765625 0 49.21875 33.15234375 11.5875 28.39921875 33.98203125 32.85703125 50.33671875 36.07734375 16.48125 3.24140625 33.44765625 6.7078125 51.47578125 36.028125-13.78125 8.79609375-45.3515625 20.08125-89.1703125 29.04609375a21.1640625 21.1640625 0 0 0 0.2671875-3.853125c-1.37109375-44.20546875-31.10625-65.03203125-48.459375-70.36171875a21.07265625 21.07265625 0 0 0-26.36015625 13.9640625 21.09375 21.09375 0 0 0 13.95703125 26.36015625c0.17578125 0.05625 17.89453125 5.80078125 18.6890625 31.359375 0.10546875 3.4171875 1.096875 6.57421875 2.6296875 9.3796875a816.5953125 816.5953125 0 0 1-116.8875 8.31796875c-55.8421875 0-123.1734375-6.30703125-180.0984375-16.86796875-47.953125-8.89453125-76.33125-18.421875-91.24453125-25.06640625 8.915625-35.12109375 26.37421875-69.3984375 39.64921875-67.1765625z m549.2953125 381.346875c-45.871875 26.690625-105.34921875 69.27890625-324.4359375 69.27890625-219.0796875 0-297.61171875-42.58125-343.48359375-69.27890625-26.89453125-15.6375-58.28203125-50.23125-29.5734375-85.02890625 43.41796875-52.62890625 64.61015625-207.83671875 64.61015625-207.83671875 31.33828125 34.846875 192.7265625 62.8171875 315.28125 62.8171875 115.3265625 0 236.03203125-24.77109375 275.990625-56.72109375a20.953125 20.953125 0 0 0 6.91171875-1.82109375c0.14765625-0.0703125 0.27421875-0.17578125 0.421875-0.253125 4.81640625 25.05234375 31.90078125 160.2984375 63.85078125 203.81484375 26.7046875 36.37265625-2.6859375 69.3984375-29.5734375 85.02890625z" p-id="3595"></path><path d="M254.03046875 542.19921875a21.1078125 21.1078125 0 0 0-23.77265625 18.0140625c-5.33671875 38.64375-21.70546875 100.209375-41.371875 116.1a21.09375 21.09375 0 1 0 26.5078125 32.81484375c40.44375-32.67421875 55.11796875-131.95546875 56.6578125-143.1703125a21.09375 21.09375 0 0 0-18.02109375-23.75859375z m133.82578125-101.08828125a21.09375 21.09375 0 0 0 22.63359375-19.42734375c0.02109375-0.30234375 2.59453125-30.14296875 28.82109375-36.6328125a21.09375 21.09375 0 1 0-10.1390625-40.95c-44.325 10.96875-59.04140625 51.91875-60.75 74.38359375a21.08671875 21.08671875 0 0 0 19.434375 22.6265625z m174.6703125-23.8078125c4.84453125 0 9.17578125-0.5484375 12.64921875-1.3921875a21.08671875 21.08671875 0 1 0-9.93515625-40.99921875c-0.6609375 0.14765625-16.3546875 3.6984375-26.2265625-16.58671875a21.09375 21.09375 0 0 0-37.940625 18.45c15.64453125 32.146875 42.5390625 40.528125 61.453125 40.528125z" p-id="3596"></path></svg>