<?xml version="1.0" standalone="no"?><!DOCTYPE svg PUBLIC "-//W3C//DTD SVG 1.1//EN" "http://www.w3.org/Graphics/SVG/1.1/DTD/svg11.dtd"><svg t="1642234810420" class="icon" viewBox="0 0 1732 1024" version="1.1" xmlns="http://www.w3.org/2000/svg" p-id="12647" xmlns:xlink="http://www.w3.org/1999/xlink" width="338.28125" height="200"><defs><style type="text/css"></style></defs><path d="M1587.05641017 435.84615372h-339.09230742a13.70769258 13.70769258 0 0 0-10.03846201 4.43076943L1129.09487219 557.69230742H230.6871796c-7.82307685 0-14.12307685 6.85384629-14.12307685 15.23076943v121.84615372C216.56410275 803.94615372 298.94871759 892.76923057 400.23333332 892.76923057h565.13076943c101.28461572 0 183.66923057-88.82307685 183.66923057-198V579.22307685l104.74615371-112.91538427h333.27692314c7.82307685 0 14.12307685-6.85384629 14.12307687-15.23076943s-6.3-15.23076943-14.12307687-15.23076944zM1120.71794905 694.76923057c0 92.35384628-69.71538427 167.53846113-155.42307686 167.53846201H400.23333332c-85.70769258 0-155.42307685-75.18461573-155.42307685-167.53846201V588.15384628h875.97692313v106.61538429zM456.79487219 336.15384629c-7.75384628 0-14.12307685-6.85384629-14.12307773-15.23076944V199.07692315c0-8.37692315 6.36923057-15.23076943 14.12307773-15.23076944 7.82307685 0 14.12307685 6.85384629 14.12307686 15.23076944v121.8461537c0 8.37692315-6.3 15.23076943-14.12307686 15.23076943z m226.1076917 0c-7.82307685 0-14.12307685-6.85384629-14.12307685-15.23076944V77.23076943c0-8.37692315 6.3-15.23076943 14.12307685-15.23076943 7.75384628 0 14.12307685 6.85384629 14.12307685 15.23076943v243.69230742c0 8.37692315-6.36923057 15.23076943-14.12307685 15.23076944z m226.03846201 0c-7.82307685 0-14.12307685-6.85384629-14.12307685-15.23076944V199.07692315c0-8.37692315 6.3-15.23076943 14.12307685-15.23076944 7.82307685 0 14.12307685 6.85384629 14.12307685 15.23076944v121.8461537c0 8.37692315-6.3 15.23076943-14.12307685 15.23076943z" p-id="12648"></path></svg>