<?xml version="1.0" standalone="no"?><!DOCTYPE svg PUBLIC "-//W3C//DTD SVG 1.1//EN" "http://www.w3.org/Graphics/SVG/1.1/DTD/svg11.dtd"><svg t="1642234857363" class="icon" viewBox="0 0 1024 1024" version="1.1" xmlns="http://www.w3.org/2000/svg" p-id="5851" xmlns:xlink="http://www.w3.org/1999/xlink" width="200" height="200"><defs><style type="text/css"></style></defs><path d="M877.84472656 632.8770752c-0.90637207-5.19104004-2.05993653-10.29968262-3.3782959-15.4083252-0.41198731-1.64794922-0.90637207-3.3782959-1.40075683-5.02624512-0.98876953-3.29589844-1.97753906-6.67419434-3.04870606-9.88769531-0.57678223-1.64794922-1.15356445-3.29589844-1.73034668-4.86145019-1.15356445-3.21350098-2.47192383-6.42700195-3.7902832-9.55810547a188.97445679 188.97445679 0 0 0-8.89892578-18.3746338c-1.64794922-2.96630859-3.29589844-5.93261719-5.10864258-8.81652831-0.90637207-1.4831543-1.81274414-2.88391114-2.71911621-4.28466797-1.81274414-2.88391114-3.70788575-5.68542481-5.6854248-8.40454102a214.36523438 214.36523438 0 0 0-49.93286133-49.93286133c-2.71911622-1.97753906-5.60302734-3.87268067-8.40454102-5.6854248-1.40075684-0.90637207-2.88391114-1.81274414-4.28466797-2.71911621-2.88391114-1.73034668-5.85021973-3.46069336-8.81652832-5.10864258a188.58718872 188.58718872 0 0 0-18.37463379-8.89892578c-3.13110352-1.31835938-6.3446045-2.55432129-9.55810547-3.7902832-1.64794922-0.57678223-3.21350098-1.15356445-4.8614502-1.73034669-0.90637207-0.32958984-1.89514161-0.57678223-2.80151366-0.90637206 9.14611817-2.30712891 19.1986084-5.19104004 30.07507324-9.06372071 31.39343262-11.04125977 75.72326661 2.63671875 76.13525391 2.80151368 5.35583497 1.73034668 11.28845215-0.24719239 14.58435059-4.77905274 2.80151367-3.7902832 3.29589844-8.73413086 1.48315428-12.93640137-3.7902832-9.55810547-20.10498047-41.7755127-71.685791-61.13891601-25.13122559-9.39331055-48.44970703-9.72290039-69.46105958-0.90637207-13.01879883 5.43823242-23.07128906 13.67797852-30.65185547 21.83532715 0.90637207-9.72290039 2.05993653-19.85778809 3.54309083-29.99267578C698.21826172 310.78540039 713.04980469 287.87890625 722.9375 287.87890625v-26.3671875c-17.88024903 0-32.38220215 13.18359375-42.92907715 39.13879395-7.08618164 17.38586426-12.85400391 41.36352539-17.05627441 71.10900878-4.94384766 35.18371583-6.67419434 69.95544434-7.25097657 88.00048829-7.74536133 0.49438477-15.4083252 1.4831543-22.82409668 2.80151367-5.19104004 0.90637207-10.29968262 2.05993653-15.40832519 3.3782959-1.64794922 0.41198731-3.3782959 0.90637207-5.02624512 1.40075683-3.29589844 0.98876953-6.67419434 1.97753906-9.88769531 3.04870606-1.64794922 0.57678223-3.29589844 1.15356445-4.8614502 1.73034668-3.21350098 1.15356445-6.42700195 2.47192383-9.55810546 3.7902832a188.97445679 188.97445679 0 0 0-18.3746338 8.89892578c-2.96630859 1.64794922-5.93261719 3.29589844-8.81652831 5.10864258-1.4831543 0.90637207-2.88391114 1.81274414-4.28466797 2.71911621-2.88391114 1.81274414-5.68542481 3.70788575-8.40454102 5.6854248-6.42700195 4.53186036-12.52441406 9.47570801-18.37463379 14.74914552-0.16479492-0.32958984-0.32958984-0.65917969-0.57678222-1.071167-0.49438477-0.82397461-0.90637207-1.64794922-1.40075684-2.47192383 0.49438477-0.82397461 0.98876953-1.64794922 1.40075684-2.47192383 1.64794922-3.04870606 3.13110352-6.26220703 4.28466797-9.55810547 0.16479492-0.57678223 0.41198731-1.071167 0.57678222-1.64794921 0.41198731-1.071167 0.74157715-2.22473145 1.07116699-3.37829591 0.32958984-1.15356445 0.57678223-2.30712891 0.90637207-3.46069336s0.49438477-2.30712891 0.74157715-3.46069336c0.32958984-1.73034668 0.57678223-3.54309083 0.74157715-5.35583495 0.08239747-1.23596192 0.24719239-2.38952637 0.24719238-3.62548828 0.08239747-1.23596192 0.08239747-2.47192383 0.08239746-3.70788575 0-1.15356445 0-2.30712891-0.08239746-3.37829589 0.32958984-0.08239747 0.74157715-0.24719239 1.07116699-0.32958985 0.57678223-0.16479492 1.071167-0.41198731 1.64794922-0.57678223 3.29589844-1.23596192 6.50939942-2.63671875 9.55810547-4.28466796l2.96630859-1.73034668c4.44946289-2.71911622 8.56933594-5.85021973 12.27722169-9.39331055 0.82397461-0.82397461 1.64794922-1.56555176 2.47192383-2.47192383 3.54309083-3.70788575 6.7565918-7.82775879 9.39331054-12.27722168l1.73034668-2.96630859c1.64794922-3.04870606 3.13110352-6.26220703 4.28466797-9.55810547 0.16479492-0.57678223 0.41198731-1.071167 0.57678223-1.64794921 0.41198731-1.071167 0.74157715-2.22473145 1.07116698-3.37829591 0.32958984-1.15356445 0.57678223-2.30712891 0.90637208-3.46069336s0.49438477-2.30712891 0.74157714-3.46069336c0.32958984-1.73034668 0.57678223-3.54309083 0.74157716-5.35583496 0.08239747-1.23596192 0.24719239-2.38952637 0.24719237-3.62548827 0.08239747-1.23596192 0.08239747-2.47192383 0.08239747-3.70788575 0-6.83898926-0.98876953-13.34838867-2.71911622-19.6105957-0.32958984-1.15356445-0.65917969-2.22473145-1.07116698-3.37829591s-0.74157715-2.22473145-1.23596192-3.29589843c-0.41198731-1.071167-0.90637207-2.14233398-1.40075683-3.21350098-1.23596192-2.63671875-2.55432129-5.19104004-4.03747559-7.66296387-0.57678223-0.98876953-1.23596192-1.97753906-1.8951416-2.88391113s-1.31835938-1.89514161-1.97753906-2.80151367c-0.65917969-0.90637207-1.40075684-1.81274414-2.14233399-2.7191162-1.81274414-2.22473145-3.7902832-4.28466797-5.85021973-6.26220704-3.70788575-3.54309083-7.82775879-6.7565918-12.27722167-9.39331055l-2.9663086-1.73034668c-3.04870606-1.64794922-6.26220703-3.13110352-9.55810547-4.28466797-1.31835938-0.49438477-2.63671875-0.90637207-3.95507812-1.31835937-0.41198731-2.05993653-0.90637207-4.20227051-1.4831543-6.17980958-0.32958984-1.15356445-0.65917969-2.22473145-1.07116699-3.37829589s-0.74157715-2.22473145-1.23596191-3.29589844c-0.41198731-1.071167-0.90637207-2.14233398-1.40075684-3.21350097-1.23596192-2.63671875-2.55432129-5.19104004-4.03747559-7.66296387-0.57678223-0.98876953-1.23596192-1.97753906-1.8951416-2.88391114s-1.31835938-1.89514161-1.97753906-2.80151367c-0.65917969-0.90637207-1.40075684-1.81274414-2.14233399-2.71911621-1.81274414-2.22473145-3.7902832-4.28466797-5.85021972-6.26220703-3.70788575-3.54309083-7.82775879-6.7565918-12.27722169-9.39331054l-2.96630859-1.73034669c-3.04870606-1.64794922-6.26220703-3.13110352-9.55810547-4.28466796-2.71911622-0.98876953-5.60302734-1.81274414-8.48693847-2.55432129l-3.46069336-0.74157715c-1.73034668-0.32958984-3.54309083-0.57678223-5.35583496-0.74157715-1.23596192-0.08239747-2.38952637-0.24719239-3.62548829-0.24719238-1.23596192-0.08239747-2.47192383-0.08239747-3.70788573-0.08239746-23.15368653 0-43.6706543 10.95886231-56.77185059 27.93273926-0.16479492-0.57678223-0.32958984-1.071167-0.57678223-1.64794923-0.16479492-0.57678223-0.41198731-1.071167-0.57678223-1.64794922-1.23596192-3.29589844-2.63671875-6.50939942-4.28466797-9.55810546l-1.73034667-2.9663086c-1.64794922-2.80151367-3.54309083-5.43823242-5.60302734-7.91015624 2.63671875-0.65917969 5.2734375-1.56555176 7.91015625-2.80151368 12.35961914-5.68542481 24.30725098-17.63305664 23.15368651-31.80541992-1.071167-12.85400391-5.43823242-22.5769043-13.01879882-28.83911133-3.95507813-3.21350098-8.40454102-5.2734375-13.10119629-6.50939941 9.39331055-8.56933594 20.26977539-15.49072266 29.66308594-17.96264648 2.14233398-0.57678223 4.44946289-1.071167 6.83898925-1.40075685-1.56555176 4.69665528-2.22473145 9.22851563-2.14233398 13.43078614 0 8.73413086 3.3782959 16.80908203 9.47570801 22.82409668 6.7565918 6.67419434 16.56188965 10.46447754 26.86157227 10.29968262 10.29968262-0.08239747 21.42333984-6.01501465 29.00390625-15.4083252 6.50939942-8.07495117 9.14611817-17.22106934 7.33337402-25.79040527-1.4831543-7.08618164-5.02624512-13.26599122-10.46447754-18.37463379 0.82397461-0.24719239 1.56555176-0.41198731 2.30712891-0.57678223 22.65930176-5.68542481 45.89538575-6.26220703 46.06018067-6.26220703l-0.57678224-26.3671875c-1.071167 0-26.11999512 0.57678223-51.58081054 6.92138672-13.51318359 3.3782959-24.06005859 7.58056641-32.21740723 12.27722168-13.34838867-1.31835938-27.10876465 0-37.82043457 2.80151367-19.28100586 5.10864258-43.58825684 22.82409668-58.33740234 43.75305176-23.15368653 4.03747559-43.83544922 25.37841797-53.88793946 37.40844727 0.08239747 0.08239747 0.08239747 0.16479492 0.16479493 0.16479492-0.08239747-0.16479492-0.16479492-0.24719239-0.24719239-0.41198731-0.16479492-0.24719239-0.41198731-0.49438477-0.57678222-0.82397461-0.08239747-0.16479492-0.16479492-0.24719239-0.32958985-0.4119873-0.16479492-0.24719239-0.41198731-0.49438477-0.57678223-0.82397461-0.08239747-0.16479492-0.24719239-0.24719239-0.32958984-0.41198731-0.24719239-0.24719239-0.41198731-0.49438477-0.65917969-0.74157714-0.08239747-0.16479492-0.24719239-0.24719239-0.32958984-0.41198731-0.24719239-0.24719239-0.41198731-0.49438477-0.65917969-0.74157715-0.08239747-0.16479492-0.24719239-0.24719239-0.32958985-0.4119873l-0.74157714-0.74157715c-0.08239747-0.16479492-0.24719239-0.24719239-0.41198731-0.41198731l-0.74157714-0.74157714-0.41198731-0.41198731-0.74157715-0.74157714-0.4119873-0.41198731c-0.24719239-0.24719239-0.49438477-0.49438477-0.82397461-0.74157715-0.16479492-0.16479492-0.32958984-0.24719239-0.4119873-0.41198731-0.24719239-0.24719239-0.57678223-0.49438477-0.82397461-0.74157714-0.16479492-0.16479492-0.32958984-0.24719239-0.49438477-0.41198731-0.24719239-0.24719239-0.57678223-0.49438477-0.90637207-0.65917969-0.16479492-0.08239747-0.32958984-0.24719239-0.49438477-0.32958984-0.32958984-0.24719239-0.57678223-0.41198731-0.90637207-0.65917969-0.16479492-0.08239747-0.32958984-0.24719239-0.49438476-0.32958984-0.32958984-0.24719239-0.65917969-0.41198731-0.90637208-0.65917969-0.16479492-0.08239747-0.32958984-0.24719239-0.57678222-0.32958984-0.32958984-0.24719239-0.65917969-0.41198731-0.98876953-0.65917969-0.16479492-0.08239747-0.41198731-0.24719239-0.57678223-0.32958985-0.32958984-0.16479492-0.65917969-0.41198731-0.98876953-0.57678222-0.16479492-0.08239747-0.41198731-0.24719239-0.57678222-0.32958984-0.32958984-0.16479492-0.65917969-0.41198731-1.071167-0.57678223-0.24719239-0.08239747-0.41198731-0.24719239-0.65917969-0.32958985-0.32958984-0.16479492-0.74157715-0.41198731-1.07116699-0.57678222-0.24719239-0.08239747-0.41198731-0.24719239-0.65917968-0.32958984-0.32958984-0.16479492-0.74157715-0.32958984-1.071167-0.57678223-0.24719239-0.08239747-0.49438477-0.24719239-0.74157714-0.32958985-0.41198731-0.16479492-0.74157715-0.32958984-1.15356446-0.49438476-0.24719239-0.08239747-0.49438477-0.24719239-0.74157715-0.32958985-0.41198731-0.16479492-0.74157715-0.32958984-1.15356445-0.49438476-0.24719239-0.08239747-0.49438477-0.24719239-0.74157715-0.32958985l-1.23596192-0.49438476c-0.24719239-0.08239747-0.57678223-0.16479492-0.8239746-0.32958984-0.41198731-0.16479492-0.82397461-0.32958984-1.23596191-0.4119873-0.24719239-0.08239747-0.57678223-0.16479492-0.82397461-0.32958985-0.41198731-0.16479492-0.82397461-0.24719239-1.23596192-0.41198731-0.32958984-0.08239747-0.57678223-0.16479492-0.90637207-0.24719238-0.41198731-0.16479492-0.82397461-0.24719239-1.31835937-0.41198731-0.32958984-0.08239747-0.65917969-0.16479492-0.90637208-0.24719237-0.41198731-0.16479492-0.90637207-0.24719239-1.31835937-0.32958985l-0.98876953-0.24719238c-0.41198731-0.08239747-0.90637207-0.24719239-1.31835938-0.32958985l-0.98876953-0.24719238c-0.49438477-0.08239747-0.90637207-0.24719239-1.40075683-0.32958984-0.32958984-0.08239747-0.74157715-0.16479492-1.071167-0.24719239-0.49438477-0.08239747-0.90637207-0.16479492-1.40075683-0.32958984-0.32958984-0.08239747-0.74157715-0.16479492-1.071167-0.24719238-0.49438477-0.08239747-0.98876953-0.16479492-1.40075683-0.24719239-0.41198731-0.08239747-0.74157715-0.16479492-1.15356445-0.16479492l-1.4831543-0.24719238c-0.41198731-0.08239747-0.82397461-0.08239747-1.23596192-0.16479492-0.49438477-0.08239747-0.98876953-0.16479492-1.48315429-0.16479492-0.41198731-0.08239747-0.82397461-0.08239747-1.23596191-0.16479492-0.49438477-0.08239747-0.98876953-0.08239747-1.4831543-0.16479492-0.41198731-0.08239747-0.90637207-0.08239747-1.31835937-0.16479493-0.49438477-0.08239747-0.98876953-0.08239747-1.56555177-0.16479492-0.41198731 0-0.90637207-0.08239747-1.40075683-0.08239746-0.49438477-0.08239747-1.071167-0.08239747-1.56555176-0.08239746-0.49438477 0-0.90637207-0.08239747-1.40075683-0.08239747-0.49438477 0-1.071167-0.08239747-1.56555176-0.08239745-0.49438477 0-0.98876953-0.08239747-1.4831543-0.08239747-0.57678223 0-1.071167 0-1.64794922-0.08239745h-7.41577148c-5.2734375 0.08239747-10.38208008 0.57678223-15.32592774 1.40075684-4.11987305 0.65917969-8.15734864 1.64794922-12.03002929 2.7191162-1.56555176 0.41198731-3.04870606 0.90637207-4.61425782 1.40075684-2.22473145 0.74157715-4.44946289 1.56555176-6.67419433 2.47192383-0.74157715 0.32958984-1.40075684 0.57678223-2.14233398 0.90637207-2.88391114 1.23596192-5.60302734 2.47192383-8.2397461 3.87268067-0.65917969 0.32958984-1.31835938 0.65917969-1.97753906 1.07116698-1.31835938 0.65917969-2.55432129 1.40075684-3.87268067 2.14233399l-3.70788574 2.22473144c-1.23596192 0.74157715-2.38952637 1.4831543-3.54309081 2.22473145s-2.30712891 1.4831543-3.37829591 2.3071289c-1.071167 0.74157715-2.22473145 1.56555176-3.21350097 2.30712891-1.56555176 1.15356445-3.13110352 2.30712891-4.53186035 3.46069336-0.98876953 0.74157715-1.89514161 1.4831543-2.80151368 2.22473144-0.90637207 0.74157715-1.81274414 1.4831543-2.63671875 2.22473145-4.28466797 3.62548828-7.82775879 7.00378418-10.546875 9.80529786-0.57678223 0.57678223-1.071167 1.071167-1.48315429 1.56555175-3.04870606 3.21350098-4.77905273 5.2734375-4.77905274 5.2734375s0.08239747 0 0.32958985 0.08239747c1.31835938 0.41198731 7.16857911 2.14233398 14.99633789 4.53186034 4.53186036 1.31835938 9.64050293 2.88391114 15.07873535 4.44946289 2.71911622 0.82397461 5.43823242 1.56555176 8.23974609 2.38952638s5.52062989 1.56555176 8.15734864 2.38952636c-2.47192383 3.95507813-5.68542481 8.32214356-9.22851563 13.51318359-2.96630859 4.36706543-6.17980958 9.22851563-9.39331055 14.74914551-0.98876953 1.64794922-1.97753906 3.3782959-2.96630859 5.19104004l-1.97753906 3.70788575c-0.65917969 1.23596192-1.31835938 2.55432129-1.97753906 3.87268065-1.31835938 2.63671875-2.55432129 5.43823242-3.79028321 8.40454102-0.90637207 2.22473145-1.81274414 4.44946289-2.71911621 6.83898926-0.32958984 0.82397461-0.57678223 1.56555176-0.90637207 2.38952637l-1.73034668 4.94384765c-0.57678223 1.73034668-1.071167 3.46069336-1.64794922 5.19104005-0.82397461 2.63671875-1.56555176 5.43823242-2.30712891 8.23974608-0.65917969 2.71911622-1.31835938 5.43823242-1.97753906 8.32214356-0.74157715 3.21350098-1.31835938 6.50939942-1.97753906 9.97009278-0.57678223 3.29589844-1.071167 6.59179688-1.56555176 10.05249022-1.73034668 12.68920898-2.71911622 26.94396973-2.71911621 42.8466797 4.53186036-3.3782959 9.39331055-6.50939942 14.41955567-9.39331055 3.13110352-1.81274414 6.26220703-3.54309083 9.47570801-5.2734375 0.65917969-0.32958984 1.31835938-0.65917969 1.8951416-0.98876953 3.21350098-1.64794922 6.42700195-3.21350098 9.64050293-4.69665528 1.31835938-0.57678223 2.55432129-1.15356445 3.87268066-1.73034667 0.65917969-0.24719239 1.23596192-0.57678223 1.89514161-0.82397461 1.89514161-0.82397461 3.7902832-1.64794922 5.6854248-2.38952637 0.24719239-0.08239747 0.49438477-0.16479492 0.74157715-0.32958985 0.08239747 0.49438477 0.16479492 1.071167 0.24719238 1.56555177-0.98876953 0.32958984-1.89514161 0.65917969-2.88391114 1.07116698-1.071167 0.41198731-2.14233398 0.90637207-3.21350097 1.40075684-2.63671875 1.23596192-5.19104004 2.55432129-7.66296387 4.03747558-0.98876953 0.57678223-1.97753906 1.23596192-2.88391113 1.89514161s-1.89514161 1.31835938-2.80151367 1.97753906c-0.90637207 0.65917969-1.81274414 1.40075684-2.71911621 2.14233399-2.22473145 1.81274414-4.28466797 3.7902832-6.26220703 5.85021972-3.54309083 3.70788575-6.7565918 7.82775879-9.39331056 12.27722168l-1.73034667 2.9663086c-1.64794922 3.04870606-3.13110352 6.26220703-4.28466797 9.55810547-0.98876953 2.71911622-1.81274414 5.60302734-2.5543213 8.48693847l-0.74157714 3.46069336c-0.32958984 1.73034668-0.57678223 3.54309083-0.74157715 5.35583496-0.08239747 1.23596192-0.24719239 2.38952637-0.24719238 3.62548828-0.08239747 1.23596192-0.08239747 2.47192383-0.08239747 3.70788574s0 2.47192383 0.08239747 3.70788575 0.16479492 2.47192383 0.24719238 3.62548828c0.16479492 1.81274414 0.41198731 3.62548828 0.74157715 5.35583496 0.24719239 1.15356445 0.41198731 2.30712891 0.74157715 3.46069336 0.65917969 2.88391114 1.4831543 5.68542481 2.55432129 8.48693848 0.41198731 1.071167 0.82397461 2.14233398 1.31835937 3.29589843 0.24719239 0.57678223 0.49438477 1.071167 0.65917969 1.56555176 0.74157715 1.56555176 1.4831543 3.13110352 2.30712891 4.69665528l1.73034668 2.96630859c2.71911622 4.44946289 5.85021973 8.56933594 9.39331054 12.27722167 1.97753906 2.05993653 4.11987305 4.03747559 6.26220704 5.85021974 0.90637207 0.74157715 1.81274414 1.40075684 2.71911621 2.14233398 0.90637207 0.65917969 1.89514161 1.31835938 2.80151367 1.97753906 0.98876953 0.65917969 1.89514161 1.23596192 2.88391114 1.8951416 4.44946289 2.71911622 9.14611817 4.94384766 14.17236327 6.59179687 0.08239747 0 0.08239747 0 0.16479493 0.08239747l0.24719238 0.98876953c0.65917969 2.88391114 1.4831543 5.68542481 2.55432129 8.48693847 0.41198731 1.071167 0.82397461 2.14233398 1.31835938 3.29589844 0.24719239 0.57678223 0.49438477 1.071167 0.65917968 1.56555176 0.74157715 1.56555176 1.4831543 3.13110352 2.30712891 4.69665527l1.73034667 2.9663086c2.71911622 4.44946289 5.85021973 8.56933594 9.39331055 12.27722168 1.97753906 2.05993653 4.11987305 4.03747559 6.26220703 5.85021972 0.90637207 0.74157715 1.81274414 1.40075684 2.71911622 2.14233399 0.24719239 0.16479492 0.57678223 0.41198731 0.82397461 0.57678223-0.74157715 0.32958984-1.56555176 0.65917969-2.30712891 1.07116699-0.49438477 0.24719239-1.071167 0.49438477-1.56555176 0.74157715-1.73034668 0.90637207-3.46069336 1.89514161-5.10864258 2.88391113-0.82397461 0.49438477-1.56555176 0.98876953-2.30712891 1.48315429-0.98876953 0.65917969-1.89514161 1.31835938-2.80151367 1.97753907-0.74157715 0.49438477-1.40075684 1.071167-2.14233398 1.64794921-0.65917969 0.49438477-1.31835938 1.071167-1.89514161 1.56555177-0.41198731 0.41198731-0.82397461 0.74157715-1.31835937 1.15356445-2.80151367 2.55432129-5.35583497 5.2734375-7.74536132 8.23974609-0.41198731 0.57678223-0.82397461 1.071167-1.31835939 1.64794922-0.90637207 1.15356445-1.73034668 2.38952637-2.55432128 3.62548828l-0.98876953 1.4831543c-3.21350098 5.19104004-5.85021973 10.79406739-7.74536133 16.72668457-2.05993653 6.7565918-3.21350098 13.9251709-3.21350098 21.34094238s1.15356445 14.58435059 3.21350098 21.34094238c1.81274414 5.93261719 4.44946289 11.618042 7.74536133 16.72668458l0.98876953 1.48315429c0.82397461 1.23596192 1.64794922 2.47192383 2.55432129 3.62548829 0.41198731 0.57678223 0.82397461 1.071167 1.31835938 1.64794921 2.38952637 2.96630859 4.94384766 5.68542481 7.74536132 8.2397461 0.41198731 0.41198731 0.82397461 0.74157715 1.31835938 1.15356445 0.65917969 0.57678223 1.23596192 1.071167 1.8951416 1.56555175 0.65917969 0.57678223 1.40075684 1.071167 2.14233398 1.64794922 0.90637207 0.65917969 1.89514161 1.31835938 2.80151367 1.97753907 0.74157715 0.49438477 1.56555176 0.98876953 2.30712891 1.48315429 1.64794922 0.98876953 3.3782959 1.97753906 5.10864258 2.88391114 0.49438477 0.24719239 1.071167 0.49438477 1.56555176 0.74157714 1.56555176 0.74157715 3.13110352 1.4831543 4.77905273 2.05993653 1.23596192 0.49438477 2.55432129 0.98876953 3.87268066 1.40075683 0.74157715 0.24719239 1.56555176 0.49438477 2.30712891 0.74157716 1.89514161 0.57678223 3.7902832 0.98876953 5.6854248 1.40075683 2.88391114 0.57678223 5.93261719 0.98876953 8.89892579 1.23596192 1.81274414 0.16479492 3.62548828 0.24719239 5.52062988 0.24719237 15.4083252 0 29.66308594-4.8614502 41.28112793-13.10119628 0.41198731 0.24719239 0.74157715 0.57678223 1.15356446 0.82397461 0.16479492-0.08239747 0.24719239-0.08239747 0.4119873-0.16479492-0.74157715 0.32958984-1.56555176 0.65917969-2.30712891 1.07116698-0.49438477 0.24719239-1.071167 0.49438477-1.56555175 0.74157716-1.73034668 0.90637207-3.46069336 1.89514161-5.10864258 2.88391113-0.82397461 0.49438477-1.56555176 0.98876953-2.30712891 1.48315429-0.98876953 0.65917969-1.89514161 1.31835938-2.80151367 1.97753907-0.74157715 0.49438477-1.40075684 1.071167-2.14233398 1.64794921-0.65917969 0.49438477-1.31835938 1.071167-1.89514161 1.56555177-0.41198731 0.41198731-0.82397461 0.74157715-1.31835937 1.15356445-2.80151367 2.55432129-5.35583497 5.2734375-7.74536133 8.23974609-0.41198731 0.57678223-0.82397461 1.071167-1.31835938 1.64794922-0.90637207 1.15356445-1.73034668 2.38952637-2.55432128 3.62548828l-0.98876953 1.4831543c-3.21350098 5.19104004-5.85021973 10.79406739-7.74536133 16.72668457-2.05993653 6.7565918-3.21350098 13.9251709-3.21350098 21.34094238s1.15356445 14.58435059 3.21350098 21.34094238c1.81274414 5.93261719 4.44946289 11.618042 7.74536133 16.72668458l0.98876953 1.48315429c0.82397461 1.23596192 1.64794922 2.47192383 2.55432128 3.62548828 0.41198731 0.57678223 0.82397461 1.071167 1.31835938 1.64794922 2.38952637 2.96630859 4.94384766 5.68542481 7.74536133 8.2397461 0.41198731 0.41198731 0.82397461 0.74157715 1.31835937 1.15356445 0.65917969 0.57678223 1.23596192 1.071167 1.89514161 1.56555175 0.65917969 0.57678223 1.40075684 1.071167 2.14233398 1.64794922 0.90637207 0.65917969 1.89514161 1.31835938 2.80151367 1.97753906 0.74157715 0.49438477 1.56555176 0.98876953 2.30712891 1.4831543 1.64794922 0.98876953 3.3782959 1.97753906 5.10864258 2.88391114 0.49438477 0.24719239 1.071167 0.49438477 1.56555175 0.74157714 1.56555176 0.74157715 3.13110352 1.4831543 4.77905274 2.05993653 1.23596192 0.49438477 2.55432129 0.98876953 3.87268066 1.40075683 0.74157715 0.24719239 1.56555176 0.49438477 2.30712891 0.74157716 1.89514161 0.57678223 3.7902832 0.98876953 5.6854248 1.40075683 2.88391114 0.57678223 5.93261719 0.98876953 8.89892578 1.23596192 1.81274414 0.16479492 3.62548828 0.24719239 5.52062989 0.24719237 8.98132325 0 17.55065918-1.64794922 25.46081542-4.61425781 1.97753906 2.80151367 4.20227051 5.43823242 6.50939942 7.91015625 1.97753906 2.05993653 4.11987305 4.03747559 6.26220703 5.85021973 0.90637207 0.74157715 1.81274414 1.40075684 2.71911621 2.14233399 0.90637207 0.65917969 1.89514161 1.31835938 2.80151367 1.97753906 0.98876953 0.65917969 1.89514161 1.23596192 2.88391114 1.8951416 4.44946289 2.71911622 9.14611817 4.94384766 14.17236328 6.59179687 1.071167 0.41198731 2.22473145 0.74157715 3.37829589 1.071167 6.26220703 1.73034668 12.85400391 2.71911622 19.61059571 2.7191162 1.23596192 0 2.47192383 0 3.70788574-0.08239745s2.47192383-0.16479492 3.62548829-0.24719239c1.81274414-0.16479492 3.62548828-0.41198731 5.35583495-0.74157714 1.15356445-0.24719239 2.30712891-0.41198731 3.46069336-0.74157716 1.15356445-0.24719239 2.30712891-0.57678223 3.46069336-0.90637206 1.15356445-0.32958984 2.22473145-0.65917969 3.3782959-1.071167 0.57678223-0.16479492 1.071167-0.41198731 1.64794922-0.57678222 3.29589844-1.23596192 6.50939942-2.63671875 9.55810547-4.28466797l2.9663086-1.73034668c4.44946289-2.71911622 8.56933594-5.85021973 12.27722167-9.39331055 0.82397461-0.82397461 1.64794922-1.56555176 2.47192383-2.47192383 2.05993653-2.14233398 3.95507813-4.44946289 5.76782226-6.83898925 1.4831543 1.4831543 3.13110352 2.96630859 4.77905274 4.28466797 0.90637207 0.74157715 1.81274414 1.40075684 2.71911621 2.14233398 0.90637207 0.65917969 1.89514161 1.31835938 2.80151368 1.97753906 0.98876953 0.65917969 1.89514161 1.23596192 2.88391112 1.8951416 4.44946289 2.71911622 9.14611817 4.94384766 14.17236329 6.59179688 1.071167 0.41198731 2.22473145 0.74157715 3.3782959 1.07116699 6.26220703 1.73034668 12.85400391 2.71911622 19.6105957 2.71911621 1.23596192 0 2.47192383 0 3.70788574-0.08239746s2.47192383-0.16479492 3.62548828-0.24719239c1.81274414-0.16479492 3.62548828-0.41198731 5.35583497-0.74157714 1.15356445-0.24719239 2.30712891-0.41198731 3.46069336-0.74157715 1.15356445-0.24719239 2.30712891-0.57678223 3.46069335-0.90637207 1.15356445-0.32958984 2.22473145-0.65917969 3.3782959-1.07116699 0.57678223-0.16479492 1.071167-0.41198731 1.64794922-0.57678223 3.29589844-1.23596192 6.50939942-2.63671875 9.55810547-4.28466797l2.96630859-1.73034668c2.80151367-1.73034668 5.52062989-3.62548828 8.07495117-5.6854248 1.15356445 0.74157715 2.38952637 1.4831543 3.54309083 2.22473144 2.88391114 1.73034668 5.85021973 3.46069336 8.81652831 5.10864258a188.58718872 188.58718872 0 0 0 18.3746338 8.89892578c3.13110352 1.31835938 6.3446045 2.55432129 9.55810546 3.7902832 1.64794922 0.57678223 3.21350098 1.15356445 4.8614502 1.73034669 3.29589844 1.071167 6.59179688 2.14233398 9.88769531 3.04870605 1.64794922 0.49438477 3.3782959 0.90637207 5.02624512 1.40075684 5.02624512 1.31835938 10.21728516 2.38952637 15.40832519 3.37829589 12.11242676 2.14233398 24.63684083 3.29589844 37.32604981 3.29589844s25.21362305-1.15356445 37.3260498-3.29589844c5.19104004-0.90637207 10.29968262-2.05993653 15.4083252-3.37829589 1.64794922-0.41198731 3.3782959-0.90637207 5.02624511-1.40075684 3.29589844-0.98876953 6.67419434-1.97753906 9.88769531-3.04870605 1.64794922-0.57678223 3.29589844-1.15356445 4.8614502-1.73034669 3.21350098-1.15356445 6.42700195-2.47192383 9.55810546-3.7902832a188.97445679 188.97445679 0 0 0 18.3746338-8.89892578c2.96630859-1.64794922 5.93261719-3.29589844 8.81652832-5.10864258 1.4831543-0.90637207 2.88391114-1.81274414 4.28466796-2.71911621 2.88391114-1.81274414 5.68542481-3.70788575 8.40454103-5.6854248 19.28100586-13.76037598 36.17248536-30.65185547 49.93286132-49.93286133 1.97753906-2.71911622 3.87268067-5.60302734 5.68542481-8.40454102 0.90637207-1.40075684 1.81274414-2.88391114 2.7191162-4.28466797 1.73034668-2.88391114 3.46069336-5.85021973 5.10864258-8.81652832a188.58718872 188.58718872 0 0 0 8.89892578-18.37463379c1.31835938-3.13110352 2.55432129-6.3446045 3.7902832-9.55810547 0.57678223-1.64794922 1.15356445-3.21350098 1.73034669-4.8614502 1.071167-3.29589844 2.14233398-6.59179688 3.04870605-9.8876953 0.49438477-1.64794922 0.90637207-3.3782959 1.40075684-5.02624512 1.31835938-5.02624512 2.38952637-10.21728516 3.37829589-15.4083252 2.14233398-12.11242676 3.29589844-24.63684083 3.29589844-37.3260498s-0.74157715-25.21362305-2.88391113-37.3260498z m-20.51696778-187.5366211zM468.65893555 189.82592773c3.46069336 0.90637207 6.59179688 2.05993653 9.14611817 3.62548829 3.7902832 2.38952637 4.69665528 4.61425781 5.02624511 6.17980957 0 0.65917969-0.74157715 2.71911622-3.04870606 5.10864257-2.96630859 3.04870606-6.3446045 4.44946289-7.74536132 4.44946289-3.29589844 0-6.3446045-0.98876953-8.07495118-2.71911621-1.15356445-1.071167-1.64794922-2.38952637-1.64794921-4.11987304 0-4.8614502 2.47192383-8.98132325 6.34460449-12.52441407z m246.28601074 224.36828614c9.97009278-7.16857911 21.09375-10.79406739 33.37097168-10.79406739 8.81652833 0 18.20983887 1.89514161 28.09753417 5.60302735 17.05627442 6.42700195 29.16870117 14.41955567 37.73803711 21.91772461-17.55065918-1.97753906-38.97399903-2.05993653-57.84301757 4.53186034-29.49829102 10.38208008-54.38232422 14.17236328-68.06030274 15.16113282 3.54309083-10.05249023 12.0300293-25.79040528 26.69677734-36.41967774z m-498.50463867-18.53942871l3.21350097-0.98876953c0.41198731-0.16479492 0.90637207-0.24719239 1.31835938-0.41198731 3.87268067-1.15356445 7.00378418-2.05993653 9.39331055-2.71911621l0.74157715-0.24719239c2.38952637-0.65917969 3.7902832-0.98876953 3.7902832-0.98876953s4.77905273 8.6517334 11.53564453 21.75292969c0.49438477 0.98876953 1.071167 2.05993653 1.56555176 3.13110351 2.14233398 4.20227051 4.44946289 8.89892578 6.83898926 13.76037599 0.32958984 0.57678223 0.57678223 1.23596192 0.90637206 1.81274414l2.71911622 5.6854248c0.49438477 1.071167 0.98876953 2.05993653 1.4831543 3.13110351-23.73046875-0.90637207-42.76428223-20.10498047-43.50585938-43.91784667z m166.77246094-88.41247559c-4.20227051 0.41198731-8.32214356 1.23596192-12.27722168 2.30712891-1.15356445 0.32958984-2.22473145 0.65917969-3.3782959 1.07116699s-2.22473145 0.74157715-3.29589844 1.23596192c-1.071167 0.41198731-2.14233398 0.90637207-3.21350098 1.40075683-2.63671875 1.23596192-5.19104004 2.55432129-7.66296386 4.03747559-0.98876953 0.57678223-1.97753906 1.23596192-2.88391114 1.8951416s-1.89514161 1.31835938-2.80151367 1.97753906c-0.90637207 0.65917969-1.81274414 1.40075684-2.71911621 2.14233398-2.22473145 1.81274414-4.28466797 3.7902832-6.26220703 5.85021973-1.071167 1.15356445-2.05993653 2.30712891-3.04870606 3.46069336 0.65917969-2.96630859 1.23596192-5.93261719 1.64794922-8.73413086 0.08239747-0.49438477 0.16479492-0.98876953 0.24719239-1.56555176 0.57678223-4.03747559 0.90637207-7.91015625 0.90637207-11.37084961v-1.31835937c0-1.31835938-0.16479492-2.47192383-0.24719238-3.70788574-0.08239747-0.82397461-0.16479492-1.56555176-0.32958985-2.30712891s-0.32958984-1.4831543-0.49438476-2.14233398c-0.08239747-0.49438477-0.24719239-0.90637207-0.41198731-1.31835938-0.16479492-0.57678223-0.32958984-1.071167-0.57678222-1.64794921-0.74157715-1.89514161-1.73034668-3.54309083-2.9663086-4.94384766-0.41198731-0.49438477-0.82397461-0.90637207-1.31835937-1.31835938-1.15356445-1.071167-2.47192383-1.89514161-3.95507813-2.63671875-0.57678223-0.24719239-1.23596192-0.49438477-1.8951416-0.74157715s-1.31835938-0.41198731-2.05993652-0.57678222c-0.49438477-0.08239747-0.90637207-0.24719239-1.31835938-0.32958984-0.41198731-0.16479492-0.74157715-0.32958984-1.07116699-0.49438477-0.49438477-0.24719239-0.90637207-0.57678223-1.23596191-0.90637207-0.24719239-0.24719239-0.41198731-0.41198731-0.57678223-0.65917969-0.08239747-0.08239747-0.16479492-0.24719239-0.24719238-0.32958985-0.32958984-0.57678223-0.49438477-1.23596192-0.65917969-1.97753906 6.42700195-3.54309083 13.9251709-5.60302734 21.75292969-5.60302734 19.28100586 0.08239747 35.84289551 12.19482422 42.35229492 29.25109864z m125.40893555 181.10961915c-1.73034668-1.31835938-3.54309083-2.47192383-5.35583497-3.62548829l-2.96630859-1.73034668c-3.04870606-1.64794922-6.26220703-3.13110352-9.55810547-4.28466797-0.57678223-0.16479492-1.071167-0.41198731-1.64794922-0.57678223-1.071167-0.41198731-2.22473145-0.74157715-3.37829589-1.07116699-1.15356445-0.32958984-2.30712891-0.57678223-3.46069336-0.90637207s-2.30712891-0.49438477-3.46069336-0.74157715c-1.73034668-0.32958984-3.54309083-0.57678223-5.35583497-0.74157715-1.23596192-0.08239747-2.38952637-0.24719239-3.62548828-0.24719238-1.23596192-0.08239747-2.47192383-0.08239747-3.70788574-0.08239746-6.83898926 0-13.34838867 0.98876953-19.6105957 2.71911621-1.15356445 0.32958984-2.22473145 0.65917969-3.3782959 1.07116699s-2.22473145 0.74157715-3.29589844 1.23596192c-1.071167 0.41198731-2.14233398 0.90637207-3.21350097 1.40075683-2.63671875 1.23596192-5.19104004 2.55432129-7.66296387 4.03747559-0.98876953 0.57678223-1.97753906 1.23596192-2.88391113 1.8951416l-2.47192383 1.73034668c-1.81274414-4.8614502-2.80151367-10.1348877-2.80151367-15.65551758 0-24.96643067 20.35217286-45.31860352 45.31860351-45.31860351s45.31860352 20.35217286 45.31860352 45.31860351c0 5.35583497-0.98876953 10.62927247-2.80151367 15.57312013z m-85.446167-73.08654786c1.40075684-1.071167 2.80151367-1.97753906 4.28466797-2.96630859-1.4831543 0.90637207-2.88391114 1.89514161-4.28466797 2.96630859z m-16.80908203 5.76782227c-0.74157715-1.73034668-1.56555176-3.3782959-2.47192383-4.94384766l-1.73034667-2.96630859c-2.71911622-4.44946289-5.85021973-8.56933594-9.39331055-12.27722169-0.82397461-0.82397461-1.56555176-1.64794922-2.47192383-2.47192382-3.70788575-3.54309083-7.82775879-6.7565918-12.27722168-9.39331055l-2.9663086-1.73034668c-3.04870606-1.64794922-6.26220703-3.13110352-9.55810547-4.28466797-0.57678223-0.16479492-1.071167-0.41198731-1.64794922-0.57678223-1.071167-0.41198731-2.22473145-0.74157715-3.37829589-1.07116699-1.15356445-0.32958984-2.30712891-0.57678223-3.46069336-0.90637207s-2.30712891-0.49438477-3.46069336-0.74157715c-1.73034668-0.32958984-3.54309083-0.57678223-5.35583496-0.74157715l-2.9663086-0.24719238v-0.16479492c0-24.96643067 20.35217286-45.31860352 45.31860352-45.31860351s45.31860352 20.35217286 45.31860351 45.31860351c0 19.52819825-12.27722168 36.09008789-29.49829101 42.51708985z m-110.82458496 29.25109863c0-24.96643067 20.35217286-45.31860352 45.31860352-45.31860352s45.31860352 20.35217286 45.31860351 45.31860351c0 9.22851563-2.80151367 17.79785156-7.49816895 24.96643067-1.31835938-0.24719239-2.71911622-0.41198731-4.11987304-0.57678223-1.23596192-0.08239747-2.38952637-0.24719239-3.62548828-0.24719238-1.23596192-0.08239747-2.47192383-0.08239747-3.70788574-0.08239746-6.83898926 0-13.34838867 0.98876953-19.61059571 2.71911621-1.15356445 0.32958984-2.22473145 0.65917969-3.3782959 1.07116699s-2.22473145 0.74157715-3.29589844 1.23596192c-1.071167 0.41198731-2.14233398 0.90637207-3.21350097 1.40075683-2.63671875 1.23596192-5.19104004 2.55432129-7.66296387 4.03747559-0.98876953 0.57678223-1.97753906 1.23596192-2.88391113 1.8951416s-1.89514161 1.31835938-2.80151367 1.97753906c-0.49438477 0.32958984-0.98876953 0.74157715-1.40075684 1.071167-2.63671875-4.36706543-5.76782227-8.40454102-9.31091308-12.0300293-0.82397461-0.82397461-1.56555176-1.64794922-2.47192383-2.47192383-3.70788575-3.54309083-7.82775879-6.7565918-12.27722168-9.39331054-0.24719239-0.16479492-0.57678223-0.32958984-0.82397461-0.49438477-1.64794922-4.77905273-2.55432129-9.80529786-2.55432129-15.07873536z m10.546875 133.15429687l0.49438477 0.74157715c-1.071167 0.41198731-2.05993653 0.82397461-3.04870606 1.23596192 0.82397461-0.65917969 1.64794922-1.31835938 2.55432129-1.97753906z m15.8203125-37.40844726c0-24.96643067 20.35217286-45.31860352 45.31860352-45.31860351 13.43078614 0 25.54321289 5.85021973 33.78295898 15.16113281-0.82397461 1.81274414-1.56555176 3.62548828-2.3071289 5.43823242-0.98876953 2.71911622-1.81274414 5.60302734-2.5543213 8.48693847l-0.74157714 3.46069336c-0.32958984 1.73034668-0.57678223 3.54309083-0.74157715 5.35583497-0.08239747 1.23596192-0.24719239 2.38952637-0.24719238 3.62548828-0.08239747 1.23596192-0.08239747 2.47192383-0.08239747 3.70788574s0 2.47192383 0.08239747 3.70788574 0.16479492 2.47192383 0.24719238 3.62548828c0.16479492 1.81274414 0.41198731 3.62548828 0.74157715 5.35583496 0.24719239 1.15356445 0.41198731 2.30712891 0.74157714 3.46069336 0.65917969 2.88391114 1.4831543 5.68542481 2.5543213 8.48693848 0.41198731 1.071167 0.82397461 2.14233398 1.31835937 3.29589844 0.24719239 0.57678223 0.49438477 1.071167 0.65917969 1.56555175 0.08239747 0.24719239 0.16479492 0.41198731 0.32958984 0.65917969a44.75830078 44.75830078 0 0 1-30.1574707 14.99633789l-1.97753906-1.23596191c-2.47192383-1.4831543-5.02624512-2.88391114-7.66296388-4.03747559-1.071167-0.49438477-2.14233398-0.90637207-3.21350097-1.40075683-1.071167-0.41198731-2.14233398-0.82397461-3.29589843-1.23596192s-2.22473145-0.74157715-3.37829591-1.07116699c-4.61425781-1.31835938-9.47570801-2.14233398-14.41955566-2.55432129-9.14611817-8.07495117-14.99633789-20.18737793-14.99633789-33.53576661z m36.25488281 122.60742187c0-29.16870117 23.73046875-52.81677247 52.81677246-52.81677246 22.41210938 0 41.61071778 14.00756836 49.27368164 33.78295899-0.65917969 6.7565918-0.98876953 13.67797852-0.98876953 20.6817627 0 6.09741211 0.24719239 12.19482422 0.82397461 18.1274414-7.82775879 19.44580078-26.86157227 33.20617676-49.02648925 33.20617675-29.16870117-0.08239747-52.89916992-23.81286622-52.89916993-52.98156737z m105.96313477 46.6369629c-0.57678223-2.55432129-1.071167-5.10864258-1.56555176-7.74536133 0.49438477 2.63671875 0.98876953 5.19104004 1.56555176 7.74536133z m10.71166992-124.74975587c0-0.08239747 0-0.08239747 0 1e-8-2.80151367 0.57678223-5.76782227 0.82397461-8.73413086 0.82397461-24.96643067 0-45.31860352-20.35217286-45.31860351-45.31860352s20.35217286-45.31860352 45.31860351-45.31860351c20.59936523 0 38.06762695 13.84277344 43.50585938 32.71179198-4.03747559 4.69665528-7.82775879 9.64050293-11.45324708 14.66674805-1.97753906 2.71911622-3.87268067 5.60302734-5.6854248 8.40454102-0.90637207 1.40075684-1.81274414 2.88391114-2.71911621 4.28466796-1.73034668 2.88391114-3.46069336 5.85021973-5.10864258 8.81652833a188.58718872 188.58718872 0 0 0-8.89892578 18.37463378c-0.24719239 0.90637207-0.57678223 1.73034668-0.90637207 2.5543213z m2.88391113 166.19567871c-0.65917969-1.4831543-1.31835938-2.88391114-1.8951416-4.36706543 0.65917969 1.40075684 1.23596192 2.88391114 1.8951416 4.36706543z m-5.6854248-159.02709961z m89.07165527-196.68273926c0 19.44580078-12.27722168 36.09008789-29.49829102 42.51708986 0 0.08239747 0.08239747 0.16479492 0.08239747 0.16479492-0.32958984-0.65917969-0.65917969-1.40075684-0.98876953-2.05993653-0.49438477-1.071167-1.071167-2.05993653-1.56555176-3.13110352-0.65917969-1.23596192-1.31835938-2.38952637-2.05993652-3.54309081-0.49438477-0.82397461-0.98876953-1.56555176-1.4831543-2.30712891-0.65917969-0.98876953-1.31835938-1.89514161-1.97753906-2.80151367-0.49438477-0.74157715-1.071167-1.40075684-1.64794922-2.14233398-0.49438477-0.65917969-1.071167-1.31835938-1.56555176-1.89514161-0.41198731-0.41198731-0.74157715-0.82397461-1.15356446-1.31835938-1.15356445-1.23596192-2.38952637-2.47192383-3.62548828-3.70788573-1.23596192-1.15356445-2.55432129-2.30712891-3.87268066-3.46069336-1.071167-0.90637207-2.14233398-1.73034668-3.29589844-2.5543213-0.90637207-0.65917969-1.81274414-1.31835938-2.71911621-1.89514159-0.82397461-0.49438477-1.56555176-1.071167-2.38952636-1.56555177l-2.9663086-1.73034667c-2.71911622-1.4831543-5.43823242-2.71911622-8.32214356-3.87268067-0.90637207-0.32958984-1.89514161-0.74157715-2.80151367-1.07116699-2.22473145-0.74157715-4.44946289-1.40075684-6.83898925-1.8951416l-3.46069336-0.74157715c-1.73034668-0.32958984-3.54309083-0.57678223-5.35583497-0.74157715l-2.96630859-0.24719238v-0.16479492c0-24.96643067 20.35217286-45.31860352 45.31860352-45.31860352s45.15380859 20.51696778 45.15380859 45.48339844z m-95.00427246-100.52490233c19.28100586 0 35.84289551 12.11242676 42.35229492 29.25109863-20.10498047 2.05993653-37.73803711 12.35961914-49.43847656 27.60314941-0.16479492-0.57678223-0.32958984-1.071167-0.57678223-1.64794921-0.16479492-0.57678223-0.41198731-1.071167-0.57678222-1.64794922-1.23596192-3.29589844-2.63671875-6.50939942-4.28466797-9.55810547l-1.73034668-2.9663086c-2.71911622-4.44946289-5.85021973-8.56933594-9.39331055-12.27722168-0.82397461-0.82397461-1.56555176-1.64794922-2.47192383-2.47192383-3.13110352-2.96630859-6.50939942-5.68542481-10.13488769-8.07495117 8.23974609-11.12365723 21.42333984-18.20983887 36.25488281-18.20983886z m-86.18774414-61.38610841c0.49438477-1.81274414 1.23596192-3.70788575 2.14233399-5.6854248 6.7565918-0.49438477 13.18359375-0.41198731 15.8203125 1.81274415 1.73034668 1.40075684 2.88391114 4.94384766 3.37829589 9.88769531-0.90637207 1.89514161-5.2734375 6.17980958-11.28845214 7.5805664-5.43823242 1.31835938-7.49816895-0.82397461-8.15734864-1.48315429-1.23596192-1.15356445-4.03747559-4.03747559-1.8951416-12.11242677z m-27.10876465 4.28466797c-0.08239747 3.29589844 0.24719239 6.42700195 0.90637207 9.39331055h-0.16479492c-1.73034668-0.32958984-3.54309083-0.57678223-5.35583496-0.74157714-1.23596192-0.08239747-2.38952637-0.24719239-3.62548828-0.24719239-0.49438477 0-0.98876953 0-1.4831543-0.08239746 3.04870606-2.88391114 6.3446045-5.76782227 9.72290039-8.32214356z m-32.95898438 20.35217286c0-0.08239747-0.08239747-0.24719239-0.08239745-0.32958984 0 0.08239747 0.08239747 0.24719239 0.08239745 0.32958984z m-146.66748046 120.13549805c6.7565918-40.95153809 21.83532715-62.62207031 32.79418945-78.19519044 2.30712891-3.29589844 4.44946289-6.3446045 6.3446045-9.39331054l18.95141601-29.82788086-33.1237793-9.47570801c13.76037598-7.74536133 27.52075195-11.70043945 41.03393555-11.86523437h1.81274414c23.07128906 0 40.20996094 5.10864258 48.36730957 14.41955566 5.19104004 5.93261719 4.77905273 11.37084961 4.77905273 11.61804199 0 0.16479492-0.16479492 0.57678223-0.16479492 0.90637207-1.15356445 5.10864258-3.62548828 16.80908203 3.7902832 28.17993164 3.3782959 5.19104004 8.32214356 9.31091309 14.25476075 11.78283692-0.08239747 5.02624512-1.4831543 15.4083252-7.82775879 34.93652344-7.00378418 21.25854492-17.55065918 46.06018067-26.86157227 67.97790527-10.21728516-20.76416016-18.70422364-36.25488281-19.36340332-37.40844727l-9.80529785-17.63305664-19.52819824 4.77905273c-1.64794922 0.41198731-26.94396973 6.67419434-55.45349121 19.19860841z m36.66687012 93.76831054c-3.54309083 3.70788575-6.7565918 7.82775879-9.39331055 12.27722168l-1.73034668 2.96630859c-1.64794922 3.04870606-3.13110352 6.26220703-4.28466797 9.55810547-0.98876953 2.71911622-1.81274414 5.60302734-2.55432129 8.48693848-0.16479492 0.82397461-0.32958984 1.56555176-0.49438476 2.38952636C178.12548828 505.40820312 169.2265625 490.90625 169.2265625 474.34436035c0-20.02258301 13.01879883-37.07885742 31.06384278-43.01147461 0 0.08239747 0.08239747 0.16479492 0.08239745 0.16479492 2.71911622 4.44946289 5.85021973 8.56933594 9.39331055 12.27722168 1.97753906 2.05993653 4.11987305 4.03747559 6.26220703 5.85021973 0.90637207 0.74157715 1.81274414 1.40075684 2.71911622 2.14233398 0.90637207 0.65917969 1.89514161 1.31835938 2.80151367 1.97753906 0.98876953 0.65917969 1.89514161 1.23596192 2.88391113 1.89514161 3.21350098 1.97753906 6.50939942 3.62548828 10.05249023 5.02624511-0.82397461 0.32958984-1.56555176 0.65917969-2.38952636 0.98876953-2.63671875 1.23596192-5.19104004 2.55432129-7.66296387 4.03747559-0.98876953 0.57678223-1.97753906 1.23596192-2.88391113 1.8951416s-1.89514161 1.31835938-2.80151367 1.97753906c-0.90637207 0.65917969-1.81274414 1.40075684-2.71911622 2.14233399-2.05993653 1.89514161-4.20227051 3.7902832-6.17980956 5.93261718z m6.59179687 49.43847657c0-24.96643067 20.35217286-45.31860352 45.31860352-45.31860352 19.52819825 0 36.25488281 12.44201661 42.5994873 29.82788086-0.08239747 0.08239747-0.08239747 0.16479492-0.16479492 0.24719238-1.64794922 3.04870606-3.13110352 6.26220703-4.28466797 9.55810547-0.98876953 2.71911622-1.81274414 5.60302734-2.55432129 8.48693848l-0.74157715 3.46069336c-0.32958984 1.73034668-0.57678223 3.54309083-0.74157714 5.35583495-0.08239747 1.23596192-0.24719239 2.38952637-0.24719239 3.62548828-0.08239747 1.23596192-0.08239747 2.47192383-0.08239746 3.70788575s0 2.47192383 0.08239746 3.70788574 0.16479492 2.47192383 0.24719239 3.62548828c0.08239747 0.98876953 0.24719239 2.05993653 0.4119873 3.04870606-8.32214356 9.80529786-20.6817627 15.98510742-34.52453613 15.98510742-24.96643067 0-45.31860352-20.35217286-45.31860352-45.31860351z m32.0526123 51.99279784z m0 117.00439453c-24.96643067 0-45.31860352-20.35217286-45.31860351-45.31860351s20.35217286-45.31860352 45.31860351-45.31860352c8.56933594 0 16.56188965 2.38952637 23.31848145 6.50939942-0.49438477 0.74157715-0.90637207 1.40075684-1.31835937 2.14233399l-1.73034669 2.96630859c-1.64794922 3.04870606-3.13110352 6.26220703-4.28466797 9.55810547-0.16479492 0.57678223-0.41198731 1.071167-0.57678222 1.64794922-0.41198731 1.071167-0.74157715 2.22473145-1.07116699 3.37829589-0.32958984 1.15356445-0.57678223 2.30712891-0.90637207 3.46069336l-0.74157715 3.46069336c-0.32958984 1.73034668-0.57678223 3.54309083-0.74157715 5.35583497-0.08239747 1.23596192-0.24719239 2.38952637-0.24719238 3.62548828-0.08239747 1.23596192-0.08239747 2.47192383-0.08239746 3.70788573s0 2.47192383 0.08239746 3.70788575 0.16479492 2.47192383 0.24719238 3.62548828c0.16479492 1.81274414 0.41198731 3.62548828 0.74157715 5.35583496 0.24719239 1.15356445 0.41198731 2.30712891 0.74157715 3.46069336 0.24719239 1.15356445 0.57678223 2.30712891 0.90637207 3.46069336 0.32958984 1.15356445 0.65917969 2.22473145 1.07116699 3.3782959 0.16479492 0.57678223 0.41198731 1.071167 0.57678222 1.64794922 0.41198731 1.071167 0.82397461 2.14233398 1.31835938 3.29589844 0.24719239 0.57678223 0.49438477 1.071167 0.65917969 1.56555175 0.74157715 1.56555176 1.4831543 3.13110352 2.3071289 4.69665528l1.73034669 2.96630859c0.32958984 0.49438477 0.57678223 0.98876953 0.90637206 1.40075683-6.7565918 3.95507813-14.58435059 6.26220703-22.90649414 6.26220703z m37.9852295-44.82421875c0-24.96643067 20.35217286-45.31860352 45.31860351-45.31860351 8.56933594 0 16.56188965 2.38952637 23.40087891 6.50939942-1.40075684 1.40075684-2.80151367 2.88391114-4.11987305 4.36706542-0.82397461 0.98876953-1.64794922 1.97753906-2.38952637 2.9663086-1.15356445 1.4831543-2.30712891 3.04870606-3.37829589 4.61425781-0.32958984 0.49438477-0.74157715 1.071167-1.071167 1.56555176-0.82397461 1.23596192-1.56555176 2.55432129-2.3071289 3.87268066-0.49438477 0.90637207-0.98876953 1.81274414-1.4831543 2.80151367-1.89514161 3.70788575-3.46069336 7.58056641-4.77905274 11.53564453-0.24719239 0.74157715-0.49438477 1.4831543-0.65917968 2.22473145-0.08239747 0.32958984-0.16479492 0.74157715-0.32958985 1.07116699-0.24719239 0.82397461-0.41198731 1.64794922-0.65917968 2.55432129-0.41198731 1.73034668-0.74157715 3.46069336-1.07116699 5.2734375-0.16479492 0.90637207-0.32958984 1.81274414-0.41198731 2.71911621-0.49438477 3.46069336-0.74157715 7.00378418-0.74157715 10.62927247 0 9.72290039 1.73034668 19.03381348 4.94384766 27.60314941-1.64794922 0.16479492-3.29589844 0.24719239-4.94384766 0.24719238-24.96643067 0.08239747-45.31860352-20.26977539-45.31860351-45.23620606z m33.70056152 52.734375z m31.97021484 47.70812989c-3.54309083 3.70788575-6.7565918 7.82775879-9.39331055 12.27722168l-1.73034667 2.96630859c-1.64794922 3.04870606-3.13110352 6.26220703-4.28466797 9.55810547-0.98876953 2.71911622-1.81274414 5.60302734-2.55432129 8.48693848l-0.74157715 3.46069336c-0.32958984 1.73034668-0.57678223 3.54309083-0.74157715 5.35583496-0.08239747 1.23596192-0.24719239 2.38952637-0.24719238 3.62548828-0.08239747 1.23596192-0.08239747 2.47192383-0.08239746 3.70788574s0 2.47192383 0.08239746 3.70788574 0.16479492 2.47192383 0.24719238 3.62548828c0.16479492 1.81274414 0.41198731 3.62548828 0.74157715 5.35583497 0.24719239 1.15356445 0.41198731 2.30712891 0.74157715 3.46069336 0.08239747 0.41198731 0.24719239 0.90637207 0.32958984 1.31835937-4.53186036 1.4831543-9.31091309 2.30712891-14.3371582 2.30712891-24.96643067 0-45.31860352-20.35217286-45.31860352-45.31860352s20.35217286-45.31860352 45.31860352-45.31860351c14.58435059 0 27.52075195 6.92138672 35.84289551 17.63305664-1.31835938 1.23596192-2.63671875 2.47192383-3.87268067 3.7902832z m51.91040039 94.75708008c-24.96643067 0-45.31860352-20.35217286-45.31860351-45.31860352s20.35217286-45.31860352 45.31860351-45.31860351c15.98510742 0 29.99267578 8.32214356 38.06762696 20.84655761-0.24719239 1.15356445-0.49438477 2.30712891-0.65917969 3.3782959-0.32958984 1.73034668-0.57678223 3.54309083-0.74157715 5.35583496-0.08239747 1.23596192-0.24719239 2.38952637-0.24719238 3.62548828-0.08239747 1.23596192-0.08239747 2.47192383-0.08239746 3.70788575s0 2.47192383 0.08239746 3.70788574 0.16479492 2.47192383 0.24719238 3.62548828c0.16479492 1.81274414 0.41198731 3.62548828 0.74157715 5.35583496 0.24719239 1.15356445 0.41198731 2.30712891 0.74157715 3.46069336 0.65917969 2.88391114 1.4831543 5.68542481 2.55432129 8.48693847 0.24719239 0.65917969 0.49438477 1.40075684 0.8239746 2.05993653-7.16857911 15.98510742-23.07128906 27.02636719-41.52832031 27.02636719z m56.03027344-103.16162109c-2.05993653 2.14233398-3.95507813 4.44946289-5.76782227 6.83898925-0.32958984-0.32958984-0.57678223-0.57678223-0.90637206-0.82397461-3.21350098-3.04870606-6.67419434-5.76782227-10.29968262-8.15734863 6.59179688-2.96630859 12.77160645-6.7565918 18.20983887-11.28845215 0.98876953-0.82397461 1.97753906-1.64794922 2.88391113-2.47192383 0.74157715-0.65917969 1.4831543-1.40075684 2.22473145-2.14233398 0.24719239 0.90637207 0.49438477 1.81274414 0.74157714 2.80151367 0.98876953 3.29589844 1.97753906 6.67419434 3.04870606 9.88769531-0.32958984-0.90637207-0.57678223-1.81274414-0.90637208-2.80151367-0.08239747 0.08239747-0.24719239 0.16479492-0.32958984 0.24719239-0.90637207 0.65917969-1.81274414 1.40075684-2.71911621 2.14233398-2.05993653 1.73034668-4.20227051 3.70788575-6.17980957 5.76782227z m51.91040039 94.83947753c-24.96643067 0-45.31860352-20.35217286-45.31860352-45.31860352 0-12.35961914 5.02624512-23.64807129 13.1011963-31.80541992 0.08239747 0.24719239 0.24719239 0.49438477 0.32958984 0.65917969 1.4831543 3.04870606 3.04870606 6.09741211 4.69665527 9.0637207 1.64794922 2.96630859 3.29589844 5.93261719 5.10864258 8.81652833 0.90637207 1.4831543 1.81274414 2.88391114 2.71911621 4.28466797 1.81274414 2.88391114 3.70788575 5.68542481 5.6854248 8.40454101 10.46447754 14.74914551 22.82409668 28.01513672 36.58447266 39.63317871-6.83898926 3.95507813-14.58435059 6.26220703-22.90649414 6.26220703z m32.711792 1.64794922c1.15356445 0.82397461 2.30712891 1.64794922 3.37829589 2.47192383-1.15356445-0.82397461-2.30712891-1.64794922-3.37829589-2.47192383z m295.55969238-97.72338867c-9.31091309 22.00012208-22.5769043 41.69311523-39.55078125 58.66699218s-36.66687012 30.23986817-58.66699219 39.55078125C719.31201172 849.91198731 695.16955567 854.7734375 670.203125 854.7734375s-49.10888672-4.8614502-71.85058594-14.50195313c-22.00012208-9.31091309-41.69311523-22.5769043-58.66699218-39.55078124s-30.23986817-36.66687012-39.55078125-58.66699219C490.49426269 719.31201172 485.6328125 695.16955567 485.6328125 670.203125s4.8614502-49.10888672 14.50195313-71.85058594c9.31091309-22.00012208 22.5769043-41.69311523 39.55078124-58.66699218s36.66687012-30.23986817 58.66699219-39.55078125c22.74169922-9.64050293 46.88415528-14.50195313 71.85058594-14.50195313s49.10888672 4.8614502 71.85058594 14.50195313c22.00012208 9.31091309 41.69311523 22.5769043 58.66699218 39.55078125s30.23986817 36.66687012 39.55078125 58.66699218c9.64050293 22.74169922 14.50195313 46.88415528 14.50195313 71.85058594s-4.8614502 49.10888672-14.50195313 71.85058594z m-21.42333985-124.58496094c6.67419434 17.22106934 10.05249023 35.4309082 10.05249024 54.13513184 0 26.53198242-7.00378418 52.56958008-20.35217285 75.39367675-12.93640137 22.08251953-31.39343262 40.7043457-53.39355469 53.72314453-2.14233398 1.23596192-4.44946289 1.81274414-6.67419434 1.81274415-4.53186036 0-8.89892578-2.30712891-11.37084961-6.50939941-3.70788575-6.26220703-1.64794922-14.3371582 4.61425781-18.04504395 37.49084473-22.164917 60.80932617-62.95166016 60.80932618-106.37512207 0-15.4083252-2.80151367-30.40466309-8.32214355-44.57702637-2.63671875-6.7565918 0.74157715-14.41955567 7.49816894-17.05627441 6.83898926-2.63671875 14.50195313 0.74157715 17.13867187 7.49816894z m-67.40112305-65.58837891c4.77905273-5.43823242 13.10119629-6.01501465 18.62182618-1.23596191 7.08618164 6.26220703 13.67797852 13.18359375 19.52819824 20.68176269 4.44946289 5.76782227 3.46069336 14.00756836-2.3071289 18.53942872-2.38952637 1.89514161-5.2734375 2.80151367-8.07495117 2.80151367-3.95507813 0-7.82775879-1.73034668-10.38208008-5.10864258-4.77905273-6.17980958-10.21728516-11.94763184-16.06750489-17.05627441-5.60302734-4.77905273-6.09741211-13.10119629-1.31835938-18.62182618z" p-id="5852"></path></svg>