<?xml version="1.0" standalone="no"?><!DOCTYPE svg PUBLIC "-//W3C//DTD SVG 1.1//EN" "http://www.w3.org/Graphics/SVG/1.1/DTD/svg11.dtd"><svg t="1642235780325" class="icon" viewBox="0 0 1024 1024" version="1.1" xmlns="http://www.w3.org/2000/svg" p-id="5488" xmlns:xlink="http://www.w3.org/1999/xlink" width="200" height="200"><defs><style type="text/css"></style></defs><path d="M598.79691553 885.10553897H347.20406258a45.71500225 45.71500225 0 0 1-45.07363767-39.19446811l-28.00622955-194.68961136a17.81566717 17.81566717 0 1 1 35.27502122-5.02401754l28.00622877 194.72524259a9.8698797 9.8698797 0 0 0 9.76298598 8.44462635h251.59285295a9.8698797 9.8698797 0 0 0 9.94114217-8.44462635l37.62668904-262.10409645A426.7208611 426.7208611 0 0 1 597.30039893 586.87127007a269.12346946 269.12346946 0 0 1-28.50506764 1.49651581c-24.94193391 0-57.01013529-7.48257986-91.1805843-15.39273688s-69.55236471-16.10536317-95.63450206-16.10536317c-7.12626672 0-14.25253344 0.24941943-21.37880092 0.71262707a424.01288015 424.01288015 0 0 0-77.39125772 12.64912389 21.73511408 21.73511408 0 0 1-3.24245184 0.64136381 17.81566717 17.81566717 0 0 1-19.27655176-15.25021115L244.83523895 445.41487205H216.75774692a17.81566717 17.81566717 0 0 1-17.81566717-17.81566719V348.78269303a17.81566717 17.81566717 0 0 1 17.81566717-17.81566718h30.35789739a230.85541582 230.85541582 0 0 1 451.9834777 0h30.35789659a17.81566717 17.81566717 0 0 1 17.81566717 17.81566719v78.8877743a17.81566717 17.81566717 0 0 1-17.81566717 17.81566718h-27.89933508l-2.03098591 14.00311477a17.81566717 17.81566717 0 1 1-35.27502122-5.02401831l4.20449755-29.32458842a17.81566717 17.81566717 0 0 1 17.60187976-15.32147364h25.54766647V366.66962269h-27.57865315a17.81566717 17.81566717 0 0 1-17.81566719-15.42836813 195.08155653 195.08155653 0 0 0-386.49308481 0 17.81566717 17.81566717 0 0 1-17.81566718 15.42836813H234.57341411v43.22080869h25.65456095a17.81566717 17.81566717 0 0 1 17.60187976 15.32147365l15.21457916 106.07448309a463.20734825 463.20734825 0 0 1 65.06281725-9.22851588c8.19520692-0.5344701 16.21225689-0.78388953 23.94425618-0.78388954 30.21537166 0 67.69953575 8.62278331 103.72281526 17.06740966 32.0682014 7.48257986 62.42609799 14.5375841 83.19916558 14.53758411 7.66073682 0 15.99846945-0.46320762 24.9419339-1.31835887a410.68676118 410.68676118 0 0 0 67.94895517-13.32611973 17.81566717 17.81566717 0 0 1 23.69483753 15.6065251 18.74208167 18.74208167 0 0 1-0.35631315 4.91712383l-41.29671728 287.43797473a45.71500225 45.71500225 0 0 1-45.07363766 38.90941744z" fill="#308DFF" p-id="5489"></path><path d="M534.98119542 366.66962269a17.81566717 17.81566717 0 0 1-14.25253423-28.50506765l157.49049874-211.54323282a17.81566717 17.81566717 0 0 1 10.68940046-6.80558482L802.64377952 96.33468807a17.81566717 17.81566717 0 1 1 7.12626673 34.84744561l-106.89400309 22.09142721-153.64231431 206.1629006a17.42372279 17.42372279 0 0 1-14.25253343 7.12626749z m1e-8 0" fill="#308DFF" p-id="5490"></path><path d="M595.91077683 366.66962269H348.59368467a17.81566717 17.81566717 0 0 1 1e-8-35.63133436h247.31709215a17.81566717 17.81566717 0 0 1 0 35.63133436zM597.0509795 445.45050329h-249.41934055a17.81566717 17.81566717 0 0 1 2e-8-35.63133437h249.41934053a17.81566717 17.81566717 0 0 1 0 35.63133437z" fill="#308DFF" p-id="5491"></path></svg>