<?xml version="1.0" standalone="no"?><!DOCTYPE svg PUBLIC "-//W3C//DTD SVG 1.1//EN" "http://www.w3.org/Graphics/SVG/1.1/DTD/svg11.dtd"><svg t="1642236841809" class="icon" viewBox="0 0 1024 1024" version="1.1" xmlns="http://www.w3.org/2000/svg" p-id="2773" xmlns:xlink="http://www.w3.org/1999/xlink" width="200" height="200"><defs><style type="text/css"></style></defs><path d="M575.13581436 224.78500137l21.6144247-84.89085368c0.6227201-2.59132006 5.06211454-15.64836161 27.7813656-17.53661016 39.73358002-3.29439159 91.37919875-8.97922623 91.88139248-9.03949019L712.09412984 73.82552084c-0.54236944 0.06026319-51.66570621 5.68483463-90.85691677 8.93905129-43.38955149 3.5957083-60.30344078 32.64260232-63.17599008 48.00973471l-23.92451708 94.01069453h-173.53811698L307.58700286 286.35397136h386.66920013l-52.99149783-61.56896999h-66.1288908zM363.99341943 701.98971409l7.99492701 56.40641655c91.70060291-94.8945556 203.58939923-140.51384806 280.80673008-162.04792134l9.22027973-65.08432685c-84.7301516 18.50082266-207.54668664 63.2161658-298.02193682 170.72583164zM344.97031557 567.62271944l7.07088943 49.89798403c106.22404993-102.24667428 235.72980783-141.43788485 319.95776493-156.3630867l7.3922944-52.24825135c-89.31015987 10.14431654-229.36198915 44.99657158-334.42094876 158.71335402zM384.40257887 845.95865583l2.6716715 18.88249001h44.19306116c64.9035373-66.97257616 139.56972302-109.49835406 202.80597704-136.19498077l8.3765936-59.1584387c-77.86013918 26.01364266-181.97497453 77.35794546-258.0473033 176.47092946zM326.85116025 439.82442128l6.54860825 46.20183685c120.70732123-107.6904554 266.14266921-137.66138624 355.61353039-145.19429524l5.2429041-37.04182027h-61.56897c-83.32400855 10.38536929-206.56238665 42.22446119-305.83607274 136.03427867zM307.58700286 303.79014262l8.15562834 57.53133116a544.0165868 544.0165868 0 0 1 88.84814186-57.53133116H307.58700286zM614.78904372 864.84114584l8.07527767-57.1496638a572.58137457 572.58137457 0 0 0-91.09797029 57.1496638h83.02269262z" p-id="2774"></path></svg>