<?xml version="1.0" standalone="no"?><!DOCTYPE svg PUBLIC "-//W3C//DTD SVG 1.1//EN" "http://www.w3.org/Graphics/SVG/1.1/DTD/svg11.dtd"><svg t="1642234748320" class="icon" viewBox="0 0 1024 1024" version="1.1" xmlns="http://www.w3.org/2000/svg" p-id="10199" xmlns:xlink="http://www.w3.org/1999/xlink" width="200" height="200"><defs><style type="text/css"></style></defs><path d="M199.2427298 394.88757416h626.12039905a18.4391683 18.4391683 0 0 0 18.4391683-18.43916831 18.46550995 18.46550995 0 0 0-0.61112713-4.63876859 18.44707104 18.44707104 0 0 0 0.61112713-4.63876775c0-60.42515461-35.56125357-116.64354473-100.13522085-158.30289432-62.07150861-40.04460488-144.23907733-62.09785025-231.36414698-62.09785025s-169.29000412 22.05324536-231.36414697 62.09785025c-64.57396729 41.65671533-100.1378551 97.87510547-100.13785511 158.30289432 0 1.60420771 0.22653864 3.15309788 0.61112632 4.63876775a18.44707104 18.44707104 0 0 0-0.61112632 4.63876859 18.4391683 18.4391683 0 0 0 18.44180256 18.43916831z m274.12194452-188.23229874a7.63908426 7.63908426 0 0 1 7.62854727 7.62854726 7.63645001 7.63645001 0 0 1-7.62854727 7.62591304 7.63645001 7.63645001 0 0 1-7.62591302-7.62591304 7.63645001 7.63645001 0 0 1 7.62591302-7.62854726z m-172.43256582 33.20367353c45.31293869-29.23135043 102.91163214-47.852276 165.53104843-53.97144517-12.80205148 3.11621924-22.34827194 14.64596824-22.34827195 28.3963189 0 16.12900387 13.12078546 29.24978933 29.24978934 29.24978935 16.13163812 0 29.25242359-13.12078546 29.25242358-29.24978935 0-15.42831564-12.00916709-28.07231644-27.16616354-29.147057 12.13560682-0.94830002 24.42136157-1.48566989 36.85199496-1.48566988 80.1181865 0 155.18404083 19.96171683 211.37082001 56.20785315 50.22039221 32.39761872 79.32793634 74.05433404 82.8761597 118.15292202H218.05594962c3.54822253-44.09858798 32.65576666-85.75530332 82.87615887-118.15292202zM885.54330591 679.19847558c0-38.92508459-31.66795459-70.59567261-70.59567343-70.59567261H209.6555911c-38.92508459 0-70.59303919 31.66795459-70.59303837 70.59567262 0 31.66795459 20.96270014 58.53118882 49.73833905 67.44784323 3.34539212 70.85118713 62.0240938 127.46470193 133.68660508 127.46470276h379.62823068c71.66514468 0 130.34121213-56.6135148 133.68923849-127.46470276 28.77563891-8.91665525 49.73833905-35.77988864 49.73833988-67.44784323z m-183.42494412 158.03420938H322.48749686c-50.25463577 0-91.69271603-38.42722678-96.49743641-87.43853594h572.62573774c-4.80735461 49.01130918-46.24543405 87.43853595-96.4974364 87.43853594z m112.82927069-124.31687255H209.6555911c-18.59194968 0-33.71470176-15.12538632-33.71470175-33.71733682s15.12538632-33.717336 33.71470175-33.71733601h605.29204138c18.59194968 0 33.717336 15.12538632 33.71733681 33.71733601s-15.12538632 33.717336-33.71733681 33.71733682zM180.8035615 483.63792465v77.78431467c0 14.79084686 11.39277145 26.82635559 25.39863748 26.82635559h612.20409494c14.00323096 0 25.39600324-12.03287449 25.39600323-26.82635559v-25.06673227c0.37405151-1.46459674 0.59532166-2.98977952 0.59532166-4.57027982s-0.22127014-3.10568308-0.59532166-4.57027898v-82.46259532c0-14.79084686-11.39277145-26.82635559-25.39600323-26.82635558H206.19956473c-14.00323096 0-25.39863748 12.03287449-25.39863749 26.82635558v29.74501291c-0.37405151 1.46459674-0.59532166 2.98977952-0.59532165 4.57027982s0.22390439 3.10831732 0.59795591 4.57027899z m36.8783366 67.73233365v-51.42420593c12.79678298 3.62988172 21.56592453 10.97130515 31.82863871 19.59820147 16.26598059 13.66869232 36.50691934 30.68014169 74.58906966 30.68014169 38.0847854 0 58.32835757-17.0114502 74.59170393-30.68014169 14.6512359-12.3120964 26.22049695-22.03480646 50.86576291-22.03480562 24.64263172 0 36.21452618 9.72271006 50.8657629 22.03480562 16.26334634 13.66869232 36.50691934 30.68014169 74.5890705 30.68014169 38.0847854 0 58.33099182-17.0114502 74.59697241-30.68014169 14.6512359-12.3120964 26.22313119-22.03480646 50.87366483-22.03480562s36.22242892 9.72271006 50.87366564 22.03480562c13.31571396 11.18994104 29.31300962 24.60575308 55.56511671 29.11017839v2.71582607H217.6818981z m589.24206244-96.56592435v56.10512082c-12.80205148-3.62988172-21.57119302-10.97130515-31.8391757-19.59820147-16.26598059-13.66869232-36.51218701-30.68014169-74.59960665-30.6801417s-58.33362607 17.0114502-74.59960666 30.6801417c-14.6512359 12.3120964-26.22313119 22.03480646-50.87366482 22.03480563-24.64263172 0-36.21452618-9.72271006-50.86576291-22.03480563-16.26334634-13.66869232-36.50691934-30.68014169-74.5890705-30.6801417s-58.32572332 17.0114502-74.59170392 30.6801417c-14.6512359 12.3120964-26.22049695 22.03480646-50.86839715 22.03480563-24.64263172 0-36.21452618-9.72271006-50.86312867-22.03480563-13.31571396-11.18994104-29.31037537-24.60575308-55.55721395-29.11017838v-7.39674097h589.24733093z" fill="#515151" p-id="10200"></path><path d="M626.68899292 274.90917429c18.81848831 0 34.12826614-15.31241208 34.12826615-34.12826697s-15.30977783-34.12563189-34.12826615-34.1256319-34.12826614 15.30977783-34.12826696 34.1256319 15.30977783 34.12826614 34.12826696 34.12826697z m0-36.87833662a2.75270471 2.75270471 0 0 1 0 5.50277436 2.75270471 2.75270471 0 0 1 0-5.50277436zM523.47179721 322.75881604c16.27124908 0 29.51057153-13.23668903 29.51057153-29.51057236 0-16.27124908-13.23932245-29.50793728-29.51057153-29.50793728s-29.51057153 13.23668903-29.51057236 29.50793728c0.00263425 16.27388332 13.23932245 29.51057153 29.51057236 29.51057236z m0-36.87833661a7.375667 7.375667 0 0 1 7.36776426 7.36776425 7.375667 7.375667 0 0 1-7.36776426 7.37039933 7.375667 7.375667 0 0 1-7.36776508-7.37039933 7.375667 7.375667 0 0 1 7.36776508-7.36776425zM376.6881149 292.89789957c15.19124084 0 27.54811779-12.35687695 27.54811697-27.55075123 0-15.1886066-12.35687695-27.54548355-27.54811697-27.54548355s-27.54811779 12.35687695-27.5481178 27.54548355c0 15.19124084 12.35951121 27.55075122 27.5481178 27.55075123z m0-36.87833661a9.34075581 9.34075581 0 0 1 9.33021881 9.32758538c0 5.14452832-4.18569131 9.33285306-9.33021881 9.33285307s-9.3302188-4.18832557-9.33021964-9.33285307a9.33812155 9.33812155 0 0 1 9.33021964-9.32758538z" fill="#515151" p-id="10201"></path></svg>