<?xml version="1.0" standalone="no"?><!DOCTYPE svg PUBLIC "-//W3C//DTD SVG 1.1//EN" "http://www.w3.org/Graphics/SVG/1.1/DTD/svg11.dtd"><svg t="1642234852319" class="icon" viewBox="0 0 1024 1024" version="1.1" xmlns="http://www.w3.org/2000/svg" p-id="5571" xmlns:xlink="http://www.w3.org/1999/xlink" width="200" height="200"><defs><style type="text/css"></style></defs><path d="M833.24426636 478.35718096c0-12.50441043-10.12261789-22.03158059-22.03158142-22.03158141H611.73756164l-10.12261788-130.40314042c-1.19089627-11.31351416-10.71806644-20.2452366-22.03158143-20.24523577H443.82118912c-11.31351416 0-21.43613287 8.93172162-22.0315806 20.24523577L411.66698981 456.32559956H213.38276278c-12.50441043 0-22.03158059 10.12261789-22.03158059 22.03158141 0 128.61679642 76.2173605 239.9655965 185.77981659 291.17413531l-33.9405433 103.01252619c-2.38179254 6.54992908-1.19089627 14.29075525 2.97724026 19.64978805 4.16813654 5.95448136 10.71806644 8.93172162 17.86344406 8.93172244h294.74682413c7.14537762 0 13.6953067-3.57268882 17.86344405-8.93172244 4.16813654-5.95448136 5.35903281-13.09985898 2.97724028-19.64978805l-33.34509476-102.41707846c110.15790381-51.20853882 186.97071286-162.55733972 186.97071286-291.76958305z m-369.17784064-128.61679641h94.67625229l8.33627389 106.58521501H455.73015183l8.33627389-106.58521501z m141.12120685 436.46347953l23.22247686 71.45377542H394.39899429l23.22247687-71.45377542c4.76358508 1.19089627 8.93172162 2.38179254 13.69530753 3.5726888h1.19089627c4.16813654 1.19089627 8.93172162 2.38179254 13.09985815 2.97724028 1.19089627 0 1.78634399 0.59544772 2.97724109 0.59544854 4.76358508 1.19089627 8.93172162 1.78634399 13.6953067 2.38179255h1.19089627c4.76358508 0.59544772 9.52717016 1.19089627 14.88620379 1.78634399 1.19089627 0 2.38179254 0 3.57268882 0.59544854 3.57268882 0.59544772 7.74082535 0.59544772 11.31351416 0.59544772h4.16813654c4.76358508 0 9.52717016 0.59544772 13.69530752 0.59544855h1.19089627c4.76358508 0 9.52717016 0 14.29075525-0.59544855h4.16813654c4.16813654 0 7.74082535-0.59544772 11.9089627-1.19089626h2.97724027c4.76358508-0.59544772 10.12261789-1.19089627 14.8862038-1.78634399h1.19089627c4.76358508-0.59544772 9.52717016-1.78634399 13.6953067-2.38179255 0.59544772 0 1.78634399-0.59544772 2.38179254-0.59544854 9.52717016-1.78634399 18.45889178-4.16813654 27.39061423-6.54992908z m-1.78634482-46.44495456s-0.59544772 0-0.59544773 0.59544854l-10.71806644 3.57268882c-0.59544772 0-1.19089627 0.59544772-1.7863448 0.59544772-3.57268882 1.19089627-7.14537762 1.78634399-10.71806645 2.97724109-0.59544772 0-1.19089627 0.59544772-2.3817917 0.59544773-3.57268882 0.59544772-6.54992908 1.78634399-10.12261873 2.38179254-0.59544772 0-1.78634399 0.59544772-2.38179253 0.59544855-2.97724027 0.59544772-6.54992908 1.19089627-9.52717017 1.78634399-1.19089627 0-2.38179254 0.59544772-2.97724027 0.59544854-2.97724027 0.59544772-5.95448136 0.59544772-9.52717017 1.19089627-1.19089627 0-2.38179254 0.59544772-3.5726888 0.59544773-2.97724027 0-5.95448136 0.59544772-8.93172163 0.59544855h-30.36785532c-1.78634399 0-2.97724027 0-4.76358508-0.59544855-2.97724027 0-5.35903281-0.59544772-8.33627307-0.59544773-1.19089627 0-2.97724027-0.59544772-4.16813736-0.59544855-2.97724027-0.59544772-5.95448136-0.59544772-8.93172162-1.19089626-1.19089627 0-2.38179254-0.59544772-3.5726888-0.59544773-2.97724027-0.59544772-6.54992908-1.19089627-9.52717017-1.78634481-1.19089627 0-1.78634399-0.59544772-2.97724109-0.59544774-3.57268882-0.59544772-6.54992908-1.19089627-9.52717016-2.38179253-0.59544772 0-1.78634399-0.59544772-2.38179255-0.59544855-3.57268882-0.59544772-6.54992908-1.78634399-10.12261788-2.97724026-0.59544772 0-1.19089627-0.59544772-1.78634401-0.59544855l-10.71806643-3.57268881c-0.59544772 0-0.59544772 0-1.19089627-0.59544773-101.22618218-35.72688812-175.65719871-128.02134788-184.58892032-239.37014878h551.98041614c-10.12261789 111.94424863-84.5536344 204.83415692-185.77981659 239.96559651z m55.97212473-325.71012717c-8.93172162 8.3362739-9.52717016 22.03158059-1.19089627 30.96330303 4.16813654 4.76358508 10.12261789 7.14537762 16.07709924 7.14537764 5.35903281 0 10.71806644-1.78634399 14.88620297-5.95448136s26.19971796-25.60426941 26.79516568-52.3994351c0.59544772-13.09985898-4.16813654-25.00882168-13.6953067-35.13144039-7.14537762-7.74082535-8.3362739-16.07709924-7.74082535-22.0315806 0.59544772-7.74082535 4.16813654-14.29075525 7.74082535-16.67254779 9.52717016-7.14537762 11.31351416-21.43613287 4.16813737-30.96330222s-21.43613287-11.31351416-30.96330305-4.16813735c-13.6953067 10.71806644-23.22247687 28.5815105-24.41337314 48.23129855-1.78634399 20.84068432 5.35903281 40.49047321 19.64978806 55.97212472 5.95448136 6.54992908-8.93172162 22.62702915-11.31351416 25.00882087z m-340.59633096-7.14537762c-8.93172162 8.3362739-9.52717016 22.03158059-1.19089628 30.96330303 4.16813654 4.76358508 10.12261789 7.14537762 16.07710006 7.14537762 5.35903281 0 10.71806644-1.78634399 14.88620298-5.95448135s26.19971796-25.60426941 26.79516568-52.39943509c0.59544772-13.09985898-4.16813654-25.00882168-13.6953067-35.13143957-7.14537762-7.74082535-8.3362739-16.07709924-7.74082535-22.03158142 0.59544772-7.74082535 4.16813654-14.29075525 7.74082535-16.67254779 9.52717016-7.14537762 11.31351416-21.43613287 4.16813653-30.96330222s-21.43613287-11.31351416-30.9633022-4.16813736c-13.6953067 10.71806644-23.22247687 28.5815105-24.41337314 48.23129855-1.78634399 20.84068432 5.35903281 40.49047321 19.64978805 55.97212473 5.35903281 6.54992908-9.52717016 22.62702915-11.31351498 25.00882087z m168.51182106-151.24382475c-8.93172162 8.3362739-9.52717016 22.03158059-1.19089626 30.96330305 4.16813654 4.76358508 10.12261789 7.14537762 16.07709924 7.14537761 5.35903281 0 10.71806644-1.78634399 14.8862038-5.95448134s26.19971796-25.60426941 26.79516568-52.39943592c0.59544772-13.09985898-4.16813654-25.00882168-13.69530671-35.13143957-7.14537762-7.74082535-8.3362739-16.07709924-7.74082617-22.03158059 0.59544772-7.74082535 4.16813654-14.29075525 7.74082617-16.6725478 9.52717016-7.14537762 11.31351416-21.43613287 4.16813654-30.96330221s-21.43613287-11.31351416-30.96330304-4.16813737c-13.6953067 10.71806644-23.22247687 28.5815105-24.41337314 48.23129856-1.78634399 20.84068432 5.35903281 40.49047321 19.64978806 55.9721239 5.95448136 6.54992908-8.93172162 22.62702915-11.31351417 25.00882168z" p-id="5572"></path></svg>