<?xml version="1.0" standalone="no"?><!DOCTYPE svg PUBLIC "-//W3C//DTD SVG 1.1//EN" "http://www.w3.org/Graphics/SVG/1.1/DTD/svg11.dtd"><svg t="1642235420454" class="icon" viewBox="0 0 1024 1024" version="1.1" xmlns="http://www.w3.org/2000/svg" p-id="5545" xmlns:xlink="http://www.w3.org/1999/xlink" width="200" height="200"><defs><style type="text/css"></style></defs><path d="M440.31420875 680.09082055h-4.94384719c-64.27001977-29.66308594-108.76464867-96.4050293-108.76464867-168.09082055 0-101.34887719 84.04540992-185.39428711 185.39428711-185.39428711 56.85424828 0 108.76464867 24.71923805 143.3715818 69.21386695 4.94384789 4.94384789 2.47192359 12.35961937-2.4719236 17.30346727-7.41577148 7.41577148-12.35961937 17.30346656-7.41577148 24.71923805 39.55078102 59.32617188 32.13500953 140.8996582-19.77539086 190.338135-42.02270531 42.02270531-101.34887719 54.38232398-155.73120117 37.07885742-4.94384789-2.47192359-9.88769508-2.47192359-12.35961867 0l-7.41577149 7.41577148c0 2.47192359-2.47192359 4.94384789-7.41577148 7.41577149h-2.4719243zM512 351.32495094c-88.98925781 0-160.67504906 71.68579125-160.67504906 160.67504906 0 59.32617188 32.13500953 113.70849586 84.04541062 140.8996582 4.94384789-4.94384789 7.41577148-7.41577148 14.83154297-9.88769508 9.88769508-4.94384789 19.77539086-4.94384789 32.13500953 0 46.9665525 14.83154297 96.4050293 4.94384789 131.01196313-29.66308593 42.02270531-42.02270531 49.4384768-108.76464867 14.83154297-160.67504906-9.88769508-14.83154297-7.41577148-34.60693383 2.47192359-49.4384768-32.13500953-32.13500953-74.15771484-51.91040039-118.65234375-51.91040039z" fill="" p-id="5546"></path><path d="M277.16723609 771.55200195c-2.47192359 0-7.41577148 0-9.88769507-2.47192359-4.94384789-4.94384789-4.94384789-12.35961937 0-17.30346727 32.13500953-32.13500953 64.27001977-51.91040039 121.12426734-51.91040039 19.77539086 0 34.60693383-9.88769508 37.07885742-27.19116164 2.47192359-12.35961937 9.88769508-22.24731445 17.30346727-27.19116234 9.88769508-4.94384789 22.24731445-7.41577148 34.60693312-2.47192359 46.9665525 14.83154297 96.4050293 4.94384789 131.01196313-29.66308594 42.02270531-42.02270531 49.4384768-108.76464867 14.83154297-160.67504906-12.35961937-19.77539086-2.47192359-46.9665525 14.83154296-59.32617188 27.19116234-22.24731445 51.91040039-39.55078102 93.93310571-39.55078102 27.19116234 0 42.02270531-9.88769508 46.9665525-22.24731445 2.47192359-7.41577148 0-12.35961937-4.94384789-19.77539086-4.94384789-4.94384789-4.94384789-12.35961937 0-17.30346656s12.35961937-4.94384789 17.30346726 0c14.83154297 14.83154297 17.30346656 29.66308594 12.35961867 46.9665525-9.88769508 22.24731445-37.07885742 37.07885742-69.21386695 37.07885742-34.60693383 0-51.91040039 14.83154297-79.10156273 34.60693383-7.41577148 4.94384789-12.35961937 19.77539086-7.41577149 27.19116164 39.55078102 59.32617188 32.13500953 140.8996582-19.77539015 190.338135-42.02270531 42.02270531-101.34887719 54.38232398-155.73120118 37.07885742-4.94384789-2.47192359-12.35961937-2.47192359-14.83154296 0-2.47192359 2.47192359-4.94384789 4.94384789-7.41577149 9.88769508-4.94384789 29.66308594-29.66308594 46.9665525-61.79809617 46.9665532-42.02270531 0-69.21386695 12.35961937-101.34887649 46.9665525h-9.88769578zM519.41577148 803.68701148c-17.30346656 0-34.60693383-2.47192359-49.43847679-7.41577148-7.41577148-2.47192359-9.88769508-9.88769508-7.41577149-14.83154297 2.47192359-7.41577148 9.88769508-9.88769508 14.83154297-7.41577148 29.66308594 12.35961937 59.32617188 7.41577148 76.62963914 0 7.41577148-2.47192359 12.35961937 0 17.30346657 7.41577148 2.47192359 7.41577148 0 12.35961937-7.41577149 17.30346727-12.35961937 2.47192359-27.19116234 4.94384789-44.49462891 4.94384718zM783.91162133 549.07885742c-2.47192359 0-7.41577148 0-9.88769578-2.47192359-4.94384789-4.94384789-4.94384789-12.35961937 0-17.30346727 17.30346656-17.30346656 7.41577148-74.15771484 0-81.57348633-4.94384789-4.94384789-4.94384789-12.35961937 0-17.30346656 4.94384789-4.94384789 12.35961937-4.94384789 17.30346726 0 17.30346656 17.30346656 27.19116234 88.98925781 0 116.18042016 0 2.47192359-4.94384789 2.47192359-7.41577148 2.47192359zM729.52929664 702.338135c-32.13500953 0-61.79809547-14.83154297-79.10156203-32.13501023-4.94384789-4.94384789-4.94384789-12.35961937 0-17.30346657s12.35961937-4.94384789 17.30346656 0c17.30346656 17.30346656 49.4384768 32.13500953 86.51733422 22.24731446 7.41577148-2.47192359 12.35961937 2.47192359 14.83154297 7.41577148 2.47192359 7.41577148-2.47192359 12.35961937-7.41577149 14.83154297-9.88769508 2.47192359-22.24731445 4.94384789-32.13501023 4.94384789z" fill="" p-id="5547"></path><path d="M512 870.42895484C314.24609352 870.42895484 153.57104516 709.75390648 153.57104516 512S314.24609352 153.57104516 512 153.57104516 870.42895484 314.24609352 870.42895484 512 709.75390648 870.42895484 512 870.42895484z m0-692.13867164C329.07763648 178.2902832 178.2902832 329.07763648 178.2902832 512S329.07763648 845.7097168 512 845.7097168 845.7097168 694.92236352 845.7097168 512 694.92236352 178.2902832 512 178.2902832z" fill="" p-id="5548"></path><path d="M314.24609352 635.59619164m-12.35961868 0a12.35961937 12.35961937 0 1 0 24.71923805 0 12.35961937 12.35961937 0 1 0-24.71923805 0Z" fill="" p-id="5549"></path><path d="M264.80761742 462.5615232m-12.35961937 0a12.35961937 12.35961937 0 1 0 24.71923804 0 12.35961937 12.35961937 0 1 0-24.71923804 0Z" fill="" p-id="5550"></path><path d="M413.12304711 264.80761742m-12.35961938 0a12.35961937 12.35961937 0 1 0 24.71923805 0 12.35961937 12.35961937 0 1 0-24.71923805 0Z" fill="" p-id="5551"></path><path d="M610.87695289 289.52685547m-12.35961867 0a12.35961937 12.35961937 0 1 0 24.71923805 0 12.35961937 12.35961937 0 1 0-24.71923805 0Z" fill="" p-id="5552"></path></svg>