<?xml version="1.0" standalone="no"?><!DOCTYPE svg PUBLIC "-//W3C//DTD SVG 1.1//EN" "http://www.w3.org/Graphics/SVG/1.1/DTD/svg11.dtd"><svg t="1642235792227" class="icon" viewBox="0 0 1024 1024" version="1.1" xmlns="http://www.w3.org/2000/svg" p-id="6187" xmlns:xlink="http://www.w3.org/1999/xlink" width="200" height="200"><defs><style type="text/css"></style></defs><path d="M834.33886719 785.31998698h-13.84277344V466.93619792c0-5.93261719 0-9.88769531-1.97753906-15.8203125 0-3.95507813-1.97753906-5.93261719-3.95507813-7.91015625-9.88769531-35.59570313-43.50585938-61.30371094-83.05664062-61.30371094H527.8203125V233.58658854c0-7.91015625-5.93261719-15.8203125-15.8203125-15.82031249s-15.8203125 7.91015625-15.8203125 15.8203125v146.33789062H286.56054687c-33.61816406 0-65.25878906 19.77539063-79.10156249 51.41601563-1.97753906 3.95507813-1.97753906 5.93261719 0 9.88769531-1.97753906 7.91015625-3.95507813 15.8203125-3.95507813 25.70800781v318.38378906h-13.84277344c-25.70800781 0-47.4609375 21.75292969-47.4609375 47.4609375v3.95507813c0 25.70800781 21.75292969 47.4609375 47.4609375 47.4609375h644.67773438c25.70800781 0 47.4609375-21.75292969 47.4609375-47.4609375v-3.95507813c0-25.70800781-21.75292969-47.4609375-47.4609375-47.4609375zM731.50683594 411.56510417c19.77539063 0 39.55078125 11.86523438 49.43847656 27.68554688-19.77539063-1.97753906-37.57324219-13.84277344-51.41601563-27.68554688h1.97753907z m-49.43847657 0c-15.8203125 17.79785156-37.57324219 29.66308594-61.30371093 29.66308594H610.87695313c-19.77539063-3.95507813-37.57324219-13.84277344-49.43847657-27.68554688h120.62988282z m-172.04589843 0c-15.8203125 17.79785156-37.57324219 29.66308594-61.30371094 29.66308594H436.85351562c-19.77539063-3.95507813-37.57324219-13.84277344-49.43847656-27.68554688h122.60742188zM286.56054687 411.56510417h53.39355469c-15.8203125 17.79785156-37.57324219 29.66308594-61.30371093 29.66308594h-11.86523438c-7.91015625-1.97753906-15.8203125-3.95507813-21.75292969-7.91015625 7.91015625-13.84277344 23.73046875-21.75292969 41.52832032-21.75292969z m-53.39355468 55.37109375v-5.93261719c9.88769531 3.95507813 21.75292969 7.91015625 33.61816406 7.91015625h11.86523438c33.61816406 0 63.28125-13.84277344 83.05664062-37.57324218 21.75292969 23.73046875 51.41601563 37.57324219 83.05664063 37.57324218h1.97753906c33.61816406 0 63.28125-13.84277344 85.03417969-39.55078125 19.77539063 23.73046875 51.41601563 39.55078125 85.03417968 39.55078125h1.97753907c31.640625 0 63.28125-13.84277344 83.05664062-37.57324218 21.75292969 23.73046875 51.41601563 37.57324219 83.05664063 37.57324218h1.97753906v316.40625h-553.7109375V466.93619792z m618.96972656 371.77734375c0 9.88769531-7.91015625 17.79785156-17.79785156 17.79785156H189.66113281c-9.88769531 0-17.79785156-7.91015625-17.79785156-17.79785156v-3.95507813c0-9.88769531 7.91015625-17.79785156 17.79785156-17.79785156h644.67773438c9.88769531 0 17.79785156 7.91015625 17.79785156 17.79785157v3.95507812zM512 207.87858073c7.91015625-9.88769531 11.86523438-17.79785156 15.8203125-27.68554687 1.97753906-7.91015625 3.95507813-17.79785156 3.95507813-25.70800782 0-9.88769531-1.97753906-17.79785156-3.95507813-27.68554687-3.95507813-9.88769531-7.91015625-17.79785156-15.8203125-27.68554688-7.91015625 9.88769531-11.86523438 17.79785156-15.8203125 27.68554688-1.97753906 9.88769531-3.95507813 17.79785156-3.95507813 27.68554687 0 9.88769531 1.97753906 17.79785156 3.95507813 27.68554688 3.95507813 7.91015625 7.91015625 17.79785156 15.8203125 25.70800781z" p-id="6188"></path><path d="M203.50390625 528.23990886V747.7467448h616.9921875V528.23990886H203.50390625zM800.72070313 708.19596355H223.27929687v-140.40527344h577.44140625V708.19596355z" p-id="6189"></path></svg>