<?xml version="1.0" standalone="no"?><!DOCTYPE svg PUBLIC "-//W3C//DTD SVG 1.1//EN" "http://www.w3.org/Graphics/SVG/1.1/DTD/svg11.dtd"><svg t="1642236446391" class="icon" viewBox="0 0 1024 1024" version="1.1" xmlns="http://www.w3.org/2000/svg" p-id="6199" xmlns:xlink="http://www.w3.org/1999/xlink" width="200" height="200"><defs><style type="text/css"></style></defs><path d="M297.6162262 460.6349678h391.64697647c16.74264907 0 30.17678261 12.97914504 31.08444213 29.0736866h25.11551858c27.58049011 0 52.6952362 11.48672104 70.54175376 29.33246613 18.29996108 18.30073357 29.72179414 43.22004319 29.72179413 70.99596977 0 27.12627412-11.42106056 52.4356842-29.72179413 70.73641778-17.84651756 17.84651756-42.96126366 29.3332386-70.54252624 29.3332386h-39.45653916c-10.12330056 26.0231781-26.0231781 49.58061218-45.42700767 69.17910575h-0.454216 0.454216c-36.99079514 36.99079514-88.38827134 60.15812873-144.58745957 60.15812874h-45.62244414c-56.00452423 0-106.88289643-23.1673336-143.93857957-60.15812874-37.05568313-37.05568313-60.15890122-87.93405533-60.15890122-144.13401603V491.97973442c0.06488799-17.65108108 13.69368553-31.34476662 31.34476663-31.34476662z m173.66191863-42.31238364c4.15283203 9.73474502-0.454216 20.70236206-10.12407302 24.20631408-9.02020454 4.21772003-20.24737358-0.454216-24.01165008-9.66908455-4.86660004-11.94093704-8.63087654-24.20631409-11.48672105-37.05568314-2.66040802-12.78448105-3.95816803-25.56896211-3.95816803-38.80765915 0-12.78448105 1.36264802-26.0231781 3.95816803-38.54810715 2.40162849-12.52492905 6.620121-25.11474609 11.48672105-36.99079513 3.76427651-9.47519302 14.99144554-13.88757705 24.01165008-9.92940902 9.73474502 3.9589405 14.34179306 14.79678154 10.12407302 24.27120208-3.9589405 9.28052902-6.81401253 19.40460205-9.28052901 29.98211861-1.94664002 9.92863655-2.85507202 20.50692559-2.85507203 31.27987862 0 11.03173256 0.90843201 21.61002158 2.85507203 31.53943061 2.01152802 10.12330056 5.06203652 20.2466011 9.28052901 29.72179414z m73.13804626-2.91996003c3.30928803 7.72244453-0.39010048 16.54798507-8.112545 19.33894158-7.20334053 3.37417602-16.15942955-0.32444001-19.14427758-7.72244454-3.89328003-9.47519302-6.87890053-19.33894158-9.15075301-29.5279026-2.07641602-10.18896103-3.17951203-20.37792206-3.17951203-30.95543862 0-10.18896103 1.03820801-20.70158958 3.17951203-30.76000214 1.94664002-9.99429702 5.25670052-20.05348206 9.15075301-29.52790259 2.98484802-7.52778053 11.94093704-11.03250503 19.14427758-7.91788103 7.72244453 3.1802845 11.42183303 11.81116103 8.11177253 19.33971406-3.17951203 7.39800454-5.45136452 15.44488907-7.39800453 23.88110161-1.55731201 7.91788101-2.27108002 16.35332108-2.27108001 24.92008209 0 8.82631301 0.713768 17.19763756 2.27108001 25.11474609 1.62220001 8.17666054 4.08871651 16.28920554 7.39800453 23.81698609z m-135.95735549 2.91996003c-3.9589405-9.47442055-7.07356453-19.5977211-9.28052902-29.72179414-2.01152802-9.92940903-2.85507202-20.50769806-2.85507203-31.54020309 0-10.77218056 0.843544-21.35046958 2.85507203-31.27910614 2.20696449-10.57828903 5.32236099-20.70236206 9.28052902-29.98211861 5.06203652-11.94093704 8.82554055-24.01165008 11.48672104-36.60146714 2.66040802-12.97914504 3.76350403-26.0231781 3.76350403-39.19698715 0-12.52492905-1.10309602-26.0231781-3.76350403-38.54810714-2.6611805-12.52492905-6.35979653-25.11474609-11.48672104-36.79613114-3.9589405-9.47442055-14.99144554-14.08224106-24.20631408-9.92863655-9.27975654 3.95816803-13.88757705 14.99067307-9.66985704 24.46586609 3.9589405 9.73397256 6.81478501 19.40382957 9.28052903 29.52713013 1.75197602 9.92940903 2.85507202 20.50769806 2.85507202 31.27987861 0 11.03250503-1.10309602 21.61079407-2.85507202 31.5402031-2.46574402 10.38208008-5.32158852 20.2466011-9.28052903 29.98134613-4.80171203 11.87604905-9.02020454 24.46586609-11.42106055 36.99079514-2.8558445 12.58981704-3.9589405 25.7636261-3.9589405 38.54810715 0 13.23869705 1.10309602 26.0231781 3.9589405 38.80765915 2.40085601 12.78448105 6.61934853 25.11474609 11.42106055 37.05568312 3.9589405 9.21486855 14.53722954 13.88757705 24.0116501 9.66908456 9.21564102-3.50395203 14.08224106-14.53645706 9.86452102-24.27120208zM719.76442528 511.51333999V621.3826294c0 15.63955307-1.62220001 31.47377014-4.15360451 46.5293312h35.36782265c21.35124206 0 40.81995964-8.50110053 54.7724247-22.7131176 14.53645706-14.27690506 23.29788208-33.42118264 23.29788208-55.0968647 0-21.35124206-8.76142502-41.07873917-23.29788208-55.35564422-13.95246506-13.95323753-33.42118264-23.29788208-54.7724247-23.29788208H719.76519776v0.06488799z m-479.6459198 369.6468544c-10.12330056 0-18.49539757-7.91788101-18.49539757-18.49539756 0-10.38362503 8.37209702-18.49539757 18.49539757-18.49539757h506.4477539c10.38285256 0 18.9488411 8.17666054 18.9488411 18.49539757 0 10.57828903-8.56598855 18.49539757-18.9488411 18.49539756H240.11850548z m444.08266068-376.7211914h-381.58779145v106.81955338c0 45.10256768 18.62517356 86.18130683 48.41262818 115.96876144 29.85157012 29.85157012 71.12574577 48.21796417 115.70920944 48.21796417h52.7601242c45.10256768 0 86.18207932-18.36639404 116.22831345-48.21796417v0.259552c29.5927906-30.04700661 48.41262818-71.12574577 48.41262817-116.22831344V504.43977547h0.06488801z" fill="#2C2C2C" p-id="6200"></path></svg>