<?xml version="1.0" standalone="no"?><!DOCTYPE svg PUBLIC "-//W3C//DTD SVG 1.1//EN" "http://www.w3.org/Graphics/SVG/1.1/DTD/svg11.dtd"><svg t="1641886950272" class="icon" viewBox="0 0 1024 1024" version="1.1" xmlns="http://www.w3.org/2000/svg" p-id="3639" xmlns:xlink="http://www.w3.org/1999/xlink" width="200" height="200"><defs><style type="text/css"></style></defs><path d="M565.25213098 356.58393332l-9.74147773 0.76704537-1.51491438 0.15340924c-69.0149144 6.1555394-120.8671875 25.38920462-159.44957448 54.57528342a213.62215924 213.62215924 0 0 0-32.08167552 29.89559672l-3.98863697 4.71732964c-5.50355137 6.61576713-12.4069606 15.34090925-12.234375 15.1491481a159.87144863 159.87144863 0 0 1-29.33948803 26.98082364 163.61079538 163.61079538 0 0 1-53.50142039 24.98650597l-6.7116481 1.62997093c-7.3828125 1.62997175-12.92471575 2.30113613-15.97372175 2.41619348-39.6946019 3.06818151-65.96590925 19.92400598-79.19744265 46.13778423a84.6242894 84.6242894 0 0 0-9.0703125 40.44247176l0.30681765 5.44602226-0.03835189-1.66832363c0 44.4694606 37.546875 79.6960231 98.48863614 110.64630652 19.63636387 9.9524144 40.5 18.75426113 61.36363615 26.34801196 3.64346575 1.34232962 7.15269863 2.5696019 10.52769945 3.72017039l13.61505652 4.48721575 4.00781251 1.22727228a735.84588098 735.84588098 0 0 0 258.68607961 31.50639212l9.5305394-0.6328125c7.40198887-0.53693152 13.00142038-1.0930394 16.6257106-1.53409076l1.64914728-0.19176114c108.11505652-13.8835231 176.1328125-60.21306848 209.05823885-128.86363615 20.11576713-41.9382106 24.54545462-85.58309674 20.21164812-124.1079546l-0.6328125-5.13920462-0.82457447-5.08167637c-14.9765625-80.69318151-71.296875-129.3430394-152.94886303-151.4914769-46.27201712-12.54119348-94.38494348-15.26420462-136.82173289-12.52201711zM200.46448887 605.1066602c-0.421875-5.6569606 0.55610788-13.00142038 3.83522688-19.50213015 5.5227269-10.9303981 16.79829538-18.140625 39.19602312-19.90482962l4.35298288-0.28764212a180.40909075 180.40909075 0 0 0 27.72869265-5.23508561 211.1867894 211.1867894 0 0 0 69.1491481-32.29261385c11.8508519-8.4375 22.93465924-18.21732962 33.09801113-29.37784077l4.98579539-5.6953125c0.57528425-0.67116439 11.46732962-14.42045462 15.66690408-19.1953125 7.47869348-8.49502825 15.45596576-16.08877826 24.98650516-23.29900515 29.81889212-22.5703125 70.60653424-38.19886387 127.1953125-44.296875l13.00142037-1.265625 4.65980137-0.34517038c37.64275598-2.41619348 80.84659076 0.0383519 121.19318152 10.96875 63.47301113 17.22017038 104.64417637 51.64133559 117.26207446 108.55610787l1.15056765 5.69531251c0.15340924 0.72869348 0.40269863 2.30113613 0.69034077 4.62144864l0.23011386 1.8984375c3.39417637 30.35582363-0.15340924 65.390625-15.8203125 98.06676114-24.9289769 52.02485788-76.47443152 88.09517038-164.37784076 100.98153424l-7.63210189 1.0546875c-2.62713098 0.34517038-7.88139212 0.8821019-15.55184674 1.4382106a689.57386387 689.57386387 0 0 1-239.74005735-25.58096658l-15.95454539-4.83238614-2.30113614-0.72869349c-5.56107962-1.80255652-11.7741481-3.93110788-18.50497173-6.38565327-19.17613613-6.98011387-38.31392038-15.05326713-56.05184674-24.06605052-44.02840925-22.34019863-70.18465925-46.17613613-72.140625-65.58238697l-0.30681765-5.42684673z" p-id="3640"></path><path d="M868.33096576 557.24302406l2.83806848 139.64062501 0.15340924 1.74502826c2.20525598 30.87357962-7.05681847 68.63139212-37.25923288 104.5866481-37.68110788 44.83380652-101.32670462 76.359375-195.44318235 90.20454539l-5.86789727 0.67116438c-3.25994348 0.32599402-7.3828125 0.67116439-12.27272773 1.03551115a739.85369348 739.85369348 0 0 1-254.96590923-26.84659078l-17.64204539-5.23508475-2.109375-0.63281251a575.91690325 575.91690325 0 0 1-19.98153423-6.61576712 548.84019863 548.84019863 0 0 1-60.7883519-25.29332364C206.40909075 801.62370558 169.51420462 768.44898982 167.21306848 726.51078005l-0.11505735-4.21875-0.95880651-105.62215923 47.94034076-0.44105137 0.95880652 105.85227309c0 19.17613613 26.04119348 43.16548288 71.16264212 65.44815327 17.54616439 8.62926113 36.47301113 16.37642038 55.4382106 23.01136304l9.58806848 3.25994348 12.9055394 4.08451712 3.02982962 0.8821019a693.5625 693.5625 0 0 0 249.86505651 28.53409158l10.60440327-0.88210273c1.99431847-0.19176113 3.49005652-0.36434675 4.41051197-0.47940325 82.84090925-12.17684675 135.76704538-38.40980137 165.29829537-73.55965924 12.234375-14.57386387 19.75142038-29.9147731 23.54829538-45.38991439 2.109375-8.6867894 2.83806848-16.2805394 2.72301113-22.14843751l-0.13423287-3.20241523-0.2109375-2.68465923-2.87642038-140.75284077 47.94034075-0.95880652z" p-id="3641"></path><path d="M661.765625 585.0675977l95.88068152 136.97514213-39.2727269 27.49857962-95.88068152-136.97514212zM510.37002825 378.65566619l95.88068235 123.26420463-37.83451712 29.43536901-95.88068235-123.28338098zM400.95099402 461.01717135l219.14488696 287.6420462-38.12215923 29.05184592-219.1640625-287.64204539zM277.78267038 529.64856347l164.35866523 219.16406249-38.35227311 28.76420462-164.3586644-219.16406251zM674.86292637 365.09813793l178.06960188 232.85582364-38.0838065 29.12855136-178.06960273-232.85582446z" p-id="3642"></path><path d="M621.57244348 492.67697269c-45.71590925 0-85.6022731 26.578125-85.6022731 65.04545464 0 38.46732962 39.88636387 65.06463098 85.6022731 65.06463098 45.71590925 0 85.62144863-26.59730137 85.62144864-65.06463098s-39.88636387-65.04545462-85.62144864-65.04545463z m0 47.94034078c22.37855137 0 37.68110788 10.18252825 37.68110789 17.10511386s-15.30255652 17.1242894-37.68110789 17.12429022c-22.359375 0-37.66193152-10.20170462-37.66193235-17.12429022 0-6.90340925 15.30255652-17.10511387 37.66193235-17.10511386zM355.0625 195.02498385a23.97017038 23.97017038 0 0 1 27.67116439 39.04261385l-2.10937499 1.51491523a49.97301113 49.97301113 0 0 0-8.76349402 7.57457364c-9.76065325 10.47017038-10.60440325 16.9133519 2.953125 28.4765625l2.55042637 2.10937499c15.74360788 12.57954538 25.98366439 25.9453125 28.13139212 44.27769864 2.83806848 24.14275598-11.02627826 46.73224402-40.05894947 67.46164812a23.97017038 23.97017038 0 0 1-27.84375-39.0234375c16.20383561-11.58238613 20.74857962-18.984375 20.28835272-22.85795463-0.26846576-2.26278425-2.87642038-5.9446019-8.05397772-10.43181849l-2.3970163-1.99431765c-40.42329538-32.2734375-38.37144863-70.9133519-10.66193235-100.67471658a95.11363613 95.11363613 0 0 1 18.29403425-15.47514212zM601.6100856 140.23876292a23.97017038 23.97017038 0 0 1 27.69034077 39.04261305l-2.14772774 1.51491522a49.9921875 49.9921875 0 0 0-8.74431765 7.57457364c-9.7414769 10.47017038-10.60440325 16.9133519 2.953125 28.4765625l2.55042554 2.09019864c15.76278425 12.59872175 25.98366439 25.96448887 28.13139211 44.296875 2.83806848 24.14275598-11.02627826 46.73224402-40.078125 67.4616481a23.97017038 23.97017038 0 0 1-27.84375-39.0234375c16.22301113-11.58238613 20.76775598-18.984375 20.32670463-22.85795462-0.28764212-2.2819606-2.89559675-5.9446019-8.07315326-10.45099402l-2.37784075-1.97514211c-40.44247175-32.2734375-38.390625-70.9133519-10.68110788-100.67471577 6.69247175-7.19105137 13.30823887-12.34943152 18.29403423-15.49431848zM474.9133519 88.04131945a23.97017038 23.97017038 0 0 1 34.22940408 33.48153425l-1.84090924 1.87926113a65.75497175 65.75497175 0 0 0-9.53054022 12.00426114c-13.17400598 20.59517038-14.45880652 41.0944606 3.49005735 63.79900598l2.56960188 3.10653425c34.51704538 40.1164769 38.33309674 87.1555394-11.77414726 139.19957362a23.97017038 23.97017038 0 0 1-34.53622175-33.27059674c30.10653424-31.2571019 29.70383561-50.47159076 11.94673288-72.29403423l-1.95596575-2.35866441c-35.99360788-41.8039769-34.36363613-86.1008519-10.125-124.01207362 6.328125-9.8757106 12.73295462-17.1242894 17.52698803-21.53480137z" p-id="3643"></path></svg>