<?xml version="1.0" standalone="no"?><!DOCTYPE svg PUBLIC "-//W3C//DTD SVG 1.1//EN" "http://www.w3.org/Graphics/SVG/1.1/DTD/svg11.dtd"><svg t="1642310900609" class="icon" viewBox="0 0 1024 1024" version="1.1" xmlns="http://www.w3.org/2000/svg" p-id="4754" xmlns:xlink="http://www.w3.org/1999/xlink" width="200" height="200"><defs><style type="text/css"></style></defs><path d="M748.21179834 283.15016035c-45.24742266-35.47464785-98.53899082-59.83193408-154.86959883-72.02766533-6.67077715-38.98406865-40.63534893-68.79615644-81.51263438-68.79615645-40.87008984 0-74.8337625 29.81118779-81.51353349 68.79615645-56.33960185 12.19663037-109.62217617 36.55301748-154.86959883 72.02766534-63.08952539 49.47725479-100.75328965 113.826825-100.75328965 172.12889618 0 38.35899229 14.70592969 66.71136972 39.91313848 87.69774112l39.40228565 317.19154395c1.38955781 11.18931328 10.89251455 19.56263643 22.15917597 19.56263642L747.49138701 879.73097803c11.2648623 0 20.76871904-8.37332315 22.15827686-19.56263642l39.40228564-317.19154395c25.20720967-20.98637138 39.9149376-49.33874795 39.9149376-87.69774112C848.96598711 396.97608623 811.30042461 332.62741426 748.21179834 283.15016035zM480.57485644 203.40842539c6.89742334-9.90228604 18.31068545-16.39948096 31.25380958-16.39948096 12.943125 0 24.35638623 6.49719492 31.25291044 16.39948096 4.29998467 6.15003047 6.86234708 13.62036533 6.86234708 21.71667568 0 8.68631045-3.04083809 16.64231661-7.97309385 23.0711581-6.96667675 9.06855117-17.82411504 15.04499941-30.14216367 15.04499942s-23.17548691-5.97644825-30.14216368-15.04499941c-4.93405488-6.42794151-7.98298769-14.38484677-7.9829877-23.07115811C473.70441465 217.02879072 476.2757709 209.55845498 480.57485644 203.40842539zM295.90216455 835.08344932l-32.52195-261.80799434c3.05792666 1.04239336 6.26335313 1.18089932 9.45079277 0.83463398 1.85903965-0.17448135 3.71718018-0.34896357 5.48987784-0.97313993l19.24065526-7.08809414 23.52265138 269.03459443L295.90216455 835.08344932zM357.68037852 835.08344932l-23.60089864-269.86922842 26.33684327 7.88765186c4.49155459 1.35538067 9.26821582 1.25105185 13.69051787-0.24283565l21.46304794-7.40198145 11.79640196 269.62639366L357.68037852 835.08344932zM485.8821582 835.08344932l-42.02490674 0-11.84856679-270.84236924 13.88118867 8.86079268c4.57789658 1.28612812 9.44269805 1.07657051 13.90727109-0.59089922l26.08501465-3.12628008L485.8821582 835.08344932zM579.80008145 835.08344932l-54.09832149 0L525.70175996 564.17182753l24.63429814 8.51272823c4.43039589 1.52896377 9.23493867 1.63329258 13.72469503 0.27881104l27.57080742-8.26989258L579.80008145 835.08344932zM616.29104112 835.08344932l11.87464921-271.39819219 34.77222422 9.45169189c4.65434473 1.25105185 9.56231719 0.97313994 14.04487793-0.76448144l12.40349062-4.89987774-23.4084287 267.61085948L616.29104112 835.08344932zM727.75426836 835.08344932l-25.18112724 0 23.47858125-268.44459434 14.03588408 5.66346006c4.68222539 1.87612822 9.80785019 1.87612822 14.63667626 0.45149414 0.52164668-0.13760683 1.08646348-0.06925342 1.60810929-0.27881103l4.2469207-1.59641807L727.75426836 835.08344932zM747.4473169 527.0989625l-30.02974014-12.09140244c-5.29920703-2.15493926-11.21449658-2.15493926-16.52989307-0.06925342l-33.38176728 13.13379492-51.20678144-13.89827724c-4.03016748-1.07746963-8.28698115-1.04239336-12.28297237 0.1726831l-45.89768145 13.76067041-38.9930625-13.48185937c-4.92506104-1.70254599-10.30251533-1.63149346-15.18350537 0.20865849l-35.26688935 13.30737803-49.45207149-13.86320097c-4.36923809-1.21687471-9.00739336-1.07657051-13.2812956 0.38224072l-39.54978546 13.62036533-45.36884003-13.6554416c-4.63006055-1.38865869-9.59019785-1.25105185-14.13301817 0.41731699l-31.7053037 11.63900918c-38.01182783-16.29515214-55.82784903-39.7485501-55.82784903-71.40168984 0-78.10844239 93.56985967-170.39217393 215.72683682-199.23112091 12.28207237 30.36791075 42.03300146 51.87592792 76.74496699 51.87592794 34.71916026 0 64.46109551-21.50801719 76.74406787-51.91010508 122.1479833 28.87312412 215.7259377 121.15685567 215.72593769 199.26529805C804.2995707 487.21100732 786.13728506 510.80291123 747.4473169 527.0989625zM690.48983427 343.12149951l-41.16509032-20.56995352c-10.16221026-5.10763711-22.51443516-0.97313994-27.60408458 9.20705802-5.08065557 10.1460208-0.96504609 22.51533427 9.19896329 27.58789511l41.16509033 20.60413067c2.95269786 1.45971035 6.08887178 2.15493926 9.19086855 2.15493925 7.53958828 0 14.81025849-4.16957344 18.42400811-11.36199638C704.78024521 360.56247471 700.65384278 348.19316123 690.48983427 343.12149951zM498.52938271 362.30009698l-35.76964833 45.20335253c-7.05301787 8.92914609-5.54204268 21.85518252 3.37001484 28.90909951 3.77833799 2.98777412 8.28698115 4.44658536 12.7515542 4.44658535 6.08077705 0 12.09140244-2.67478682 16.15754531-7.81749931l35.77054746-45.20335254c7.05301787-8.93004521 5.54114268-21.85518252-3.37091484-28.90909952C518.51743086 351.87616425 505.58330058 353.40512715 498.52938271 362.30009698zM358.29646104 321.64855859l-39.12347461 24.21788027c-9.65945127 5.97644825-12.64722539 18.6578499-6.66268242 28.31730117 3.89975625 6.32361269 10.63259122 9.76288096 17.52012157 9.76288096 3.69109776 0 7.44425244-1.00731709 10.82326202-3.0921038l39.12347461-24.25205742c9.65945127-5.97644825 12.63823154-18.65874903 6.65368857-28.31730118C380.65530166 318.6248082 367.95591231 315.63703408 358.29646104 321.64855859z" p-id="4755"></path></svg>