<?xml version="1.0" standalone="no"?><!DOCTYPE svg PUBLIC "-//W3C//DTD SVG 1.1//EN" "http://www.w3.org/Graphics/SVG/1.1/DTD/svg11.dtd"><svg t="1642234859717" class="icon" viewBox="0 0 1024 1024" version="1.1" xmlns="http://www.w3.org/2000/svg" p-id="5993" xmlns:xlink="http://www.w3.org/1999/xlink" width="200" height="200"><defs><style type="text/css"></style></defs><path d="M937.8 404.2c-3.6-3.8-8.6-6-13.9-6h-28.2C885.2 315 813.5 250 727.7 250c-3.5 0-7 0.1-10.5 0.3-16.2-32.6-42.8-59.2-75.5-75.6-65.2-32.6-142.5-20.3-194.2 30.2-26.8-10.9-56-16.9-86.6-16.9-119.9 0-219.8 92.7-231.1 210.2H102c-5.3 0-10.3 2.2-13.9 6-3.6 3.9-5.4 9-5.1 14.3 9.5 154 100.4 290.4 238.2 358.9V825c0 27.9 22.7 50.6 50.6 50.6h282.3c27.9 0 50.6-22.7 50.5-50.6v-47.6c137.9-68.5 228.8-205 238.3-358.9 0.4-5.3-1.5-10.5-5.1-14.3z m-278.6-6c8.8-29.5 36.4-51.1 68.6-51.1 32.2 0 59.6 21.7 68.5 51.1H659.2z m-366.5 0c8.9-29.5 36.4-51.1 68.6-51.1 32.2 0 59.6 21.7 68.5 51.1H292.7z m176.4 0c-9.7-50.6-54.5-89.3-107.8-89.3s-98.1 38.6-107.8 89.3h-21.7c10.2-62.3 64.7-110 129.5-110s119.1 47.8 129.4 110h-21.6z m388.1 0h-21.6c-9.7-50.6-54.5-89.3-107.8-89.3s-98.1 38.6-107.8 89.3h-21.7c10.2-62.3 64.6-110 129.4-110s119.2 47.7 129.5 110z m-278.7-58.6c-10.4-27.8-25.9-53.1-45.5-74.7 19.9-8.1 42.5-7.4 62.2 2.5 10.2 5.1 18.9 12.2 25.7 20.9-17.3 14.1-31.7 31.6-42.4 51.3z m46.1-130.8c21.9 11 40.3 28.1 53.1 48.8-8.5 2.7-16.7 6-24.6 9.9-10.6-14.4-24.4-26.1-40.6-34.2-35-17.5-76-15.8-109.1 3.9-6.2-4.9-12.7-9.4-19.4-13.6 39.6-31.8 94.1-38.1 140.6-14.8z m-263.7 17.5c99 0 181.6 75.4 192.7 171.9h-24.3C518.8 315 447.1 250 361.3 250s-157.5 65-168.1 148.2h-24.9c11.1-96.5 93.6-172 192.6-171.9z m293.3 611.1H371.9c-6.9 0-12.4-5.6-12.4-12.4v-37.9h307.1V825c0 6.9-5.6 12.4-12.4 12.4z m23.5-89.3c-0.5 0.2-1 0.5-1.5 0.8H349.9c-0.5-0.3-1-0.6-1.5-0.8C223.3 690.2 138.3 572 122.9 436.5h780.3c-15.4 135.6-100.4 253.7-225.5 311.6z" p-id="5994"></path><path d="M356.1 680.3c3.3 2.2 7 3.2 10.6 3.2 6.1 0 12.2-3 15.9-8.5 5.8-8.8 3.5-20.6-5.3-26.5-74.9-49.9-101.5-143.1-102-144.7-2.7-10.2-13.2-16.1-23.4-13.4-10.2 2.8-16.2 13.3-13.4 23.5 1.2 4.4 30.3 108.2 117.6 166.4z" p-id="5995"></path></svg>