<?xml version="1.0" standalone="no"?><!DOCTYPE svg PUBLIC "-//W3C//DTD SVG 1.1//EN" "http://www.w3.org/Graphics/SVG/1.1/DTD/svg11.dtd"><svg t="1642310883425" class="icon" viewBox="0 0 1024 1024" version="1.1" xmlns="http://www.w3.org/2000/svg" p-id="3901" xmlns:xlink="http://www.w3.org/1999/xlink" width="200" height="200"><defs><style type="text/css"></style></defs><path d="M291.66875 499.34375C275.1875 520.1 272.09375 520.94375 257.69375 543.55625c-5.34375 7.3125-5.625 17.4375-0.05625 25.0875C264.55625 578.375 278 580.625 287.61875 573.70625c1.40625-1.0125 2.64375-2.25 3.76875-3.4875l0 0C291.5 570.10625 291.55625 570.05 291.6125 569.9375c0.5625-0.73125 1.125-1.35 1.63125-2.19375 9.28125-12.4875 22.66875-29.7 32.0625-41.45625 17.15625-21.4875 34.875-43.70625 48.9375-66.88125 56.30625-93.54375 37.2375-212.175-50.7375-317.86875C323.28125 141.0875 323.05625 140.75 322.83125 140.35625 315.85625 130.7375 302.4125 128.4875 292.79375 135.4625 283.11875 142.325 280.86875 155.76875 287.7875 165.3875 288.125 165.8375 288.40625 166.23125 288.74375 166.56875L288.575 166.7375C367.1 259.71875 384.875 358.26875 337.4 437.1875 324.85625 458 308.76875 478.1375 291.66875 499.34375z" p-id="3902"></path><path d="M831.6125 584.95625L831.6125 567.06875c0.05625-1.06875 0.16875-2.1375 0.16875-3.31875 0-23.79375-19.29375-43.03125-43.03125-43.03125L524.6 520.71875C525.78125 519.3125 526.9625 517.79375 528.14375 516.33125c17.15625-21.4875 34.875-43.70625 48.9375-66.99375 56.30625-93.4875 37.2375-212.11875-50.7375-317.86875C526.0625 131.13125 525.89375 130.79375 525.66875 130.4 518.75 120.725 505.25 118.475 495.575 125.39375 485.95625 132.3125 483.7625 145.75625 490.68125 155.4875c0.225 0.39375 0.61875 0.7875 0.95625 1.18125L491.4125 156.725c78.46875 92.98125 96.1875 191.5875 48.76875 270.45C527.6375 448.04375 511.55 468.06875 494.50625 489.3875 475.60625 513.125 456.36875 537.3125 440.73125 563.80625l43.7625 0 7.36875 0 253.8 0 43.03125 0 0 21.15-0.05625 0c0 154.18125-125.38125 279.5625-279.61875 279.5625-154.125 0-279.61875-125.38125-279.61875-279.5625L229.23125 584.95625C227.825 574.4375 218.825 566.3375 207.96875 566.3375c-10.9125 0-19.9125 8.1-21.31875 18.61875L186.425 584.95625c0 0.7875 0.05625 1.575 0.05625 2.30625 0 0.28125-0.05625 0.45-0.05625 0.61875 0 0.28125 0.05625 0.61875 0.05625 0.95625 2.08125 176.45625 145.6875 318.825 322.59375 318.825 174.99375 0 317.3625-139.275 322.5375-312.975l0 0L831.6125 594.2375c0.05625-3.0375 0.16875-6.1875 0.16875-9.28125L831.6125 584.95625z" p-id="3903"></path><path d="M682.6625 152.3375c78.525 92.98125 96.3 191.53125 48.76875 270.45-4.44375 7.48125-9.39375 14.85-14.7375 22.21875-0.16875 0.225-0.3375 0.5625-0.45 0.9-6.4125 7.3125-7.25625 18.3375-1.29375 26.6625 6.91875 9.61875 20.3625 11.8125 29.98125 4.89375 2.475-1.74375 4.3875-3.76875 5.79375-6.1875l0 0c6.24375-8.60625 12.20625-17.4375 17.60625-26.325 56.25-93.43125 37.35-211.8375-50.34375-317.475-0.05625-0.05625-0.05625-0.16875-0.1125-0.16875-0.61875-0.7875-1.2375-1.575-1.96875-2.25-0.1125-0.16875-0.225-0.3375-0.3375-0.50625l-0.05625 0.05625c-7.3125-7.25625-19.0125-8.4375-27.675-2.25-9.675 6.8625-11.8125 20.25-5.0625 29.925L682.6625 152.3375z" p-id="3904"></path></svg>