<?xml version="1.0" standalone="no"?><!DOCTYPE svg PUBLIC "-//W3C//DTD SVG 1.1//EN" "http://www.w3.org/Graphics/SVG/1.1/DTD/svg11.dtd"><svg t="1642310886624" class="icon" viewBox="0 0 1059 1024" version="1.1" xmlns="http://www.w3.org/2000/svg" p-id="4041" xmlns:xlink="http://www.w3.org/1999/xlink" width="206.8359375" height="200"><defs><style type="text/css"></style></defs><path d="M930.246875 446.38437473c-84.14999973-93.825-199.01250027-159.49687473-329.00624973-180.36562528C576.09687527 227.88125027 532.98125027 202.62499973 483.87500027 202.62499973c-23.709375 0-45.70312527 6.4125-65.27812527 16.790625C367.01562527 157.59687527 289.41875 118.24999973 202.62499973 118.24999973 193.03437527 118.24999973 183.83750027 119.59999973 174.5 120.55625027l0 28.06875028C183.80937473 147.584375 193.0625 146.37500027 202.62499973 146.37500027c77.034375 0 145.82812473 34.56562527 192.17812527 88.87499973C363.584375 261.04062527 343.25 299.57187473 343.25 343.25c0 19.828125 4.19062527 38.67187473 11.61562527 55.771875L111.66874973 652.62500027 90.125 652.62500027l0 253.125 16.5375 0 3.85312527 14.428125L933.875 699.53750027l0-254.10937527L930.246875 446.38437473zM411.73437527 257.58125027C423.77187473 275.30000027 433.75625027 294.565625 441.040625 315.12500027l29.92500027 0c-8.24062527-26.240625-20.39062527-50.709375-35.49375027-73.01249973C450.18124973 235.02499973 466.46562473 230.75000027 483.87500027 230.75000027c62.12812473 0 112.49999973 50.371875 112.49999973 112.49999973 0 62.12812473-50.371875 112.49999973-112.49999973 112.49999973s-112.49999973-50.371875-112.49999972-112.49999973C371.37499973 308.71250027 387.26562527 278.22499973 411.73437527 257.58125027zM369.43437473 424.47500027C394.91562473 460.30624973 436.56875 483.87500027 483.87500027 483.87500027c77.65312473 0 140.62500027-62.97187473 140.62500027-140.62500027 0-16.14374973-3.290625-31.41562473-8.29687471-45.84374973 110.67187527 21.99375027 208.828125 78.3 283.44374972 157.190625L147.21875027 656.196875 369.43437473 424.47500027zM118.24999973 888.9875l0-195.89062527 787.49999973-211.021875 0 195.89062527L118.24999973 888.9875z" p-id="4042"></path></svg>