<?xml version="1.0" standalone="no"?><!DOCTYPE svg PUBLIC "-//W3C//DTD SVG 1.1//EN" "http://www.w3.org/Graphics/SVG/1.1/DTD/svg11.dtd"><svg t="1642234756293" class="icon" viewBox="0 0 1024 1024" version="1.1" xmlns="http://www.w3.org/2000/svg" p-id="10640" xmlns:xlink="http://www.w3.org/1999/xlink" width="200" height="200"><defs><style type="text/css"></style></defs><path d="M621.12930664 463.64916992c0-101.30932617-82.42382813-183.7331543-183.7331543-183.73315429s-183.7331543 82.42382813-183.73315429 183.73315429v107.89453125c0 101.30932617 82.42382813 183.7331543 183.73315429 183.7331543s183.7331543-82.42382813 183.7331543-183.7331543v-107.89453125z m-24.64013672 107.89453125c0 87.72363281-71.36938477 159.09301758-159.09301758 159.09301758s-159.09301758-71.36938477-159.09301757-159.09301758v-107.89453125c0-87.72363281 71.36938477-159.09301758 159.09301757-159.09301758s159.09301758 71.36938477 159.09301758 159.09301758v107.89453125zM196.27481445 660.21655273c-24.28417969 0-51.65332031 7.05981445-73.26782226 18.88549805a12.35961914 12.35961914 0 0 0-1.76000977 20.4675293l39.17504883 31.06713867-39.17504883 31.08691406a12.33984375 12.33984375 0 0 0 1.74023438 20.4675293c21.61450195 11.82568359 49.00341797 18.88549805 73.26782226 18.88549805 45.5625 0 72.79321289-26.34082031 72.79321289-70.4597168s-27.2109375-70.40039063-72.7734375-70.40039063m0 116.2397461a134.47265625 134.47265625 0 0 1-43.78271484-8.0090332l35.41772461-28.12060547a12.35961914 12.35961914 0 0 0 0-19.32055664l-35.41772461-28.12060547a134.47265625 134.47265625 0 0 1 43.78271484-8.00903321c32.39208984 0 48.13330078 14.9699707 48.13330078 45.7800293 0 30.81005859-15.74121094 45.79980469-48.13330078 45.79980469m353.08959961-359.49682617a12.32006836 12.32006836 0 0 1 0.41528321 17.42211914l-48.27172852 50.78320312c-11.15332031 11.76635742-25.17407227 18.19335938-39.51123047 18.19335938h-0.69213867c-14.75244141-0.2175293-29.01049805-7.21801758-40.20336914-19.71606446l-44.41552735-49.53735351a12.32006836 12.32006836 0 0 1 18.19335938-16.65087891l0.17797852 0.19775391 44.39575195 49.53735351c6.64453125 7.41577148 14.3371582 11.41040039 22.20776367 11.52905274h0.35595703c7.61352539 0 15.10839844-3.63867188 21.65405274-10.52050781l48.2915039-50.78320313c4.6472168-4.94384766 12.45849609-5.14160156 17.40234375-0.45483398m0.41528321 173.44995117a12.32006836 12.32006836 0 1 1-17.58032227 17.26391601l-0.27685547-0.29663086-48.29150391-50.78320312c-6.5456543-6.90161133-14.04052734-10.52050781-21.65405273-10.52050781l-0.35595703 0.01977539c-7.87060547 0.09887695-15.56323242 4.09350586-22.20776367 11.50927734l-44.39575196 49.53735352a12.30029297 12.30029297 0 0 1-21.49584961-8.24633789c0-3.02563477 1.12719727-5.95239258 3.12451172-8.20678711l44.41552735-49.53735352c11.19287109-12.49804688 25.45092773-19.49853516 40.20336914-19.71606445 14.63378906-0.15820313 28.85229492 6.24902344 40.20336914 18.19335937l48.3112793 50.78320313z m-204.43798829-30.8100586a16.453125 16.453125 0 0 1-32.86669921 0.49438477v-0.47460937a16.43334961 16.43334961 0 0 1 32.86669921-0.0197754m0-110.24780273a16.453125 16.453125 0 0 1-32.86669921 0 16.41357422 16.41357422 0 1 1 32.86669921 0M907.59561523 449.15380859c0-77.46020508-28.49633789-138.11132813-63.61743164-183.47607421a12.22119141 12.22119141 0 0 0-2.55102539-3.32226563c-36.0703125-45.46362305-78.44897461-75.06738281-103.95922851-90.31420898a65.45654297 65.45654297 0 0 0-67.25610352-0.2175293c-23.98754883 14.31738281-59.38549805 39.0168457-91.71826172 75.28491211a365.58764648 365.58764648 0 0 0-24.6796875 31.10668945 12.32006836 12.32006836 0 1 0 20.01269532 14.39648438l0.1977539-0.27685547c1.32495117-1.93798828 2.7487793-3.81665039 4.13305664-5.73486328a329.55688477 329.55688477 0 0 0 125.49462891 24.56103515c43.4465332 0 85.50878906-8.24633789 125.27709961-24.4621582 30.21679688 41.1328125 54.0065918 94.921875 54.00659179 162.45483398 0 65.3972168-21.71337891 142.54101563-64.546875 229.35498047a1123.95410156 1123.95410156 0 0 1-61.63989257 108.34936524 12.30029297 12.30029297 0 0 0 0.31640625 13.78344726c7.49487305 10.57983398 14.79199219 21.31787109 21.91113281 32.19433594a15.70166016 15.70166016 0 0 1 0.67236328 16.35424805 15.66210938 15.66210938 0 0 1-14.02075195 8.36499023h-123.99169922a15.66210938 15.66210938 0 0 1-14.02075195-8.36499023 15.74121094 15.74121094 0 0 1 0.69213867-16.35424805c7.09936523-10.87646484 14.41625977-21.61450195 21.91113281-32.19433594a12.37939453 12.37939453 0 0 0 0.33618164-13.78344726 1172.64111328 1172.64111328 0 0 1-37.35571289-62.21337891 12.33984375 12.33984375 0 0 0-21.53540039 12.04321289 1207.05029297 1207.05029297 0 0 0 33.65771484 56.51806641c-5.99194336 8.6418457-11.90478516 17.34301758-17.65942383 26.12329101a40.65820313 40.65820313 0 0 0 33.95434571 62.90551758h123.99169922a40.61865234 40.61865234 0 0 0 33.97412109-62.90551758 1060.83105469 1060.83105469 0 0 0-17.67919922-26.12329101 1128.97705078 1128.97705078 0 0 0 58.55493164-103.76147461C885.03189453 599.18969727 907.59561523 518.34790039 907.59561523 449.15380859M703.67178711 286.54077148c-37.81054688 0-74.51367188-6.7434082-109.33813477-20.05224609 0.87011719-1.00854492 1.70068359-2.01708984 2.59057618-2.98608398 30.23657227-33.93457031 63.43945313-57.07177734 85.96362304-70.49926758a40.81640625 40.81640625 0 0 1 41.96337891 0.2175293 370.74902344 370.74902344 0 0 1 87.98071289 73.36669921 305.52978516 305.52978516 0 0 1-109.16015625 19.95336914M116.63931641 339.32128906a12.39916992 12.39916992 0 0 0 6.36767578 9.76904297c21.61450195 11.82568359 49.00341797 18.86572266 73.26782226 18.86572266 45.58227539 0 72.79321289-26.32104492 72.79321289-70.43994141S241.85708984 227.07617187 196.27481445 227.07617187c-24.28417969 0-51.65332031 7.05981445-73.26782226 18.88549805a12.33984375 12.33984375 0 0 0-1.76000977 20.4675293l39.19482422 31.08691406-39.19482422 31.08691406a12.32006836 12.32006836 0 0 0-4.60766601 10.71826172m71.27050781-32.13500976a12.32006836 12.32006836 0 0 0 0-19.32055664L152.49209961 259.74511719a134.47265625 134.47265625 0 0 1 43.78271484-8.00903321c32.39208984 0 48.13330078 14.98974609 48.13330078 45.7800293 0 30.82983398-15.74121094 45.7800293-48.13330078 45.7800293a134.47265625 134.47265625 0 0 1-43.78271484-8.0090332l35.41772461-28.10083008z m534.21240234-51.51489258a16.41357422 16.41357422 0 1 1-32.84692383 0 16.41357422 16.41357422 0 1 1 32.84692383 0m-336.63647461-52.80029297a12.32006836 12.32006836 0 0 1-0.03955078-15.38525391l38.58178711-48.35083007a12.32006836 12.32006836 0 0 1 19.28100586 15.34570312l-32.45141602 40.67797852 32.43164063 40.48022461a12.33984375 12.33984375 0 0 1-19.26123047 15.42480468l-38.54223633-48.19262695z m-88.04003906 0a12.28051758 12.28051758 0 0 1-0.01977539-15.38525391l38.56201172-48.35083007a12.33984375 12.33984375 0 0 1 19.28100586 15.34570312l-32.43164063 40.67797852 32.41186524 40.48022461a12.32006836 12.32006836 0 0 1-19.24145508 15.42480468l-38.56201172-48.19262695z m176.06030273 0a12.33984375 12.33984375 0 0 1-0.01977539-15.38525391l38.56201172-48.35083007a12.32006836 12.32006836 0 0 1 19.28100586 15.34570312l-32.43164062 40.67797852 32.43164062 40.48022461a12.32006836 12.32006836 0 0 1-19.24145508 15.40502929l-38.58178711-48.17285156z m-118.25683593 585.48999023l-32.43164063 40.67797852 32.41186524 40.46044922a12.32006836 12.32006836 0 0 1-19.24145508 15.42480469l-38.58178711-48.17285157a12.28051758 12.28051758 0 0 1 0-15.36547851l38.56201172-48.37060547a12.32006836 12.32006836 0 0 1 17.30346679-1.97753906l0.0197754 0.01977539a12.26074219 12.26074219 0 0 1 1.95776367 17.30346679c0-0.01977539 0-0.01977539 0 0m88.04003906 0l-32.45141602 40.67797852 32.43164063 40.46044922a12.33984375 12.33984375 0 0 1-19.26123047 15.42480469l-38.56201172-48.17285157a12.28051758 12.28051758 0 0 1-0.01977539-15.36547851l38.58178711-48.37060547a12.30029297 12.30029297 0 0 1 17.3034668-1.95776367c5.33935547 4.2121582 6.22924805 11.96411133 1.97753906 17.30346679 0-0.01977539 0-0.01977539 0 0m88.04003906 0l-32.43164062 40.67797852 32.43164062 40.46044922a12.33984375 12.33984375 0 0 1-19.26123047 15.42480469l-38.56201172-48.17285157a12.30029297 12.30029297 0 0 1-0.01977539-15.36547851l38.56201172-48.37060547a12.32006836 12.32006836 0 0 1 17.32324219-1.95776367 12.30029297 12.30029297 0 0 1 1.95776367 17.30346679c0-0.01977539 0-0.01977539 0 0" p-id="10641"></path></svg>