<?xml version="1.0" standalone="no"?><!DOCTYPE svg PUBLIC "-//W3C//DTD SVG 1.1//EN" "http://www.w3.org/Graphics/SVG/1.1/DTD/svg11.dtd"><svg t="1642234854932" class="icon" viewBox="0 0 1024 1024" version="1.1" xmlns="http://www.w3.org/2000/svg" p-id="5713" xmlns:xlink="http://www.w3.org/1999/xlink" width="200" height="200"><defs><style type="text/css"></style></defs><path d="M864.66113256 286.3209638L808.63085938 264.89762345l-13.18359401-46.14257787c-1.64794897-4.94384766-6.59179662-9.88769531-11.53564428-11.53564428L737.76904322 194.03580729l-21.42334035-56.03027318c-3.29589869-8.23974635-11.53564428-11.53564428-19.77539062-9.88769531l-74.15771485 23.07128855c-6.59179662 1.64794897-11.53564428 8.23974635-11.53564427 16.4794927l4.94384765 121.94824168-128.54003906-19.77539063c-4.94384766 0-9.88769531 1.64794897-14.83154297 4.94384766l-88.98925781 88.98925781h-1.64794897v1.64794973l-87.34130884 87.34130809c-3.29589869 3.29589869-4.94384766 8.23974635-4.94384766 14.83154296l19.77539062 128.54003907-120.30029271-6.59179662c-8.23974635 0-14.83154297 4.94384766-16.4794927 11.53564427L149.45117213 675.23697892c-1.64794897 8.23974635 1.64794897 16.47949193 9.88769531 19.77539062L215.36914062 716.43570989l13.18359401 46.14257787c1.64794897 4.94384766 6.59179662 9.88769531 11.53564428 11.53564428l46.14257787 13.18359401 21.42334035 56.03027318c3.29589869 6.59179662 8.23974635 9.88769531 14.83154297 9.88769531h4.94384765l74.15771485-23.07128855c6.59179662-1.64794897 11.53564428-8.23974635 11.53564428-16.4794927l-4.94384766-121.94824168 128.54003906 19.77539063h3.29589869c4.94384766 0 8.23974635-1.64794897 11.53564428-4.94384766l177.97851563-177.97851563c3.29589869-3.29589869 4.94384766-8.23974635 4.94384765-14.83154296l-19.77539062-128.54003907 121.94824244 4.94384766c6.59179662 0 13.183594-4.94384766 16.47949193-11.53564504l23.07128932-74.15771484c0-6.59179662-3.29589869-14.83154297-11.53564504-18.1274409zM332.37353541 816.96061198l-18.12744166-49.43847656c-1.64794897-4.94384766-6.59179662-8.23974635-11.53564428-9.88769531l-46.14257863-13.18359401-13.18359324-46.14257787c-1.64794897-4.94384766-4.94384766-8.23974635-9.88769532-11.53564428l-49.43847656-18.12744166 16.47949194-46.14257787 123.5961914 4.94384766 8.23974635 8.23974559-59.32617188 24.71923828 13.18359325 29.66308594 51.08642629-21.4233396-14.83154297 60.97412085 31.3110349 8.23974634 16.47949193-64.27001953 4.94384766 4.94384766 4.94384766 123.5961914-47.79052684 14.83154297z m201.04980418-138.42773437l-133.48388672-19.77539063-56.03027318-56.03027318-19.77539063-133.48388672 72.50976588-72.50976588 80.74951147 4.94384766 4.94384765 97.22900416c0 8.23974635 6.59179662 14.83154297 14.83154297 14.83154297l97.22900416 4.94384765 4.94384766 92.28515575-65.91796926 67.56591822z m98.87695313-98.87695313l-4.94384766-75.80566381c0-8.23974635-6.59179662-14.83154297-14.83154297-14.83154297l-97.2290034-4.94384765-4.94384766-97.22900416c0-8.23974635-6.59179662-14.83154297-14.83154296-14.83154297l-65.91796926-3.29589869 62.62207057-62.62206981 133.48388671 19.77539063 56.03027319 56.03027318 19.77539062 133.48388672-69.21386718 64.27001953zM823.46240234 358.83072892l-123.5961914-4.94384766-4.94384766-4.94384766 64.27001953-16.47949193-8.23974634-31.3110349-60.97412084 14.83154297 21.42333959-51.08642629-29.66308594-13.18359325-24.71923828 59.32617188-8.23974559-8.23974635-4.94384766-123.5961914 47.79052684-14.83154297 18.12744166 49.43847656c1.64794897 4.94384766 6.59179662 8.23974635 11.53564428 9.88769531l46.14257863 13.18359401 13.18359324 46.14257787c1.64794897 4.94384766 4.94384766 8.23974635 9.88769532 11.53564428l49.43847656 18.12744165-16.47949194 46.14257788z" p-id="5714"></path></svg>