<?xml version="1.0" standalone="no"?><!DOCTYPE svg PUBLIC "-//W3C//DTD SVG 1.1//EN" "http://www.w3.org/Graphics/SVG/1.1/DTD/svg11.dtd"><svg t="1642234801937" class="icon" viewBox="0 0 1024 1024" version="1.1" xmlns="http://www.w3.org/2000/svg" p-id="12220" xmlns:xlink="http://www.w3.org/1999/xlink" width="200" height="200"><defs><style type="text/css"></style></defs><path d="M571.4 766.5171875c-80.6034375 0-154.08140625-30.37078125-209.739375-80.26171875L167.699375 880.38125a16.89609375 16.89609375 0 0 1-23.92453125 0 16.89609375 16.89609375 0 0 1 0-23.92453125l194.13-194.13421875c-50.0596875-55.65796875-80.4346875-129.1359375-80.4346875-209.739375 0-173.424375 140.50546875-313.9340625 313.9340625-313.9340625 173.424375 0 313.9340625 140.5096875 313.9340625 313.9340625-0.00421875 173.42859375-140.5096875 313.9340625-313.93828125 313.9340625z m0-593.92828125c-154.591875 0-279.99421875 125.40234375-279.99421875 279.99421875 0 154.58765625 125.4065625 279.9984375 279.99421875 279.9984375s279.9984375-125.41078125 279.9984375-279.9984375c0-154.591875-125.4065625-279.99421875-279.9984375-279.99421875z m0 441.2053125c-89.08734375 0-161.206875-72.11953125-161.206875-161.206875s72.11953125-161.206875 161.206875-161.206875c89.0915625 0 161.21109375 72.11953125 161.21109375 161.206875s-72.11953125 161.206875-161.21109375 161.206875z m0-288.478125c-70.25484375 0-127.26703125 57.020625-127.26703125 127.27125 0 70.25484375 57.01640625 127.27125 127.26703125 127.27125s127.27125-57.020625 127.27125-127.27125c0-70.25484375-57.020625-127.27125-127.27125-127.27125z" p-id="12221"></path></svg>