<?xml version="1.0" standalone="no"?><!DOCTYPE svg PUBLIC "-//W3C//DTD SVG 1.1//EN" "http://www.w3.org/Graphics/SVG/1.1/DTD/svg11.dtd"><svg t="1642235764728" class="icon" viewBox="0 0 1024 1024" version="1.1" xmlns="http://www.w3.org/2000/svg" p-id="4468" xmlns:xlink="http://www.w3.org/1999/xlink" width="200" height="200"><defs><style type="text/css"></style></defs><path d="M755.91406223 307.67187473c-13.74609402 0-24.06445285-11.9003909-24.06445286-25.50585883 0-6.80273438 3.42773438-11.9003909 6.87304661-16.99804742l106.55859402-105.41601563c12.0234375-6.80273438 27.49218723-5.09765652 34.36523465 6.80273438a25.8574216 25.8574216 0 0 1 0 27.19335964l-106.55859403 105.41601563c-3.41015652 5.09765652-10.30078098 8.50781223-17.17382839 8.50781223zM169.859375 892.51367215c-13.74609402 0-24.06445285-11.9003909-24.06445285-23.8007818 0-6.80273438 3.42773438-13.60546875 6.8730466-16.9980466l170.15625027-164.91796848c10.31835965-8.49023438 25.78710938-6.80273438 34.3828125 3.41015571 8.59570313 8.49023438 6.8730466 22.09570313 0 32.30859402l-170.15625027 164.91796848a33.69726563 33.69726563 0 0 1-17.19140625 5.08007867z m0 0" fill="#666666" p-id="4469"></path><path d="M659.67382785 576.28320313c-13.74609402 0-24.06445285-10.19531223-22.34179633-23.80078098 0-11.9003909 8.59570313-22.09570313 20.63671848-22.09570313 68.74804715-6.80273438 120.30468723-66.30468723 115.15429715-136.01953179-5.1503909-64.59960938-61.87499973-115.61132785-127.17773465-113.90625-63.59765625 1.70507785-116.87695285 49.30664063-125.47265598 112.20117214-1.72265652 11.9003909-13.74609402 22.09570313-27.49218804 18.70312528-13.74609402-3.39257785-22.34179715-13.60546875-18.89648411-27.19335965 10.31835965-73.1074216 75.62109375-151.31249973 171.86132813-151.31249973 96.24023438-1.70507785 173.58398465 74.81250027 175.30664035 170.015625 1.72265652 90.10546902-68.74804715 164.91796848-158.1152341 173.40820286h-3.4628909z m0-1e-8" fill="#666666" p-id="4470"></path><path d="M532.49609402 722.49804715c-13.74609402 0-24.06445285-10.19531223-24.06445367-23.8007818 0-11.9003909 8.59570313-22.09570313 18.91406277-23.80078097 61.87499973-11.9003909 108.28124973-66.30468723 109.9863284-129.21679661 0-73.1074216-60.15234402-130.9042966-134.05078125-132.60937527-72.17578152 0-122.02734375 59.50195285-130.62304687 113.90625-1.72265652 13.60546875-15.46874973 22.09570313-29.21484375 20.40820312-13.74609402-1.70507785-22.34179715-15.29296875-20.61914063-28.8984375 13.74609402-74.81250027 80.77148465-154.7050784 180.45703125-154.70507839 101.40820313 0 182.17968777 81.61523465 182.17968696 180.21093804 0 95.20312473-75.62109375 161.50781277-149.53710883 176.81835938 0 1.6875-1.70507785 1.6875-3.42773438 1.6875z m0 0" fill="#666666" p-id="4471"></path><path d="M369.21289035 858.51757813c-101.40820313 0-182.17968777-81.61523465-182.17968695-180.21093723 0-13.60546875 10.31835965-23.80078098 24.06445285-23.8007818s24.06445285 10.19531223 24.06445285 23.8007818c0 73.1074216 60.15234402 132.60937527 132.3457034 132.60937445 73.89843723 0 134.05078125-59.50195285 134.05078125-130.9042966s-60.15234402-132.60937527-132.3457034-132.60937527c-39.5332034 0-77.34375027 16.9980466-103.11328097 47.60156277-8.59570313 10.19531223-24.06445285 11.9003909-34.3828125 3.39257785-10.31835965-8.50781223-12.0234375-23.80078098-3.42773438-34.01367187 63.59765625-76.50000027 180.45703125-88.40039035 257.80078152-23.80078098 77.34375027 62.91210938 89.36718777 178.50585938 24.06445286 255.0234375-34.3828125 39.1113284-85.9394534 62.91210938-140.94140653 62.91210938z m0-1e-8" fill="#666666" p-id="4472"></path></svg>