<?xml version="1.0" standalone="no"?><!DOCTYPE svg PUBLIC "-//W3C//DTD SVG 1.1//EN" "http://www.w3.org/Graphics/SVG/1.1/DTD/svg11.dtd"><svg t="1642236132253" class="icon" viewBox="0 0 1024 1024" version="1.1" xmlns="http://www.w3.org/2000/svg" p-id="3593" xmlns:xlink="http://www.w3.org/1999/xlink" width="200" height="200"><defs><style type="text/css"></style></defs><path d="M550.91145806 112.7369789a114.31054715 114.31054715 0 0 1 111.19921901 87.89062527L673.9583336 200.62760417a114.25781277 114.25781277 0 0 1 61.54101563 210.53320285l-0.01757867 36.17578125a62.05078152 62.05078152 0 0 1 8.78906277-0.61523383l70.31249973 0a61.52343777 61.52343777 0 0 1 61.52343777 61.52343696l0 193.35937527a61.52343777 61.52343777 0 0 1-61.52343777 61.52343777l-70.31249973 0a62.05078152 62.05078152 0 0 1-8.78906277-0.61523465L735.48177056 807.07291667a61.52343777 61.52343777 0 0 1-58.14843696 61.43554688L673.9583336 868.59635445 287.23958307 868.59635444a61.52343777 61.52343777 0 0 1-61.43554689-58.14843777L225.7161461 807.07291667 225.7161461 411.17838569A114.25781277 114.25781277 0 0 1 287.23958306 200.62760417l11.84765652 0A114.31054715 114.31054715 0 0 1 410.2864586 112.7369789l140.62499946 0z m131.8359375 316.07226589a115.83984402 115.83984402 0 0 1-8.78906196 0.33398411l-166.99218777 0L506.96614583 473.08854194a79.1015625 79.1015625 0 1 1-158.20312499 0l-1e-8-43.94531304L287.23958306 429.1432289c-2.953125 0-5.88867215-0.10546875-8.78906196-0.3339841L278.4505211 807.07291667a8.78906277 8.78906277 0 0 0 7.20703071 8.6484375l1.58203125 0.14062527 386.71875054 0a8.78906277 8.78906277 0 0 0 8.6484375-7.20703152L682.74739556 807.07291667 682.74739556 428.80924479zM638.80208333 490.66666667l0 263.671875-52.734375 0L586.06770833 490.66666667l52.734375 0z m175.78124973 8.78906277l-70.31249973 0a8.78906277 8.78906277 0 0 0-8.78906277 8.78906196l0 193.35937527a8.78906277 8.78906277 0 0 0 8.78906277 8.78906277l70.31249973 0a8.78906277 8.78906277 0 0 0 8.78906277-8.78906277L823.37239583 508.2447914a8.78906277 8.78906277 0 0 0-8.78906277-8.78906196z m-263.671875-333.98437554l-140.62499946 0A61.52343777 61.52343777 0 0 0 348.76302083 226.99479167l0 26.3671875L287.23958306 253.36197917a61.52343777 61.52343777 0 0 0 0 123.04687473l114.25781277-1e-8L401.49739583 473.08854194a26.3671875 26.3671875 0 0 0 52.73437499 0l1e-8-96.67968804L673.9583336 376.4088539a61.52343777 61.52343777 0 0 0 0-123.04687473l-61.52343777 0L612.43489583 226.99479167A61.52343777 61.52343777 0 0 0 550.91145806 165.4713539z" p-id="3594"></path></svg>