<?xml version="1.0" standalone="no"?><!DOCTYPE svg PUBLIC "-//W3C//DTD SVG 1.1//EN" "http://www.w3.org/Graphics/SVG/1.1/DTD/svg11.dtd"><svg t="1640500080458" class="icon" viewBox="0 0 1024 1024" version="1.1" xmlns="http://www.w3.org/2000/svg" p-id="1823" xmlns:xlink="http://www.w3.org/1999/xlink" width="200" height="200"><defs><style type="text/css"></style></defs><path d="M521.041163 984.616959c-68.558317 56.882067-155.838545 30.536311-173.813421-53.279928-9.281647-43.27683 20.113646-94.075171 65.411562-107.874841 21.986349-6.697726 31.656863-17.744626 28.904092-40.206826-0.619118-5.045041-0.414451-10.233348-0.179084-15.334672 1.765253-38.334123-1.673152-68.01595-43.742447-91.880118-62.264808-35.320402-83.949273-99.007645-82.291471-170.456883 0.255834-11.072483-6.820527-24.278619-14.362504-33.258382C220.743557 376.766302 209.410123 250.205367 272.560116 144.285095 331.780503 44.960216 453.275931-8.897896 565.192945 14.567171c122.109429 25.598721 212.909929 121.157727 225.12343 240.325069 7.864328 76.729646-11.1083 147.227182-60.903773 207.419737-12.786569 15.452356-16.306841 30.280478-16.429641 50.619257-0.440034 71.275271-28.474292 130.500774-89.807865 169.970799-15.87704 10.217998-22.298466 21.372348-21.525848 39.306291 0.921001 21.280248 0.844251 42.627012 0.470734 63.932844-0.307 17.325059 8.063878 26.299705 24.283736 30.894479 54.47723 15.431889 85.740109 61.604757 76.939429 112.531015-8.87743 51.376525-57.920752 89.321781-112.224014 81.779803C567.741048 1008.102493 545.810983 994.420507 521.041163 984.616959zM510.500814 38.032239c-22.564533 3.228621-46.254734 3.110938-67.524749 10.217998C258.187378 109.998261 207.389037 326.576845 335.280308 459.277789c10.755249 11.164583 15.713306 21.039764 13.697337 37.837805-12.945186 107.798091 84.645141 225.333213 224.760146 178.413311 64.157977-21.484915 115.92337-92.212702 105.116954-171.787218-2.205287-16.23009-3.469105-30.976345 10.627332-44.515065 38.574607-37.049838 58.463119-83.672973 67.274032-136.113766C781.162644 177.891411 658.280598 35.965103 510.500814 38.032239zM520.775096 933.455334c20.180163 16.726408 33.570499 29.988827 49.007505 40.130075 25.102403 16.485924 52.021226 13.067986 77.451097-7.209394 20.282496-16.173807 29.159926-45.998901 21.213731-71.280388-10.586399-33.683066-29.349243-48.797721-64.204027-51.719342-33.764933-2.829521-33.810983-2.829521-34.112867-37.566622-0.194434-22.160316 0.931235-44.428082-0.977285-66.434897-0.624234-7.173577-8.555079-19.156828-13.855954-19.561045-26.478789-2.021086-53.198061-0.926118-81.529086-0.926118 0 31.89223-1.401969 59.087353 0.409334 86.067576 1.673152 24.902853-2.205287 41.772528-32.465298 40.518943-7.06101-0.29165-14.382971 4.789207-21.530965 7.547094-27.824474 10.739899-41.501344 32.086664-41.460411 60.888423 0.04605 30.879129 16.010073 53.699495 43.711747 66.532114 24.150702 11.190166 48.019987 8.263429 67.642432-10.683616C501.014501 959.202438 509.886814 946.497736 520.775096 933.455334z" p-id="1824"></path></svg>