<?xml version="1.0" standalone="no"?><!DOCTYPE svg PUBLIC "-//W3C//DTD SVG 1.1//EN" "http://www.w3.org/Graphics/SVG/1.1/DTD/svg11.dtd"><svg t="1642235799731" class="icon" viewBox="0 0 1024 1024" version="1.1" xmlns="http://www.w3.org/2000/svg" p-id="6626" xmlns:xlink="http://www.w3.org/1999/xlink" width="200" height="200"><defs><style type="text/css"></style></defs><path d="M471.64089966 846.55758667c-18.06564331 0-34.74783325-6.78378296-47.23928833-19.27606201L221.41134643 624.29208374c-13.14486695-13.14486695-19.97067261-30.93283081-19.21920776-50.08859253 0.73168945-18.66714477 8.62701416-36.44110107 22.23165894-50.04492188l299.40270996-299.40270995c42.76263428-42.76263428 98.65777588-67.58157349 157.38986206-69.88458253 28.68502807-1.12225342 56.45956421 3.20114136 82.5383606 12.85812378 27.13925171 10.05001831 51.18859863 25.43444824 71.48144531 45.7281189 20.29367065 20.29284668 35.67892456 44.34301758 45.72894287 71.48144531 9.65698242 26.07879638 13.9836731 53.84921265 12.85812378 82.53918457-2.303833 58.73126221-27.12277222 114.62640381-69.88458252 157.38986207L524.53677368 824.26907349c-13.60464477 13.60464477-31.37860107 21.50079346-50.04574585 22.23165893a70.20593261 70.20593261 0 0 1-2.85012817 0.05685425z m218.44720459-658.90200805c-2.51724243 0-5.04190063 0.04943848-7.58056641 0.1491394-50.41818237 1.97753906-98.49545288 23.37698364-135.37490844 60.25643921L247.72909546 547.46469117c-7.72146607 7.72146607-12.19729614 17.67590332-12.60351562 28.03079223-0.38726807 9.86709594 3.01904297 18.91928101 9.59106445 25.49130249l202.99108886 202.99026489c6.57202148 6.57284546 15.61679078 9.98245239 25.49212647 9.59188843 10.35406494-0.40621948 20.30932617-4.88287354 28.03161621-12.6043396l299.40106201-299.40270996c36.88027954-36.87945557 58.27972412-84.95672607 60.25726318-135.37490845 1.95776367-49.93121338-15.42974854-95.89416504-48.95809936-129.42333984-31.82601929-31.82519531-74.85562133-49.10806274-121.84359741-49.10806274z" p-id="6627"></path><path d="M186.92965698 878.24435425a16.42675781 16.42675781 0 0 1-11.65264893-4.82601929c-6.43606568-6.43606568-6.43606568-16.87088013 0-23.30612183l147.62988282-147.62988281c6.43606568-6.43606568 16.87005615-6.43606568 23.30529785 0s6.43606568 16.87088013 0 23.30612182L198.58230591 873.41833497a16.42675781 16.42675781 0 0 1-11.65264893 4.82601928zM476.80722046 725.23226929a16.42675781 16.42675781 0 0 1-11.65264893-4.82601929c-6.43606568-6.43606568-6.43606568-16.87088013 0-23.30529785l110.72158814-110.72323608c6.43606568-6.43606568 16.8717041-6.43688965 23.30529785-0.00082398 6.43606568 6.43606568 6.43688965 16.87088013 0.00082397 23.30529785L488.45986938 720.40542602a16.42922974 16.42922974 0 0 1-11.65264892 4.82684327zM661.34457398 540.6940918a16.43170166 16.43170166 0 0 1-11.65347291-4.82601929c-6.4352417-6.43606568-6.4352417-16.87088013 0-23.30612183l36.9074707-36.9074707c6.43606568-6.43606568 16.87088013-6.43606568 23.30612183 0 6.4352417 6.43606568 6.4352417 16.87005615 0 23.30529785l-36.9074707 36.90747071a16.42510987 16.42510987 0 0 1-11.65264892 4.82684326z" p-id="6628"></path></svg>