<?xml version="1.0" standalone="no"?><!DOCTYPE svg PUBLIC "-//W3C//DTD SVG 1.1//EN" "http://www.w3.org/Graphics/SVG/1.1/DTD/svg11.dtd"><svg t="1640500090081" class="icon" viewBox="0 0 1024 1024" version="1.1" xmlns="http://www.w3.org/2000/svg" p-id="2215" xmlns:xlink="http://www.w3.org/1999/xlink" width="200" height="200"><defs><style type="text/css"></style></defs><path d="M516.138667 215.168a344.938667 344.938667 0 0 1 88.064-124.373333 21.333333 21.333333 0 1 1 28.544 31.722666 303.488 303.488 0 0 0-56.533334 68.202667C615.04 178.773333 660.437333 170.666667 693.376 170.666667H704c129.6 0 234.666667 86.592 234.666667 298.666666 0 212.074667-147.733333 469.333333-277.333334 469.333334-67.84 0-109.269333-19.072-149.333333-38.656-40.064 19.584-81.493333 38.656-149.333333 38.656-129.6 0-277.333333-257.258667-277.333334-469.333334S190.4 170.666667 320 170.666667h10.645333c47.146667 0 119.744 16.64 162.154667 37.205333l19.2 9.301333 4.138667-2.005333z m-14.677334 43.349333a42.666667 42.666667 0 0 1-8.064-2.944l-19.2-9.301333C437.589333 228.522667 371.349333 213.333333 330.624 213.333333H320c-119.104 0-192 82.645333-192 256 0 193.984 136.106667 426.666667 234.666667 426.666667 49.386667 0 78.357333-8.768 130.581333-34.325333a42.666667 42.666667 0 0 1 37.504 0C582.976 887.253333 611.946667 896 661.333333 896c98.56 0 234.666667-232.682667 234.666667-426.666667 0-173.354667-72.896-256-192-256h-10.645333c-40.661333 0-106.816 15.168-143.445334 32.896a303.786667 303.786667 0 0 0-17.024 85.653334 21.248 21.248 0 0 1-2.304 8.618666 106.197333 106.197333 0 0 0 62.016-30.4 21.333333 21.333333 0 0 1 30.165334 30.165334 149.333333 149.333333 0 0 1-211.2 0 21.333333 21.333333 0 0 1 30.186666-30.165334 106.176 106.176 0 0 0 49.834667 28.138667 21.269333 21.269333 0 0 1-1.301333-8.597333c1.258667-24.192 5.034667-48 11.178666-71.125334z" fill="#3D3D3D" p-id="2216"></path></svg>