<?xml version="1.0" standalone="no"?><!DOCTYPE svg PUBLIC "-//W3C//DTD SVG 1.1//EN" "http://www.w3.org/Graphics/SVG/1.1/DTD/svg11.dtd"><svg t="1641886973269" class="icon" viewBox="0 0 1024 1024" version="1.1" xmlns="http://www.w3.org/2000/svg" p-id="4699" xmlns:xlink="http://www.w3.org/1999/xlink" width="200" height="200"><defs><style type="text/css"></style></defs><path d="M515.63750029 208.44583334a303.16875029 303.16875029 0 0 1 77.4-109.31249971 18.74999971 18.74999971 0 1 1 25.0875 27.88124942 266.7375 266.7375 0 0 0-49.68750058 59.94375029C602.5625 176.45833305 642.46249971 169.33333363 671.4125 169.33333363H680.75c113.90625 0 206.25000029 76.10625 206.25000029 262.49999942 0 186.39375029-129.84374971 412.49999971-243.75000058 412.50000058-59.625 0-96.03749971-16.7625-131.24999971-33.975-35.2125 17.2125-71.62499971 33.975-131.24999971 33.975-113.90625 0-243.74999971-226.10625029-243.75000058-412.50000058S229.34375 169.33333363 343.25 169.33333363h9.35624971c41.43750029 0 105.24375 14.625 142.51875029 32.69999971l16.875 8.17499971 3.63750029-1.76249971z m-12.90000058 38.09999971a37.50000029 37.50000029 0 0 1-7.0875-2.5875l-16.875-8.17499971C446.59999971 220.18333363 388.38124971 206.83333305 352.5875 206.83333305H343.25c-104.68125 0-168.75 72.63749971-168.75 225 0 170.49375 119.62500029 375.00000029 206.25000029 375.00000029 43.40625029 0 68.86874971-7.70625 114.76874971-30.16874971a37.50000029 37.50000029 0 0 1 32.9625 0C574.38125 799.14583305 599.84375029 806.83333334 643.24999971 806.83333334c86.625 0 206.25000029-204.50625029 206.25000029-375.00000029 0-152.36250029-64.06875-225-168.75-225h-9.35624971c-35.73749971 0-93.88125 13.33125-126.07500058 28.9125a267.00000029 267.00000029 0 0 0-14.9625 75.28125058 18.675 18.675 0 0 1-2.025 7.57499942 93.33749971 93.33749971 0 0 0 54.50625-26.71875 18.74999971 18.74999971 0 0 1 26.51250058 26.51250058 131.24999971 131.24999971 0 0 1-185.625 0 18.74999971 18.74999971 0 0 1 26.53124942-26.51250058 93.31875 93.31875 0 0 0 43.80000029 24.73125029 18.69374971 18.69374971 0 0 1-1.14374971-7.55624971c1.10625029-21.2625 4.42500029-42.1875 9.82499942-62.51250058z" fill="#3D3D3D" p-id="4700"></path></svg>