<?xml version="1.0" standalone="no"?><!DOCTYPE svg PUBLIC "-//W3C//DTD SVG 1.1//EN" "http://www.w3.org/Graphics/SVG/1.1/DTD/svg11.dtd"><svg t="1641886942780" class="icon" viewBox="0 0 1024 1024" version="1.1" xmlns="http://www.w3.org/2000/svg" p-id="3229" xmlns:xlink="http://www.w3.org/1999/xlink" width="200" height="200"><defs><style type="text/css"></style></defs><path d="M863.7 761.13333334c0.2-1.7 0.3-3.4 0.3-5V453.33333334c0-106-86-192-192-192H352C246 261.33333334 160 347.33333334 160 453.33333334v309.1l269.9-187.4c49.4-34.3 114.8-34.3 164.2 0 131 90.5 220.9 152.6 269.6 186.1zM140.5 775.03333334s0.1 0 0.1-0.1l-0.1 0.1zM735 205.13333334C845.9 233.23333334 928 333.73333334 928 453.33333334v289.3c0 55.7-38.6 109.4-91.8 72.7-40.9-28.2-125.8-82.2-278.5-187.7-27.4-19.1-63.8-19.1-91.3 0L194.1 815.33333334C166 834.83333334 96 838.13333334 96 771.43333334V453.33333334C96 333.73333334 178.1 233.23333334 289 205.13333334c-0.6-2.5-1-5.1-1-7.8 0-17.7 14.3-32 32-32h96c17.7 0 32 14.3 32 32h128c0-17.7 14.3-32 32-32h96c17.7 0 32 14.3 32 32 0 2.7-0.3 5.3-1 7.8z" p-id="3230"></path><path d="M288 405.33333334v-32c0-17.7 14.3-32 32-32s32 14.3 32 32v32h32c17.7 0 32 14.3 32 32s-14.3 32-32 32h-32v32c0 17.7-14.3 32-32 32s-32-14.3-32-32v-32h-32c-17.7 0-32-14.3-32-32s14.3-32 32-32h32z" p-id="3231"></path><path d="M704 373.33333334m-32 0a32 32 0 1 0 64 0 32 32 0 1 0-64 0Z" p-id="3232"></path><path d="M640 437.33333334m-32 0a32 32 0 1 0 64 0 32 32 0 1 0-64 0Z" p-id="3233"></path><path d="M704 501.33333334m-32 0a32 32 0 1 0 64 0 32 32 0 1 0-64 0Z" p-id="3234"></path><path d="M768 437.33333334m-32 0a32 32 0 1 0 64 0 32 32 0 1 0-64 0Z" p-id="3235"></path></svg>