<?xml version="1.0" standalone="no"?><!DOCTYPE svg PUBLIC "-//W3C//DTD SVG 1.1//EN" "http://www.w3.org/Graphics/SVG/1.1/DTD/svg11.dtd"><svg t="1640500136913" class="icon" viewBox="0 0 1024 1024" version="1.1" xmlns="http://www.w3.org/2000/svg" p-id="4084" xmlns:xlink="http://www.w3.org/1999/xlink" width="200" height="200"><defs><style type="text/css"></style></defs><path d="M736 912H288a288 288 0 0 1 0-576h480c133.76 0 256 137.28 256 288a288 288 0 0 1-288 288z m-448-512a224 224 0 0 0 0 448h448a224 224 0 0 0 224-224c0-126.08-103.04-224-192-224z" fill="#2A2A3B" p-id="4085"></path><path d="M256 496h64v256H256z" fill="#2A2A3B" p-id="4086"></path><path d="M160 592h256v64H160zM544 272h-64v-64a96 96 0 0 1 96-96v64a32 32 0 0 0-32 32zM653.12 617.28a32 32 0 0 0-45.12 0l-45.44-45.12a96 96 0 0 1 136 0z" fill="#2A2A3B" p-id="4087"></path><path d="M562.88 707.84a96 96 0 0 1 0-135.68L608 617.6a32 32 0 0 0-9.28 22.4 32 32 0 0 0 9.28 22.72zM845.12 617.28a32 32 0 0 0-45.12 0l-45.44-45.12a96 96 0 0 1 136 0z" fill="#2A2A3B" p-id="4088"></path><path d="M754.88 707.84a96 96 0 0 1 0-135.68L800 617.6a32 32 0 0 0-9.28 22.4 32 32 0 0 0 9.28 22.72z" fill="#2A2A3B" p-id="4089"></path></svg>