<?xml version="1.0" standalone="no"?><!DOCTYPE svg PUBLIC "-//W3C//DTD SVG 1.1//EN" "http://www.w3.org/Graphics/SVG/1.1/DTD/svg11.dtd"><svg t="1640854590468" class="icon" viewBox="0 0 1024 1024" version="1.1" xmlns="http://www.w3.org/2000/svg" p-id="1467" xmlns:xlink="http://www.w3.org/1999/xlink" width="200" height="200"><defs><style type="text/css"></style></defs><path d="M768 819c-2.061-32.798 9-87-9.689-130.568C711 684 634.011 686.114 576 690c-5.784 17.741-7.81 45.951-9 70-5 101 24 131 100.438 139.535l0.717 0.139c0.113 0.018 0.229 0.034 0.34 0.055l0.445 0.146 0.604 0.125a113.48 113.48 0 0 0 22.99 2.368c7.681 0 15.369-0.787 22.873-2.341l5.031-0.008 0.833-1.364C739.67 893.821 756.961 884.33 772 871c2.702-12.209-3.165-38.715-4-52zM483.667 881c0 27.614-22.386 50-50 50h-280c-27.614 0-50-22.386-50-50v-92c0-27.614 22.386-50 50-50h280c27.614 0 50 22.386 50 50v92z" fill="#FAE1C5" p-id="1468"></path><path d="M433.667 739h-7V384c0-20.886-12.811-38.773-31-46.253V206c0-8-6-12-6-12l-147-84c-11.485-5.743-20.829-8.126-28.234-8.125-15.807 0.002-22.766 10.868-22.766 23.125v212.747c-18.189 7.48-31 25.367-31 46.253v355h-7c-27.614 0-50 22.386-50 50v92c0 27.614 22.386 50 50 50h280c27.614 0 50-22.386 50-50v-92c0-27.614-22.386-50-50-50z m-202-589.216l124 70.857V334h-124V149.784z m-31 234.216c0-5.514 4.486-10 10-10h166c5.514 0 10 4.486 10 10v355h-186V384z m243 497c0 5.514-4.486 10-10 10h-280c-5.514 0-10-4.486-10-10v-92c0-5.514 4.486-10 10-10h280c5.514 0 10 4.486 10 10v92zM907.221 254.696c-21.871-44.136-55.055-82.188-95.965-110.044C768.356 115.44 720.338 100 672.392 100c-48.032 0-96.116 15.253-139.056 44.111-41.221 27.704-74.54 65.616-96.356 109.64a19.998 19.998 0 0 0 1.519 20.325L580.43 477.492l-30.32 368.475a19.97 19.97 0 0 0-0.067 1.641c0 22.231 15.064 42.519 42.42 57.124 22.407 11.965 51.362 18.985 79.441 19.262l0.197 0.001 0.197-0.001c28.078-0.276 57.033-7.297 79.44-19.262 27.354-14.605 42.419-34.893 42.419-57.124 0-0.548-0.022-1.095-0.067-1.64l-30.254-367.694 141.865-203.25a20 20 0 0 0 1.52-20.328z m-174.323 614.75c-16.862 9.004-39.011 14.302-60.798 14.547-21.787-0.245-43.937-5.543-60.799-14.547-12.538-6.694-20.769-14.969-21.238-21.276l23.472-285.243c0.483 0.035 0.966 0.073 1.458 0.073l0.349-0.003 115.168-1.969 23.626 287.142c-0.47 6.308-8.7 14.582-21.238 21.276z m-5.986-408.159a19.998 19.998 0 0 0-3.532 13.087l3.843 46.705-110.399 1.887 3.755-45.636c1.441-5.58 0.419-11.6-2.963-16.447l-139.35-199.716C518.938 188.251 595.579 140 672.392 140c76.236 0 152.659 48.625 193.547 122.104L726.912 461.287z" fill="#EA952A" p-id="1469"></path></svg>