<?xml version="1.0" standalone="no"?><!DOCTYPE svg PUBLIC "-//W3C//DTD SVG 1.1//EN" "http://www.w3.org/Graphics/SVG/1.1/DTD/svg11.dtd"><svg t="1641886954672" class="icon" viewBox="0 0 1024 1024" version="1.1" xmlns="http://www.w3.org/2000/svg" p-id="3906" xmlns:xlink="http://www.w3.org/1999/xlink" width="200" height="200"><defs><style type="text/css"></style></defs><path d="M327.4296875 472.44921875h-26.3671875v-26.3671875h26.3671875v26.3671875z m131.8359375-85.69335938v461.42578126c0 18.12744141-14.83154297 32.95898438-32.95898438 32.95898437H281.28710937c-18.12744141 0-32.95898438-14.83154297-32.95898437-32.95898438V386.75585937c0-16.31469727 12.0300293-29.91027833 27.60314942-32.54699707V268.10351562c0-1.89514161 0.16479492-3.87268067 0.49438476-5.93261718 0.08239747-0.65917969 0.24719239-1.40075684 0.4119873-2.05993653 0.57678223-2.80151367 1.4831543-5.76782227 2.55432129-8.81652832 3.95507813-10.79406739 11.04125977-22.90649414 20.02258301-35.10131836 1.89514161-2.63671875 3.95507813-5.19104004 6.01501465-7.82775879 5.60302734-6.92138672 11.70043945-13.76037598 18.20983887-20.26977538 1.64794922-1.64794922 3.29589844-3.21350098 4.94384765-4.77905274 2.47192383-2.38952637 5.02624512-4.69665528 7.58056641-6.92138672 1.73034668-1.4831543 3.3782959-2.96630859 5.10864258-4.36706543 3.46069336-2.88391114 6.92138672-5.52062989 10.38208008-8.07495117 2.63671875-1.89514161 5.2734375-3.70788575 7.82775879-5.43823242 14.83154297-9.55810547 29.41589356-15.57312012 41.61071777-15.57312012 18.12744141 0 32.95898438 14.83154297 32.95898437 32.95898438v178.88488769c14.41955567 3.46069336 25.21362305 16.56188965 25.21362305 31.97021485z m-156.96716309-32.95898437h105.46875001V175.81835937c0-3.54309083-3.04870606-6.59179688-6.59179688-6.59179687-11.20605469 0-35.76049805 13.59558106-60.97412109 39.63317872-11.45324708 11.78283692-21.58813477 24.71923828-28.50952148 36.33728026-7.41577148 12.35961914-9.31091309 20.18737793-9.31091309 22.90649415v85.69335937zM432.8984375 848.18164063V472.44921875h-78.27758789v-26.3671875h78.27758789v-59.32617188c0-3.54309083-3.04870606-6.59179688-6.59179688-6.59179687H281.28710937c-3.54309083 0-6.59179688 3.04870606-6.59179687 6.59179687v461.42578126c0 3.54309083 3.04870606 6.59179688 6.59179688 6.59179687h145.01953124c3.54309083 0 6.59179688-3.04870606 6.59179688-6.59179688z m309.81445313-177.97851563h-59.32617188V459.265625h-26.3671875v210.9375h-59.32617188c-18.12744141 0-32.95898438 14.83154297-32.95898437 32.95898438v145.01953124c0 18.12744141 14.83154297 32.95898438 32.95898437 32.95898438h145.01953126c18.12744141 0 32.95898438-14.83154297 32.95898437-32.95898437V703.16210938c0-18.12744141-14.83154297-32.95898438-32.95898438-32.95898438z m6.59179687 177.97851563c0 3.54309083-3.04870606 6.59179688-6.59179688 6.59179687H597.69335938c-3.54309083 0-6.59179688-3.04870606-6.59179688-6.59179688V703.16210938c0-3.54309083 3.04870606-6.59179688 6.59179687-6.59179688h145.01953126c3.54309083 0 6.59179688 3.04870606 6.59179687 6.59179687v145.01953126z m-39.46838379-567.38891602h-79.10156249v-26.3671875h79.1015625v26.3671875z m0-55.12390137h-79.10156249v-26.3671875h79.1015625v26.3671875z m0 220.41320801h-79.10156249v-26.3671875h79.1015625v26.3671875z m-13.18359375-275.45471192h-52.734375v-26.36718749h52.734375v26.3671875z m13.18359375 165.28930665h-79.10156249v-26.36718751h79.1015625v26.3671875z m0 55.0415039h-79.10156249v-26.3671875h79.1015625v26.3671875z" p-id="3907"></path></svg>