<?xml version="1.0" standalone="no"?><!DOCTYPE svg PUBLIC "-//W3C//DTD SVG 1.1//EN" "http://www.w3.org/Graphics/SVG/1.1/DTD/svg11.dtd"><svg t="1642236464806" class="icon" viewBox="0 0 1024 1024" version="1.1" xmlns="http://www.w3.org/2000/svg" p-id="7043" xmlns:xlink="http://www.w3.org/1999/xlink" width="200" height="200"><defs><style type="text/css"></style></defs><path d="M865.6 341.12c-14.4-0.96-25.44-12.96-25.44-26.88v-18.72c0-12.48-10.08-22.56-22.56-22.56H166.24c-12.48 0-22.56 10.08-22.56 22.56V699.2c0 12.48 10.08 22.56 22.56 22.56h350.88c9.12 0 16.8 6.24 19.2 14.88v0.48c3.84 14.88-7.2 29.76-22.56 29.76H143.68c-24.96 0-45.12-20.16-45.12-45.12V272.48c0-24.96 20.16-45.12 45.12-45.12h696.48c24.96 0 45.12 20.16 45.12 45.12v50.4c-0.48 10.56-9.12 19.2-19.68 18.24z" p-id="7044"></path><path d="M406.72 461.12H231.52c-12.96 0-23.52-10.56-23.52-23.52s10.56-23.52 23.52-23.52h175.2c12.96 0 23.52 10.56 23.52 23.52s-10.56 23.52-23.52 23.52z m0 74.4H231.52c-12.96 0-23.52-10.56-23.52-23.52s10.56-23.52 23.52-23.52h175.2c12.96 0 23.52 10.56 23.52 23.52s-10.56 23.52-23.52 23.52z" p-id="7045"></path><path d="M319.36 636.8c-12.96 0-23.52-10.56-23.52-23.52V438.08c0-12.96 10.56-23.52 23.52-23.52s23.52 10.56 23.52 23.52v175.2c-0.48 12.96-10.56 23.52-23.52 23.52z" p-id="7046"></path><path d="M319.36 461.12c-5.76 0-11.52-2.4-16.32-7.2L215.2 366.56c-9.12-9.12-9.12-24 0-33.12 9.12-9.12 24-9.12 33.12 0l70.56 71.52 71.52-71.52c9.12-9.12 24-9.12 33.12 0 9.12 9.12 9.12 24 0 33.12L336.16 454.4c-5.28 4.32-11.04 6.72-16.8 6.72zM735.52 795.68c-126.24 0-228.48-102.24-228.48-228.48s102.24-228.48 228.48-228.48S964 440.96 964 567.2s-102.24 228.48-228.48 228.48z m0-38.4c105.12 0 190.56-85.44 190.56-190.56s-85.44-190.56-190.56-190.56-190.56 85.44-190.56 190.56 85.44 190.56 190.56 190.56z" p-id="7047"></path><path d="M702.4 455.84l-97.44 97.44c-7.68 7.68-7.68 20.16 0 27.36l97.44 97.44c7.68 7.68 20.16 7.68 27.36 0 7.68-7.68 7.68-20.16 0-27.36l-64.32-64.32h186.72c10.56 0 19.68-8.64 19.68-19.68s-8.64-19.68-19.68-19.68h-186.72l64.32-64.32c3.84-3.84 5.76-8.64 5.76-13.92s-1.92-10.08-5.76-13.92c-7.68-6.72-19.68-6.72-27.36 0.96z" p-id="7048"></path></svg>