<?xml version="1.0" standalone="no"?><!DOCTYPE svg PUBLIC "-//W3C//DTD SVG 1.1//EN" "http://www.w3.org/Graphics/SVG/1.1/DTD/svg11.dtd"><svg t="1642236472233" class="icon" viewBox="0 0 1024 1024" version="1.1" xmlns="http://www.w3.org/2000/svg" p-id="7471" xmlns:xlink="http://www.w3.org/1999/xlink" width="200" height="200"><defs><style type="text/css"></style></defs><path d="M240.09716797 155.73535156h543.66503906c46.59169922 0 84.36181641 37.77011719 84.36181641 84.36181641v543.66503906c0 46.59169922-37.77011719 84.36181641-84.36181641 84.36181641h-543.66503906c-46.59169922 0-84.36181641-37.77011719-84.36181641-84.36181641v-543.66503906c0-46.59169922 37.77011719-84.36181641 84.36181641-84.36181641z m0 56.24121094c-15.53027344 0-28.12060547 12.59033203-28.12060547 28.12060547v543.66503906c0 15.53027344 12.59033203 28.12060547 28.12060547 28.12060547h543.66503906c15.53027344 0 28.12060547-12.59033203 28.12060547-28.12060547v-543.66503906c0-15.53027344-12.59033203-28.12060547-28.12060547-28.12060547h-543.66503906zM511.9296875 607.93964844l-56.24121094-56.24121094-64.4774414 64.4765625-39.76875-39.76787109L455.68847656 472.1609375l56.24121094 56.24121094 53.96660156-53.96660156h-25.84599609v-56.24121094h161.62470703L511.9296875 607.93964844z" p-id="7472"></path></svg>