<?xml version="1.0" standalone="no"?><!DOCTYPE svg PUBLIC "-//W3C//DTD SVG 1.1//EN" "http://www.w3.org/Graphics/SVG/1.1/DTD/svg11.dtd"><svg t="1642236173672" class="icon" viewBox="0 0 1024 1024" version="1.1" xmlns="http://www.w3.org/2000/svg" p-id="3594" xmlns:xlink="http://www.w3.org/1999/xlink" width="200" height="200"><defs><style type="text/css"></style></defs><path d="M403.63085937 554.78515598C418.80957004 509.48632785 461.59472683 476.84374973 512 476.84374973s93.19042996 32.64257813 108.36914063 77.94140625A584.33203152 584.33203152 0 0 0 766.88281223 506.87597629V257.11718777a43.94531223 43.94531223 0 0 0-43.94531223-43.94531304H301.0625a43.94531223 43.94531223 0 0 0-43.94531223 43.94531304v249.75878852a584.32324219 584.32324219 0 0 0 146.51367161 47.90917969z m221.45800782 52.74316433C617.11718723 662.84667969 569.52441379 705.35937527 512 705.35937527c-57.52441379 0-105.11718723-42.51269558-113.08886719-97.82226562A637.02246067 637.02246067 0 0 1 257.11718777 564.83105442V766.88281223a43.94531223 43.94531223 0 0 0 43.94531223 43.94531304h421.875a43.94531223 43.94531223 0 0 0 43.94531223-43.94531304V564.83984375a637.03125 637.03125 0 0 1-141.79394504 42.68847656zM301.0625 160.43749973h421.875c53.39355469 0 96.67968723 43.28613254 96.67968723 96.67968804v509.76562446c0 53.39355469-43.28613254 96.67968723-96.67968723 96.67968804H301.0625c-53.39355469 0-96.67968723-43.28613254-96.67968723-96.67968804V257.11718777c0-53.39355469 43.28613254-96.67968723 96.67968723-96.67968804z m210.9375 492.18750054a61.52343777 61.52343777 0 1 0 0-123.04687554 61.52343777 61.52343777 0 0 0 0 123.04687554z" p-id="3595"></path></svg>