<?xml version="1.0" standalone="no"?><!DOCTYPE svg PUBLIC "-//W3C//DTD SVG 1.1//EN" "http://www.w3.org/Graphics/SVG/1.1/DTD/svg11.dtd"><svg t="1642236470081" class="icon" viewBox="0 0 1024 1024" version="1.1" xmlns="http://www.w3.org/2000/svg" p-id="7329" xmlns:xlink="http://www.w3.org/1999/xlink" width="200" height="200"><defs><style type="text/css"></style></defs><path d="M768 213.333333V170.666667a42.666667 42.666667 0 0 1 85.333333 0v42.666666h42.666667a42.666667 42.666667 0 0 1 0 85.333334h-42.666667v42.666666a42.666667 42.666667 0 0 1-85.333333 0V298.666667h-42.666667a42.666667 42.666667 0 0 1 0-85.333334h42.666667z m0 597.333334v-341.333334a42.666667 42.666667 0 0 1 85.333333 0v384a42.666667 42.666667 0 0 1-42.666666 42.666667H128a42.666667 42.666667 0 0 1-42.666667-42.666667V170.666667a42.666667 42.666667 0 0 1 42.666667-42.666667h469.333333a42.666667 42.666667 0 0 1 0 85.333333H170.666667v597.333334h597.333333zM298.666667 298.666667a42.666667 42.666667 0 0 1 42.666666 42.666666v341.333334a42.666667 42.666667 0 0 1-85.333333 0V341.333333a42.666667 42.666667 0 0 1 42.666667-42.666666z m170.666666 128a42.666667 42.666667 0 0 1 42.666667 42.666666v213.333334a42.666667 42.666667 0 0 1-85.333333 0v-213.333334a42.666667 42.666667 0 0 1 42.666666-42.666666z m170.666667 85.333333a42.666667 42.666667 0 0 1 42.666667 42.666667v128a42.666667 42.666667 0 0 1-85.333334 0v-128a42.666667 42.666667 0 0 1 42.666667-42.666667z" p-id="7330"></path></svg>