<?xml version="1.0" standalone="no"?><!DOCTYPE svg PUBLIC "-//W3C//DTD SVG 1.1//EN" "http://www.w3.org/Graphics/SVG/1.1/DTD/svg11.dtd"><svg t="1642236862968" class="icon" viewBox="0 0 1024 1024" version="1.1" xmlns="http://www.w3.org/2000/svg" p-id="3915" xmlns:xlink="http://www.w3.org/1999/xlink" width="200" height="200"><defs><style type="text/css"></style></defs><path d="M705.35937527 661.41406223a26.3671875 26.3671875 0 1 1-52.734375 0V547.15625027h-105.46875v246.09374946h175.78124973a35.15625027 35.15625027 0 0 1 0 70.31250054H301.0625a35.15625027 35.15625027 0 0 1 0-70.31250054h175.78124973v-246.09374946H188.73828125a28.12499973 28.12499973 0 0 1-25.17187473-40.67578179l161.01562473-322.69921848A42.1875 42.1875 0 0 1 362.30468723 160.43749973h299.39062554a42.1875 42.1875 0 0 1 37.7578125 23.34375027l161.22656223 322.66406277A28.12499973 28.12499973 0 0 1 835.54296848 547.15625027H705.35937527v114.25781196zM641.7265625 230.75000027H382.2734375a17.57812473 17.57812473 0 0 0-14.02734375 6.9609375l-1.72265652 2.77734321-112.71093723 226.19531304a7.03124973 7.03124973 0 0 0 4.4296875 9.9140625l1.86328098 0.24609321h504.07031277a7.03124973 7.03124973 0 0 0 6.92578098-8.40234348l-0.6328125-1.75781223-112.99218696-226.19531304A17.57812473 17.57812473 0 0 0 641.76171902 230.75000027z" p-id="3916"></path></svg>