<?xml version="1.0" standalone="no"?><!DOCTYPE svg PUBLIC "-//W3C//DTD SVG 1.1//EN" "http://www.w3.org/Graphics/SVG/1.1/DTD/svg11.dtd"><svg t="1640088829562" class="icon" viewBox="0 0 1024 1024" version="1.1" xmlns="http://www.w3.org/2000/svg" p-id="2094" xmlns:xlink="http://www.w3.org/1999/xlink" width="200" height="200"><defs><style type="text/css"></style></defs><path d="M960.876712 95.386301c-1.40274-18.235616-15.430137-32.263014-33.665753-33.665753L521.819178 42.082192c-9.819178 0-19.638356 2.805479-26.652055 9.819178L29.457534 519.013699c-7.013699 7.013699-9.819178 15.430137-9.819178 25.249315s4.208219 18.235616 9.819178 25.249315l429.238356 429.238356c7.013699 7.013699 15.430137 9.819178 25.249315 9.819178s18.235616-2.805479 25.249316-9.819178L974.90411 533.041096c7.013699-7.013699 11.221918-16.832877 9.819178-26.652055L960.876712 95.386301z m-478.334246 827.616439l-378.739726-378.739726L533.041096 112.219178l359.10137 18.235617L911.780822 492.361644 482.542466 923.00274z" p-id="2095"></path><path d="M575.123288 283.353425c-47.693151 47.693151-47.693151 123.441096 0 171.134246 22.443836 22.443836 53.30411 35.068493 85.567123 35.068493s63.123288-12.624658 85.567123-35.068493c22.443836-22.443836 35.068493-53.30411 35.068493-85.567123s-12.624658-63.123288-35.068493-85.567123c-46.290411-46.290411-123.441096-46.290411-171.134246 0z m122.038356 122.038356c-19.638356 19.638356-53.30411 19.638356-71.539726 0-19.638356-19.638356-19.638356-51.90137 0-71.539726 9.819178-9.819178 22.443836-15.430137 36.471233-15.430137 12.624658 0 26.652055 5.610959 36.471233 15.430137 9.819178 9.819178 15.430137 22.443836 15.430137 36.471233s-7.013699 25.249315-16.832877 35.068493z" p-id="2096"></path></svg>