<?xml version="1.0" standalone="no"?><!DOCTYPE svg PUBLIC "-//W3C//DTD SVG 1.1//EN" "http://www.w3.org/Graphics/SVG/1.1/DTD/svg11.dtd"><svg t="1642234864814" class="icon" viewBox="0 0 1024 1024" version="1.1" xmlns="http://www.w3.org/2000/svg" p-id="6136" xmlns:xlink="http://www.w3.org/1999/xlink" width="200" height="200"><defs><style type="text/css"></style></defs><path d="M430.59130859 878.50390625c-1.40075684 0-2.88391114-0.08239747-4.28466796-0.16479492l-136.61499024-11.94763184c-12.85400391-1.15356445-24.55444336-7.16857911-32.79418945-17.05627441-8.32214356-9.88769531-12.27722168-22.41210938-11.12365723-35.26611328l15.49072266-176.5777588v-0.16479491l36.2548828-414.21203614v-0.32958984l5.52062989-49.68566895c1.73034668-15.49072266 14.74914551-27.10876465 30.32226563-27.10876464h356.20422363c15.49072266 0 28.50952148 11.618042 30.32226562 27.02636718l4.69665528 41.19873047v0.32958985l0.74157714 8.56933593 19.94018555 227.33459473 31.88781739 363.70239257c1.15356445 12.85400391-2.80151367 25.37841797-11.12365723 35.26611329-8.32214356 9.88769531-19.94018555 15.98510742-32.79418945 17.05627441l-136.61499024 11.94763184c-25.87280273 2.30712891-48.86169434-16.14990234-52.15759277-41.94030762l-32.95898438-254.52575684-32.95898437 254.52575684c-3.21350098 24.22485352-23.81286622 42.02270508-47.95532227 42.02270508zM289.19726562 639.46887208v0.16479491l-15.49072265 176.74255371c-0.98876953 11.20605469 7.33337403 21.01135254 18.45703125 22.00012208L428.77856445 850.40637207c10.87646484 0.98876953 20.51696778-6.7565918 21.91772461-17.63305664l46.88415528-361.72485351c0.90637207-7.00378418 6.83898926-12.19482422 13.92517089-12.19482423 7.00378418 0 13.01879883 5.19104004 13.92517091 12.19482422l46.88415527 361.72485352c1.40075684 10.87646484 11.04125977 18.62182617 21.91772461 17.63305664l136.61499023-11.94763184c5.43823242-0.49438477 10.29968262-3.04870606 13.84277344-7.1685791 3.46069336-4.11987305 5.19104004-9.39331055 4.69665528-14.83154297l-40.20996095-459.11865233-12.27722168-140.24047853-4.69665527-41.03393554c-0.16479492-1.23596192-1.23596192-2.22473145-2.47192383-2.22473145H333.36230469c-1.23596192 0-2.30712891 0.90637207-2.47192383 2.22473145l-5.52062989 49.52087402-36.17248534 413.88244629z" fill="#4C4C4C" p-id="6137"></path><path d="M321.49707031 210.26049805h389.16320802v28.01513672H321.49707031z" fill="#4C4C4C" p-id="6138"></path><path d="M310.45581055 406.36645508c-5.52062989 0-11.04125977-0.32958984-16.47949219-0.98876953l3.46069336-27.76794434c4.28466797 0.49438477 8.6517334 0.82397461 13.01879883 0.82397462 58.50219727 0 106.12792969-47.62573242 106.12792968-106.1279297 0-14.74914551-2.96630859-29.00390625-8.81652832-42.35229492l25.70800782-11.20605469c7.41577148 16.97387695 11.12365723 34.93652344 11.12365722 53.55834961 0 73.91052247-60.15014648 134.06066895-134.1430664 134.06066895zM712.47302247 406.36645508c-73.99291992 0-134.14306641-60.15014648-134.14306642-134.14306641 0-18.62182617 3.70788575-36.66687012 11.12365723-53.55834961l25.70800781 11.20605469c-5.85021973 13.34838867-8.81652833 27.68554688-8.81652831 42.35229492 0 58.50219727 47.62573242 106.12792969 106.12792968 106.12792969 4.36706543 0 8.73413086-0.24719239 13.01879882-0.82397461l3.46069336 27.76794434c-5.43823242 0.74157715-10.95886231 1.071167-16.47949218 1.07116699z" fill="#4C4C4C" p-id="6139"></path></svg>