<?xml version="1.0" standalone="no"?><!DOCTYPE svg PUBLIC "-//W3C//DTD SVG 1.1//EN" "http://www.w3.org/Graphics/SVG/1.1/DTD/svg11.dtd"><svg t="1642236479410" class="icon" viewBox="0 0 1024 1024" version="1.1" xmlns="http://www.w3.org/2000/svg" p-id="7893" xmlns:xlink="http://www.w3.org/1999/xlink" width="200" height="200"><defs><style type="text/css"></style></defs><path d="M361.9878418 452.85576172c0.24125977 0.27290039 0.49833984 0.54580078 0.74355468 0.81474609-0.24521484-1.85888672-0.51020508-3.72172852-0.74355468-5.58457031v4.76982422z" p-id="7894"></path><path d="M349.26040039 567.29990234c-2.54707031-28.61103516-7.63725586-54.8371582-12.72744141-81.06723632-5.09018555-33.38085938-7.63725586-69.14663086-2.54707031-102.52353516 7.63725586-54.84111328 38.18232422-92.9878418 96.72934571-116.83300781 43.27250977-16.69042969 86.54501953-19.0753418 132.36064453-9.53964844 53.45683594 14.30551758 89.08813477 47.68637695 104.36660156 97.75766602 7.63330078 30.99594727 7.63330078 59.60698242 2.54707031 90.60292968-2.54707031 9.53964844-2.54707031 19.0753418-5.09414062 28.61103516l2.55102539-2.38491211c30.54506836-21.46025391 53.45288086-47.68637695 61.09013672-81.06723633 7.63330078-30.99594727 0-59.60698242-12.73139649-88.22197265-17.81762695-35.76181641-45.815625-64.37680664-81.45483398-83.45214844-76.36464844-42.9046875-162.90966797-64.36494141-254.54487305-52.44433594-43.27250977 7.15473633-86.54501953 21.46025391-122.18027344 47.68637695-48.36269531 35.76577148-73.81757812 81.06723633-76.36464844 138.28930664-2.54707031 54.84111328 20.36074219 100.14257813 58.54306641 138.28930664 30.54902344 30.99594727 73.8215332 50.07524414 109.45678711 76.29741211z m-123.24023437-212.75947265c1.98544922-44.66469727 20.8472168-78.69418945 59.36572265-107.17866211 25.8543457-19.02788086 59.98666992-32.22202148 101.39633789-39.1631836a342.8578125 342.8578125 0 0 1 43.23691406-2.76064453 341.60009766 341.60009766 0 0 1 59.48833008 5.23256836 270.94262695 270.94262695 0 0 0-75.8465332 17.40629883l-0.80683594 0.32036133c-71.95473633 29.30317383-113.41977539 79.65131836-123.25209961 149.63642578-4.40991211 29.12124023-4.23984375 61.81391602 0.54580078 99.55327148-6.35581055-4.80146484-12.22119141-9.77299805-17.41816406-15.04511718-33.34130859-33.31362305-48.54067383-68.5612793-46.70947265-108.00131836zM458.71323242 707.97807617c-28.00195313-40.5355957-63.63720703-73.9125-104.36264648-102.52749023-30.54506836-21.46025391-66.18032227-40.53164063-99.27246094-61.99189453-25.45488281-14.30551758-48.36269531-30.99594727-68.7234375-54.83715821V498.15722656c2.54311523 38.15068359 2.54311523 76.29741211 7.63330078 114.44809571 7.63725586 50.07128906 25.45488281 97.75766602 61.09013672 138.29326171 38.17836914 45.30146484 86.54501953 81.06328125 145.08808594 102.52353516 28.00195313 9.53569336 61.09013672 14.30551758 91.63916015 19.0753418 5.09018555 0 5.09018555 0 5.09018555-4.76982422 0-16.69042969 0-35.76577148-2.54707031-54.8371582-2.53916016-38.15068359-15.27055664-71.53549805-35.63525391-104.91240235z m-42.73461914 106.17407227c-48.61582031-17.92441406-90.91933594-47.95532227-125.73588867-89.26215821l-0.58139648-0.67631835c-27.11601562-30.84169922-43.88950195-69.17431641-51.26572266-117.17709961a497.90083008 497.90083008 0 0 1-2.63408203-25.11079102c12.52573242 7.95761719 25.18989258 15.54345703 37.49414062 22.91572266 19.43129883 11.63979492 37.78681641 22.63886719 54.21621094 34.17978515 39.17109375 27.51943359 69.58959961 57.22207031 92.96015625 90.78090821 18.25268555 30.17329102 27.27026367 56.64858398 29.20825195 85.70258789l0.08305664 1.29726562 0.17402344 1.28540039c0.21357422 1.6097168 0.40737305 3.22734375 0.58139649 4.85683594-12.3121582-2.4402832-24.03896484-5.26816406-34.50014649-8.79213867z" p-id="7895"></path><path d="M456.17011719 367.01870117c5.09018555 21.46025391 17.81762695 35.76577148 40.72543945 40.53559571 35.63525391 9.53569336 68.72739258 0 96.72539063-23.84121094 22.91176758-21.46025391 25.45883789-52.45620117 5.09414062-73.9125-7.64121094-9.53569336-17.82158203-14.30551758-30.54902344-19.0753418-48.36665039-14.30551758-96.72539063-11.92060547-142.5449707 9.53964844-43.26855469 21.45234375-58.54306641 59.60302734-45.815625 104.90449219 10.18037109 33.38085938 33.09213867 57.22207031 63.63720703 71.52758789 20.36074219 9.53964844 45.815625 14.30551758 68.72739258 19.07534179 33.08818359 4.76982422 68.7234375 4.76982422 101.81162109-2.38491211 7.64121094-2.38491211 10.18037109-4.76982422 12.73139649-9.53964843 12.72744141-30.99594727 17.81762695-66.76171875 12.7274414-100.13862305-2.54707031-2.38491211-2.54707031-4.76982422-2.54707031-7.15473633-5.09018555 4.76982422-7.63725586 11.92060547-10.18037109 19.0753418-45.81958008 66.75776367-127.27441406 57.22207031-170.54296875 28.61103515-22.9078125-14.30551758-28.00195313-35.76181641-20.36469727-57.22207031 5.09018555-11.92060547 12.72744141-21.45629883 30.54506836-26.22612305-7.63725586 9.53964844-12.72744141 19.0753418-10.18037109 26.22612305z m78.05742187-41.06162109c6.24111328 1.06787109 12.53759766 2.50751953 18.8578125 4.31499023 7.82314453 3.00981445 9.45263672 4.28334961 9.79277344 4.70258789l1.11533203 1.39614258 1.23793945 1.30517578c5.71904297 6.02358398 0.07514648 13.00429687-2.66572265 15.76494141-12.63251953 10.48886719-25.62099609 15.80449219-38.6015625 15.80449219-4.73422852 0-9.70180664-0.68818359-14.75639649-2.04082032l-1.28540039-0.34409179-1.3012207-0.27290039c-1.62553711-0.33618164-2.79228516-0.57744141-3.74545898-1.46733399l31.35190429-39.16318359z" p-id="7896"></path><path d="M631.80327148 588.76015625c38.18232422-28.61103516 76.36464844-54.8371582 114.54301758-81.06723633 22.91176758-14.30551758 43.27250977-30.99594727 58.54702149-54.8371582 40.72939453-61.99189453 45.81958008-128.75361328 12.7274414-195.51533203-17.81367187-40.5355957-50.90976562-71.52758789-96.72539062-88.21801758-35.63920898-11.92060547-71.27446289-14.30551758-109.45283203-9.53964844l-30.54902344 7.15473633c17.82158203 7.15473633 35.63920898 11.92060547 53.45683594 19.0753418 33.09213867 14.30551758 61.08618164 30.99594727 84.00190429 57.22207031 33.08818359 42.92050781 48.35874023 88.22197266 40.72543946 140.67421875-7.63725586 66.75776367-55.99995117 119.21396484-124.72734375 138.28930664-35.63525391 9.53569336-73.81757812 11.92456055-109.45283203 7.15473633-40.72543945-4.76982422-81.45483398-16.69042969-117.09008789-38.1506836-17.47749023-9.35375977-32.4909668-23.30332031-45.07207032-37.33198242a1023.10356445 1023.10356445 0 0 0 22.16425782 116.01826172c2.54707031 11.92060547 5.09018555 21.45629883 17.81762695 26.22612305 0 2.38491211 2.54311523 2.38491211 5.09018555 4.76982422 38.17836914 30.99594727 71.27446289 66.75776367 94.18227539 109.6743164 5.08623047 9.53569336 7.63330078 19.0753418 12.7274414 28.61103516 7.63330078-23.84121094 20.36074219-45.30146484 33.0881836-64.37680664 22.9078125-33.3769043 53.44892578-61.98793945 83.99794921-85.83310547z m-118.22519531 58.19897461c-18.11821289-24.16948242-40.01352539-47.14453125-66.065625-69.36416016l-18.92504883-17.18085937-0.08305664-0.34013672a954.76772461 954.76772461 0 0 1-3.14428711-12.88168945c28.65058594 11.69121094 59.97084961 19.58554687 93.60087891 23.55249023 13.78740234 1.82724609 27.99799805 2.75273437 42.23232422 2.75273438 7.34458008 0 14.67729492-0.23730469 21.97441406-0.71982422-28.46865234 24.24067383-51.39228516 48.69492187-69.58959961 74.18144531zM764.16787109 541.07773437c-38.18232422 26.22612305-78.91171875 50.06733398-117.08613281 81.06328125-78.91171875 64.37680664-117.09404297 145.44404297-109.45678711 245.5866211 0 7.15473633 2.54707031 7.15473633 7.63725586 7.15473633 66.18032227-4.76982422 122.18422852-28.61103516 173.09399414-66.76171875 55.99599609-42.92050781 94.18227539-97.75766602 109.44887695-164.51938477 12.72744141-54.8371582 12.72744141-109.67431641 10.1803711-164.51542969-20.36865234 26.22612305-43.27646484 45.29750977-73.81757813 61.99189453z m19.85844727 93.60878907c-12.67602539 55.39086914-44.24150391 102.72524414-93.85004883 140.8086914-35.19624023 26.33686523-70.32128906 43.20527344-108.23862305 51.70473633 4.12910156-68.0550293 35.29116211-125.05561523 94.56591797-173.41435547 24.30791016-19.73188477 50.91767578-37.12631836 76.65732422-53.94726562 11.71098633-7.65703125 23.80166016-15.55532227 35.65107422-23.65532227 1.40800781-0.77915039 2.80415039-1.56621094 4.18842774-2.36513672-1.51083984 20.29350586-4.29125977 40.67797852-8.97407227 60.86865235z" p-id="7897"></path></svg>