<?xml version="1.0" standalone="no"?><!DOCTYPE svg PUBLIC "-//W3C//DTD SVG 1.1//EN" "http://www.w3.org/Graphics/SVG/1.1/DTD/svg11.dtd"><svg t="1642235408421" class="icon" viewBox="0 0 1024 1024" version="1.1" xmlns="http://www.w3.org/2000/svg" p-id="4988" xmlns:xlink="http://www.w3.org/1999/xlink" width="200" height="200"><defs><style type="text/css"></style></defs><path d="M722.9375 384.95833334c-8.634375 0-17.1 0.675-25.453125 1.6875L629.478125 174.02083334H512a28.125 28.125 0 0 0 0 56.25h76.3875l18.675 58.3875-288.365625 174.403125-62.128125-99.196875H287a28.125 28.125 0 0 0 0-56.25H146.375a28.125 28.125 0 0 0 0 56.25h43.81875l66.43125 106.059375c-3.909375-0.28125-7.81875-0.590625-11.8125-0.590625C159.509375 469.33333334 90.125 538.74583334 90.125 624.02083334S159.509375 778.70833334 244.8125 778.70833334s154.6875-69.4125 154.6875-154.6875a154.209375 154.209375 0 0 0-50.175-113.709375l275.371875-166.584375 18.28125 57.09375C566.196875 432.40520834 512 507.89270834 512 595.89583334c0 116.325 94.6125 210.9375 210.9375 210.9375s210.9375-94.6125 210.9375-210.9375-94.6125-210.9375-210.9375-210.9375z m-478.125 337.5C190.53125 722.45833334 146.375 678.30208334 146.375 624.02083334S190.53125 525.58333334 244.8125 525.58333334s98.4375 44.15625 98.4375 98.4375S299.09375 722.45833334 244.8125 722.45833334z m478.125 28.125a154.884375 154.884375 0 0 1-154.6875-154.6875 154.828125 154.828125 0 0 1 91.940625-141.24375l49.865625 155.86875a28.096875 28.096875 0 1 0 53.55-17.15625l-48.54375-151.7625c2.615625-0.1125 5.23125-0.39375 7.875-0.39375 85.275 0 154.6875 69.4125 154.6875 154.6875S808.2125 750.58333334 722.9375 750.58333334z" p-id="4989"></path></svg>