<?xml version="1.0" standalone="no"?><!DOCTYPE svg PUBLIC "-//W3C//DTD SVG 1.1//EN" "http://www.w3.org/Graphics/SVG/1.1/DTD/svg11.dtd"><svg t="1642310873257" class="icon" viewBox="0 0 1024 1024" version="1.1" xmlns="http://www.w3.org/2000/svg" p-id="3326" xmlns:xlink="http://www.w3.org/1999/xlink" width="200" height="200"><defs><style type="text/css"></style></defs><path d="M458.961016 240.882186c-38.454824 0-70.686922 32.222889-70.686922 70.677713 0 38.4538 32.228005 70.696132 70.686922 70.696132s70.686922-32.243355 70.686922-70.696132C529.647939 273.100982 497.419933 240.882186 458.961016 240.882186zM458.961016 355.290889c-56.706513 0-56.028061-87.443561 0-87.443561C514.940982 267.847328 515.751441 355.290889 458.961016 355.290889z" p-id="3327"></path><path d="M681.423691 423.633417c40.199561 0 73.873498-33.675984 73.873498-73.873498 0-40.186258-33.67803-73.873498-73.873498-73.873498-40.198537 0-73.873498 33.68417-73.873498 73.873498C607.550193 389.961526 641.22106 423.633417 681.423691 423.633417zM681.423691 302.852586c60.48149 0 60.48149 93.815689 0 93.815689S620.942201 302.852586 681.423691 302.852586z" p-id="3328"></path><path d="M779.171945 470.594985c-74.893734 0-74.841545 116.197442 0 116.199489C854.015537 586.795497 854.094332 470.594985 779.171945 470.594985zM779.171945 559.828308c-40.055275 0-40.064484-62.266136 0-62.269205C819.21187 497.557056 819.293735 559.828308 779.171945 559.828308z" p-id="3329"></path><path d="M677.895331 620.816335c-47.378054 0-87.022982 39.668465-87.021959 87.039355 0.001023 47.356564 39.666418 87.021959 87.021959 87.021959 47.359634 0 87.030146-39.658232 87.031169-87.021959C764.9265 660.47559 725.280548 620.816335 677.895331 620.816335zM677.895331 767.912507c-32.663934 0-60.055794-27.386744-60.056817-60.056817-0.001023-32.66598 27.386744-60.074214 60.056817-60.074214 31.733749 0 58.743916 25.90602 59.965743 57.614186C739.155557 738.979548 711.620433 767.912507 677.895331 767.912507z" p-id="3330"></path><path d="M527.409968 107.355053c-125.607766 0-246.585071 57.691957-326.115406 154.836461C117.991298 363.946013 86.792739 501.727029 118.377084 629.459179c19.853164 80.287581 63.520709 154.107867 124.530225 209.975269l3.861958 3.545756 25.14775 0c49.76645 0 93.412506-40.568974 95.446839-90.660836 0.523933-12.892635-3.166109-24.911366-13.724583-33.073256-7.936763-6.134721-24.222681-4.197602-29.167297-11.688203-6.244214-9.459442 4.301979-27.817556 10.510378-34.69315 8.53949-9.457396 20.88261-14.971993 33.629935-14.971993l6.179746 0c6.565533 0 12.990872 2.668783 17.642822 7.320733l196.102307 196.09412c13.728676 13.728676 31.986505 21.295002 51.341319 21.295002l122.115222 0.613984 3.414773-2.24718c125.637442-82.848916 192.802144-233.588059 182.2713-382.330732-9.56382-135.078465-86.164429-259.650645-201.713095-330.042855C680.351266 128.624473 604.233658 107.355053 527.409968 107.355053zM753.926982 856.216669l-113.978914-0.579191c-12.218276 0-23.699772-4.757351-32.337499-13.395078L411.509285 646.148279c-9.804297-9.813506-22.848381-15.220656-36.71725-15.220656l-6.179746 0c-25.464975 0-49.53109 13.873985-62.401212 35.831067-11.398608 19.445888-16.180518 49.03888 3.972475 64.608483 9.249665 7.145747 27.457352 3.869121 30.341029 16.041348 2.264577 9.56075-3.614317 23.818475-7.883551 31.912827-11.771091 22.318308-35.480073 36.693714-60.72299 36.693714l-14.632255 0c-102.256942-96.213295-146.273435-243.899916-113.161293-380.341425 28.119431-115.868961 109.852944-214.887139 217.968313-265.008676 112.076588-51.957349 245.541299-47.509037 353.915565 11.752672 105.554034 57.719586 180.932816 163.099658 200.51685 281.898345C940.974052 612.626815 879.666754 771.285325 753.926982 856.216669z" p-id="3331"></path></svg>