<?xml version="1.0" standalone="no"?><!DOCTYPE svg PUBLIC "-//W3C//DTD SVG 1.1//EN" "http://www.w3.org/Graphics/SVG/1.1/DTD/svg11.dtd"><svg t="1642235771037" class="icon" viewBox="0 0 1024 1024" version="1.1" xmlns="http://www.w3.org/2000/svg" p-id="4896" xmlns:xlink="http://www.w3.org/1999/xlink" width="200" height="200"><defs><style type="text/css"></style></defs><path d="M234.66666667 385.78488886S349.37599999 417.95555553 373.87733333 659.23555555c0 0 11.78666667-218.56000001-127.264-306.98666669z" fill="#B92005" p-id="4897"></path><path d="M506.87253333 266.72035554l1.25546667-69.80266667 10.66453333 0.192-1.25546666 69.80266667zM192.992 853.03822221c-38.46400001-6.4-110.048-30.93333333-113.06666667-32l-7.232-15.02933335 206.51733334-580.26666664 22.112 7.87199999-202.52800001 568.992c19.56266668 6.4 60.448 19.50933333 88.75733334 25.50400001l29.568-75.68000001 21.856 8.53333333L205.86666667 845.74222221z" fill="#414143" p-id="4898"></path><path d="M334.72 868.87822221c-13.77066667 0-31.776-1.06666667-55.46666667-3.77600001-36.64-4.26666667-68.81066667-10.54933333-70.16533334-10.80533333l-9.27999999-13.61066666 80.608-445.792A199.81866667 199.81866667 0 0 0 242.79466666 361.95555554l-9.75999999-6.51733333 13.03466666-19.50933334 9.76 6.51733334c44.544 29.74933333 78.848 76.96 101.97333334 140.31999999C381.74933333 548.39822221 385.06666667 608.14222221 385.376 630.75555554c0.768 56.26666667 0 218.90133334 0 220.53333333l-6.144 10.26133334c-3.94666668 2.15466668-13.472 7.328-44.512 7.328zM225.06666667 833.35822222c12.59733333 2.21866667 34.13333333 5.78133334 57.13066666 8.45866665 47.92533333 5.56800001 69.888 3.68 79.78666667 1.28 0.14933334-33.70666667 0.64-163.2 0-211.98933333-0.736-53.38666667-15.70133333-143.76533334-62.08-211.46666667zM480.45866667 264.30222221h10.66666666v612.416h-10.66666666z" fill="#414143" p-id="4899"></path><path d="M474.05866667 859.65155554h74.29333333v23.46666667h-74.29333333z" fill="#414143" p-id="4900"></path><path d="M531.28533333 264.30222221h10.66666667v612.416h-10.66666667zM395.808 884.36622221c-4.384 0-8.29866668 0-11.73333333-0.06400001-5.83466667-0.06400001-10.24-0.20266667-13.48266667-0.39466666-4.94933333-0.30933333-11.73333333-0.71466667-15.008-7.27466667-0.896-1.792-2.99733333-6.00533333-1.152-20.90666666l1.44-11.63733334 23.28533332 2.89066667-1.45066666 11.648c-0.07466667 0.68266667-0.16 1.38666668-0.22399999 2.13333333 18.24000001 0.48 61.33333334-0.07466667 100.58666666-1.06666666l11.73333334-0.29866667 0.59733333 23.46666667-11.73333333 0.29866666c-0.27733334 0-28.11733333 0.71466667-55.77600001 1.06666667-10.368 0.07466667-19.424 0.13866667-27.08266666 0.13866667z m-18.57066668-16.30933334z" fill="#414143" p-id="4901"></path><path d="M789.856 385.78488886S675.2 417.95555553 650.66666667 659.23555555c0 0-11.73333333-218.56000001 127.264-306.98666669z" fill="#B92005" p-id="4902"></path><path d="M512.34133333 267.55555553h-0.14933334c-6.19733333-0.08533333-152.72533332-2.432-227.58399998-27.82933332l-5.05600001-1.71733334 3.43466666-10.10133333 5.04533334 1.71733335c72.61866667 24.64000001 220.14933333 27.20000001 224.23466667 27.264s151.61600001-2.66666668 224.23466666-27.264l5.04533334-1.71733335 3.43466665 10.10133333-5.05599999 1.71733334c-74.85866668 25.39733333-221.38666667 27.744-227.584 27.82933334z" fill="#414143" p-id="4903"></path><path d="M505.78133333 197.05955554l10.66453334-0.192 1.2544 69.80266667-10.66453334 0.19093333z" fill="#414143" p-id="4904"></path><path d="M295.61599999 248.41955554l-23.03999998-4.448 12.05333332-62.37866667 12.64-9.45066666c1.73866667 0.17066667 172.21333333 16.42666667 213.93066667 14.85866665v-0.08533333h2.13333333v0.10666668c41.71733333 1.568 212.192-14.688 213.93066667-14.85866667l12.64000001 9.45066667L752 243.97155554l-23.04 4.448-10.02666667-51.91466667c-36.42666667 3.39200001-154.50666667 14.05866668-199.392 14.05866667-2.688 0-5.09866668 0-7.232-0.11733333-37.69600001 1.41866667-168.02133333-10.34666668-206.62399999-13.94133334z" fill="#414143" p-id="4905"></path><path d="M831.54133333 853.03822221l-12.864-7.296-33.06666666-84.77866667 21.86666666-8.53333333L836.98133333 828.08888887c28.32-5.99466668 69.19466667-19.05066666 88.75733334-25.504L723.2 233.56088887l22.112-7.872 206.51733334 580.26666667-7.23200001 15.02933335c-3.00800001 1.08800001-74.592 25.61066667-113.056 32.05333332z" fill="#414143" p-id="4906"></path><path d="M689.81333334 868.87822221c-31.04000001 0-40.53333333-5.17333333-44.51200001-7.31733335l-6.144-10.25066665c0-1.632-0.768-164.26666667 0-220.53333332 0.32000001-22.63466668 3.62666667-82.37866667 27.57333333-147.96800003 23.12533333-63.36 57.42933333-110.57066668 101.97333333-140.31999999l9.76000001-6.51733333L791.46666667 355.48088887l-9.728 6.47466667a199.81866667 199.81866667 0 0 0-37.664 32.896l0.21333333 1.184 80.39466668 444.608-9.28000001 13.61066667c-1.35466667 0.256-33.52533333 6.53866667-70.16533335 10.80533334-23.63733333 2.79466668-41.65333333 3.81866668-55.424 3.81866666z m-27.22133335-25.78133334c9.89866667 2.4 31.904 4.26666667 79.92533334-1.30133333 22.92266667-2.66666668 44.43733334-6.21866667 56.99199999-8.43733332l-74.80533332-413.71733335c-46.37866667 67.70133333-61.344 158.08-62.08 211.46666667-0.672 48.81066667-0.224 178.28266668-0.03200001 211.98933333z" fill="#414143" p-id="4907"></path><path d="M628.72533333 884.36622221c-7.65866668 0-16.71466667-0.06400001-27.08266666-0.19200001-27.65866667-0.352-55.46666667-1.06666667-55.776-1.06666667l-11.73333334-0.29866667 0.59733334-23.46666664 11.73333333 0.29866664c39.25333333 1.00266668 82.336 1.55733334 100.58666667 1.06666667-0.07466667-0.74666668-0.14933334-1.46133333-0.224-2.13333333L645.33333333 846.96888889l23.328-2.88000002 1.45066667 11.648c1.84533333 14.93333333-0.256 19.11466667-1.152 20.90666667-3.27466667 6.56-10.05866667 6.96533333-15.008 7.27466666-3.2 0.19200001-7.648 0.33066667-13.48266667 0.39466667-3.44533333 0.04266667-7.37066667 0.05333333-11.744 0.05333334z m18.57066667-16.30933334z" fill="#414143" p-id="4908"></path><path d="M511.21066666 318.37155553m-9.26933333 2e-8a9.26933333 9.26933333 0 1 0 18.53866667 0 9.26933333 9.26933333 0 1 0-18.53866667 0Z" fill="#414143" p-id="4909"></path><path d="M511.21066666 431.99288886m-9.26933333 3e-8a9.26933333 9.26933333 0 1 0 18.53866667 0 9.26933333 9.26933333 0 1 0-18.53866667 0Z" fill="#414143" p-id="4910"></path><path d="M511.21066666 545.6142222m-9.26933333 0a9.26933333 9.26933333 0 1 0 18.53866667 0 9.26933333 9.26933333 0 1 0-18.53866667 0Z" fill="#414143" p-id="4911"></path><path d="M511.21066666 659.23555555m-9.26933333 0a9.26933333 9.26933333 0 1 0 18.53866667 0 9.26933333 9.26933333 0 1 0-18.53866667 0Z" fill="#414143" p-id="4912"></path><path d="M511.21066666 772.85688889m-9.26933333-3e-8a9.26933333 9.26933333 0 1 0 18.53866667 0 9.26933333 9.26933333 0 1 0-18.53866667 0Z" fill="#414143" p-id="4913"></path></svg>