<?xml version="1.0" standalone="no"?><!DOCTYPE svg PUBLIC "-//W3C//DTD SVG 1.1//EN" "http://www.w3.org/Graphics/SVG/1.1/DTD/svg11.dtd"><svg t="1642236844432" class="icon" viewBox="0 0 1024 1024" version="1.1" xmlns="http://www.w3.org/2000/svg" p-id="2915" xmlns:xlink="http://www.w3.org/1999/xlink" width="200" height="200"><defs><style type="text/css"></style></defs><path d="M759.41210938 505.03027344c-2.63671875 0-5.28222656-0.44824219-7.84863282-1.37109375a23.18203125 23.18203125 0 0 1-15.21386719-19.60839844c-9.84375-103.95703125-92.43457031-186.5390625-196.38281249-196.39160156a23.17148437 23.17148437 0 0 1-19.60839844-15.21386719 23.15214844 23.15214844 0 0 1 5.4140625-24.22265625l109.16015625-109.15136719C648.35351563 125.65039062 666.21289063 118.25 685.18847656 118.25c18.99316406 0 36.84375 7.40039063 50.26464844 20.82128906l149.50195313 149.49316407c27.71191406 27.71191406 27.71191406 72.79980469-1e-8 100.51171874l-109.16015625 109.16015625a23.12226563 23.12226563 0 0 1-16.3828125 6.79394532zM589.66015625 249.85742187c89.44628906 24.66210938 159.82910156 95.05371094 184.50878906 184.50878907l78.03808594-78.03808594c9.65039063-9.65039063 9.65039063-25.35644531 0-35.00683594l-149.50195313-149.49316406c-9.34277344-9.34277344-25.6640625-9.36035156-35.00683593 0l-78.03808594 78.02929688zM338.75878906 905.75c-6.23144531 0-12.48925781-0.81738281-18.64160156-2.48730469l-117.46582031-32.03613281c-24.16992188-6.59179688-43.28613281-25.70800781-49.86035157-49.87792969L120.75488281 703.89160156c-6.69726563-24.54785156 0.32519531-50.9765625 18.32519531-68.95898437l123.38085938-123.38085938a23.15214844 23.15214844 0 0 1 24.22265625-5.4140625 23.18203125 23.18203125 0 0 1 15.21386719 19.60839844c9.84375 103.95703125 92.43457031 186.5390625 196.3828125 196.39160156 8.93847656 0.85253906 16.56738281 6.77636719 19.60839843 15.21386719s0.93164063 17.87695313-5.4140625 24.22265625L389.09375 884.94628906C375.61132812 898.42871094 357.3828125 905.75 338.75878906 905.75z m-74.66308593-330.31933594L171.828125 667.68945313c-6.26660156 6.27539063-8.70996094 15.46875-6.38085938 24.02050781l32.03613282 117.45703125c2.29394531 8.41992188 8.94726563 15.07324219 17.35839844 17.3671875l117.46582031 32.03613281c8.51660156 2.34667969 17.75390625-0.10546875 24.02050781-6.37207031L448.578125 759.93945313c-89.4375-24.67089844-159.81152344-95.0625-184.48242188-184.50878907zM602.58007813 621.94238281c-6.38964844 0-12.74414063-2.62792969-17.32324219-7.77832031L501.8046875 520.28808594a23.13544922 23.13544922 0 0 1-5.84472656-15.38964844V323.83496094c0-12.78808594 10.37109375-23.15917969 23.15917968-23.15917969s23.15917969 10.37109375 23.15917969 23.15917969V496.09179687l77.60742188 87.29296876c8.49023438 9.55371094 7.63769531 24.19628906-1.92480469 32.6953125a23.03613281 23.03613281 0 0 1-15.38085938 5.86230468z" fill="#333333" p-id="2916"></path><path d="M519.11914063 769.47558594c-145.88085938 0-264.56835938-118.6875-264.56835938-264.57714844 0-145.88964844 118.6875-264.57714844 264.56835938-264.57714844s264.57714844 118.6875 264.57714843 264.57714844c0 145.88964844-118.69628906 264.57714844-264.57714844 264.57714844z m-1e-8-482.82714844c-120.33105469 0-218.24121094 97.91015625-218.24121093 218.25878906 0 120.33984375 97.91015625 218.25 218.24121093 218.25 120.34863281 0 218.25878906-97.91015625 218.25878907-218.25-0.00878906-120.35742188-97.91015625-218.25878906-218.25878907-218.25878906z" fill="#333333" p-id="2917"></path></svg>