<?xml version="1.0" standalone="no"?><!DOCTYPE svg PUBLIC "-//W3C//DTD SVG 1.1//EN" "http://www.w3.org/Graphics/SVG/1.1/DTD/svg11.dtd"><svg t="1642236092589" class="icon" viewBox="0 0 1024 1024" version="1.1" xmlns="http://www.w3.org/2000/svg" p-id="3590" xmlns:xlink="http://www.w3.org/1999/xlink" width="200" height="200"><defs><style type="text/css"></style></defs><path d="M567.59257812 315.42822266c-7.65966797-7.66494141-17.84970703-11.8828125-28.69628906-11.8828125-10.83164063 0-21.02255859 4.21787109-29.16474609 12.35830078-7.67285156 7.66757813-11.88984375 17.85673828-11.88984375 28.69716797 0 10.84042969 4.21699219 21.03046875 12.37148437 29.17177734 7.66054688 7.66582031 17.85146484 11.88369141 28.68310547 11.88369141 10.84746094 0 21.0375-4.21787109 29.1788086-12.35830078 15.81416016-15.82998047 15.81416016-41.57314453-0.48251953-57.86982422z m-10.3508789 47.99267578c-9.80068359 9.80332031-26.40585938 10.27792969-37.15839844-0.47548828-4.90078125-4.90078125-7.59287109-11.41523437-7.59287109-18.34541016 0-6.92929688 2.69208984-13.44462891 8.06132812-18.82001953 4.90166016-4.90078125 11.42138672-7.59902344 18.34453125-7.59902344 6.93808594 0 13.44550781 2.69824219 18.82792969 8.07451172 10.11005859 10.11708984 10.11005859 26.57285156-0.48251953 37.16542969zM637.84091797 385.67568359c-7.65966797-7.66669922-17.85146484-11.88457031-28.69628906-11.88457031-10.83339844 0-21.0234375 4.21787109-29.1647461 12.3600586-7.66054688 7.66669922-11.89072266 17.85585938-11.89072265 28.69628906 0 10.83955078 4.23017578 21.02958984 12.37324218 29.17001953 7.65878906 7.66757813 17.84882813 11.88544922 28.68222657 11.88544922 10.84570313 0 21.0375-4.21787109 29.17880859-12.3600586 15.81328125-15.81943359 15.81328125-41.56347656-0.48251953-57.8671875z m-10.35087891 47.99267579c-9.78837891 9.79541016-26.40673828 10.27617187-37.15839844-0.47460938-4.90166016-4.90253906-7.59375-11.41787109-7.59375-18.34541016 0-6.93017578 2.69208984-13.44550781 8.07539063-18.82265625 4.88759766-4.90078125 11.40820313-7.59199219 18.33046875-7.59199218 6.93632812 0 13.44550781 2.69121094 18.82792969 8.06835937 10.11005859 10.11708984 10.11005859 26.57460938-0.48164063 37.1663086zM679.39208984 444.04033203c-10.83251953 0-21.02431641 4.21699219-29.16474609 12.36005859-15.82910156 15.82646484-15.82910156 41.57050781 0.48251953 57.86718751 7.65791016 7.66054688 17.84970703 11.88457031 28.68222656 11.88457031 10.84746094 0 21.0375-4.22490234 29.17792969-12.3600586 7.66054688-7.66582031 11.89160156-17.84970703 11.89160156-28.69628906 0-10.83955078-4.23105469-21.03046875-12.37412109-29.17089844-7.65791016-7.66757813-17.84794922-11.88457031-28.69541016-11.88457031z m18.34541016 59.87548828c-9.80244141 9.80244141-26.40673828 10.27792969-37.16015625-0.47460937-10.10830078-10.11708984-10.10830078-26.57373047 0.48251953-37.1663086 4.88847656-4.90078125 11.40996094-7.59287109 18.33222656-7.59287109 6.93632812 0 13.44375 2.69208984 18.82792969 8.06835938 4.89990234 4.90166016 7.59287109 11.41523437 7.59287109 18.34541015s-2.69296875 13.44375-8.07539062 18.82001953z" fill="#040000" p-id="3591"></path><path d="M855.23925781 370.65078125l-49.11767578-48.45322266c-9.73476562 5.09501953-19.3359375 8.85146484-30.51650391 8.85146485-27.54580078 0-44.47177734-21.49277344-62.2274414-39.30117188-19.40273437-19.47041016-19.26914063-46.98808594-7.16308594-70.12792968l-51.12685547-51.12509766c-13.63183594-13.63183594-31.69599609-22.50878906-50.96425781-23.259375-20.86259766-0.80332031-40.53427734 6.93720703-55.21025391 21.53935547l-75.13505859 75.12099609c-1.62070312 1.62070312-0.78837891 4.27939453 1.4203125 4.85507813 3.38730469 0.87714844 6.61376953 2.50488281 9.58798828 4.85332031 10.51083984 8.31005859 13.32246094 22.44990234 6.49423828 33.98027344-10.15136719 17.12021484-31.95175781 15.77285156-43.46630859 2.99267578-2.28955078-2.91884766-3.89707031-6.20771484-4.75400391-9.64775391-0.5625-2.23066406-3.22734375-3.07441406-4.86035156-1.44667969L170.51767578 547.16855469c-13.63183594 13.63183594-22.52285156 31.68808594-23.27255859 50.95810547-0.80332031 20.86259766 6.94863281 40.53955078 21.5446289 55.21728515l53.2828125 52.63154297c9.65478516-5.19609375 19.39042969-8.85146484 30.53056641-8.85146484 14.78232422 0 28.68134766 5.70410156 39.23349609 16.17626953l22.97988282 23.05283203c19.28232422 19.35 19.24277344 47.04873047 7.17626953 70.12089844l48.67470703 48.67998047c16.13583984 16.22373047 38.57958984 23.96953125 61.73261719 21.07265625 16.76425781-2.10410156 32.12402344-10.47744141 44.06835937-22.42441407l266.78408203-266.77617187c2.11376953-2.11464844 1.32539063-5.76386719-1.52666015-6.66123047a26.13515625 26.13515625 0 0 1-8.20810547-4.31191406c-6.44150391-5.00712891-10.25771484-12.52617187-10.25771485-20.72197266 0-13.95263672 12.49277344-26.41992188 26.353125-26.41992187 7.5375 0 16.10771484 4.46572266 20.79492188 10.31748047a25.73525391 25.73525391 0 0 1 4.39189453 8.20195312c0.89736328 2.81953125 4.55361328 3.56923828 6.64277344 1.48007813l73.79560547-73.80175782c28.76396484-28.83955078 28.76396484-75.68701172 0.0008789-104.45800781zM844.84707031 464.71484375l-64.11445312 64.12148437a39.31875 39.31875 0 0 0-2.42402344-2.63847656c-7.61835938-7.68427734-17.86113281-11.93027344-28.69453125-11.93027344s-21.01113281 4.24599609-29.12607422 12.3741211c-7.68603516 7.68427734-11.86435547 17.85585938-11.86435547 28.6883789 0 10.83339844 4.17832031 21.08408203 12.30644532 29.21220704 0.72333984 0.72949219 1.37988281 1.38603516 2.18232421 1.97490234L464.80537109 844.83125c-11.2078125 11.20078125-26.0578125 17.34873047-41.95283203 17.34873047-15.80097656 0-30.66503906-6.14794922-41.85878906-17.34873047l-41.13808594-41.21191406c11.55673828-26.34697266 5.99941406-57.01728516-14.64873047-77.58457032l-23.05898437-23.05810546c-13.24423828-13.25039062-30.81181641-20.49521484-49.54570313-20.49521485-9.58798828 0-19.10917969 1.97578125-28.10742187 5.85263672l-45.31376953-45.38144531c-11.19462891-11.12167969-17.34082031-26.0578125-17.34082032-41.86582031 0-15.81503906 6.14619141-30.67910156 17.34082032-41.87373047l258.38613281-258.39492188a27.52646484 27.52646484 0 0 0 2.42490234 2.71230469c7.60517578 7.68603516 17.84882813 11.85732422 28.68222657 11.85732422 10.83427734 0 21.01025391-4.17128906 29.1383789-12.37236328 15.81328125-15.80800781 15.81328125-41.57226563-0.44121093-57.82939453-0.73740234-0.72949219-1.39394531-1.38515625-2.19726563-1.97314453l64.04853516-64.04853516c11.20693359-11.19462891 26.05693359-17.34785156 41.95195312-17.34785156 15.80185547 0 30.66591797 6.15322266 41.85966797 17.34785156l45.31552734 45.30673828c-11.57080078 26.353125-6.00029297 57.02519531 14.63466797 77.6671875l23.05898438 22.98427734c13.25654297 13.25039062 30.82412109 20.56904297 49.55976562 20.56904297a69.31494141 69.31494141 0 0 0 28.0256836-5.92558593l41.2171875 41.21103515c23.12753906 23.13193359 23.12753906 60.67880859 0.0008789 83.73779297z" fill="#040000" p-id="3592"></path><path d="M389.21503906 707.41425781a13.21611328 13.21611328 0 0 1-10.84570312-5.65751953l-24.16992188-34.56914062-34.57529297-24.17607422c-3.80214844-2.64462891-5.95810547-7.19736328-5.596875-11.85117188 0.62929687-8.20107422 9.03867187-14.04667969 16.88554688-11.76943359l35.56669922 10.34472656 16.02773437-24.00996094 44.79257813-44.78466797s-98.00683594-75.54375-98.26171875-75.73007812c-6.34746094-4.90253906-6.94951172-14.77089844-1.31132813-20.41611328 3.99023437-3.97705078 9.93603516-5.11435547 14.97041016-3.01201172l50.33496094 21.18427734 5.3165039-5.3024414c5.67773438-5.69091797 16.2703125-5.04228516 22.68369141 1.38691406 4.42001953 4.41738281 6.96357422 11.46181641 4.7540039 17.70117188l3.72304688 1.56708984 7.37753906-7.37226563c5.67773438-5.69091797 16.2703125-5.034375 22.68369141 1.38603516 5.02294922 5.02207031 7.47246094 13.6125 3.60351562 20.16035156l8.85058594 3.71689453 23.75419922-23.54765625 38.43193359-25.36875c5.50371094-3.64833984 13.29697266-2.85908203 17.98417969 1.83427735 4.84716797 4.85419922 5.62324219 12.41367188 1.91513672 18.0571289l-26.31269531 39.56220704-22.61601563 22.61689453 3.72216797 8.85058593c5.878125-3.48837891 14.51513672-2.02851562 20.03203125 3.47431641 6.76230469 6.77636719 7.39160156 16.94707031 1.52666016 22.82519531l-7.37929688 7.37226563 1.56621094 3.73007812c5.625-1.99599609 12.77578125-0.16699219 17.55615234 4.6116211 3.14736328 3.13330078 5.04931641 6.97675781 5.49052735 10.9546875 0.87011719 7.64560547-4.37871094 12.29150391-9.2663086 17.17998047l21.17109375 50.315625c2.16914063 5.11611328 1.01601563 10.98017578-2.90654297 14.91064453-5.75859375 5.75771484-15.54697266 5.22158203-20.51455078-1.24541016l-75.72568359-98.240625-45.92988281 45.70927734-22.85859375 15.10576172 10.35175781 35.578125a13.17832031 13.17832031 0 0 1-1.83427734 11.22802735c-2.27724609 3.28623047-5.8640625 5.34990234-9.85517579 5.63818359l-1.11269531 0.05097656z m-54.40605469-71.64667968l29.90126954 20.91621093 20.91621093 29.90830078-11.03378906-37.93623046 31.23984375-20.64726563 56.05400391-56.04082031 81.33486328 105.54609375-22.10800781-52.53925781 12.27919922-12.26601563c-0.17402344 0.23466797-0.36123047-0.95097656-1.3913086-1.98896484-1.05820312-1.05644531-1.99599609-1.30429688-2.39853516-1.30429688l-10.57851562 10.59169922-13.25566406-31.50878906 14.32792968-14.3288086c-0.10810547 0.17490234-0.34804688-0.95712891-1.3930664-1.99511718-1.05732422-1.05732422-1.98105469-1.29902344-2.39765625-1.29902344l-12.62636719 12.68173828-15.80185547-37.58115234 29.04521485-29.05927735L541.8828125 479.13154297l-37.38691406 25.30722656-29.08388672 29.08388672-37.56181641-15.80712891 12.8953125-12.89443359c-0.28037109 0.09492188-0.36123047-0.95625-1.3930664-1.99599609-1.04414063-1.05644531-1.98017578-1.29726563-2.38183594-1.29726563l-14.07480469 14.10732422-31.52197266-13.27763672 10.83339844-10.82636719c-0.16083984 0.16083984-0.34892578-0.95712891-1.3930664-1.99423828-1.04414063-1.05117188-1.98017578-1.29287109-2.39677735-1.29287109l-11.98388672 12.03925781-52.55859375-22.12822265 105.55751954 81.35332031-56.0522461 56.05488281-20.63496094 31.23896484-37.93623046-11.03466796z" fill="#040000" p-id="3593"></path></svg>