<?xml version="1.0" standalone="no"?><!DOCTYPE svg PUBLIC "-//W3C//DTD SVG 1.1//EN" "http://www.w3.org/Graphics/SVG/1.1/DTD/svg11.dtd"><svg t="1642310891993" class="icon" viewBox="0 0 1024 1024" version="1.1" xmlns="http://www.w3.org/2000/svg" p-id="4327" xmlns:xlink="http://www.w3.org/1999/xlink" width="200" height="200"><defs><style type="text/css"></style></defs><path d="M199.12058193 805.88924316l54.50394639 1e-8c-0.41102138 0 3.6443294 2.81059453 3.64432939 4.17856728l0 83.06048496c0 7.06470996 5.69673721 12.76144805 12.73716387 12.76144805 7.03952754 0 12.73626474-5.69673721 12.73626475-12.76144805l0-83.06048496c0-1.36797276-4.81353662-4.17856729-5.19937471-4.17856728l54.47876309 0c7.04042666 0 14.40373448-5.37385693 14.40373446-12.41428272L346.42540918 640.31330323l76.41848848 0 0 20.24887148c0 7.04042666 1.81676865 17.96172187 8.85629531 17.96172187l83.07307617 0c71.14626299 0 129.02022422-62.58856464 129.02022422-133.72853203 0-71.14536387-57.87396123-133.7456206-129.02022422-133.74562061l-83.07307617 0c-7.03952754 0-8.85629531 9.8878957-8.85629531 16.92832237l0 21.28137099L332.02167558 449.25943818c-126.71868516 0-151.17220547 65.71034824-151.17220546 105.37525547l0 238.84116593C180.84947012 800.51538623 192.08105527 805.88924316 199.12058193 805.88924316zM448.31732714 436.52317344l66.45504376 0c57.09239122 0 103.54769472 51.16990693 103.54769472 108.27219111 0 57.08519648-46.45530352 108.25510342-103.54769472 108.25510342l-66.45504376 0 1e-8-25.69737744 0-166.15334795L448.31732714 436.52317344zM422.84299854 614.84077373l-76.41848848 0L346.42451006 474.74455888l76.41848848 0L422.84299854 614.84077373zM206.32289873 554.63379453c0-50.62307783 38.20969424-77.63806143 114.62908184-80.44955508l0 153.16795196 0 153.06362314L206.32289873 780.41581367 206.32289873 554.63379453zM531.37781211 372.8526418l66.456842 0c7.04042666 0 16.05771299-4.27839961 16.05771298-11.30623419l0-14.17978652 76.42028672 0 0 147.06738809c0 7.03952754 0.16189013 18.50765185 7.20051767 18.50765186l54.4922543 0c-0.41102138 0 1.99035088-3.27108252 1.99035088-1.90310977l0 382.08974326c0 7.06470996 5.69673721 12.76144805 12.73536563 12.76144805 7.04042666 0 12.73716387-5.69673721 12.73716386-12.76144805L779.46830615 511.03855215c0-1.36797276-3.16045723 1.90310977-3.55708828 1.90310977l54.50304726 0c7.04042666 0 12.73716387-11.46812432 12.73716388-18.50765186l0-238.86005274c0-39.63972393-18.91867325-111.99206953-145.63825753-111.99206953l-83.62080526 0L613.89236709 128.94251328c0-7.02693545-9.01638721-10.83315498-16.05771299-10.83315498l-66.45684199 0c-71.14536387 0-129.0193251 56.21998271-129.0193251 127.36534659C402.35848701 316.62006787 460.23244825 372.8526418 531.37781211 372.8526418zM817.67710127 255.57395645l0 231.89427597L715.78428418 487.46823242 715.78428418 328.29954893 715.78428418 175.17476709C779.46740703 177.96107832 817.67710127 204.97606191 817.67710127 255.57395645zM690.31175469 169.05531641l0 152.83877519-76.42028672 1e-8L613.89146797 169.05531641 690.31175469 169.05531641zM531.37781211 143.58278692l57.04112637-1e-8 0 18.59489297 0 166.12276905 0 19.06707216-57.04112637 0c-57.08969297 0-103.5458956-44.78873291-103.5458956-101.89281708C427.83101651 188.37151982 474.28811826 143.58278692 531.37781211 143.58278692z" p-id="4328"></path></svg>