<?xml version="1.0" standalone="no"?><!DOCTYPE svg PUBLIC "-//W3C//DTD SVG 1.1//EN" "http://www.w3.org/Graphics/SVG/1.1/DTD/svg11.dtd"><svg t="1642234813177" class="icon" viewBox="0 0 1443 1024" version="1.1" xmlns="http://www.w3.org/2000/svg" p-id="12785" xmlns:xlink="http://www.w3.org/1999/xlink" width="281.8359375" height="200"><defs><style type="text/css"></style></defs><path d="M1271.07393892 710.43533145c-0.71745658-25.16641162-4.56764788-62.44881034-9.81949338-95.14930667-10.34689534-64.30184401-22.17304936-87.87337965-27.3995538-96.8772216-1.20526372-4.08617661-4.69593533-19.2398715-8.36715857-66.77889012-2.74153887-35.50538753-4.76720553-77.82898753-6.57906079-115.15573333-1.38106462-28.71568328-2.69244184-55.83649057-4.117852-75.7209641-0.82515444-11.50781273-1.64397302-19.82745784-2.54831709-26.23230133-1.24485853-8.69658645-4.99210347-35.11260809-30.9709986-44.02934177-6.92274319-2.3756841-13.54139803-2.8302315-22.64818634-2.83023074-7.77957301 0-18.26900874 0.37219061-31.57125509 0.84257533-19.23036927 0.68419684-43.17726268 1.52835652-67.85269925 1.52835729-30.50694898 0-55.54982466-1.3414698-74.43809512-4.0054034-33.21047662-4.67059424-50.75727805-14.68331019-66.89133948-28.29756277C895.73013978 139.05960064 840.32127272 116.52227931 804.70501941 116.52227931c-12.57845393 0-23.63013568 2.68452241-32.828783 7.95378956-23.66973049 13.54614953-28.48128232 42.44555237-32.30930126 78.84419738-2.74787472 26.14519303-4.71494056 59.79754689-6.61865484 92.32699459-2.38677068 40.79365992-5.99939389 102.31278589-10.66998891 116.74902498-12.30762608 28.11067529-37.03532762 58.69998104-67.90337986 83.98834425-20.71437948 16.98138825-70.16186389 41.51745157-132.24640302 65.64331303-62.43455661 24.2699862-110.10027755 37.43285932-122.63438594 38.70780966-15.80621713 1.58378941-34.20984762 2.33925645-57.92550876 2.33925644-12.21735066 0-23.99123973-0.18055162-35.37710008-0.37219062-9.81949338-0.15837925-19.07515794-0.31675773-27.3773814-0.31675773-22.21739568 0-34.02929597 1.1561659-43.57637718 4.23822002-36.98306265 11.97978179-50.62107196 54.46176103-53.90426728 67.21126513l-0.4640504 1.80551942-0.31675773 1.86887097-4.32849621 25.41823423-6.56163915 17.32665422-0.45771532 1.25119359-0.40069808 1.25119362c-8.14067705 26.06917133-16.96555018 64.01676167 0.23915168 92.54080594a54.40316099 54.40316099 0 0 0 24.92725917 22.03050898c52.30463979 27.76382574 147.47136889 46.65843129 290.69184762 57.72911827 114.11201603 8.82170598 229.61143098 10.13625112 288.32249938 10.13625112 19.4568508 0 32.84937258-0.14254117 38.4227273-0.19005464 14.71498635 1.69465441 34.05146914 2.50238721 58.91696035 2.5023872 56.52385458 0 142.75484476-4.59298897 230.70266175-12.32188058 37.14460906-3.26260574 71.33545221-6.82613191 96.24845687-10.04122419 13.07734762-1.69465441 23.52085425-3.26260574 31.06285837-4.68801589a118.39141442 118.39141442 0 0 0 12.02412809-2.78746878c21.4239174-6.35099492 28.98334319-21.68207508 31.57125511-30.25037486 2.29332655-7.71305354 4.71969206-15.66367596-0.85999776-136.98193317zM672.68193153 522.44904989c33.95960936-27.80500414 61.32431983-56.1690856 77.21922881-92.85122937 15.66367596-36.19591944 15.49737806-250.50636286 29.74989758-268.72785814 6.65191458-7.94428657 19.9557445-10.39757673 25.05554583-10.39757672 25.56552612 0 72.03865428 19.23512078 86.47489337 31.40020646 21.50152268 18.11854892 46.16428908 30.25037487 87.88288188 36.11039475 24.06250991 3.38772526 52.62139829 2.83973451 80.16032532 2.83973374 41.9704154 0 89.49359594-0.79189471 107.35557152-0.79189393 4.81313542 0 12.70674136 5.76499295 14.71498557 13.80113928s9.40929231 264.96794226 28.63649366 311.15598884c-50.13009767 4.17328489-203.73389863 21.35423077-346.46973738 88.67319223-77.25882363 36.44140698-141.77289542 22.90000894-162.40966963 16.67571711l-52.38382941-111.29920619a220.19580437 220.19580437 0 0 0 24.01341288-16.58860805zM212.56422774 685.01551365s9.66111413-39.15127046 27.37579704-44.88617082a167.49680002 167.49680002 0 0 1 38.84559932-5.41972699c17.26330268 0 39.40942815 0.68419684 62.75606584 0.68419685 20.58925996 0 42.09395056-0.53056909 62.0275219-2.54514917 31.46830873-3.16757881 142.93539639-42.83199671 218.78781586-80.09222305l53.10445393 118.00497007 7.4184682 3.08838919c2.128613 0.88692164 29.36503681 14.76091625 76.02188454 14.76091624 33.71253825 0 75.93477625-8.01397396 122.08481082-29.77523866 150.03235613-70.78587711 309.78917873-82.19866212 339.65627641-84.16414439 8.9864203 36.58553172 16.48566247 89.91330002 18.60160532 121.69995006-35.00174231-2.89833456-55.23781766-2.81914492-96.33081441-2.48654912-17.96650553 0.14254117-42.55800097 0.33259581-78.36747606 0.36427119-49.91945346 0.04751347-81.0646694 11.11820046-117.1513074 23.96273149-54.22736009 19.29055289-121.69995006 43.36415017-294.91739748 42.20798426-283.28446523-1.82135751-434.86576747-55.62267843-437.44259279-56.63630393a20.92977518 20.92977518 0 0 0-5.45773745-1.29870706z m1030.19314318 155.76567371c-2.13019657 7.01618655-246.49937587 32.80027553-372.47555718 32.80027552-23.3007078 0-42.90009977-0.76021854-56.71707713-2.56573875 0 0-15.10934935 0.25340618-40.61627542 0.25340619-117.40313002 0-465.18582896-5.2740179-571.49926598-64.30184324 0 0-26.16103111-27.76382574 0.66202368-75.0240971a20.88384531 20.88384531 0 0 0 2.62592237 1.28286898c5.98038788 2.35984603 154.30700381 57.63409135 447.50123785 59.48712424 3.97372725 0.03167616 7.88251937 0.03167616 11.72795995 0.03167616 171.77778277 0 241.19209825-23.10748523 297.20597254-43.03155436 33.83607341-12.03679824 60.56885279-21.52369583 103.41035173-21.55537198 35.9710215-0.01583808 60.65912821-0.2217308 78.67156441-0.36427119 43.44017186-0.36427119 60.28852194-0.39594735 97.96845159 2.77163145 1.36681011 34.36822687 3.23726543 104.57760421 1.53469159 110.21589407zM809.77631328 329.1285653a29.76415132 29.76415132 0 1 0 29.75781624-30.3406503 30.05398515 30.05398515 0 0 0-29.75781624 30.3406503z m-25.65738591 126.11872248a30.33589957 30.33589957 0 1 0 0-0.74121332c-0.00633508 0.24865468-0.00633508 0.49255864-0.00158434 0.74913197z" p-id="12786"></path></svg>