<?xml version="1.0" standalone="no"?><!DOCTYPE svg PUBLIC "-//W3C//DTD SVG 1.1//EN" "http://www.w3.org/Graphics/SVG/1.1/DTD/svg11.dtd"><svg t="1642236878270" class="icon" viewBox="0 0 1024 1024" version="1.1" xmlns="http://www.w3.org/2000/svg" p-id="4903" xmlns:xlink="http://www.w3.org/1999/xlink" width="200" height="200"><defs><style type="text/css"></style></defs><path d="M866.83552138 678.0274332c-24.38696602-21.4720418-52.78791006-38.38327646-80.9190369-54.36813867-29.91821572-17.00027403-69.05877802-46.92118711-105.10993565-41.32967871-2.48771338 0.14480156-5.05906963 0.77617354-7.67809424 1.87253086-1.94897901 0.69882627-3.70009161 1.55324707-5.25153956 2.56955801-109.1140207 62.35022636-177.18706758-70.46812266-226.51142519-144.50412656-35.19853506-52.83827578-71.65441846-104.83562109-110.56023984-155.01979688-24.38246865-31.44987685-55.51486084-78.13992128-95.16178037-91.9428627-28.06277344-9.77097568-57.3190374 25.17573076-72.66983028 44.01705674-40.85929776 50.15269687-49.87838232 112.1863377-41.45289521 174.79379004 5.44310947 40.42938867 24.09826113 79.28844258 34.11027334 118.85171836 22.25720918 87.9675583 28.74900849 179.53357588 30.28876435 269.95557041 0.23024355 13.46297168 11.05620381 24.67027354 24.68376475 24.68376475 26.74876464 0.03057891 51.08446494 0.05756133 77.83412871 0.08634111 13.45397783 0.01528945 22.27429776-11.23877988 22.27429776-24.68376475 0-85.65792364 0-171.31494815 0-256.97467089 24.45442031 13.62935918 39.19992276 35.32894717 52.32022646 51.34438828 42.46650791 51.84804727 61.639708 117.68251114 107.15604786 167.2452079 61.54257393 67.01356494 144.35752588 65.96667422 227.15269013 62.92493702 57.23539453-2.10547266 170.24197588-0.01349122 202.87634941-59.55222393C918.88772979 733.92903213 891.33401182 699.59660908 866.83552138 678.0274332zM840.82515664 755.93531182c-55.69563867 27.47457247-134.0037457 23.14041065-194.44906318 23.20246846-15.13044141 0.01708857-30.28516699-0.16458838-45.40391632-0.81124981-56.73263555-2.4220582-103.76354795-48.27027305-128.5831204-96.01710029-29.65829151-57.05101934-59.61338174-113.22423369-107.6327253-157.21970537-17.6064627-16.12786553-44.85978545-35.62484678-69.53185722-39.05512031-15.5792373-2.16842959-33.42493828 6.18150938-33.42493828 23.8023624 0 89.48572911 0 178.97505469 0 268.46258203-8.15117344-0.01079297-18.53013692-0.02158506-28.22106622-0.03237803-2.24128037-104.13679482-8.33285039-219.87032783-48.59765068-315.9288-26.90975479-64.19847305-27.28480078-142.61810449 20.10766729-197.03121241 6.23906982-7.16364317 13.3487499-13.78045722 20.97378018-19.49518212 7.3687043 4.84321641 13.72109677 11.72175293 19.88821581 17.90326142 78.97005791 79.15083574 139.36680967 181.21273769 199.4397794 274.87523497 53.42108027 83.30152148 148.85087871 145.44938497 245.05685156 92.11824404 13.19045713-0.96054873 40.72978565 19.51047158 51.15911396 24.99585293 15.32381045 8.05583848 30.32473974 16.70167617 45.14489209 25.63711787 20.64190518 12.44306338 40.57149287 26.16865752 57.66710186 43.23728496C862.05166455 742.18273613 861.36183301 745.80727872 840.82515664 755.93531182z" p-id="4904"></path></svg>