<?xml version="1.0" standalone="no"?><!DOCTYPE svg PUBLIC "-//W3C//DTD SVG 1.1//EN" "http://www.w3.org/Graphics/SVG/1.1/DTD/svg11.dtd"><svg t="1642234794176" class="icon" viewBox="0 0 1024 1024" version="1.1" xmlns="http://www.w3.org/2000/svg" p-id="11794" xmlns:xlink="http://www.w3.org/1999/xlink" width="200" height="200"><defs><style type="text/css"></style></defs><path d="M655.55 165.46249971A373.91249971 373.91249971 0 0 0 512 136.99999971C304.8875 136.99999971 136.99999971 304.8875 136.99999971 512s167.88750029 375.00000029 375.00000029 375.00000029 375.00000029-167.88750029 375.00000029-375.00000029c0-49.87500029-9.74999971-98.4375-28.4625-143.55a18.74999971 18.74999971 0 0 0-34.63125029 14.36249971A336.41250029 336.41250029 0 0 1 849.5 512c0 186.39375029-151.10624971 337.5-337.5 337.5S174.5 698.39375029 174.5 512 325.60624971 174.5 512 174.5c44.92500029 0 88.59375 8.775 129.18750029 25.59375a18.74999971 18.74999971 0 0 0 14.36249971-34.63125029zM437.00000029 605.75000029v93.80624942c0 10.31249971-8.325 18.69374971-18.75000058 18.69375058-10.35 0-18.74999971-8.49375-18.74999971-18.69375058V362.13125029c0-10.42499971 8.4375-18.88125029 18.88125029-18.88125029H530.74999971c72.48750029 0 131.24999971 58.91249971 131.25000058 131.24999971 0 72.48750029-58.91249971 131.24999971-131.25000058 131.25000058h-93.74999942z m0-37.50000029h93.74999942c51.69375 0 93.75000029-42.03749971 93.75000029-93.75000029 0-51.69375-42.03749971-93.75000029-93.75000029-93.74999942h-93.74999942v187.49999971z" fill="#3D3D3D" p-id="11795"></path></svg>