<?xml version="1.0" standalone="no"?><!DOCTYPE svg PUBLIC "-//W3C//DTD SVG 1.1//EN" "http://www.w3.org/Graphics/SVG/1.1/DTD/svg11.dtd"><svg t="1642236867242" class="icon" viewBox="0 0 1024 1024" version="1.1" xmlns="http://www.w3.org/2000/svg" p-id="4201" xmlns:xlink="http://www.w3.org/1999/xlink" width="200" height="200"><defs><style type="text/css"></style></defs><path d="M810.666667 170.666667h-110.72l-67.413334 64a119.893333 119.893333 0 0 0-239.36 0l-67.626666-64h-109.653334a21.333333 21.333333 0 1 0 0 42.666666h93.013334l59.306666 55.253334-17.066666 7.253333a47.786667 47.786667 0 0 0-27.306667 42.666667l-42.666667 448a49.493333 49.493333 0 0 0 33.493334 46.933333l95.146666 17.706667h3.84a18.133333 18.133333 0 0 0 4.693334 0V853.333333a64 64 0 0 0 64 64h61.013333a64 64 0 0 0 64-64v-24.106666a16.64 16.64 0 0 0 4.693333 0h3.84l91.946667-16.853334h2.986667a50.133333 50.133333 0 0 0 33.493333-48.853333L702.08 320a49.493333 49.493333 0 0 0-28.586667-44.8l-15.786666-6.826667L716.586667 213.333333H810.666667a21.333333 21.333333 0 0 0 0-42.666666z m-298.666667-8.106667a77.44 77.44 0 0 1 77.44 77.226667 76.16 76.16 0 0 1-20.053333 51.413333l-10.88 9.813333a75.733333 75.733333 0 0 1-46.506667 16 77.226667 77.226667 0 0 1-49.066667-18.346666l-6.4-5.973334a77.013333 77.013333 0 0 1 55.466667-130.133333zM565.12 853.333333a21.333333 21.333333 0 0 1-21.333333 21.333334h-61.44a21.333333 21.333333 0 0 1-21.333334-21.333334v-202.666666a21.333333 21.333333 0 0 1 21.333334-21.333334h61.013333a21.333333 21.333333 0 0 1 21.333333 21.333334z m90.666667-539.093333c2.346667 1.28 3.626667 3.413333 3.84 8.106667l42.666666 443.093333a6.613333 6.613333 0 0 1-3.626666 6.186667l-89.813334 16.426666v-137.6a64 64 0 0 0-64-64h-62.506666a64 64 0 0 0-64 64V789.333333h-1.066667l-89.813333-16.426666c-2.133333-1.28-3.626667-3.2-3.626667-4.053334l42.666667-448a7.253333 7.253333 0 0 1 2.56-5.546666l33.706666-14.293334 23.04 21.333334a158.08 158.08 0 0 0 12.373334 11.52h1.066666a119.253333 119.253333 0 0 0 145.706667 0 128 128 0 0 0 16.64-13.866667l21.333333-19.84z" p-id="4202"></path></svg>