<?xml version="1.0" standalone="no"?><!DOCTYPE svg PUBLIC "-//W3C//DTD SVG 1.1//EN" "http://www.w3.org/Graphics/SVG/1.1/DTD/svg11.dtd"><svg t="1642310871193" class="icon" viewBox="0 0 1024 1024" version="1.1" xmlns="http://www.w3.org/2000/svg" p-id="3180" xmlns:xlink="http://www.w3.org/1999/xlink" width="200" height="200"><defs><style type="text/css"></style></defs><path d="M821.52865506 800.35012383c0 44.033302-35.69848407 79.73009939-79.73178525 79.73009941L280.12891171 880.08022324c-44.033302 0-79.73094232-35.69679739-79.73094232-79.7300994L200.39796939 223.65071992c0-44.03245825 35.69764114-79.73094232 79.73094232-79.73094234l461.66880103 0c44.033302 0 79.73178525 35.69764114 79.73178524 79.73094233L821.52949799 800.35012383zM775.51894366 223.65071992c0-18.62412259-15.09710752-33.72123093-33.72123092-33.72123094L280.12891171 189.92948898c-18.62412259 0-33.72123093 15.09710752-33.72123093 33.72123093l0 576.69856101c0 18.62412259 15.09710752 33.72038718 33.72123093 33.72038717l461.66880103 0c18.62412259 0 33.72123093-15.09626458 33.72123092-33.72038717L775.51894366 223.65071992z" p-id="3181"></path><path d="M361.43238156 868.57842759c-6.35756479 0-11.50263858-5.1450738-11.50263858-11.50348152L349.92974298 166.92505474c0-6.35840771 5.1450738-11.50263858 11.50263858-11.50263858 6.34660345 0 11.50263858 5.1450738 11.50263858 11.50263859l0 690.14989051C372.93502014 863.43335296 367.77814209 868.57842759 361.43238156 868.57842759z" p-id="3182"></path><path d="M689.5653451 811.06607678L500.89913556 811.06607678c-6.35840771 0-11.50263858-5.1450738-11.50263859-11.50348151 0-6.35672104 5.1450738-11.50179565 11.50263859-11.50179565l188.66620954 0c18.15278603 0 39.94388718-21.74641205 39.94388718-55.40103204l0-36.6192345c0-6.35672104 5.1450738-11.50179565 11.50348149-11.50179566 6.35756479 0 11.50179565 5.1450738 11.50179566 11.50179566l0 36.6192345C752.51366651 780.28838144 721.69128208 811.06607678 689.5653451 811.06607678z" p-id="3183"></path><path d="M732.3279769 649.45408725c-3.1104852 0-5.9865661-1.1576835-8.16618247-3.33645694-2.07843476-2.07843476-3.33561319-5.06581567-3.33561319-8.16702539 0-2.99918518 1.25717927-5.9865661 3.33561319-8.16702539 4.25720737-4.14506442 11.9630138-4.25720737 16.20925984 0 2.19057771 2.18045929 3.46040415 5.16784021 3.46040413 8.16702539 0 3.10120972-1.26982644 5.97644769-3.33645694 8.16702539C738.30442459 648.29640375 735.31620075 649.45408725 732.3279769 649.45408725z" p-id="3184"></path><path d="M660.49508581 401.93824661c-1.69647473 0-3.39210653-0.37015493-4.96547698-1.13407498l-64.04951157-30.68831799-64.05035531 30.68831799c-3.56074201 1.72935874-7.74965176 1.47134592-11.09707004-0.62901069-3.33645694-2.11216169-5.36935969-5.78504663-5.36935968-9.73870999L510.96331223 166.92505474c0-6.35840771 5.1450738-11.50263858 11.50263858-11.50263858l138.029135 0c6.35756479 0 11.50179565 5.1450738 11.50179566 11.50263859l0 223.51055328c0 3.95366336-2.03205982 7.62654832-5.36851675 9.73870999C664.76409744 401.34296286 662.62917016 401.93824661 660.49508581 401.93824661zM591.48094018 345.86351562c1.69563181 0 3.40306787 0.38196003 4.96463407 1.13491792l52.54687298 25.17224551L648.99244723 178.42769333 533.96858938 178.42769333l0 193.74382947 52.546873-25.17224551C588.07702939 346.24631858 589.78446545 345.86351562 591.48094018 345.86351562z" p-id="3185"></path></svg>