<?xml version="1.0" standalone="no"?><!DOCTYPE svg PUBLIC "-//W3C//DTD SVG 1.1//EN" "http://www.w3.org/Graphics/SVG/1.1/DTD/svg11.dtd"><svg t="1642234815952" class="icon" viewBox="0 0 1024 1024" version="1.1" xmlns="http://www.w3.org/2000/svg" p-id="12923" xmlns:xlink="http://www.w3.org/1999/xlink" width="200" height="200"><defs><style type="text/css"></style></defs><path d="M824.832 533.504l-13.824-8.704v74.24h13.824v-65.536zM690.176 599.04h56.32V473.6l-58.88-46.08 2.56 6.144v165.376zM799.744 513.536l-41.984-31.744v114.176h41.984v-82.432zM676.352 439.296l-10.752-25.6-58.88-45.568H485.376l-2.56 5.632L460.8 409.6v189.44h216.064z m-196.608-19.968l13.824-25.6h102.4l11.264 25.6v76.8H479.744z m11.264 139.776c-8.704 0-13.824-5.632-13.824-16.896a18.432 18.432 0 0 1 13.824-16.896 15.872 15.872 0 0 1 13.824 16.896c0.512 11.264-5.12 16.896-13.824 16.896z m106.496 0c-8.192 0-13.824-5.632-13.824-16.896a14.336 14.336 0 1 1 28.16 0c2.56 11.264-5.632 16.896-13.824 16.896zM307.2 508.928h40.96v62.976H307.2zM307.2 622.592h40.96v62.976H307.2zM471.552 665.6h75.776l-2.56 5.632 39.424 3.072 8.192-31.232 226.816-12.8v-5.632h-249.344l-5.632 8.704H494.08l11.264-11.264h-30.72l-39.424 39.936v8.704h33.792z m13.824-19.968h72.704l-5.632 8.704H479.744zM307.2 278.016h40.96v62.976H307.2zM307.2 393.728h40.96v62.976H307.2z" p-id="12924"></path><path d="M102.4 204.8v153.6a153.6 153.6 0 0 1 51.2 9.216V256h716.8v512H348.16v-15.36H307.2v15.36H153.6v-111.616A153.6 153.6 0 0 1 102.4 665.6v153.6h819.2V204.8z" p-id="12925"></path><path d="M153.6 423.936a102.4 102.4 0 0 1 0 176.128v55.808a153.6 153.6 0 0 0 0-288.256v56.32zM153.6 627.2v-27.136A102.4 102.4 0 0 1 102.4 614.4v51.2a153.6 153.6 0 0 0 51.2-9.216zM102.4 409.6a102.4 102.4 0 0 1 51.2 14.336v-56.32A153.6 153.6 0 0 0 102.4 358.4v51.2z" p-id="12926"></path></svg>