<?xml version="1.0" standalone="no"?><!DOCTYPE svg PUBLIC "-//W3C//DTD SVG 1.1//EN" "http://www.w3.org/Graphics/SVG/1.1/DTD/svg11.dtd"><svg t="1642234849077" class="icon" viewBox="0 0 1024 1024" version="1.1" xmlns="http://www.w3.org/2000/svg" p-id="5433" xmlns:xlink="http://www.w3.org/1999/xlink" width="200" height="200"><defs><style type="text/css"></style></defs><path d="M786.30664063 589.6953125H238.30859375c-16.5234375 0-30.32226563 13.7109375-30.32226563 30.32226563v68.55468749c0 10.98632813 6.41601563 21.4453125 16.78710938 26.63085938 39.375 20.390625 75.67382813 45.52734375 108.28125 74.97070312 31.81640625 29.44335938 59.765625 62.75390625 83.40820313 99.22851563 4.74609375 9.4921875 15.02929688 15.90820313 26.63085937 15.90820312h138.77929688c9.84375 0 19.77539063-4.921875 25.31249999-14.4140625 23.46679688-37.00195313 52.03125-70.92773438 84.46289063-100.81054687 31.9921875-29.1796875 67.93945313-53.96484375 106.78710938-74.1796875 10.72265625-4.74609375 18.01757813-15.46875 18.01757812-27.50976563v-68.64257812c0.08789063-16.34765625-13.62304688-30.05859375-30.14648438-30.05859375z m-30.32226563 80.77148438c-37.79296875 21.00585938-73.03710938 45.96679688-104.85351563 75.05859374-32.16796875 29.44335938-60.99609375 62.9296875-85.51757812 99.05273438H459.44140625c-24.9609375-36.12304688-53.70117188-69.609375-85.95703125-99.05273438-31.81640625-29.00390625-67.06054688-53.96484375-104.85351563-75.05859375v-20.21484375h487.35351563v20.21484375zM354.58789062 474.03125h315.52734376c35.24414063 0 67.06054688-14.23828125 90.08789062-37.44140625 23.02734375-23.02734375 37.17773438-54.58007813 37.17773438-89.82421875 0-35.41992188-14.15039063-67.23632813-37.17773438-90.26367188-11.77734375-12.04101563-26.63085938-21.70898438-42.80273438-28.12499999V148.30859375c0-16.78710938-13.53515625-30.05859375-30.32226562-30.05859375-16.5234375 0-30.32226563 13.27148438-30.32226563 30.05859375v71.54296875c-28.38867188 2.8125-53.70117188 13.97460938-75.58593749 30.9375-23.02734375 17.84179688-42.09960938 40.86914063-57.12890625 66.62109375h-23.02734375c-15.29296875-25.75195313-34.62890625-48.77929688-56.953125-66.62109375-22.32421875-16.96289063-47.72460938-28.125-76.11328125-30.9375V148.30859375c0-16.78710938-13.7109375-30.05859375-30.32226563-30.05859375-16.78710938 0-30.32226563 13.27148438-30.32226562 30.05859375v80.15625c-16.34765625 6.41601563-30.49804688 16.08398438-42.80273438 28.125-23.02734375 23.02734375-37.17773438 54.84375-37.17773437 90.26367188 0 35.24414063 14.15039063 66.796875 37.17773437 89.82421874 23.02734375 23.203125 54.84375 37.35351563 90.08789063 37.35351563z m-47.28515624-174.46289063c9.22851563-9.4921875 21.53320313-15.90820313 34.36523437-18.72070312h0.3515625l0.61523438-0.17578125h1.0546875v-0.17578125c3.69140625-0.43945313 7.29492188-0.87890625 10.72265624-0.87890625 19.3359375 0 37.00195313 7.55859375 52.47070313 19.51171875 19.3359375 14.58984375 35.68359375 36.12304688 48.07617188 59.94140625 4.48242188 10.98632813 15.46875 18.89648438 28.38867187 18.89648438h57.56835938v-0.17578126c11.16210938 0 21.70898438-6.06445313 27.0703125-16.34765624 12.48046875-24.69726563 29.1796875-47.28515625 49.39453125-62.31445313 15.46875-12.04101563 33.046875-19.51171875 52.3828125-19.51171875 3.42773438 0 7.11914063 0.43945313 10.72265625 0.87890625h0.43945312v0.17578125h0.43945313l0.87890625 0.17578125h0.17578125c13.53515625 2.8125 25.40039063 9.22851563 34.62890625 18.72070312 12.04101563 11.6015625 19.77539063 28.74023438 19.77539062 47.28515625 0 18.10546875-7.734375 35.24414063-19.77539062 47.28515625-12.04101563 12.04101563-29.00390625 19.51171875-47.28515625 19.51171875H354.58789062c-18.28125 0-35.24414063-7.47070313-47.28515624-19.51171875-12.04101563-12.04101563-19.3359375-29.1796875-19.3359375-47.28515625 0-18.54492188 7.29492188-35.68359375 19.3359375-47.28515625z" p-id="5434"></path></svg>