<?xml version="1.0" standalone="no"?><!DOCTYPE svg PUBLIC "-//W3C//DTD SVG 1.1//EN" "http://www.w3.org/Graphics/SVG/1.1/DTD/svg11.dtd"><svg t="1642235785227" class="icon" viewBox="0 0 1024 1024" version="1.1" xmlns="http://www.w3.org/2000/svg" p-id="5767" xmlns:xlink="http://www.w3.org/1999/xlink" width="200" height="200"><defs><style type="text/css"></style></defs><path d="M834.19982147 218.22730255c-12.2051239-10.81466675-29.12235261-20.31612397-50.13370514-28.19538117C744.05184937 174.96863556 691.29172516 166.70314026 635.59619141 166.70314026S527.14053344 174.96863556 487.04901885 190.03192138c-21.01135254 7.87925721-37.85133362 17.38071443-50.13370513 28.19538118-7.26127625 6.41155243-12.35961914 12.90035248-15.99025726 19.08016204-27.26840974-2.62641907-73.46248628 0.54073334-121.81949615 38.00582886-30.35831452 23.48327637-79.79679108 18.30768586-80.18302918 18.23043823-10.19668579-1.23596192-19.92988586 3.9396286-24.71923829 13.05484772l-23.94676208 45.57609558c-3.5533905 6.79779052-3.78513337 14.9087906-0.54073334 21.93832397L188.64146424 414.66799927l-18.53942872 36.69261933c-3.47614289 6.87503815-3.5533905 14.98603821-0.23174286 21.86107635l18.77117158 38.85555268L169.94754028 550.62380982c-3.32164765 6.79779052-3.32164765 14.75429535 0 21.55208587l18.53942871 38.39206696-19.85263824 38.31481933c-3.70788575 7.10678101-3.70788575 15.52677155 1e-8 22.71080018L188.33247375 709.75390625l-19.62089538 38.08307648c-3.5533905 6.95228576-3.63063813 15.14053344-0.23174286 22.09281921l25.49171448 52.52838135c3.9396286 8.18824768 12.12787628 13.51833344 21.2430954 13.90457154 0.30899048 0 2.93540955 0.07724763 7.26127624 0.07724761 8.26549531 0 22.63355256-0.3862381 39.08729553-2.39467621 35.76564789-4.40311432 63.11130524-14.44530487 81.41899109-29.66308593 16.60823823-13.82732392 36.30638123-21.70658112 58.47644806-23.32878113 7.02953339-0.54073334 13.28659057-0.30899048 18.30768585 0.15449524 4.09412384 6.87503815 10.19668579 13.59558106 18.15319062 20.08438111 12.12787628 9.88769531 28.89060974 19.38915253 48.51150512 27.5774002C530.07594299 847.25466919 583.14505768 857.29685974 635.59619141 857.29685974s105.52024841-10.04219055 149.31964875-28.34987641c19.62089539-8.18824768 36.38362885-17.6897049 48.51150511-27.5774002C849.80384064 788.00574493 858.06933594 773.86943054 858.06933594 759.19238281V265.58009338c0-11.97338105-4.17137146-29.8948288-23.86951447-47.35279083z m-329.77008819 18.075943C539.11391449 223.32564544 585.69422912 216.14161682 635.59619141 216.14161682c49.90196228 0 96.48227693 7.18402863 131.16645812 20.16162873C800.90609742 249.1263504 808.63085938 262.02670288 808.63085938 265.58009338c0 3.5533905-7.72476196 16.45374298-41.86820985 29.27684785C732.07846833 307.83454132 685.49815369 315.01856995 635.59619141 315.01856995c-49.90196228 0-96.48227693-7.18402863-131.16645813-20.16162873C470.2862854 282.03383636 462.56152344 269.13348388 462.56152344 265.58009338c0-3.5533905 7.72476196-16.45374298 41.86820984-29.27684784zM311.15618896 766.45365906c-10.42842865 8.72898102-30.04932404 15.29502869-55.07755279 18.4621811-9.19246674 1.1587143-17.76695252 1.69944763-24.48749542 1.93119048l-13.28659057-27.42290497 19.85263823-38.46931457c3.63063813-7.10678101 3.63063813-15.52677155 0-22.63355256L218.45904541 660.31542969l19.62089539-38.00582886c3.5533905-6.87503815 3.70788575-15.06328583 0.30899047-22.09281921L219.69500732 561.43847656l18.69392396-38.39206696c3.32164765-6.79779052 3.32164765-14.75429535 0.07724761-21.55208587l-18.61667633-38.70105744 18.4621811-36.53812408c3.39889526-6.72054292 3.5533905-14.67704773 0.30899047-21.55208588l-18.77117157-40.32325744 10.96916199-20.8568573h0.15449524c23.56052399 0 66.1239624-3.9396286 98.56796265-29.1223526 34.06620026-26.34143829 65.3514862-29.43134308 83.65917206-28.27262878v445.33252716c-26.65042878-0.54073334-66.04671479 4.94384766-102.04410554 34.99317169z m445.95050813 20.31612396C720.87756348 800.36536408 677.69614411 807.85838318 635.59619141 807.85838318c-42.09995271 0-85.28137208-7.49301911-121.51050568-21.08860016-31.90326691-11.97338105-47.73902893-24.71923828-51.52416229-30.04932404V330.23635101c7.41577148 3.9396286 15.60401917 7.57026672 24.48749542 10.89191437C527.14053344 356.1915512 579.90065766 364.45704651 635.59619141 364.45704651s108.45565796-8.26549531 148.54717255-23.32878113c8.96072388-3.32164765 17.14897156-7.02953339 24.48749541-10.89191437v426.48410797c-3.78513337 5.33008576-19.54364777 18.07594299-51.52416229 30.04932404z" p-id="5768"></path></svg>