<?xml version="1.0" standalone="no"?><!DOCTYPE svg PUBLIC "-//W3C//DTD SVG 1.1//EN" "http://www.w3.org/Graphics/SVG/1.1/DTD/svg11.dtd"><svg t="1642310911683" class="icon" viewBox="0 0 1024 1024" version="1.1" xmlns="http://www.w3.org/2000/svg" p-id="5335" xmlns:xlink="http://www.w3.org/1999/xlink" width="200" height="200"><defs><style type="text/css"></style></defs><path d="M512 329.18749973c-2.81249973 0-8.4375 0-11.24999973-2.81249973l-140.62500027-140.62500027c-2.81249973-5.62500027-2.81249973-11.24999973-2.81249973-16.875s8.4375-8.4375 14.06249946-8.4375h281.25000054c5.62500027 0 11.24999973 2.81249973 14.06249946 8.4375s0 11.24999973-2.81249973 14.06250027l-140.62500027 140.62500027c-2.81249973 5.62500027-8.4375 5.62500027-11.24999973 5.62499946z m-106.87500027-140.62499946L512 295.43749973l106.87500027-106.87499946h-213.75000054z" fill="" p-id="5336"></path><path d="M708.87499973 863.56250027H286.99999973c-8.4375 0-14.06250027-5.62500027-14.06249946-14.06250027V416.37500027l-95.62500054 22.49999946c-5.62500027 2.81249973-14.06250027-2.81249973-16.875-8.4375l-56.24999946-140.62499946c-2.81249973-8.4375 0-14.06250027 8.4375-16.875l253.125-112.50000054H658.24999973l253.125 112.50000054 8.4375 8.4375v11.24999973l-84.375 140.62500027c-2.81249973 5.62500027-8.4375 8.4375-16.875 5.62499946l-95.62499973-22.49999946V849.5c0 8.4375-5.62500027 14.06250027-14.06250027 14.06250027z m-407.81249973-28.12500054h393.75000027V399.50000027c0-5.62500027 2.81249973-8.4375 5.62499946-11.25000054s8.4375-2.81249973 11.25000054-2.81249973l101.25 25.3125 70.31249973-118.125-236.25-104.06249973H371.37499973L135.12499973 295.43749973l47.81250027 115.31250027 101.25-25.3125c2.81249973 0 8.4375 0 11.24999973 2.81249973s5.62500027 5.62500027 5.62500027 11.25000054v435.93749946z" fill="" p-id="5337"></path><path d="M441.68750027 638.5625H399.50000027c-8.4375 0-14.06250027-5.62500027-14.06250027-14.06250027s5.62500027-14.06250027 14.06250027-14.06249946h42.1875c16.875 0 28.12499973-11.24999973 28.12499973-28.12500054s-11.24999973-28.12499973-28.12499973-28.12499973H399.50000027c-8.4375 0-14.06250027-5.62500027-14.06250027-14.06250027v-84.375c0-8.4375 5.62500027-14.06250027 14.06250027-14.06249946h84.375c8.4375 0 14.06250027 5.62500027 14.06249946 14.06249946s-5.62500027 14.06250027-14.06249946 14.06250027h-70.31250054v56.25000027h28.12500054c30.93750027 0 56.25000027 25.3125 56.24999946 56.24999946s-25.3125 56.25000027-56.24999946 56.25000027zM596.375 638.5625c-8.4375 0-14.06250027-5.62500027-14.06250027-14.06250027v-42.1875H540.12499973c-5.62500027 0-8.4375-2.81249973-11.24999973-5.62499946-2.81249973-2.81249973-2.81249973-8.4375 0-14.06250027l56.25000027-112.49999973c2.81249973-5.62500027 11.24999973-8.4375 19.68749973-5.62500027 5.62500027 2.81249973 8.4375 11.24999973 5.62500027 19.68749973l-45.00000054 92.8125H596.375c8.4375 0 14.06250027 5.62500027 14.06250027 14.06250027v56.25000027c0 5.62500027-5.62500027 11.24999973-14.06250027 11.24999973z" fill="" p-id="5338"></path></svg>