<?xml version="1.0" standalone="no"?><!DOCTYPE svg PUBLIC "-//W3C//DTD SVG 1.1//EN" "http://www.w3.org/Graphics/SVG/1.1/DTD/svg11.dtd"><svg t="1642236860076" class="icon" viewBox="0 0 1024 1024" version="1.1" xmlns="http://www.w3.org/2000/svg" p-id="3771" xmlns:xlink="http://www.w3.org/1999/xlink" width="200" height="200"><defs><style type="text/css"></style></defs><path d="M712.84381079 635.62709022h-216.29333447a15.41862512 15.41862512 0 0 1-13.99726869-8.92982436l-216.29333519-463.48571777A15.44952368 15.44952368 0 0 1 280.25714112 141.24232507h185.3942871c3.98597717 0 7.84835792 1.57585144 10.72196937 4.32586646 0.61798072 0.58708215 61.39640832 57.47222901 174.67231774 57.472229 127.79846167 0 231.74285888 103.94439721 231.74285889 231.74285889 0 123.04000878-135.92491174 200.84381079-169.94476343 200.8438108z m-206.46743726-30.89904738h206.37474012c15.66581726-0.9887693 139.13841247-62.16888404 139.13841248-169.94476342 0-110.74218727-90.10162354-200.84381079-200.8438108-200.8438108-108.79554725 0-173.49815345-46.9665525-191.23420715-61.79809617H304.51289344l201.86348009 432.58667039z" p-id="3772"></path><path d="M311.15618921 635.62709022a15.44952368 15.44952368 0 0 1-12.85400439-24.00856019l185.39428711-278.09143066a15.44952368 15.44952368 0 1 1 25.70800805 17.11807299l-185.39428711 278.09143066a15.38772583 15.38772583 0 0 1-12.85400366 6.8904872zM681.94476343 882.81947351a15.44952368 15.44952368 0 0 1-15.44952441-15.44952441v-92.69714355a15.44952368 15.44952368 0 0 1 30.89904809 0v92.69714355a15.44952368 15.44952368 0 0 1-15.44952368 15.44952441zM280.25714112 882.81947351a15.44952368 15.44952368 0 0 1-15.4495237-15.44952441v-92.69714355a15.44952368 15.44952368 0 0 1 30.89904738 0v92.69714355a15.44952368 15.44952368 0 0 1-15.44952368 15.44952441z" p-id="3773"></path><path d="M805.54095435 790.12232995H156.66094947a15.44952368 15.44952368 0 0 1-15.44952369-15.4495244v-61.79809547a15.44952368 15.44952368 0 0 1 15.44952369-15.44952368c42.57888818 0 77.24761987-34.66873169 77.24761987-77.24761987a15.44952368 15.44952368 0 0 1 15.44952368-15.44952369h556.18286133a15.44952368 15.44952368 0 0 1 15.4495244 15.44952369v154.49523902a15.44952368 15.44952368 0 0 1-15.4495244 15.4495244z m-633.43048048-30.89904809h617.98095679v-123.59619164H263.69525171A108.27026367 108.27026367 0 0 1 172.11047387 727.21186805v32.01141381z" p-id="3774"></path></svg>