<?xml version="1.0" standalone="no"?><!DOCTYPE svg PUBLIC "-//W3C//DTD SVG 1.1//EN" "http://www.w3.org/Graphics/SVG/1.1/DTD/svg11.dtd"><svg t="1642236148384" class="icon" viewBox="0 0 1024 1024" version="1.1" xmlns="http://www.w3.org/2000/svg" p-id="3593" xmlns:xlink="http://www.w3.org/1999/xlink" width="200" height="200"><defs><style type="text/css"></style></defs><path d="M512.38778306 390.54125023c-96.16015434 0-174.10918236 77.71728516-174.10918237 173.54990959 0 95.85657119 77.94825554 173.58003616 174.10918237 173.58003617 96.15474701 0 174.10918236-77.72346497 174.10918234-173.58003617 0-95.83339691-77.95443535-173.5499096-174.10918234-173.54990959z m-0.90997697 297.67601967c-68.33324433 0-123.72287751-55.22895813-123.7228775-123.35363388 0-68.09995652 55.39117813-123.32891465 123.72287751-123.32891464 68.32706452 0 123.72442246 55.22895813 123.72442245 123.32891464 0 68.12467575-55.39735793 123.35363388-123.72442245 123.35363388z m301.5368557-410.21807671H697.6414795l-42.80908586-92.18730927c-4.21154023-8.37904929-11.72618867-13.20934297-19.56295966-13.5615921a21.39295578 21.39295578 0 0 0-2.44488716-0.13981819H396.60287095c-4.73991394 0-9.15075303 1.56349182-12.85014153 4.24552918-3.6962986 2.31124878-6.90361977 5.78198433-9.16156769 10.27393341l-43.14588547 91.3684845h-66.39741898v-26.29817963c0-14.81918335-11.38166428-26.8474102-25.42991638-26.8474102-14.04129982 0-25.4291439 12.02745438-25.4291439 26.8474102v26.2989521h-3.20732117C158.79530143 277.99919319 116.4921875 322.64754486 116.4921875 377.72587014v375.21409034C116.4921875 808.01287842 158.79530143 852.66200256 210.98147583 852.66200256h602.03318596C865.20547104 852.66200256 907.5078125 809.65052795 907.5078125 754.57606506V377.72741508c0-55.07987022-42.30234146-99.72822189-94.49315071-99.72822189z m47.24927903 474.94153977c0 27.54650117-21.15039826 49.86874581-47.24927903 49.8687458H210.98147583c-26.09270095 0-47.24927902-22.32147217-47.24927902-49.8687458v-373.57721329c0-27.57740021 21.15580559-49.87415314 47.24927902-49.87415314h138.02063942v-0.12359619c7.37869263-0.79024314 14.32634353-5.53865433 18.31077576-13.46812249l42.98598289-91.04404448H619.42053986l42.26758003 91.04404448c4.06399727 8.08164597 11.20090485 12.86636352 18.73718262 13.51447107v0.07724761h132.58781433c26.09733581 0 47.24927902 22.29752541 47.24927901 49.87415314v373.57721329h0.00077248zM735.20699692 382.42252541c-13.69136811 0-24.78489876 11.69683457-24.78489876 26.13982201 0 14.43758011 11.09353066 26.16145134 24.78489876 26.16145133 13.68518829 0 24.7833538-11.72309875 24.7833538-26.16145133 0.00077248-14.44298744-11.09739304-26.14059448-24.7833538-26.14059449z" p-id="3594"></path></svg>