<?xml version="1.0" standalone="no"?><!DOCTYPE svg PUBLIC "-//W3C//DTD SVG 1.1//EN" "http://www.w3.org/Graphics/SVG/1.1/DTD/svg11.dtd"><svg t="1640500139178" class="icon" viewBox="0 0 1024 1024" version="1.1" xmlns="http://www.w3.org/2000/svg" p-id="4220" xmlns:xlink="http://www.w3.org/1999/xlink" width="200" height="200"><defs><style type="text/css"></style></defs><path d="M188.416 463.296c-49.728-55.744-49.728-147.328 0-203.072 45.824-51.392 117.504-53.952 165.888-7.68l31.104 32.576 61.632-64.704-22.72-23.872c-81.6-91.52-216.832-91.52-299.52 1.088-81.088 90.944-81.088 237.248 0 328.256L512 960l387.2-434.112c81.088-91.008 81.088-237.312 0-328.32-82.688-92.608-217.92-92.608-300.544 0l-118.4 132.864-56.832 59.648 61.632 64.704 57.728-60.672 119.488-133.888c48.192-54.08 125.12-54.08 173.312 0 49.728 55.744 49.728 147.328 0 203.072L512 826.176l-323.584-362.88z" fill="#333333" p-id="4221"></path></svg>