<?xml version="1.0" standalone="no"?><!DOCTYPE svg PUBLIC "-//W3C//DTD SVG 1.1//EN" "http://www.w3.org/Graphics/SVG/1.1/DTD/svg11.dtd"><svg t="1641887013588" class="icon" viewBox="0 0 1024 1024" version="1.1" xmlns="http://www.w3.org/2000/svg" p-id="6302" xmlns:xlink="http://www.w3.org/1999/xlink" width="200" height="200"><defs><style type="text/css"></style></defs><path d="M245.375 431.86914063c-40.97460938-45.93164063-40.97460938-121.39453125 0-167.32617187 37.7578125-42.34570313 96.8203125-44.45507813 136.6875-6.328125l25.62890625 26.84179687 50.78320313-53.31445312-18.72070313-19.66992188c-67.23632813-75.41015625-178.6640625-75.41015625-246.796875 0.89648438-66.81445313 74.93554688-66.81445313 195.48632813 0 270.47460937L512 841.14062501l319.04296875-357.69726563c66.81445313-74.98828125 66.81445313-195.5390625 0-270.52734375-68.1328125-76.30664063-179.56054688-76.30664063-247.640625 0l-97.55859375 109.4765625-46.828125 49.1484375 50.78320313 53.31445313 47.56640625-49.9921875 98.45507812-110.3203125c39.70898438-44.56054688 103.09570313-44.56054688 142.8046875 0 40.97460938 45.93164063 40.97460938 121.39453125 0 167.32617187L512 730.87304688l-266.625-299.00390625z" fill="#333333" p-id="6303"></path></svg>