<?xml version="1.0" standalone="no"?><!DOCTYPE svg PUBLIC "-//W3C//DTD SVG 1.1//EN" "http://www.w3.org/Graphics/SVG/1.1/DTD/svg11.dtd"><svg t="1642236006738" class="icon" viewBox="0 0 1025 1024" version="1.1" xmlns="http://www.w3.org/2000/svg" p-id="3651" xmlns:xlink="http://www.w3.org/1999/xlink" width="200.1953125" height="200"><defs><style type="text/css"></style></defs><path d="M826.18204818 296.79531019L743.55651228 379.42084682l-49.52903322-49.52903323L644.49844656 280.36278109l82.6255359-82.62553662z" fill="#E0EBFE" p-id="3652"></path><path d="M710.39057582 148.27764503a23.14440772 23.14440772 0 1 0-32.7261928 32.7261928l16.73340664 16.73340665-49.99192075 49.99192146-16.38624137-16.4556744c-0.11572224-0.11572224-0.13886612-0.25458836-0.23144375-0.37031061-0.13886612-0.11572224-0.27773295-0.13886612-0.39345521-0.23144377l-32.72619278-32.86505963a23.14440772 23.14440772 0 1 0-32.72619281 32.72619279l16.71026277 16.75655196L264.30525757 561.63677048a23.19069691 23.19069691 0 0 0-6.7118779 14.28009924l-15.64562013 173.35161521-93.36454127 93.34139738a23.14440772 23.14440772 0 1 0 32.72619279 32.7261928l93.36454127-93.36454199 173.32847059-15.66876401a23.12126385 23.12126385 0 0 0 14.28009998-6.66558944l314.34734818-314.37049278 16.75655125 16.71026277a23.07497466 23.07497466 0 0 0 32.72619279 0 23.14440772 23.14440772 0 0 0 0-32.7261928l-32.86505891-32.74933739c-0.09257765-0.09257765-0.13886612-0.23144377-0.23144448-0.37031061-0.11572224-0.09257765-0.27773295-0.13886612-0.37031061-0.23144376l-16.43252982-16.38624063 49.96877688-49.99192148 16.73340736 16.73340737a23.07497466 23.07497466 0 0 0 32.72619281 0 23.14440772 23.14440772 0 0 0 0-32.72619281l-165.25107254-165.25107252zM435.48129833 720.96287406l-145.6940479 13.16916815 13.19231277-145.69404789 27.31040129-27.31040129 41.49792361 41.47477903a11.52591503 11.52591503 0 0 0 16.36309603 0 11.57220422 11.57220422 0 0 0 0-16.36309605L346.62991664 544.7413524l33.14279188-33.16593646 41.5210682 41.5210675a11.52591503 11.52591503 0 0 0 16.36309603 0 11.57220422 11.57220422 0 0 0 0-16.36309605l-41.52106747-41.5210682 33.16593646-33.14279187 41.49792289 41.4979236a11.52591503 11.52591503 0 0 0 16.36309676 0 11.57220422 11.57220422 0 0 0 0-16.36309675l-41.49792361-41.4979229 33.2816587-33.2816587 41.38220137 41.38220136a11.52591503 11.52591503 0 0 0 16.38624063 0 11.57220422 11.57220422 0 0 0 0-16.36309676l-41.40534524-41.38220137 33.28165799-33.2816587 41.49792361 41.49792362a11.52591503 11.52591503 0 0 0 16.36309676 0 11.57220422 11.57220422 0 0 0 0-16.38624063L544.97749258 346.41692106l66.33187292-66.33187292 16.52510675 16.59454053c0.23144377 0.2082999 0.50917672 0.27773295 0.71747662 0.46288826l98.22486758 98.22486685c0.18515531 0.2082999 0.25458836 0.48603284 0.46288825 0.69433202l16.59454054 16.54825207L435.50444292 720.96287406zM743.55651228 346.69465402L677.22463935 280.36278109l49.89934311-49.89934382 66.33187293 66.33187292L743.55651228 346.69465402z" fill="#5465CF" p-id="3653"></path></svg>