<?xml version="1.0" standalone="no"?><!DOCTYPE svg PUBLIC "-//W3C//DTD SVG 1.1//EN" "http://www.w3.org/Graphics/SVG/1.1/DTD/svg11.dtd"><svg t="1642234764705" class="icon" viewBox="0 0 1024 1024" version="1.1" xmlns="http://www.w3.org/2000/svg" p-id="10924" xmlns:xlink="http://www.w3.org/1999/xlink" width="200" height="200"><defs><style type="text/css"></style></defs><path d="M670.203125 153.40625c-31.640625 0-56.953125 0-105.46875 23.203125l-6.328125 4.21875c-14.765625 8.4375-29.53125 14.765625-46.40625 14.765625-16.875 0-31.640625-8.4375-48.515625-16.875l-4.21875-2.109375c-46.40625-23.203125-73.828125-23.203125-103.359375-23.203125-109.6875 0-200.390625 90.703125-200.390625 200.390625v31.640625c0 145.546875 61.171875 301.640625 172.96875 434.53125l2.109375 4.21875c12.65625 14.765625 37.96875 46.40625 75.9375 46.40625 40.078125 0 63.28125-33.75 63.28125-63.28125 0-33.75 0-126.5625 42.1875-126.5625s42.1875 92.8125 42.1875 126.5625c0 29.53125 23.203125 63.28125 63.28125 63.28125 37.96875 0 65.390625-31.640625 75.9375-46.40625l2.109375-4.21875c111.796875-135 172.96875-288.984375 172.96875-434.53125v-31.640625c2.109375-109.6875-88.59375-200.390625-198.28125-200.390625z m158.203125 232.03125c0 137.109375-59.0625 280.546875-164.53125 409.21875l-2.109375 4.21875c-10.546875 12.65625-25.3125 31.640625-44.296875 31.640625-14.765625 0-21.09375-12.65625-21.09375-21.09375 0-46.40625 0-168.75-84.375-168.75s-84.375 122.34375-84.375 168.75c0 8.4375-6.328125 21.09375-21.09375 21.09375-18.984375 0-33.75-18.984375-44.296875-31.640625l-2.109375-4.21875c-105.46875-126.5625-164.53125-272.109375-164.53125-409.21875v-31.640625c0-86.484375 71.71875-158.203125 158.203125-158.203125 29.53125 0 48.515625 0 86.484375 18.984375l4.21875 2.109375h-35.859375c-12.65625 0-21.09375 8.4375-21.09375 21.09375s8.4375 21.09375 21.09375 21.09375c63.28125 0 109.6875 0 177.1875-44.296875 37.96875-18.984375 56.953125-18.984375 86.484375-18.984375 86.484375 0 158.203125 71.71875 158.203125 158.203125v31.640625z" p-id="10925"></path><path d="M640.671875 242c-12.65625 0-21.09375 8.4375-21.09375 21.09375s8.4375 21.09375 21.09375 21.09375c56.953125 0 103.359375 46.40625 103.359375 103.359375v21.09375c0 12.65625 8.4375 21.09375 21.09375 21.09375s21.09375-8.4375 21.09375-21.09375v-21.09375c0-80.15625-65.390625-145.546875-145.546875-145.546875z" p-id="10926"></path></svg>