<?xml version="1.0" standalone="no"?><!DOCTYPE svg PUBLIC "-//W3C//DTD SVG 1.1//EN" "http://www.w3.org/Graphics/SVG/1.1/DTD/svg11.dtd"><svg t="1642236102596" class="icon" viewBox="0 0 1024 1024" version="1.1" xmlns="http://www.w3.org/2000/svg" p-id="3591" xmlns:xlink="http://www.w3.org/1999/xlink" width="200" height="200"><defs><style type="text/css"></style></defs><path d="M792.3095 325.1375H231.686C179.414 325.115 137.0195 367.478 137.0015 419.75v373.842c0 49.8375 42.3765 92.1735 94.689 92.1735h560.6235c52.2765 0.018 94.6665-42.336 94.6935-94.6125V417.311c-2.484-49.8375-44.856-92.1735-94.698-92.1735z m40.6935 465.939c-0.0135 22.455-18.252 40.689-40.6575 40.689H231.686c-22.0545 0-40.689-17.4825-40.689-38.1735V419.8265c0.009-22.4595 18.243-40.689 40.6485-40.689h560.664c20.2995 0 39.0645 18.477 40.6935 39.8025v372.1365zM648.2375 284.75V232.9235c0-23.616-19.215-42.8265-42.831-42.8265H418.5485c-23.616 0-42.8265 19.2105-42.8265 42.8265V282.275h-0.036v2.475H319.364V232.9235c0.018-54.7245 44.496-99.189 99.1485-99.189H605.6l0.3465 0.0225c26.019 0 50.895 10.3185 69.606 29.0475a98.487 98.487 0 0 1 29.007 70.1235V284.75h-56.322z" p-id="3592"></path><path d="M650.2985 559.3625h-94.689V464.6735H460.925v94.689H371.2265v94.6845h94.6845v94.689H560.6v-94.689h94.689v-94.6845z" p-id="3593"></path></svg>