<?xml version="1.0" standalone="no"?><!DOCTYPE svg PUBLIC "-//W3C//DTD SVG 1.1//EN" "http://www.w3.org/Graphics/SVG/1.1/DTD/svg11.dtd"><svg t="1642236855513" class="icon" viewBox="0 0 1024 1024" version="1.1" xmlns="http://www.w3.org/2000/svg" p-id="3489" xmlns:xlink="http://www.w3.org/1999/xlink" width="200" height="200"><defs><style type="text/css"></style></defs><path d="M374.90710449 279.73803711a669.39697266 669.39697266 0 0 1 289.36340332 1.77978516l110.05004883 25.70800781a38.21594239 38.21594239 0 0 1 29.86083984 33.7664795A112.62084961 112.62084961 0 0 1 907.5078125 453.16821289v73.16894531c0 58.78234863-45.28564453 107.67700195-103.91967773 112.2253418a34.55749512 34.55749512 0 0 1-27.38891602 28.67431641l-106.88598633 26.25183106a666.82617188 666.82617188 0 0 1-299.15222168 1.97753905l-122.80517577-28.52600097a33.86535645 33.86535645 0 0 1-27.33947755-28.42712402A112.62084961 112.62084961 0 0 1 116.4921875 526.3371582V453.16821289c0-58.4362793 44.74182129-107.13317872 102.98034668-112.17590332a36.73278809 36.73278809 0 0 1 29.61364746-33.37097168z m277.00378418 55.4699707a613.58093262 613.58093262 0 0 0-265.23742676-1.63146973l-110.00061035 24.32373048v259.35424804l105.69946289 24.57092285a613.03710938 613.03710938 0 0 0 274.08691407-1.82922363l90.86791992-22.3461914V357.50476074z m152.76489258 61.30371094v186.58081055c27.6361084-4.69665528 47.85644531-28.67431641 47.85644531-56.7553711V453.16821289c0-27.98217773-20.26977539-51.95983887-47.90588379-56.65649414z m-585.69763184 0a57.54638672 57.54638672 0 0 0-47.51037597 56.70593262v73.16894531c0 27.88330078 20.02258301 51.76208497 47.51037597 56.60705566z m401.14379883-29.5147705L604.4005127 420.04443359a329.11193848 329.11193848 0 0 0-182.42797853-0.39550781l-18.09448241-52.25646973a379.19311523 379.19311523 0 0 1 216.24389648-0.39550781z" p-id="3490"></path></svg>