<?xml version="1.0" standalone="no"?><!DOCTYPE svg PUBLIC "-//W3C//DTD SVG 1.1//EN" "http://www.w3.org/Graphics/SVG/1.1/DTD/svg11.dtd"><svg t="1642236875947" class="icon" viewBox="0 0 1024 1024" version="1.1" xmlns="http://www.w3.org/2000/svg" p-id="4765" xmlns:xlink="http://www.w3.org/1999/xlink" width="200" height="200"><defs><style type="text/css"></style></defs><path d="M469.74400711 640.18160989c6.03458405 6.20839118 16.19419075 6.20839118 22.59492875 0l18.83374214-18.8152025 18.81520248 18.8152025c6.22693084 6.20839118 16.19419075 6.20839118 22.59492875 0 5.84223726-6.01372719 5.84223726-16.19419075-1e-8-22.40026475l-18.81288528-19.00754928 18.81288529-18.83374214c5.84223726-6.20839118 5.84223726-16.3679979-1e-8-22.20791795-6.40073798-6.40073798-16.3679979-6.40073798-22.59492874 0l-18.81520248 18.8152025-18.83374214-18.8152025c-6.40073798-6.40073798-16.5603447-6.40073798-22.59492875 0-6.40073798 5.84223726-6.40073798 16.00184463 0 22.20791795l18.83374214 18.83374214-18.83374214 19.00754928C463.34326913 623.98741913 463.34326913 634.1678827 469.74400711 640.18160989L469.74400711 640.18160989zM365.08429718 640.18160989L365.08429718 640.18160989c6.39842012 6.20839118 16.36568069 6.20839118 22.40026474 0l19.00754928-18.8152025 19.20221329 18.8152025c6.03458405 6.20839118 16.00184463 6.20839118 22.22877481 0 6.20839118-6.40073798 6.20839118-16.19419075 0-22.40026475l-18.83374214-19.00754928 18.83374214-18.83374214c6.20839118-6.20839118 6.20839118-16.19419075 0-22.20791795-6.22693084-6.40073798-16.19419075-6.40073798-22.22877481 0l-19.20221329 18.8152025-19.00754928-18.8152025c-6.03458405-6.40073798-16.00184463-6.40073798-22.40026474 0-6.22924805 6.01372719-6.03690125 16.00184463 0.36383607 22.20791795l18.83374214 18.83374214-18.83374214 19.00754928C359.04739592 623.98741913 358.85504913 633.78087257 365.08429718 640.18160989L365.08429718 640.18160989zM601.91391182 324.26974466L601.91391182 324.26974466l0-22.01557183 23.71192954 0c14.49783303 0 26.54614427-11.85596444 26.54614427-26.54614425L652.17198563 195.51109505c0-14.49783303-12.04831123-26.35611533-26.54614427-26.35611534l-229.48800086 0c-14.49783303 0-26.16145134 11.85828232-26.16145135 26.35611534l0 80.19693352c0 14.69017983 11.66361831 26.54614427 26.16145135 26.54614425l24.29128647 0 0 22.01557184c-76.82275772 5.2791021-137.62744904 70.03732681-137.62744904 146.86240173l0 320.79005264c0 36.5319445 30.30501366 66.83695815 67.02930427 66.83695815l322.29406358 0c36.72429063 0 67.02930428-29.93885972 67.02930427-66.83695815L739.15435005 471.12982918C739.15666794 394.30707147 678.35429383 329.54884742 601.91391182 324.26974466L601.91391182 324.26974466zM685.87434982 791.91988182L685.87434982 791.91988182c0 7.53859498-6.01604439 13.55232217-13.74698617 13.55232216L349.83329941 805.47220398c-7.53859498 0-13.93701576-6.01372719-13.93701576-13.55232216l0-62.50104904 349.97806549 0L685.87434982 791.91988182 685.87434982 791.91988182zM685.87434982 697.78593254L685.87434982 697.78593254 335.89396646 697.78593254l0-197.67897628 349.97806548-1e-8L685.87203194 697.78593254 685.87434982 697.78593254zM336.08631325 468.49027846L336.08631325 468.49027846c1.69635772-50.45273782 43.6649897-91.4943979 94.50242043-91.49439787l16.19419075 0c14.69249703 0 26.54614427-11.85596444 26.54614426-26.35379816L473.32906936 275.70802857c0-14.69017983-11.85364723-26.54846213-26.54614426-26.54846214l-23.90427566 0L422.87864876 222.22872925l176.20336554 0 0 26.92851997-23.90427566 0c-14.3054869 0-26.54614427 11.85828232-26.54614425 26.54846214l0 74.9340532c0 14.49783303 12.24065803 26.35379813 26.54614425 26.35379813l16.57888436 0c50.81657388 0 92.4190519 41.04166009 94.1177275 91.49439791L336.08631325 468.4879606 336.08631325 468.49027846zM574.06073784 640.18160989L574.06073784 640.18160989c6.20607398 6.20839118 16.1733339 6.20839118 22.57175467 0l18.83374214-18.8152025 19.00754928 18.8152025c6.22693084 6.20839118 16.38653755 6.20839118 22.22877481 0 6.40073798-6.40073798 6.40073798-16.19419075 0-22.40026475l-18.63907814-19.00754928 18.63907814-18.83374214c6.40073798-6.20839118 6.40073798-16.19419075 0-22.20791795-5.84223726-6.40073798-16.00184463-6.40073798-22.22877481 0l-19.00754928 18.8152025-18.83374214-18.8152025c-6.40073798-6.40073798-16.3679979-6.40073798-22.57175467 0-6.22924805 6.01372719-6.22924805 16.00184463 0 22.20791795l18.81288528 18.83374214-18.81288528 19.00754928C567.83148979 623.98741913 567.83148979 633.78087257 574.06073784 640.18160989L574.06073784 640.18160989z" p-id="4766"></path></svg>