<?xml version="1.0" standalone="no"?><!DOCTYPE svg PUBLIC "-//W3C//DTD SVG 1.1//EN" "http://www.w3.org/Graphics/SVG/1.1/DTD/svg11.dtd"><svg t="1642236455647" class="icon" viewBox="0 0 1093 1024" version="1.1" xmlns="http://www.w3.org/2000/svg" p-id="6621" xmlns:xlink="http://www.w3.org/1999/xlink" width="213.4765625" height="200"><defs><style type="text/css"></style></defs><path d="M742.58988621 445.03137467v-95.35163062a26.76095906 26.76095906 0 0 0-15.84105094-23.51013094l-72.54195469-35.66930438V158.92260186A29.85014344 29.85014344 0 0 0 622.30925496 131.76651467H412.35247277a29.85014344 29.85014344 0 0 0-31.89762656 27.17404781v131.61362719l-72.4521525 35.61542344a26.77891875 26.77891875 0 0 0-15.87697125 23.51013094v476.09361843a29.85014344 29.85014344 0 0 0 31.89762562 27.10220532h184.30936782c37.7167875 62.69966906 116.86815937 103.05663094 203.38328531 103.21827468 125.07605063 0 226.82157469-82.38423937 226.82157562-183.64483312 0.03592031-87.19762031-158.98523906-283.05550875-195.94769062-327.41763469z m132.20631937 327.47151563c-0.10776188 71.26676812-73.26036938 129.31469906-163.08020437 129.3147s-162.91856062-58.10181281-163.06224375-129.3147c0-49.01386313 86.40736406-174.21563719 163.04428406-269.962395 76.67284031 95.67491719 163.098165 220.78688906 163.09816406 269.962395z m-387.45916781 26.18622656h-131.39810344v-125.97406969h88.34708438a34.44799875 34.44799875 0 0 0 24.26446687-9.48307781 24.94696031 24.94696031 0 0 0 7.61519907-17.70892969 29.88606375 29.88606375 0 0 0-31.87966594-27.13812656h-88.34708438v-86.42532375h88.34708438A34.43003906 34.43003906 0 0 0 468.56844621 522.40466998a24.94696031 24.94696031 0 0 0 7.61519812-17.70892968 29.88606375 29.88606375 0 0 0-31.879665-27.13812657h-88.365045v-112.16254125l83.26429875-40.949655h156.25526157l83.2283775 40.949655v82.22259563c-47.97216187 57.76056562-193.82836594 240.47145937-193.82836594 324.95706375a144.09608812 144.09608812 0 0 0 2.47853156 26.114385z m103.07459156-612.59246719v84.01863375h-146.17949156v-84.01863375h146.17949156z" p-id="6622"></path></svg>