<?xml version="1.0" standalone="no"?><!DOCTYPE svg PUBLIC "-//W3C//DTD SVG 1.1//EN" "http://www.w3.org/Graphics/SVG/1.1/DTD/svg11.dtd"><svg t="1642235417843" class="icon" viewBox="0 0 1024 1024" version="1.1" xmlns="http://www.w3.org/2000/svg" p-id="5406" xmlns:xlink="http://www.w3.org/1999/xlink" width="200" height="200"><defs><style type="text/css"></style></defs><path d="M617.57214729 764.40066069L762.04276341 619.93004456c11.48620388-8.04071561 21.58153425-19.254711 30.55198479-29.22201637 3.96753196-4.40754019 7.71505979-8.57021705 11.21026652-12.06542377C906.21755478 476.23006435 906.21506886 309.59372223 803.80004287 207.17869625c-102.39016677-102.39016677-269.00786446-102.37400827-371.41916158 0.03728883-2.40388685 2.40388685-6.55910593 5.46530013-10.57635633 8.42603356-7.2315479 5.32733144-15.36921448 11.32461893-21.6088794 19.13787265l-168.48338236 172.16254733c-7.4428513 5.84937512-13.14679996 12.45074173-18.22056733 18.32249015-2.7282997 3.15587833-5.30495814 6.13774211-7.93754983 8.77033379-102.41129711 102.41129711-102.41999784 269.03645257-0.02113034 371.43532008 102.41254007 102.41254007 269.04763922 102.41378303 371.45893633 0.00248591 3.43678755-3.43678755 6.93572315-6.5280319 10.6409903-9.80074857 8.61869253-7.61189401 18.35232121-16.21194214 29.93920496-31.27165929z m-38.18749507-31.09018696c-9.08231704 12.00078979-16.15103703 18.24666952-24.33469318 25.4757315-4.10177176 3.62447468-8.34524109 7.37075956-12.85843297 11.88395144-0.23119078 0.23119078-0.46735339 0.45243786-0.69854417 0.68114271-32.03980928 4.72698121-59.89829728-2.11800578-84.9576368-20.86310271-32.89123765-24.61808831-59.61241622-70.04086018-76.91816415-128.43393151 15.44627807 9.60684664 33.64695802 18.61707194 54.53243405 26.81191472 48.60350941 19.07075275 105.47768224 31.85212215 156.31354984 34.79669708 11.84417669 0.68735751 24.8231769 0.91854828 37.99235018 0.24859223l-48.04790578 48.04790578-1.02295702 1.35109876z m13.62161112-93.51915313c-45.5333954-4.80901665-98.84275568-14.80118124-142.64967806-31.98884787-47.70236259-18.71899475-80.52275146-42.4085911-86.83202219-62.07720815a599.57753906 599.57753906 0 0 1-3.01045188-26.40795236c-7.42420688-81.30333105 2.44863345-154.67905596 26.50241739-200.69844915l14.91926256-15.24491838c3.2242412 13.66014291 10.15250657 26.70377711 20.79101097 37.69528246-12.36124852 30.6253195-16.6544363 64.5258416-12.10519854 97.40464964 5.69400498 41.13828482 24.26384439 78.44452043 53.70213601 107.88281205 55.4870282 55.4870282 139.3123274 70.56166089 209.96099557 39.65543218A82.68046875 82.68046875 0 0 0 708.3505711 604.0164131L687.25752057 625.10946363s-48.88939047 19.47347216-94.25125723 14.68185697zM721.81059726 345.73778919c-8.50682603 5.61818435-20.11732604 9.79080489-26.75846739 8.98909495-10.36008109-1.24917595-17.23614211-5.95999866-19.88240638-13.61788223C672.7708085 334.16582099 674.65389462 327.59428544 676.3816106 325.86656946a13.18359375 13.18359375 0 0 0-18.64441707-18.64441707c-9.70255465 9.70255465-12.78136939 27.17734531-7.48884087 42.49808429 2.27089 6.57402146 5.86180473 12.28791381 10.56019784 16.98630692 7.69890129 7.69890129 18.37220859 12.66453104 31.08645808 14.19958805 11.05365341 1.3336973 26.88524943-2.7121412 40.35273338-10.56392672 9.68391023 30.7819326 8.60999181 64.62776441-4.35036399 95.8646208l-8.77281972 21.14276897 20.45292554 10.27804565a34.41269531 34.41269531 0 0 1 8.8884151 6.42486612c12.72543614 12.72543614 13.34567375 32.81293111 1.38217279 44.77643207s-32.05099593 11.34326335-44.77643207-1.38217279c-1.65065239-1.65065239-3.14344872-3.47904823-4.4361283-5.43546905l-12.71797837-19.24601028-20.02783283 11.45140098C613.15839228 565.51071998 543.76138598 556.19099737 499.12540852 511.55501991c-43.54590053-43.54590053-53.52563552-111.75339303-24.27130215-165.86943509l11.34077743-20.97621217-20.60829568-11.99706092a34.62363281 34.62363281 0 0 1-7.07120593-5.44292682c-12.46690023-12.46690023-12.54147789-31.19583867-0.17152863-43.56578792s31.09888769-12.29537159 43.56578791 0.17152864c2.66615164 2.66615164 4.85997806 5.71762124 6.51933118 9.06988743l10.53036677 21.27700877 21.64243935-9.75973086c52.8482217-23.83253688 115.90488323-12.29661455 156.90892824 28.70743046a141.02050781 141.02050781 0 0 1 24.29989025 32.56806776zM768.99713099 241.98160813c69.79972571 69.79972571 81.04728106 176.30285089 33.76876821 257.94426737a83.025 83.025 0 0 0-19.49957435-30.6762809c-1.04533032-1.04533032-2.11551986-2.06082956-3.21056861-3.04649776 19.69844813-66.24485685 1.93777641-138.15388762-47.74462328-187.83628729-27.75035038-27.75035038-62.79191081-45.96718884-101.33489275-52.67793603-30.80306294-5.36462028-62.01008825-3.12107542-91.3514289 6.44723943-0.94465047-1.04408736-1.91664608-2.06580142-2.91474387-3.06389921-8.59383331-8.59383331-18.50520543-14.84841376-29.01195595-18.80475907C589.75964884 160.67206227 698.24654 171.23101714 768.99713099 241.98160813z m-528.65871749 528.68606262c-83.20879048-83.20879048-83.19884679-218.60951917 0.02113034-301.8294963 3.90041205-3.90041205 7.33844257-7.88037362 10.37375367-11.3929818 4.34290622-5.02404893 8.09043405-9.36322626 12.03062086-12.29164269l1.5512155-1.15346794 56.00285707-57.22593083c-6.72814865 40.74799502-8.0792474 87.14151952-3.56978439 136.53928109a664.72910156 664.72910156 0 0 0 1.91043127 18.0937853l-0.14418349 0.00497185a63.31640625 63.31640625 0 0 0 1.72771598 12.34757595C333.21246979 647.33360879 365.12798295 723.15796715 410.51098005 768.54096425c6.30927074 6.30927074 12.88453517 12.03434974 19.69969109 17.13421929 16.79613387 12.56509415 34.79545412 21.31926945 53.87863649 26.26749775-79.47120633 38.29438972-177.93112998 24.54475361-243.75089413-41.27501054z" p-id="5407"></path><path d="M593.99193152 356.8647773c-15.01869944-4.56291034-27.3501169-18.13480301-28.6838142-31.56996996a13.18359375 13.18359375 0 1 0-26.23890964 2.60524654c1.32996842 13.40409292 8.21597312 26.48750187 18.44678626 36.71831501 7.93382095 7.93382095 17.88123894 14.15235552 28.80935328 17.47354769a13.18359375 13.18359375 0 0 0 16.44686178-8.78027749 13.18359375 13.18359375 0 0 0-8.78027748-16.44686179z m-58.41171575 69.31497087a13.18359375 13.18359375 0 0 0-14.9975691 11.07726967c-2.15156573 14.31518343 2.34546767 29.21580157 12.66328808 41.9573962 1.46669414 1.81223734 3.02909629 3.54368221 4.67477684 5.18936276 11.66519029 11.66519029 27.54153292 19.0148195 43.67143962 19.98805807a13.18359375 13.18359375 0 0 0 1.58850433-26.31845915c-11.14438957-0.67119901-22.14832453-6.4447535-29.44326346-15.45249288-5.52247633-6.82012777-8.10286367-14.63586741-7.07990664-21.44356557a13.18183594 13.18183594 0 0 0-11.07726967-14.9975691z m97.95403846-3.81464774c1.32996842 13.40409292 8.21473016 26.48874483 18.4455433 36.71955797 7.93506391 7.93506391 17.88123894 14.15235552 28.80935328 17.47354768a13.18359375 13.18359375 0 0 0 16.44686178-8.78027748 13.17832031 13.17832031 0 0 0-8.78027748-16.44686179c-15.01869943-4.56539626-27.35135986-18.1385319-28.6838142-31.56748404a13.18359375 13.18359375 0 0 0-26.23766668 2.60151766z" p-id="5408"></path></svg>