<?xml version="1.0" standalone="no"?><!DOCTYPE svg PUBLIC "-//W3C//DTD SVG 1.1//EN" "http://www.w3.org/Graphics/SVG/1.1/DTD/svg11.dtd"><svg t="1642236857817" class="icon" viewBox="0 0 1172 1024" version="1.1" xmlns="http://www.w3.org/2000/svg" p-id="3627" xmlns:xlink="http://www.w3.org/1999/xlink" width="228.90625" height="200"><defs><style type="text/css"></style></defs><path d="M716.91007243 585.47629273A230.85392109 230.85392109 0 0 1 486.05615134 354.62237165V287.20914724h48.49872297V354.62237165a182.35519812 182.35519812 0 1 0 364.22540865 0V287.20914724h48.49872297V354.62237165a230.85392109 230.85392109 0 0 1-230.3689335 230.85392108z" p-id="3628"></path><path d="M515.15538527 297.87886579a90.69261186 90.69261186 0 1 1 90.20762427-90.69261186 90.69261186 90.69261186 0 0 1-90.20762427 90.69261186z m0-132.40151317a42.19388889 42.19388889 0 1 0 41.7089013 41.70890131 42.19388889 42.19388889 0 0 0-41.7089013-41.70890131zM242.59256212 863.37397478a125.61169226 125.61169226 0 1 1 125.12670544-125.61169227 126.09667909 126.09667909 0 0 1-125.12670544 125.61169228z m0-202.72466156a77.11296931 77.11296931 0 1 0 76.62798247 77.11296929 77.11296931 77.11296931 0 0 0-76.62798247-77.11296929zM935.15432538 303.69871303a86.32772661 86.32772661 0 1 1 86.32772661-86.32772737 86.32772661 86.32772661 0 0 1-86.32772661 86.32772737z m0-124.15673102a37.82900365 37.82900365 0 1 0 37.82900365 37.82900365 37.82900365 37.82900365 0 0 0-37.82900365-37.82900365z" p-id="3629"></path><path d="M601.96809871 907.5078125a145.49616889 145.49616889 0 0 1-145.49616813-145.49616889V596.14601205a96.99744592 96.99744592 0 1 0-193.99489185 0v45.58879895H213.97831577v-45.58879895a145.49616889 145.49616889 0 1 1 290.99233701 0v166.35061916a96.99744592 96.99744592 0 0 0 193.99489186 0V545.22235267h48.49872296v217.27427854a145.49616889 145.49616889 0 0 1-145.49616889 145.01118129z" p-id="3630"></path></svg>