<?xml version="1.0" standalone="no"?><!DOCTYPE svg PUBLIC "-//W3C//DTD SVG 1.1//EN" "http://www.w3.org/Graphics/SVG/1.1/DTD/svg11.dtd"><svg t="1642234751143" class="icon" viewBox="0 0 1024 1024" version="1.1" xmlns="http://www.w3.org/2000/svg" p-id="10354" xmlns:xlink="http://www.w3.org/1999/xlink" width="200" height="200"><defs><style type="text/css"></style></defs><path d="M529.26906843 907.4419002a18.78505606 18.78505606 0 0 1-16.5769877-9.72209032 18.75209913 18.75209913 0 0 1-1.6148553-14.40187627l12.78702017-44.58979025h-74.97544114v49.82983232a18.94983682 18.94983682 0 0 1-37.86671749 0v-49.82983232H359.84104933a18.85096836 18.85096836 0 0 1-18.71914375-21.84998514l45.05117793-292.32183188-23.46484199-14.17118165a18.78505606 18.78505606 0 0 1-8.93114037-19.21348681l6.19577279-38.26219284c-16.93950614-4.18544212-29.95722015-11.732421-38.72357974-22.4431982-7.15150351-8.73340345-14.76439471-23.95918505-10.44712721-46.79785783l26.52977185-163.79250321C347.77906604 154.8532488 386.14012736 117.57974361 442.52825013 117.57974361c29.89130785 0 54.97100514 10.67782104 72.56963588 30.91295087 15.52238774 17.86228071 24.0580535 41.82146575 24.05805427 67.59324457 0 27.61732718-11.07329564 52.89476217-31.27547009 71.77868592 21.38859824 13.80866398 33.58240691 26.46385878 39.7781797 51.67538146l17.56567458 71.74573053c77.54602796 11.36990178 136.66951907 72.27302974 147.54507779 152.32373142a177.76594793 177.76594793 0 0 1-69.57061832 166.06648387l20.99312287 85.58734989a18.85096836 18.85096836 0 0 1-18.32366761 23.46484123h-82.58833311l-15.78603773 55.0039613a19.04870527 19.04870527 0 0 1-18.22479993 13.70979553m92.40929188-106.54751739l-18.35662453-74.84361654a18.68618682 18.68618682 0 0 1 8.23905963-20.43286752 140.5913112 140.5913112 0 0 0 63.67145166-136.86725675c-9.06296574-66.90116306-61.10086564-116.73099538-126.55195415-121.11417519a18.91688066 18.91688066 0 0 1-17.07133151-14.40187548l-20.72947367-84.63161916c-3.32857985-13.545014-22.14659205-35.8563868-51.97198682-40.86573581a50.6207815 50.6207815 0 0 0-8.56862191-0.69208074c-18.35662454 0-30.02313246 10.57895259-31.76981394 20.59764905l-25.37630343 157.03647428 128.33159099 77.34829028a18.94983682 18.94983682 0 0 1-19.54304909 32.39598236l-80.77573935-48.70932007-39.31679202 255.21310745h239.78958814zM442.56120628 155.44646109c-25.8047342 0-58.46436653 12.2597202-67.85689378 70.4933929l-26.69455261 165.04484006c-1.18642456 6.85489737-0.36251844 11.89720175 2.60354218 15.5553439 3.62518599 4.35022364 9.78800262 7.11854737 15.48943236 8.8322719l15.06100085-93.62867183a21.75111746 21.75111746 0 0 1 0.88981841-3.42744907c6.65716046-29.00148942 34.70291839-49.17070696 68.31828147-49.17070697a87.00446828 87.00446828 0 0 1 16.87359383 1.68076839c22.27841666-11.7983333 34.04379382-30.68225783 34.04379382-54.67439901 0-28.01280255-15.39056314-60.70539027-58.72801653-60.70539028" fill="#515151" p-id="10355"></path></svg>