<?xml version="1.0" standalone="no"?><!DOCTYPE svg PUBLIC "-//W3C//DTD SVG 1.1//EN" "http://www.w3.org/Graphics/SVG/1.1/DTD/svg11.dtd"><svg t="1641887011405" class="icon" viewBox="0 0 1024 1024" version="1.1" xmlns="http://www.w3.org/2000/svg" p-id="6169" xmlns:xlink="http://www.w3.org/1999/xlink" width="200" height="200"><defs><style type="text/css"></style></defs><path d="M193.07335689 683.70467587c-9.30606631-12.09788567-13.26114443-18.70519282-19.40314747-31.03573056l-7.4448529-13.58685671A369.0320545 369.0320545 0 0 1 141.88999333 507.77349485 372.56835938 372.56835938 0 0 1 514.41182184 135.25166558c205.29182013 0 372.52182927 166.39246343 372.52182927 370.98632812a372.56835938 372.56835938 0 0 1-372.52182927 372.52182928c-104.92589595 0-202.08122675-42.2030103-272.3885564-117.11684261 17.96070808-17.12316157 32.01286738-27.91819817 56.62741273-48.76378658a295.1884192 295.1884192 0 0 0 215.76114367 92.59535823 297.65452629 297.65452629 0 0 0 297.70105716-297.70105717 297.65452629 297.65452629 0 0 0-297.70105716-297.74758727 297.65452629 297.65452629 0 0 0-297.7010564 297.74758727 316.40625 316.40625 0 0 0 7.63097409 67.88775266c22.66027095 73.28527095 49.78745427 49.32215093 25.77780335 69.5628449L193.07335689 683.70467587z" fill="#727484" p-id="6170"></path><path d="M335.78188167 574.07921626l6.0489436 5.3975183 78.91544055 71.19140625c9.21300533 9.21300533 24.98678773 9.58524848 36.24712766 1.25631898l182.25930679-184.35317073v83.28929192a4705.65889215 4705.65889215 0 0 0 56.16210937-0.04653011V400.14883975v-12.37706784l-0.04653088-4.83915472v-10.88809757h-180.07238032c0.0465301 6.04894282 0.09306098 12.33053773 0.0465301 19.40314825l-0.09306021 15.02929688-0.09306097 21.77619436h79.52033575L436.61310919 589.80646856l-6.65383727-6.09547371L354.58013548 514.52039311c-12.09788567-9.16647523-26.01045465-9.5387176-36.43324885-1.72162234L229.08783327 589.80646856c3.48977477 9.95749086 13.49379573 33.12959527 23.82352896 52.81192492L335.78188167 574.07921626z" fill="#68A2FD" p-id="6171"></path></svg>