<?xml version="1.0" standalone="no"?><!DOCTYPE svg PUBLIC "-//W3C//DTD SVG 1.1//EN" "http://www.w3.org/Graphics/SVG/1.1/DTD/svg11.dtd"><svg t="1640500134075" class="icon" viewBox="0 0 1024 1024" version="1.1" xmlns="http://www.w3.org/2000/svg" p-id="3951" xmlns:xlink="http://www.w3.org/1999/xlink" width="200" height="200"><defs><style type="text/css"></style></defs><path d="M99.13725467 734.27827433c-12.047059-15.661176-17.167059-24.214588-25.118117-40.176941l-9.637647-17.588706A477.726118 477.726118 0 0 1 32.87843167 506.52862733 482.304 482.304 0 0 1 515.12219567 24.28486233c265.758118 0 482.243765 215.401412 482.243765 480.256a482.304 482.304 0 0 1-482.243765 482.243765c-135.830588 0-261.601882-54.633412-352.617411-151.612235 23.250824-22.166588 41.441882-36.141176 73.306353-63.126588a382.132706 382.132706 0 0 0 279.311058 119.868235 385.325176 385.325176 0 0 0 385.385412-385.385412 385.325176 385.325176 0 0 0-385.385412-385.445647 385.325176 385.325176 0 0 0-385.385411 385.445647 409.6 409.6 0 0 0 9.878588 87.883294c29.334588 94.870588 64.451765 63.849412 33.370353 90.051765L99.13725467 734.27827433z" fill="#727484" p-id="3952"></path><path d="M283.87890167 592.36392133l7.830589 6.987294 102.159058 92.16c11.926588 11.926588 32.346353 12.408471 46.923294 1.626353l235.941648-238.652235v107.821176a6091.655529 6091.655529 0 0 0 72.704-0.060235V367.20439233v-16.022588l-0.060236-6.264471v-14.095059h-233.110588c0.060235 7.830588 0.120471 15.962353 0.060235 25.118118l-0.12047 19.456-0.120471 28.190117h102.942118L414.40878467 612.72345133l-8.613647-7.890824L308.21396067 515.26274533c-15.661176-11.866353-33.671529-12.348235-47.164235-2.228706L145.75937267 612.72345133c4.517647 12.890353 17.468235 42.887529 30.84047 68.367058L283.87890167 592.36392133z" fill="#68A2FD" p-id="3953"></path></svg>