<?xml version="1.0" standalone="no"?><!DOCTYPE svg PUBLIC "-//W3C//DTD SVG 1.1//EN" "http://www.w3.org/Graphics/SVG/1.1/DTD/svg11.dtd"><svg t="1642235789627" class="icon" viewBox="0 0 1024 1024" version="1.1" xmlns="http://www.w3.org/2000/svg" p-id="6048" xmlns:xlink="http://www.w3.org/1999/xlink" width="200" height="200"><defs><style type="text/css"></style></defs><path d="M834.91988398 396.78833428l-3.01054833 46.06522294c-80.92181426 3.79240224-457.6251375 4.37982627-457.62513838 4.37982627-82.49482881 127.05943183-113.33666602 179.04026513-163.1105209 243.98372901l-48.15533672-19.75627441c47.00944599-69.58804482 139.22055967-212.60100674 146.76089326-225.78495557a1263.79550479 1263.79550479 0 0 1-146.76089326-2.8223253l3.01054922-46.06522294h174.0109623c3.59900684-5.42022891 10.57570312-20.93525947 24.04509083-42.1073499H250.51041055l1.50475781-50.49675967h143.93856885c11.28929941-18.78619658 17.95883906-30.66912598 29.24813847-47.6030751-71.52819873 1.89568388-137.07563467 0.97007695-202.91574815-2.82232442l1.50475783-46.11796787H452.3991998c18.78619658-33.86789825 36.11107266-53.59004385 54.94174102-83.71001074l40.07721973 19.75627441c-11.28929941 22.57859883-23.89616631 35.73048779-40.83011631 63.95373633h276.02316651l-1.50475694 46.11796787c-67.73476289 3.79240224-295.77944004 2.82232529-295.77944092 2.82232442-13.18601778 16.93394912-22.04391885 28.81791211-29.54081602 47.6030751h295.78047451l-1.50475781 50.49675967H427.34369815C413.87534492 375.85307481 408.45614961 391.36810537 404.85714278 396.78833428h430.0627412z" p-id="6049"></path><path d="M865.96856036 661.04957217l-40.71325167 31.7653752c-60.23889932-56.44649795-127.87851621-133.8179124-174.88692773-207.1983586l42.26971904-25.82804795c41.36479629 47.05184795 107.44691133 120.38265263 173.33046035 201.26103135zM624.2559295 574.66926406c7.91574698 0.00206807 38.26944317-3.04571162 40.26027304-5.03654238 2.05495049-2.05495049 2.28661084-5.3209459 0.75186123-8.0046879-13.35355752-15.20477138-52.2362795-36.25379209-70.28405947-43.86548583-26.64713145-11.23758984-53.77413164-15.61224463-83.82584092-18.63313506l-3.43146709 1.11382998c-3.80067539 3.04881416-1.12003594 33.03847177-0.11686465 35.81736153 1.75399893 4.86072773 33.91650615 3.26599541 61.74055459 12.49930985 26.75779102 8.87961972 49.13265323 22.38210175 54.90554327 26.10934981z m-137.87403487 81.65609473c0.16443721-5.14823467-0.12617227-10.57570312-2.6382375-12.16319678 0 0-9.9438082-1.68884472-22.98917549-2.2090456-44.38775479-1.76951162-145.38437666-2.99917266-148.98545244 1.82329013-5.35197217 15.98145381-5.70359883 31.33928584-7.9933122 50.61569239l0.76220331 17.8874789c2.65892168 40.33887187 14.34121612 79.21642324 36.45649512 111.17209043 2.65892168 3.44904873 4.54529795 8.00055176 9.88382549 7.24972413 1.89671836-0.77978496 12.35038623-35.08721719 13.43319082-46.09935176-7.59721464-9.5042751-10.57880567-21.34686972-15.11789854-32.36210684-7.23834844-23.61589893-6.73469385-67.91471279-4.81418964-69.79074697 15.22235214-0.38989248 14.15919727-1.13451504 29.34431894-1.13451505l1.53785127 0.74462257c-0.31749873 11.60679815-0.10445362 124.57011885-0.10445361 171.9167124 0 11.63058487 40.33990635 24.20228935 42.18594872 23.84342227 1.14485625-4.18643174-2.00634346-188.11017685 0.26578829-196.14278849 10.67084912-0.36196875 16.67539951 0.38265292 27.31832666 1.18001954l0.76530586 1.10762578c1.53164619 23.61279638-4.52771631 202.45656357 1.15933535 210.68980928 2.11079708 3.05605371 33.40664648 8.75241299 37.1856041 1.15209668 3.33425303-6.70883906 1.31860195-207.42278027 2.34452549-239.48083301z m26.69780742-70.45573623c-1.94739346 0-5.17305586 0.90699082-5.02413135 7.26730488 0.45918369 19.61562305-0.56880879 67.44518789-0.24200244 73.95959795 0.44056846 1.47476602-0.23786543 5.68705166 10.42264248 6.46580214 18.30529512-0.40333711 182.55653613 0.70842568 185.21442334 2.97435235 4.19367041-3.40664678-14.4467042-61.74262266-28.16843642-84.1991871-2.65892168-6.83914747-10.65326836-5.32508291-17.12837813-6.44925499l-145.07411748-0.01861523z m151.67850293 50.46056191c-0.79322959 1.06108682-100.99455293 0.07342822-116.24069268-0.32370381-2.65581914-0.36196875-5.22993691 0.34231904-5.31370634-3.41388545-0.14582197-6.49372588 0-8.68001924 0.74772422-15.13548017l1.54922782-1.17588252c9.92726104-0.44263653 81.41512676-0.74152002 106.95153077 1.17588251 5.32715097 6.66850518 10.26854648 11.40512959 12.30591621 18.87306944z m-185.27854394-136.46235497l-3.79033419-0.36920831c-16.73952011 1.51406542-34.88348057 3.30839737-49.35707402 10.16719541-41.86638193 17.50896299-87.16319648 64.05302021-105.78909199 105.17167618 0 0-3.44697979 6.84121641-0.78495644 7.19180946 7.72235244 1.01765039 37.77716513-0.19132646 46.15416474 0.1396169l14.58321855-22.70477109c20.5505376-27.76199678 34.31363731-35.52675117 65.52675088-45.81081123l0.78909258 1.55543291c0 26.24793135-3.07466895 36.03040576-2.7023581 62.66822959 0.02275224 3.70863193 0.25234453 5.65395732 2.651683 6.07694414 5.35921084 0.94318769 23.96338945 0.5729458 27.93780968 0.76840927 3.5607419 0.1747793 8.22497256 0 9.3698288-2.28971338 1.89671836-38.04502237 0.38989248-74.23159131 2.28661084-113.03571445-0.75806631-3.06225879-4.1688501-9.52909541-6.87534433-9.5290954z m223.20876972 195.67429716c-11.9387751-0.47986787-181.58852724-1.55750098-190.31198291-1.55750186-2.82335888 0-3.3508002 3.13155-3.35079931 10.30681231 0 42.32556562-2.50689463 191.0255792-0.19339541 195.5936294 3.03123252 3.04157461 5.81529199 2.42312432 9.18884443 1.96187255 49.21642266-6.7264207 89.13127412-20.93319053 125.69015478-55.93663828 36.91050732-34.25882519 57.08252901-79.97345596 62.78923037-127.14733916 0.92870948-12.53343867-3.81205195-23.22083584-3.81205195-23.22083496zM541.40947315 862.12548301s-0.50055117-32.4438082 0.64844208-56.07418711c-0.38678994-2.66926377 1.89258135-4.60734961 4.57632334-4.15850801 9.8941667 0.32473828 22.26420263 0 32.917471 0.32473828l0.77564882 0.77875049c0 20.94663516 0.02895732 22.89092695-0.75393016 44.58942422-0.00103447 0-24.82487578 12.66374795-38.16395508 14.53978213z m-0.01241016-104.94105117c-1.88017119-1.88017119-1.56267246-26.33376972 0-27.89540772 1.25448135-1.25448135 36.25275762-1.65264786 37.90540547 0 0.85114424 0.85114424 1.82122208 26.56749903 0.26992529 27.57894346-2.16767813 1.41271347-37.35004131 1.14072012-38.17533076 0.31646426z m71.44856543 73.54902129c-0.8470081-0.83769961 0.16650615-28.90892197 0.16650616-28.90892198 12.54895224 0 37.03254258-2.44174043 37.2104244-0.68980957 0.16133467 1.58852724-5.13789258 3.15223418-13.35459111 12.38968565-9.45876972 10.63465224-23.51971846 17.70752901-24.02233945 17.2090459z m0.16650616-74.00613691c-1.41064541-1.24517373-1.41064541-26.5643956 0-27.62134542 2.32591026-1.74469131 60.5336458 0 60.53364579 0-1.14795879 9.91485088-4.99310508 18.51833935-8.02020146 27.62134542 0 0-50.86596797 1.45408184-52.51344434 0z m-105.19856632-94.30122657" p-id="6050"></path></svg>