<?xml version="1.0" standalone="no"?><!DOCTYPE svg PUBLIC "-//W3C//DTD SVG 1.1//EN" "http://www.w3.org/Graphics/SVG/1.1/DTD/svg11.dtd"><svg t="1642235413810" class="icon" viewBox="0 0 1024 1024" version="1.1" xmlns="http://www.w3.org/2000/svg" p-id="5268" xmlns:xlink="http://www.w3.org/1999/xlink" width="200" height="200"><defs><style type="text/css"></style></defs><path d="M613.79248145 802.85772762c-14.5969489 0-26.49075949 11.89381058-26.49075949 26.49075948v51.66856591c0 14.5969489 11.89381058 26.49075949 26.49075949 26.49075949s26.49075949-11.89381058 26.49075949-26.49075949v-51.66856591c-0.07723217-14.5969489-11.97104276-26.49075949-26.49075949-26.49075948zM506.36202531 802.78049468c-14.5969489 0-26.49075949 11.89381058-26.49076026 26.49075949v51.59133374c0 14.5969489 11.89381058 26.49075949 26.49076026 26.49075947s26.49075949-11.89381058 26.4907595-26.49075947v-51.59133374c-0.07723217-14.67418183-11.89381058-26.49075949-26.4907595-26.49075949zM406.34589227 802.85772762c-14.5969489 0-26.49075949 11.89381058-26.49076025 26.49075948v51.66856591c0 14.5969489 11.89381058 26.49075949 26.49076026 26.49075949s26.49075949-11.89381058 26.49075947-26.49075949v-51.66856591c-0.07723217-14.67418183-11.89381058-26.49075949-26.49075947-26.49075948zM853.90843308 362.70950992c-13.82462411-24.40548085-33.90508258-46.95738112-59.62351728-67.19230626-50.97347329-40.00645338-122.0274058-68.35079344-200.3411963-79.85844087-0.30893022-15.13757719-0.46339534-39.00243053-0.46339458-64.64363226 0-21.31617938-13.05229854-34.52294302-34.05954846-34.52294303H451.06352965c-21.6251096 0-35.0635713 13.36122877-35.06357052 34.75464109v66.57444502C341.00716737 230.87357217 273.35146656 259.68130756 225.31282964 298.99266832c-24.40548085 19.92599413-43.40468508 42.09173201-56.45698362 65.80211946-13.59292606 24.63717891-20.46662164 50.51007795-20.46662164 76.92360527 0 37.99840768 14.67418183 75.68788436 42.47789441 109.05233942 27.41755015 32.90105974 67.50123571 61.47709785 115.84880284 82.63881288 15.60097175 7.41432309 38.61626736 18.381343 43.86807964 21.00724914V726.70644791c0 16.68222754 5.79243979 30.73854892 16.83669265 40.70154601 12.27997298 11.12148503 30.27515359 16.75946048 53.52214725 16.7594597h187.7522931c22.93806267 0 40.00645338-5.63797469 50.74177523-16.83669264 8.80450911-9.11343933 13.43846093-22.01127277 13.82462411-38.38457008v-74.60662857c5.17458012-2.70313909 28.2671079-13.670159 43.79084747-21.00724992 48.50203225-21.08448209 88.58571779-49.66052021 116.00326719-82.56157994 27.80371255-33.2872229 42.4778944-71.05393252 42.4778944-109.12957237 0-27.031387-7.25985798-53.59937942-21.62510959-78.93165018zM632.01935934 726.86091305c0 9.42236955-9.57683467 15.98713491-23.40145801 15.98713414h-187.67506016c-14.67418183 0-26.56799242-7.18262581-26.56799242-15.98713414v-51.20517134h237.72174352v51.20517134zM358.30725537 526.82864695c-1.2357209-2.47144102-2.39420886-4.86564989-3.47546465-7.33709092-11.04425286-24.63717891-16.52776242-50.12391554-16.29606437-76.22851264 0-2.62590615 0.07723217-5.25181228 0.23169728-7.87771843 2.16251081-41.16494133 21.16171426-80.63076642 56.37975068-117.23898807 32.51489733-33.8278504 68.89142172-54.44893716 83.41113767-61.86326103v379.82960781h-21.16171425c-35.75866393-26.64522459-62.55835364-52.90428679-81.86648732-80.39906914-5.020115-7.10539286-9.49960174-14.28801867-13.51569389-21.54787666-1.15848795-2.47144102-2.47144102-4.86564989-3.70716115-7.3370909z m-18.92197128 68.19632834C274.12379213 560.73372953 201.67967359 502.11423588 201.67967359 443.34027634c0-37.68947745 19.30813367-74.83832663 55.83912317-107.35322396 31.97426983-28.421573 75.99681458-51.74579885 125.03947434-66.49721286-54.21723987 39.69752315-86.57767209 85.57364925-96.07727383 136.54712254-6.56476537 35.21803565-2.31697593 73.21644333 12.66613616 112.83673353 1.15848795 3.01206854 2.39420886 6.10137003 3.62992899 9.1906715 8.88174128 21.39341231 21.00724992 43.48191725 36.60822165 66.96060818zM551.85198826 158.12052417v54.29447204H456.77873728V158.12052417h95.07325097z m269.92770987 288.46351875c-0.07723217 1.46741818-0.15446511 2.85760343-0.30892945 4.32502163-0.07723217 0.61786045-0.15446511 1.15848795-0.23169805 1.7763484-5.86967273 48.27033419-54.98956467 92.91073941-110.21082739 125.19393946-0.3861624 0.23169728-0.84955774 0.46339534-1.2357209 0.69509262-0.69509262 0.3861624-1.39018602 0.77232557-2.00804569 1.15848796-9.88576412 5.63797469-19.84876119 10.88978773-29.88899121 15.6782047 12.0482757-17.37732016 27.1858521-41.39663861 39.00243054-69.89544381 0.07723217-0.23169728 0.23169728-0.46339534 0.30893022-0.69509339 0.54062751-1.39018602 1.08125579-2.70313909 1.6218833-4.09332433 2.39420886-6.10137003 4.55671967-12.20274081 6.41030024-18.30411083 0.77232557-2.39420886 1.46741818-4.86564989 2.08527864-7.25985797 1.31295308-4.78841695 2.47144102-9.57683467 3.47546387-14.36525162 5.17458012-25.02334131 5.63797469-49.19712487 1.39018524-72.36688559-3.62992898-19.84876119-10.81255479-38.92519758-21.3934123-57.30654059-17.60901821-30.58408382-44.87210326-58.92842466-81.40309198-84.87855664 48.81096247 13.12953071 93.06520451 34.52294302 126.58412546 61.1681684 2.23974374 1.77634841 4.40225455 3.55269682 6.56476536 5.4062774 38.77073247 33.05552485 59.2373541 71.13116468 59.2373541 110.13359522 0.07723217 1.2357209 0 2.47144102 0 3.62992898zM625.45459398 326.17852042c20.69831969 21.47064448 35.37250076 42.86405679 44.40870793 64.79809663 1.39018602 3.47546388 2.70313909 6.95092853 3.86162705 10.42639238 0.77232557 2.31697593 1.46741818 4.63395184 2.08527786 6.95092854 2.54867397 9.34513661 4.09332433 18.76750617 4.63395259 28.34434007 1.69911547 29.5028288-6.33306807 60.24137772-24.09655139 91.36608905-19.84876119 34.90910619-52.36365852 71.36286276-96.61790134 108.28001464h-27.41755016l-0.77232479-383.84569998c32.28320004 21.00724992 65.80212023 44.48594009 93.91476225 73.67983867z" p-id="5269"></path></svg>