<?xml version="1.0" standalone="no"?><!DOCTYPE svg PUBLIC "-//W3C//DTD SVG 1.1//EN" "http://www.w3.org/Graphics/SVG/1.1/DTD/svg11.dtd"><svg t="1642236115902" class="icon" viewBox="0 0 1024 1024" version="1.1" xmlns="http://www.w3.org/2000/svg" p-id="3593" xmlns:xlink="http://www.w3.org/1999/xlink" width="200" height="200"><defs><style type="text/css"></style></defs><path d="M796.625 834.875c-6.75 0-11.25-5.625-11.25-11.25v-60.75l-16.875 11.25c-3.375 2.25-7.875 2.25-12.375 0-3.375-2.25-5.625-5.625-5.625-10.125v-51.75l-14.625 9c-3.375 2.25-7.875 2.25-11.25 0-3.375-2.25-5.625-5.625-5.625-10.125v-90c0-6.75 5.625-11.25 11.25-11.25s11.25 5.625 11.25 11.25v69.75l14.625-9c3.375-2.25 7.875-2.25 11.25 0 3.375 2.25 5.625 5.625 5.625 10.125v49.5l16.875-11.25c3.375-2.25 7.875-2.25 12.375 0s5.625 5.625 5.625 10.125v82.125c1.125 6.75-4.5 12.375-11.25 12.375zM624.5 834.875c-4.5 0-9-3.375-11.25-7.875-39.375-106.875-1.125-205.875 0-210.375 2.25-5.625 9-9 15.75-6.75 5.625 2.25 9 9 6.75 15.75 0 1.125-36 95.625 0 193.5 2.25 5.625-1.125 12.375-6.75 14.625-2.25 0-3.375 1.125-4.5 1.125zM729.125 560.375c-3.375 0-7.875-2.25-10.125-5.625-3.375-5.625-2.25-12.375 3.375-16.875 36-24.75 54-46.125 52.875-64.125-1.125-23.625-34.875-45-73.125-66.375-22.5-13.5-37.125-31.5-42.75-52.875-9-38.25 12.375-74.25 13.5-75.375 3.375-5.625 11.25-6.75 15.75-3.375 5.625 3.375 6.75 11.25 3.375 15.75 0 1.125-18 29.25-11.25 57.375 3.375 15.75 14.625 28.125 31.5 38.25 45 27 83.25 51.75 84.375 86.625 1.125 27-19.125 54-63 84.375 0 1.125-2.25 2.25-4.5 2.25zM841.625 545.75c-3.375 0-6.75-1.125-9-4.5-4.5-5.625-3.375-12.375 2.25-16.875 46.125-34.875 67.5-64.125 65.25-88.875-2.25-27-31.5-52.875-95.625-85.5-37.125-19.125-58.5-42.75-61.875-72-5.625-46.125 36-84.375 37.125-86.625 4.5-4.5 12.375-4.5 16.875 1.125 4.5 4.5 4.5 12.375-1.125 16.875 0 0-34.875 31.5-30.375 65.25 2.25 20.25 19.125 38.25 49.5 54 73.125 37.125 105.75 68.625 109.125 104.625 3.375 33.75-20.25 68.625-74.25 110.25-3.375 2.25-5.625 2.25-7.875 2.25z" p-id="3594"></path><path d="M861.875 834.875H112.625c-6.75 0-11.25-5.625-11.25-11.25v-202.5c0-6.75 5.625-11.25 11.25-11.25h749.25c6.75 0 11.25 5.625 11.25 11.25v202.5c0 5.625-4.5 11.25-11.25 11.25zM125 811.25H849.5V632.375H125v178.875z" p-id="3595"></path><path d="M153.125 734.75c-3.375 0-5.625-2.25-5.625-5.625v-12.375c0-3.375 2.25-5.625 5.625-5.625s5.625 2.25 5.625 5.625v12.375c0 2.25-2.25 5.625-5.625 5.625zM512 788.75H153.125c-3.375 0-5.625-2.25-5.625-5.625v-25.875c0-3.375 2.25-5.625 5.625-5.625s5.625 2.25 5.625 5.625v20.25H512c3.375 0 5.625 2.25 5.625 5.625s-2.25 5.625-5.625 5.625z" p-id="3596"></path></svg>