<?xml version="1.0" standalone="no"?><!DOCTYPE svg PUBLIC "-//W3C//DTD SVG 1.1//EN" "http://www.w3.org/Graphics/SVG/1.1/DTD/svg11.dtd"><svg t="1642234754048" class="icon" viewBox="0 0 1024 1024" version="1.1" xmlns="http://www.w3.org/2000/svg" p-id="10492" xmlns:xlink="http://www.w3.org/1999/xlink" width="200" height="200"><defs><style type="text/css"></style></defs><path d="M537.20118309 356.02429235l-4.01826746 0.30057898c7.40373708 4.52450587 71.4587224 23.12876928 67.42463466-4.87254501-4.0499073-28.03295492-63.4063672 4.57196603-63.4063672 4.57196603z" fill="#515151" p-id="10493"></path><path d="M576.14990489 425.48970096c17.65506629-22.1479323-46.74795743-43.0460885-46.74795819-43.04608851l-0.36385869-0.3322196a37.87296449 37.87296449 0 0 0-5.14148414-40.16685728c19.60091993-9.0490125 51.38320315-28.71321291 34.97791296-42.91952908-16.53184959-14.31705606-34.32929561 20.28117791-41.57483265 36.78138764a33.44337819 33.44337819 0 0 0-14.38033653-5.80592258c7.46701755-20.23371851 16.1047112-56.7303475-5.56862331-55.17999164-21.6575142 1.55035509-10.09312917 38.07862392-3.52784858 55.03761269a34.12363618 34.12363618 0 0 0-22.08465337 12.38702195c-8.90663278-15.61429232-33.12697889-54.0251351-46.58975816-36.14858983-14.52271549 19.2845214 30.86472596 37.01868693 43.04608927 41.35335369a37.01868693 37.01868693 0 0 0-4.20810734 11.43782561c-20.34445839-6.12232112-59.41973883-13.00400024-56.2241083 9.08065235 3.1323508 21.68915406 39.37586019 7.05569871 55.60713002-0.66443845 0.25311959 7.97325597 2.91087107 15.28207349 7.26135813 21.1670961-12.29210241 5.44206312-62.07749108 37.87296449-39.75553921 52.75953867 23.55590844 15.70921189 38.94872103-50.2283466 38.94872181-50.2283466l1.36051597-1.75601452c5.4262436 6.94495882 13.25711984 11.70676398 22.1479323 12.95654008-7.53029726 20.01223878-16.81660904 57.72700401 5.22058417 56.14500907 22.06883305-1.58199494 9.63435093-39.50241961 3.16399066-56.00262934 11.27962557-1.28141596 20.9139765-8.27383495 26.29275916-18.1613047 6.72347986 16.07307135 32.46254122 61.01755408 48.14011402 41.30589428z" fill="#515151" p-id="10494"></path><path d="M368.22827762 274.80466036a26.0238208 24.71076499 90 1 0 49.42152999 0 26.0238208 24.71076499 90 1 0-49.42152999 0Z" fill="#515151" p-id="10495"></path><path d="M473.22529778 239.00410891a26.0238208 24.71076499 90 1 0 49.42152997 0 26.0238208 24.71076499 90 1 0-49.42152997 0Z" fill="#515151" p-id="10496"></path><path d="M568.46140838 265.02792972a26.0238208 24.71076499 90 1 0 49.42152919 0 26.0238208 24.71076499 90 1 0-49.42152919 0Z" fill="#515151" p-id="10497"></path><path d="M619.3858325 353.3190807a24.45764539 23.20786929 90 1 0 46.41573859 0 24.45764539 23.20786929 90 1 0-46.41573859 0Z" fill="#515151" p-id="10498"></path><path d="M585.10399706 469.65900614a24.26780628 23.03384971 90 1 0 46.06770019 0 24.26780628 23.03384971 90 1 0-46.06770018 0Z" fill="#515151" p-id="10499"></path><path d="M474.14285504 503.51370319a22.82819029 21.68915406 90 1 0 43.37830811 1e-8 22.82819029 21.68915406 90 1 0-43.37830811 0Z" fill="#515151" p-id="10500"></path><path d="M382.24475546 469.65900614a21.10381562 20.02805909 90 1 0 40.05611818 0 21.10381562 20.02805909 90 1 0-40.05611817 0Z" fill="#515151" p-id="10501"></path><path d="M342.15699743 366.05414182a21.10381562 20.04387863 90 1 0 40.08775803 0 21.10381562 20.04387863 90 1 0-40.08775803 0Z" fill="#515151" p-id="10502"></path><path d="M496.95522579 593.89308754c-9.74509003 0-17.63924598 14.57017566-17.63924597 32.52582093 0 17.97146558 17.63924598 281.08890403 17.63924597 281.08890403s17.63924598-263.11743845 17.63924598-281.08890403c0-17.95564527-7.90997626-32.52582092-17.63924598-32.52582093zM533.30947505 444.33126365s24.45764539 98.40010048 30.73816656 112.11599857c6.2963407 13.71589808 19.01558227 21.32529536 28.44427299 17.00644815 9.41287119-4.31884721 11.95988356-18.93648225 5.67936318-32.65238034s-64.86180274-96.47006639-64.86180273-96.47006638zM723.46529616 421.62963277c-14.15885678-5.22058416-114.12513267-22.13211276-114.12513267-22.13211277s86.96227487 52.11092131 101.12113165 57.34732579c14.14303725 5.22058416 28.52337301 1.58199494 32.11450207-8.14727555 3.60694936-9.72927049-4.96746458-21.84735331-19.11050105-27.06793747zM747.87548139 246.74006561c-4.22392688-9.46033136-18.82574238-12.14972269-32.58910062-5.99576172-13.7791778 6.15396097-97.10286421 63.91260561-97.10286421 63.91260484s98.62157946-23.49262874 112.41657755-29.6465897c13.76335825-6.13814143 21.49931417-18.79410253 17.27538728-28.27025342zM601.96806627 117.34867976c-9.69763063-3.63858923-21.84735331 4.85672547-27.1470375 18.98394241-5.29968418 14.12721694-22.73327074 113.9985725-22.73327073 113.99857249s52.56969955-86.69333573 57.86938373-100.82055268c5.29968418-14.11139662 1.72437467-28.52337301-7.9890755-32.16196223zM448.16649441 260.51924339s-30.70652671-96.62826564-37.85714496-109.91702533c-7.15061826-13.28875969-20.34445839-20.07551848-29.45674982-15.1555133-9.12811252 4.92000518-10.72592699 19.6642004-3.57530952 32.93713977 7.15061826 13.30457923 70.8892043 92.13539964 70.8892043 92.13539886zM287.49906374 271.94124869c-14.25377635-4.93582472-28.57083318-0.99665728-31.95630281 8.7958929-3.38546962 9.79255019 5.41042328 21.73661345 19.66420041 26.65661941 14.25377635 4.95164502 114.53645076 19.82239966 114.53645075 19.82239966S301.75284086 276.87707341 287.49906374 271.94124869zM296.88029508 445.77087886c-12.73506111 8.06817553-18.57262356 21.7207939-13.0356401 30.46922743 5.552803 8.74843351 20.36027793 9.30213132 33.11115936 1.23395656s86.88317562-77.21718484 86.88317484-77.21718484-94.20781268 37.4458261-106.9586941 45.51400085zM410.98960744 589.60588095c9.71345018 3.60694936 21.84735331-4.93582472 27.0995781-19.07886196 5.2364037-14.14303725 22.33777219-114.09349205 22.33777141-114.09349205s-52.28494088 86.88317562-57.52134458 101.0262121c-5.25222401 14.15885678-1.6136348 28.53919333 8.08399507 32.14614191z" fill="#515151" p-id="10503"></path></svg>