<?xml version="1.0" standalone="no"?><!DOCTYPE svg PUBLIC "-//W3C//DTD SVG 1.1//EN" "http://www.w3.org/Graphics/SVG/1.1/DTD/svg11.dtd"><svg t="1640183879200" class="icon" viewBox="0 0 1024 1024" version="1.1" xmlns="http://www.w3.org/2000/svg" p-id="5520" xmlns:xlink="http://www.w3.org/1999/xlink" width="200" height="200"><defs><style type="text/css"></style></defs><path d="M456.145455 861.090909c-9.309091 0-18.618182-2.327273-25.6-6.981818-11.636364-6.981818-25.6-20.945455-27.927273-53.527273v-4.654545l37.236363-132.654546-165.236363 81.454546c-6.981818 4.654545-32.581818 20.945455-60.509091 16.290909-11.636364-2.327273-30.254545-9.309091-41.890909-32.581818L18.618182 546.909091c-4.654545-4.654545-25.6-37.236364-11.636364-67.490909 9.309091-20.945455 30.254545-32.581818 65.163637-37.236364h4.654545l179.2 65.163637 2.327273 2.327272c2.327273 2.327273 20.945455 11.636364 46.545454-16.290909l2.327273-2.327273L663.272727 232.727273c16.290909-16.290909 114.036364-111.709091 286.254546-48.872728 13.963636 4.654545 67.490909 18.618182 74.472727 58.181819 4.654545 23.272727-9.309091 46.545455-39.563636 69.818181l-200.145455 144.29091-204.8 328.145454s-27.927273 51.2-86.109091 65.163636c-6.981818 4.654545-20.945455 11.636364-37.236363 11.636364z m-6.981819-60.509091c0 6.981818 2.327273 11.636364 4.654546 11.636364 4.654545 2.327273 16.290909 0 20.945454-4.654546l4.654546-2.327272c39.563636-9.309091 60.509091-44.218182 60.509091-44.218182l211.781818-337.454546 207.127273-148.945454c18.618182-13.963636 20.945455-20.945455 20.945454-23.272727-2.327273-6.981818-23.272727-18.618182-41.890909-23.272728h-2.327273C781.963636 172.218182 698.181818 265.309091 698.181818 265.309091l-4.654545 4.654545-358.4 253.672728c-41.890909 41.890909-86.109091 32.581818-104.727273 20.945454l-162.909091-58.181818c-16.290909 2.327273-20.945455 6.981818-23.272727 9.309091-2.327273 4.654545 2.327273 16.290909 6.981818 20.945454l158.254545 186.181819c4.654545 9.309091 11.636364 11.636364 11.636364 11.636363 9.309091 2.327273 23.272727-4.654545 25.6-9.309091l4.654546-2.327272L512 579.490909l-62.836364 221.090909z" p-id="5521"></path></svg>