<?xml version="1.0" standalone="no"?><!DOCTYPE svg PUBLIC "-//W3C//DTD SVG 1.1//EN" "http://www.w3.org/Graphics/SVG/1.1/DTD/svg11.dtd"><svg t="1641886967168" class="icon" viewBox="0 0 1024 1024" version="1.1" xmlns="http://www.w3.org/2000/svg" p-id="4439" xmlns:xlink="http://www.w3.org/1999/xlink" width="200" height="200"><defs><style type="text/css"></style></defs><path d="M875.65494071 206.50431009C875.62990424 206.50431009 875.68534454 690.04755728 875.68534454 690.04755728 875.68534454 690.09645112 148.34505929 690.08040585 148.34505929 690.08040585 148.37009576 690.08040585 148.31465546 206.53715866 148.31465546 206.53715866 148.31465546 206.48827884 875.65494071 206.50431009 875.65494071 206.50431009ZM90.125 690.04755728C90.125 722.13554446 116.20618509 748.27006048 148.34505929 748.27006048L875.65494071 748.27006048C907.85839062 748.27006048 933.875 722.21396954 933.875 690.04755728L933.875 206.53715866C933.875 174.44918549 907.79381491 148.31465546 875.65494071 148.31465546L148.34505929 148.31465546C116.14160938 148.31465546 90.125 174.3707464 90.125 206.53715866L90.125 690.04755728ZM782.88288221 884.38871313C798.95150522 884.38871313 811.97770993 871.36250842 811.97770993 855.2938854L811.97770993 853.93946313C811.97770993 837.87084094 798.95150522 824.8446354 782.88288221 824.8446354L241.11711779 824.8446354C225.04849478 824.8446354 212.02229007 837.87084094 212.02229007 853.93946313L212.02229007 855.2938854C212.02229007 871.36250842 225.04849478 884.38871313 241.11711779 884.38871313 257.185754 884.38871313 782.88288221 884.38871313 782.88288221 884.38871313ZM482.22796154 825.52184696L540.41761618 825.52184696 540.41761618 748.27006048 483.58238382 748.27006048 482.22796154 825.52184696Z" p-id="4440"></path></svg>