<?xml version="1.0" standalone="no"?><!DOCTYPE svg PUBLIC "-//W3C//DTD SVG 1.1//EN" "http://www.w3.org/Graphics/SVG/1.1/DTD/svg11.dtd"><svg t="1642310875440" class="icon" viewBox="0 0 1024 1024" version="1.1" xmlns="http://www.w3.org/2000/svg" p-id="3468" xmlns:xlink="http://www.w3.org/1999/xlink" width="200" height="200"><defs><style type="text/css"></style></defs><path d="M837.67109 842.67025063L186.32891 842.67025063c-52.41054938 0-95.14530469-42.73475531-95.14530469-95.14530469L91.18360531 276.475055c0-52.41054938 42.73475531-95.14530469 95.14530469-95.14530469l651.34218 0c52.41054938 0 95.14530469 42.73475531 95.14530469 95.14530469l0 471.04989094C932.81639469 799.93549438 890.08163938 842.67025063 837.67109 842.67025063zM186.32891 241.48093438c-19.35158719 0-35.15538375 15.64253344-35.15538375 34.99412062l0 471.04989094c0 19.35158719 15.64253344 34.99412063 35.15538375 34.99412062l651.34218 0c19.35158719 0 35.15538375-15.64253344 35.15538375-34.99412062L872.82647375 276.475055c0-19.35158719-15.64253344-34.99412063-35.15538375-34.99412063L186.32891 241.48093438 186.32891 241.48093438z" p-id="3469"></path><path d="M782.51906562 421.77322344L241.48093438 421.77322344c-16.61011219 0-29.99496094-13.54611094-29.99496094-29.99496094 0-16.61011219 13.54611094-29.99496094 29.99496093-29.99496094l541.19939532 0c16.61011219 0 29.99496094 13.54611094 29.99496093 29.99496094C812.67528969 408.38837563 799.12917875 421.77322344 782.51906562 421.77322344z" p-id="3470"></path><path d="M331.62707844 722.36788156l-90.146145 0c-16.61011219 0-29.99496094-13.38484781-29.99496094-29.99496093 0-16.61011219 13.54611094-29.99496094 29.99496094-29.99496094l90.146145 0c16.61011219 0 29.99496094 13.38484781 29.99496093 29.99496094C361.62203938 708.98303375 348.23719156 722.36788156 331.62707844 722.36788156z" p-id="3471"></path></svg>