<?xml version="1.0" standalone="no"?><!DOCTYPE svg PUBLIC "-//W3C//DTD SVG 1.1//EN" "http://www.w3.org/Graphics/SVG/1.1/DTD/svg11.dtd"><svg t="1642236865058" class="icon" viewBox="0 0 1024 1024" version="1.1" xmlns="http://www.w3.org/2000/svg" p-id="4057" xmlns:xlink="http://www.w3.org/1999/xlink" width="200" height="200"><defs><style type="text/css"></style></defs><path d="M851.024 793.616c-6 0-12-1.536-17.376-4.656l-51.264-29.616a210.24 210.24 0 0 1-33.792 2.784c-114.768 0-208.08-93.36-208.08-208.08 0-114.768 93.36-208.08 208.08-208.08s208.08 93.36 208.08 208.08c0 60.576-26.88 118.512-72.528 157.824l1.584 45.744a34.728 34.728 0 0 1-16.848 31.008c-5.424 3.36-11.616 4.992-17.856 4.992z m-22.8-33.936z m-40.704-59.424c5.04 0 9.984 1.296 14.4 3.84l24.864 14.352-0.672-19.056a28.704 28.704 0 0 1 11.712-24.192c38.4-28.32 61.296-73.632 61.296-121.2 0-82.992-67.488-150.48-150.48-150.48s-150.48 67.536-150.48 150.48c0 82.992 67.488 150.48 150.48 150.48 10.896 0 21.888-1.2 32.64-3.6 2.064-0.384 4.176-0.624 6.24-0.624z" fill="#283033" p-id="4058"></path><path d="M234.176 866.864c-6.864 0-13.68-1.824-19.776-5.472a38.4144 38.4144 0 0 1-18.576-34.224l2.88-81.744c-73.2-59.76-116.496-150.24-116.496-244.992 0-174.24 141.744-316.032 316.032-316.032 91.104 0 177.84 39.408 237.936 108.144a28.8624 28.8624 0 0 1 6.576 24.528 28.9152 28.9152 0 0 1-15.408 20.208c-81.84 40.752-132.672 122.736-132.672 214.032 0 65.856 26.304 127.248 74.064 172.848a28.7712 28.7712 0 0 1 8.736 23.856 28.6848 28.6848 0 0 1-13.536 21.504 315.1632 315.1632 0 0 1-165.696 46.944c-19.104 0-38.352-1.776-57.312-5.28l-87.552 50.544a38.64 38.64 0 0 1-19.2 5.136zM398.24 242c-142.512 0-258.432 115.92-258.432 258.432 0 81.744 39.36 159.504 105.264 208.128a28.8816 28.8816 0 0 1 11.712 24.192l-2.16 61.776 66.96-38.64c6.24-3.6 13.584-4.752 20.64-3.168 54.192 12 110.64 6.144 160.176-15.696-42.336-52.416-65.28-117.072-65.28-185.616 0-100.08 49.2-191.136 130.656-245.856A258.072 258.072 0 0 0 398.24 242z" fill="#283033" p-id="4059"></path><path d="M222.08 525.776c-15.456 0-28.224-12.24-28.752-27.84-3.84-112.656 82.656-168.048 86.304-170.352 13.488-8.448 31.248-4.32 39.696 9.168 8.4 13.44 4.368 31.152-9.024 39.6-2.832 1.824-62.112 41.088-59.424 119.616 0.528 15.888-11.904 29.232-27.792 29.76-0.336 0.048-0.672 0.048-1.008 0.048z" fill="#E92385" p-id="4060"></path></svg>