<?xml version="1.0" standalone="no"?><!DOCTYPE svg PUBLIC "-//W3C//DTD SVG 1.1//EN" "http://www.w3.org/Graphics/SVG/1.1/DTD/svg11.dtd"><svg t="1642236873749" class="icon" viewBox="0 0 1024 1024" version="1.1" xmlns="http://www.w3.org/2000/svg" p-id="4626" xmlns:xlink="http://www.w3.org/1999/xlink" width="200" height="200"><defs><style type="text/css"></style></defs><path d="M847.6042139 453.34917934l0.47412271-189.51419852c0-52.00762965-42.31364124-94.31762404-94.31762403-94.31762403-31.20093077 0-58.90064641 15.24122649-76.07848232 38.66654242-17.17783591-23.42166908-44.8811984-38.66654243-76.08577681-38.66654243-30.91281028 0-58.39369964 14.94945837-75.60800645 38.0064175-17.21065919-23.05331225-44.6988438-38.00641748-75.61530095-38.0064175-52.00762965 0-94.31762404 42.31364124-94.31762404 94.3650363l0.47776958 189.64184637 0.51059363 42.02187312L284.53591457 445.0228531c-41.87234182-28.57137237-99.18650056-17.75407688-127.75787292 24.11826493-28.45831275 41.70457543-17.84525456 98.71967234 23.61131815 127.4113988l124.2238345 97.00918293 11.99530778 21.29541058c42.25528762 105.53609963 142.86050947 173.66025936 256.66093564 173.66025936 152.39767284 0 276.38444598-123.98312551 276.38444598-276.61786047L847.6042139 453.34917934zM573.26579008 852.04273311c-99.15732413 0-186.77157972-59.57535956-223.20974461-151.77401881-0.30270948-0.77318532-0.66377181-1.52084032-1.06860031-2.24661261l-14.38415798-25.54063308c-1.18165993-2.09708207-2.76814836-3.93886695-4.66463923-5.4195887l-127.53539978-99.59497593c-0.30635633-0.24070822-0.62000716-0.47047586-0.94459857-0.68930137-25.25980708-17.23983638-31.78811388-51.81433371-14.55192436-77.07778765 17.23983638-25.26345394 51.81433371-31.78446625 76.92825635-14.65404339l101.45134902 70.69536452c5.60194407 3.90604288 12.92167128 4.35098917 18.96126714 1.14883588 6.03594824-3.19850567 9.78151923-9.50069246 9.69763605-16.3353556L393.00063446 453.2543548 392.52286487 263.8349816c0-31.89752663 25.94910846-57.84663509 57.84663509-57.84663509 29.24608552 0 53.43364542 21.83882827 57.25945197 50.01631348-0.21517866 2.60038121-0.35376861 5.22264591-0.3537686 7.87773387l0.47047586 188.00065193-0.00364687 1.37495665c0 0.02552957 0.00729449 0.04741227 0.0072945 0.07294183l0 0.02188271c0 0.13858995 0.03647092 0.26623855 0.04011779 0.40482774 0.02917642 1.10871809 0.12035411 2.20284796 0.33553276 3.25685929 0.02552957 0.12400175 0.08023634 0.2334145 0.10941275 0.35741546 0.24070822 1.05401133 0.54341768 2.08249308 0.95553992 3.05991573 0.04741227 0.11306039 0.12035411 0.20788492 0.17141402 0.31729768 0.43400494 0.96648128 0.92271586 1.90378536 1.51354581 2.77544208 0.0765887 0.11306039 0.17870773 0.2042373 0.25894408 0.31365083 0.59812446 0.84247953 1.24001356 1.64848892 1.9657866 2.37790884 0.12035411 0.12035411 0.27353227 0.21153179 0.39753403 0.32823904 0.72212542 0.68200765 1.47342804 1.33483809 2.2976725 1.88919714 0.18964909 0.13129546 0.41212223 0.21153179 0.60906582 0.3318859 0.7987149 0.49600541 1.60472351 0.97377577 2.47638024 1.34213258 0.34282725 0.14588367 0.72212542 0.21153179 1.07589403 0.33553276 0.76589083 0.26988542 1.52448717 0.55800591 2.33414342 0.72212543 0.54706455 0.11306039 1.1306008 0.11306039 1.6959012 0.17506088 0.64553673 0.06929498 1.27648447 0.19694357 1.94025627 0.20059044 0.01458822 0 0.03282406 0 0.04741228 0 0 0 0 0 0 0s0 0 0 0c0.01458822 0 0.03282406 0 0.04741227 0 0.66377181 0 1.29472032-0.13129546 1.94025627-0.20059044 0.5653004-0.06200048 1.14883586-0.06200048 1.69590119-0.17506088 0.80965625-0.16776638 1.5682526-0.45588764 2.33414343-0.72212543 0.35376861-0.12400175 0.73306678-0.18964909 1.07589402-0.33553276 0.87165673-0.36835682 1.68131221-0.84977403 2.47638026-1.34213258 0.19694357-0.12035411 0.41941672-0.2042373 0.6090658-0.3318859 0.82424446-0.55800591 1.5755471-1.21083713 2.2976725-1.88919714 0.12400175-0.11670725 0.27353227-0.20788492 0.39753403-0.32823904 0.72941992-0.72577306 1.36766214-1.53542853 1.96578661-2.37790884 0.08023634-0.11306039 0.1823546-0.20059043 0.25894407-0.31365083 0.5871831-0.86800987 1.07954089-1.80531395 1.51354582-2.77544208 0.04741227-0.10941276 0.12400175-0.2042373 0.17141401-0.31729768 0.41576909-0.97377577 0.7148317-2.00590439 0.95553993-3.05991573 0.02917642-0.12400175 0.08388319-0.2334145 0.10941275-0.35741546 0.21882628-1.05036447 0.31000319-2.14449434 0.33553277-3.25685929 0.00364687-0.13858995 0.04011777-0.26623855 0.04011777-0.40482774l0-0.02188271c0-0.02552957 0.00729449-0.04741227 0.0072945-0.07294183l-0.00364687-1.37495665 0.47047586-188.04441733c0-2.63685213-0.13858995-5.23723411-0.35012176-7.81938027 3.83674791-28.20301554 28.01701332-50.02725483 57.25215827-50.02725482 31.89752663 0 57.84663509 25.94910846 57.84663508 57.80286967l-0.4741227 189.46678548c-0.02552957 10.07328735 8.11844209 18.2573768 18.18808181 18.28290636 0.01823585 0 0.03282406 0 0.04741227 0 0.16411952 0 0.31365083-0.04376541 0.47412272-0.04741227 0.16047266 0.00364687 0.31365083 0.04741227 0.47412271 0.04741227 0.01458822 0 0.03282406 0 0.04741227 0 10.07328735-0.02552957 18.21361139-8.20961978 18.18808182-18.28290636L695.91407749 263.8349816c0-31.89752663 25.94910846-57.84663509 57.84663509-57.84663509s57.84663509 25.94910846 57.84663507 57.80286967l-0.47412271 189.74761225 2.04602218 158.59409375C813.17924788 744.41684592 705.55335991 852.04273311 573.26579008 852.04273311z" p-id="4627"></path><path d="M158.79488739 292.71271029c0.13129546 0.02917642 13.35202858 3.31521292 26.70041107 14.15074347 18.08596356 14.67227846 27.25841697 35.71968633 27.25841697 62.55139286 0 9.06304067 7.3489044 16.41194506 16.41194507 16.41194508 0.76224397 0 1.49166312-0.12400175 2.22473068-0.22612 0.73306678 0.10211903 1.46248671 0.22612 2.22473067 0.22612 9.06304067 0 16.41194506-7.3489044 16.41194507-16.41194508 0-62.7009234 51.85445149-76.18789508 53.95882727-76.70213633 8.12573659-1.88919714 13.54167844-9.56998744 12.59343224-17.85619591-0.94824543-8.28256162-7.96526393-14.54098299-16.30617917-14.54098301-39.09689973 0-50.08925609-52.00398278-50.55973117-54.33447857-1.69590119-8.56703525-9.78151923-14.2090971-18.33031863-13.00190762-8.55244703-1.18895442-16.64900642 4.46404879-18.32667178 13.04567225-0.1057659 0.53977084-11.07259192 54.29436082-50.55243743 54.29436081-8.34091524 0-15.3542861 6.25842138-16.30617919 14.54098299C145.25320895 283.14272285 150.67279766 290.82351315 158.79488739 292.71271029zM231.39403726 248.83446408c6.59030729 11.54306777 15.47828784 22.75060279 27.05782654 31.00034035-10.02952194 7.90691031-19.62868581 18.37408404-27.05782654 31.6969362-7.42914073-13.32285216-17.02830459-23.79002589-27.05782654-31.6969362C215.91574942 271.58506687 224.8037292 260.38117872 231.39403726 248.83446408z" p-id="4628"></path></svg>