<?xml version="1.0" standalone="no"?><!DOCTYPE svg PUBLIC "-//W3C//DTD SVG 1.1//EN" "http://www.w3.org/Graphics/SVG/1.1/DTD/svg11.dtd"><svg t="1642310889456" class="icon" viewBox="0 0 1024 1024" version="1.1" xmlns="http://www.w3.org/2000/svg" p-id="4179" xmlns:xlink="http://www.w3.org/1999/xlink" width="200" height="200"><defs><style type="text/css"></style></defs><path d="M539.20925176 567.05887021c-0.10702705 0.16099102-10.85743828 15.69166084-27.03207217 15.69166085-15.6646793 0-25.53908467-14.27062412-26.25409951-15.34359727-8.07832266-12.67150869-24.83306279-16.50470977-37.63858096-8.56938955-12.87656982 8.00637187-16.83568565 24.93199599-8.8374085 37.80856582 9.46338398 15.22667636 35.42248388 41.00769668 72.73098809 41.00769668 37.11153867 0 63.39261973-25.57506006 73.07005869-40.68571465 8.09631036-12.64452714 4.42320117-29.28324638-8.1053042-37.5495416C564.59633925 551.12527286 547.63563886 554.65537959 539.20925176 567.05887021z" p-id="4180"></path><path d="M811.12549326 736.28093779c-0.54323174-0.4056249-1.1431248-0.66644825-1.70524423-1.02620391l-65.73553155-65.74362539c-10.72342969-10.72342969-28.09515146-10.72342969-38.81858115 0-10.72342969 10.71443584-10.72342969 28.09515146 0 38.81858115l52.10347412 52.10976974c-54.5417209 59.09803154-138.42424864 90.26819825-244.56848291 90.26819823-106.47521016 0-190.55110605-31.36263574-245.07843662-90.81322821l51.55934238-51.56563887c10.72342969-10.72342969 10.72342969-28.10414531 0-38.81858115-10.72342969-10.72342969-28.11313916-10.72342969-38.81858116 0l-69.32589696 69.33489081c-0.18797256 0.18797256-0.31298818 0.4128205-0.49466426 0.60528955-0.70512188 0.7446955-1.31221055 1.5424541-1.91929834 2.34920743-0.4973625 0.65835352-1.01001533 1.30051846-1.44082354 1.99125-0.49916162 0.80405508-0.89939004 1.64408555-1.3095123 2.48771338-0.37684424 0.77347529-0.76987793 1.53346026-1.07027403 2.33301797-0.31208818 0.83373487-0.52434492 1.68545742-0.75368935 2.54257646-0.22754531 0.84812519-0.47218008 1.68545742-0.61698164 2.54887207-0.14660068 0.87330762-0.18977168 1.75021347-0.25272862 2.63431407-0.06025957 0.86431377-0.14210332 1.71873457-0.12051826 2.58394833 0.02068594 0.8966918 0.1474998 1.78079238 0.25632598 2.67478682 0.10522881 0.85801817 0.18977168 1.7088416 0.37594512 2.5560668 0.18887167 0.85981729 0.47847568 1.69355215 0.75278935 2.53987821 0.27971016 0.86431377 0.54503086 1.72143281 0.91198125 2.55966417 0.34356709 0.78246914 0.78157002 1.52716465 1.20338438 2.28535049 0.46768271 0.84182959 0.92906982 1.67646357 1.4929875 2.47512216 0.16189013 0.23024355 0.25992334 0.48567041 0.4299082 0.71231748 64.19667481 85.6255456 169.39205244 130.88645859 304.21963916 130.8864586s240.02296435-45.26091299 304.21963916-130.89545332C825.71809941 762.58000654 823.25107198 745.37826963 811.12549326 736.28093779z" p-id="4181"></path><path d="M813.86143789 290.6564706c-8.03335342-12.8504874-24.96707227-16.76373398-37.82655352-8.71239287-12.85858213 8.04234727-16.75474013 24.97606612-8.71239286 37.82655352 40.38172119 64.54563838 61.73054648 143.21889756 61.73054648 227.51244668 0 34.92242227-3.75315557 67.59277207-11.17042647 97.09906641-3.69019776 14.69963408 5.2362501 29.61422138 19.94487715 33.31341386 2.24307949 0.56301856 4.49515195 0.83103662 6.70225605 0.83103662 12.28746885 0 23.47498388-8.31935918 26.61205694-20.77681289 8.49833789-33.87643154 12.81451201-71.0419333 12.81451201-110.46760312C883.95631367 452.67712051 859.72134482 363.93248955 813.86143789 290.6564706z" p-id="4182"></path><path d="M333.80831357 233.5640794c50.92707128-39.24759023 112.33563662-59.99652247 177.586396-59.99652247 66.09079073 0 128.15231309 21.25888682 179.48141191 61.47152227 5.03118896 3.94112813 10.99144776 5.84423789 16.91573115 5.84423789 8.14937432 0 16.20971016-3.61015224 21.6249381-10.51746943 9.35635606-11.93850527 7.25627988-29.19420615-4.67323155-38.54156924C663.65697676 143.9623294 589.88089708 118.66428125 511.39471045 118.66428125c-77.48516513 0-150.48327217 24.6990542-211.09677627 71.4169793-12.01045693 9.25742373-14.24454258 26.49513604-4.98621973 38.49659912C304.56913818 240.58741748 321.82483906 242.83949082 333.80831357 233.5640794z" p-id="4183"></path><path d="M206.95022334 644.37315137c-7.4172709-29.50719433-11.17042646-62.17754326-11.17042646-97.09007256 0-85.12548487 21.74185898-164.41482656 62.86557744-229.29054082 8.11429893-12.80551816 4.31617324-29.76621856-8.48934405-37.88861133-12.84149355-8.12329277-29.7752124-4.3071794-37.88861133 8.48934404-46.6999374 73.68704033-71.38999776 163.14578701-71.38999775 258.69070811 0 39.4166751 4.31617324 76.58217685 12.81451201 110.45860927 3.13617393 12.46554844 14.31559424 20.77681289 26.61205693 20.77681289 2.20710323 0 4.45917656-0.26801807 6.70225606-0.83103662C201.71307412 673.98737276 210.64042197 659.07368369 206.95022334 644.37315137z" p-id="4184"></path><path d="M370.59877021 338.41139346c-65.5907291 0-118.95694717 45.15388594-118.95694716 100.65615469S305.00804023 539.72280372 370.59877021 539.72280372 489.55571739 494.56891865 489.55571739 439.06664902 436.18949932 338.41139346 370.59877021 338.41139346zM370.59877021 484.81952803c-34.71646201 0-64.05367148-20.95489248-64.05367148-45.75287988s29.33720947-45.75287989 64.05367148-45.75287989 64.05367148 20.95489248 64.05367149 45.75287989S405.31523223 484.81952803 370.59877021 484.81952803z" p-id="4185"></path><path d="M654.26554356 338.41139346c-65.5907291 0-118.95694717 45.15388594-118.95694718 100.65615469S588.67481445 539.72280372 654.26554356 539.72280372s118.95694717-45.15388594 118.95694717-100.6561547S719.85627354 338.41139346 654.26554356 338.41139346zM654.26554356 484.81952803c-34.71646201 0-64.05367148-20.95489248-64.05367149-45.75287988s29.33720947-45.75287989 64.05367149-45.75287989 64.05367148 20.95489248 64.05367147 45.75287989S688.98290557 484.81952803 654.26554356 484.81952803z" p-id="4186"></path></svg>