<?xml version="1.0" standalone="no"?><!DOCTYPE svg PUBLIC "-//W3C//DTD SVG 1.1//EN" "http://www.w3.org/Graphics/SVG/1.1/DTD/svg11.dtd"><svg t="1642310880923" class="icon" viewBox="0 0 1024 1024" version="1.1" xmlns="http://www.w3.org/2000/svg" p-id="3757" xmlns:xlink="http://www.w3.org/1999/xlink" width="200" height="200"><defs><style type="text/css"></style></defs><path d="M332.89363408 426.07855479c-32.89339864 0-59.65385449 26.76045674-59.65385449 59.65385448s26.76045674 59.65385449 59.65385449 59.6538545c32.89249864 0 59.65295537-26.76045674 59.65295537-59.6538545S365.78703271 426.07855479 332.89363408 426.07855479zM332.89363408 510.21650938c-13.49984707 0-24.4841001-10.98335303-24.4841001-24.4841001 0-13.49984707 10.98335303-24.4841001 24.4841001-24.4841001 13.50074619 0 24.4832001 10.98335303 24.48320009 24.48410009C357.37683417 499.23225635 346.39438028 510.21650938 332.89363408 510.21650938z" p-id="3758"></path><path d="M550.15573028 290.33538857c45.19885518 0 81.969525-36.77066982 81.96952499-81.969525 0-45.19885518-36.77066982-81.969525-81.969525-81.969525-45.19795605 0-81.968625 36.77066982-81.96862499 81.969525C468.18620615 253.56471875 504.95777422 290.33538857 550.15573028 290.33538857zM550.15573028 161.56609385c25.80530362 0 46.79976972 20.99446612 46.79976972 46.79976972 0 25.80530362-20.99446612 46.79976972-46.79976972 46.79976973-25.80530362 0-46.7988706-20.99446612-46.79887061-46.79976973C503.35596055 182.56055997 524.34952666 161.56609385 550.15573028 161.56609385z" p-id="3759"></path><path d="M907.53023076 559.30882432c0-145.82623008-102.65639854-259.82483906-244.14576943-271.23270382-1.5181708-0.19516729-3.04533545-0.39213457-4.58239307-0.59449657-6.81378047-0.90118916-13.86050273-1.82216425-21.34612704-2.34381094-7.02333808-0.49466426-13.66353633 3.27557901-16.87346016 9.54163037l-22.97941963 44.88766611L502.8981708 339.56710948l-23.74390195-48.23519679c-2.96079258-6.00702715-9.06405469-9.84652383-15.76091426-9.84652383-19.23345967 0-37.37865762 0.98033555-54.49585166 2.93740841l-91.51745098-66.58905235c-4.43669151-3.22971065-10.12533487-4.19925322-15.38586826-2.62801846-5.25783516 1.57303388-9.47957256 5.50966465-11.41506035 10.64518242l-55.73341318 147.87683966c-0.12141738 0.32288115-0.21045762 0.64846055-0.31208818 0.97403993-21.52150839 28.14461807-38.94629414 63.8585042-54.1855626 110.39205411L132.36289385 494.18937529c-8.30496885 1.57033565-14.1222252 8.82661552-14.1222252 17.27818507L118.24066865 625.45267901c0 5.9000001 2.86455761 11.40606651 7.78422217 14.66275868l54.01467773 35.82091319c22.43079229 54.56240684 77.60658252 96.39754278 135.16755645 103.67630771l0 94.46205498c0 9.71071612 7.4667375 17.71708799 17.17835273 17.71708799L441.41135908 891.79180156c9.71161523 0 17.69820029-8.00637187 17.69820029-17.71708799l1e-8-30.85448027c27.88109648 8.62605176 50.30739141 13.64914599 89.67999726 13.649146 33.9474832 0 56.9206081-3.68660039 82.10353359-9.99312451l0 27.19845966c0 9.71071612 8.30766709 17.71708799 18.01928321 17.71708799l110.78418867 0c9.71161523 0 17.79623438-8.00637187 17.79623437-17.71708799l0-87.63928066c82.74389942-40.59937354 129.13984336-119.75740489 129.92950811-224.38346836C907.56350791 561.15887012 907.53023076 560.24239151 907.53023076 559.30882432zM315.35012832 259.85145693l45.74928165 33.28823057c-25.95370342 6.73103672-48.96819932 16.40757568-69.25844268 29.08807822L315.35012832 259.85145693zM872.19588711 559.30702607c0 47.03451065-9.94006055 87.9918416-29.61781875 121.73426455-20.25876445 34.73714795-50.39193428 60.976858-89.71147529 77.99152149-6.43513711 2.78541123-10.44911513 9.12701162-10.44911515 16.13865761l1e-8 81.54591153-75.54877822 0 0-32.51115703c0-5.4574998-2.71705781-10.60740791-7.04222578-13.93605175-4.32696622-3.32954297-10.13612783-4.46007568-15.41015156-3.06332315-34.94490732 9.25652373-56.60132432 14.49367295-95.45318263 14.49367295-42.26594326 0-60.91839756-6.00342979-98.10458525-17.96442012l-4.01757627-1.29961846c-5.34687451-1.72233193-11.14614316-0.77977089-15.68626436 2.53268262-4.53922207 3.30885703-7.12137128 8.59007637-7.12137128 14.20856631l0 37.53874863-73.74999727 0 0-93.56356406c0-9.71071612-7.99198154-17.58487763-17.70449677-17.58487764-50.39373339 0-103.9524205-38.31582217-121.7792338-87.23095752-1.28882636-3.53460322-3.60295752-6.56464922-6.74092968-8.64134121l-50.74179697-33.69115723L153.31688721 526.03858145l43.91812353-8.33554864c6.39376523-1.20878086 11.44743838-5.84963437 13.37752969-12.0635209 20.72734717-66.74554688 45.0657457-109.40002646 78.91339658-138.30283037 28.74810849-24.54705703 66.26976943-40.01027344 113.76386807-46.75210224 2.44274414 0.18527432 4.8971795-0.12861299 7.2023168-0.94166192 13.24531933-1.60361279 27.22634033-2.56775888 41.99432783-2.87894795l23.69983183 48.08050137c2.96079258 6.00702715 9.0766459 9.79975547 15.77350547 9.79975547l116.3900874 0c6.59882636 0 12.64182891-3.68300303 15.65028897-9.5560207l22.41999931-43.74813867c2.61362812 0.31748467 5.21376503 0.66105176 7.77612744 0.99922236 1.7268293 0.22754531 3.44286563 0.45419238 5.14631075 0.67184472 0.27881104 0.03597539 0.56121943 0.06475605 0.84092959 0.08634112 60.25105019 4.76496914 114.65516338 31.36173662 153.17964404 74.89222295 37.50996797 42.38466328 58.41719297 98.6604082 59.00089747 158.72348583C872.24175635 557.55951084 872.19588711 558.42472373 872.19588711 559.30702607z" p-id="3760"></path></svg>