<?xml version="1.0" standalone="no"?><!DOCTYPE svg PUBLIC "-//W3C//DTD SVG 1.1//EN" "http://www.w3.org/Graphics/SVG/1.1/DTD/svg11.dtd"><svg t="1642235768775" class="icon" viewBox="0 0 1024 1024" version="1.1" xmlns="http://www.w3.org/2000/svg" p-id="4752" xmlns:xlink="http://www.w3.org/1999/xlink" width="200" height="200"><defs><style type="text/css"></style></defs><path d="M653.22924805 142.859375H370.77075195C296.2010498 142.859375 235.14453125 203.91589355 235.14453125 278.4855957v467.0288086c0 74.56970215 61.05651856 135.6262207 135.6262207 135.6262207h282.4584961c74.56970215 0 135.6262207-61.05651856 135.6262207-135.6262207V278.4855957C788.85546875 203.91589355 727.7989502 142.859375 653.22924805 142.859375z m99.86572265 602.6550293c0 55.04150391-44.82421875 99.86572266-99.86572265 99.86572265H370.77075195c-55.04150391 0-99.86572266-44.82421875-99.86572265-99.86572265v-12.0300293h482.1899414v12.0300293zM270.9050293 696.5703125V278.4855957c0-55.04150391 44.82421875-99.86572266 99.86572265-99.86572265h282.4584961c55.04150391 0 99.86572266 44.82421875 99.86572265 99.86572265V696.5703125H270.9050293z" p-id="4753"></path><path d="M587.47607422 216.6875H436.52392578c-9.31091309 0-16.80908203 7.58056641-16.80908203 16.80908203v3.21350098c0 9.31091309 7.58056641 16.80908203 16.80908203 16.80908202h150.86975098c9.31091309 0 16.80908203-7.58056641 16.80908202-16.80908202V233.49658203c0.08239747-9.22851563-7.49816895-16.80908203-16.72668456-16.80908203z" p-id="4754"></path><path d="M512 788.85546875m-36.9140625 0a36.9140625 36.9140625 0 1 0 73.828125 0 36.9140625 36.9140625 0 1 0-73.828125 0Z" p-id="4755"></path></svg>