<?xml version="1.0" standalone="no"?><!DOCTYPE svg PUBLIC "-//W3C//DTD SVG 1.1//EN" "http://www.w3.org/Graphics/SVG/1.1/DTD/svg11.dtd"><svg t="1641886985134" class="icon" viewBox="0 0 1024 1024" version="1.1" xmlns="http://www.w3.org/2000/svg" p-id="5362" xmlns:xlink="http://www.w3.org/1999/xlink" width="200" height="200"><defs><style type="text/css"></style></defs><path d="M589.31605136 739.83167637l-39.67542637 2.60795461 2.60795462-39.67542636L856.53551112 398.4772731l37.04829539 37.08664728-304.26775515 304.26775599zM725.40909074 795.48082363A42.55184674 42.55184674 0 0 1 682.89559674 837.99431848H288.49999999A42.55184674 42.55184674 0 0 1 246.00568151 795.48082363V228.51917637A42.5710231 42.5710231 0 0 1 288.49999999 186.00568152h394.39559674A42.5710231 42.5710231 0 0 1 725.40909074 228.51917637v219.72017037l-229.15482962 229.15482963-7.03764211 107.27130651a17.31605137 17.31605137 0 0 0 17.10511386 18.23650599c0.34517038 0 0.70951712 0 1.09304022-0.03835274l107.27130652-7.05681765L725.40909074 685.10298288v110.37784075z m154.78977312-454.66619265a34.19105137 34.19105137 0 0 0-24.16193235-10.16335273c-8.09232962 0-16.03125 2.97230137-22.03338015 8.99360788L782.93749999 390.7109375V228.51917637A100.13778424 100.13778424 0 0 0 682.89559674 128.4772731H288.49999999A100.13778424 100.13778424 0 0 0 188.47727309 228.51917637v566.96164726A100.13778424 100.13778424 0 0 0 288.49999999 895.5227269h394.39559674A100.13778424 100.13778424 0 0 0 782.93749999 795.48082363v-164.7421875h-3.14488613l172.66193151-172.66193151c12.42613613-12.4453125 11.90838098-33.1171875-1.18892038-46.21448886l-71.06676113-71.04758478zM332.29829537 339.4147731h306.81818152a28.76420462 28.76420462 0 1 0 0-57.52840923h-306.81818152a28.76420462 28.76420462 0 1 0 0 57.52840923m0 134.2329538h191.76136386a28.76420462 28.76420462 0 1 0 0-57.52840842h-191.76136386a28.76420462 28.76420462 0 1 0 0 57.52840842m115.05681849 76.7045462h-115.05681849a28.76420462 28.76420462 0 1 0 0 57.52840842h115.05681849a28.76420462 28.76420462 0 1 0 0-57.52840842" fill="#797979" p-id="5363"></path></svg>