<?xml version="1.0" standalone="no"?><!DOCTYPE svg PUBLIC "-//W3C//DTD SVG 1.1//EN" "http://www.w3.org/Graphics/SVG/1.1/DTD/svg11.dtd"><svg t="1641887005505" class="icon" viewBox="0 0 1024 1024" version="1.1" xmlns="http://www.w3.org/2000/svg" p-id="6032" xmlns:xlink="http://www.w3.org/1999/xlink" width="200" height="200"><defs><style type="text/css"></style></defs><path d="M664.89029947 281.4453125h146.14453125v41.40527344H664.89029947zM664.89029947 337.18554687h146.14453125v41.40527344H664.89029947z" p-id="6033"></path><path d="M738.19108072 315.29199219l-71.7890625-69.046875 28.70507813-29.83886719 42.62695312 41.00097656 41.08007813-40.77246093 29.1796875 29.38183593z" p-id="6034"></path><path d="M717.26432291 286.34960937h41.40527344v134.14746094H717.26432291z" p-id="6035"></path><path d="M737.9625651 511.63085937c-108.48339844 0-196.75195313-88.25976563-196.75195313-196.75195312S629.47916666 118.13574219 737.9625651 118.13574219 934.70572916 206.39550781 934.70572916 314.87890625 846.44596354 511.63085937 737.9625651 511.63085937z m0-352.08984374c-85.65820313 0-155.33789063 69.6796875-155.33789063 155.33789062s69.68847656 155.33789063 155.33789063 155.33789063 155.33789063-69.68847656 155.33789062-155.33789063-69.6796875-155.33789063-155.33789062-155.33789063z" p-id="6036"></path><path d="M728.24186197 889.14746094H244.06119791c-34.25097656 0-62.11230469-27.86132813-62.11230469-62.11230469V276.26855469c0-34.25097656 27.86132813-62.11230469 62.11230469-62.11230469h371.08300781l-15.42480469 30.13769531c-11.34667969 22.17480469-17.10351563 45.92285156-17.10351562 70.58496094 0 85.65820313 69.6796875 155.33789063 155.33789062 155.33789063 8.97363281 0 18.13183594-0.87011719 27.984375-2.67187501l24.41601563-4.44726562v363.91992188c0.00878906 34.26855469-27.85253906 62.12988281-62.11230469 62.12988281zM244.06119791 255.56152344c-11.41699219 0-20.70703125 9.28125-20.70703125 20.70703125v550.76660156c0 11.41699219 9.28125 20.70703125 20.70703125 20.70703125h484.18066406c11.41699219 0 20.70703125-9.29003906 20.70703125-20.70703125V511.296875c-113.38769531 6.71484375-207.73828125-84.27832031-207.73828125-196.41796875 0-20.35546875 3.08496094-40.20117188 9.19335938-59.31738281H244.06119791z" p-id="6037"></path><path d="M316.96647135 394.00683594h176.80957031v41.40527343H316.96647135zM316.96647135 530.94921875h339.890625v41.40527344H316.96647135zM316.96647135 667.8828125h339.890625v41.40527344H316.96647135z" p-id="6038"></path></svg>