<?xml version="1.0" standalone="no"?><!DOCTYPE svg PUBLIC "-//W3C//DTD SVG 1.1//EN" "http://www.w3.org/Graphics/SVG/1.1/DTD/svg11.dtd"><svg t="1640500131525" class="icon" viewBox="0 0 1024 1024" version="1.1" xmlns="http://www.w3.org/2000/svg" p-id="3814" xmlns:xlink="http://www.w3.org/1999/xlink" width="200" height="200"><defs><style type="text/css"></style></defs><path d="M637.41 249.68h166.28v47.11H637.41zM637.41 313.1h166.28v47.11H637.41z" p-id="3815"></path><path d="M720.81 288.19l-81.68-78.56 32.66-33.95 48.5 46.65 46.74-46.39 33.2 33.43z" p-id="3816"></path><path d="M697 255.26h47.11v152.63H697z" p-id="3817"></path><path d="M720.55 511.58c-123.43 0-223.86-100.42-223.86-223.86S597.12 63.87 720.55 63.87 944.4 164.29 944.4 287.72 843.98 511.58 720.55 511.58z m0-400.6c-97.46 0-176.74 79.28-176.74 176.74s79.29 176.74 176.74 176.74 176.74-79.29 176.74-176.74-79.28-176.74-176.74-176.74z" p-id="3818"></path><path d="M709.49 941.11H158.6c-38.97 0-70.67-31.7-70.67-70.67V243.79c0-38.97 31.7-70.67 70.67-70.67h422.21l-17.55 34.29c-12.91 25.23-19.46 52.25-19.46 80.31 0 97.46 79.28 176.74 176.74 176.74 10.21 0 20.63-0.99 31.84-3.04l27.78-5.06v414.06c0.01 38.99-31.69 70.69-70.67 70.69zM158.6 220.23c-12.99 0-23.56 10.56-23.56 23.56v626.65c0 12.99 10.56 23.56 23.56 23.56h550.89c12.99 0 23.56-10.57 23.56-23.56V511.2c-129.01 7.64-236.36-95.89-236.36-223.48 0-23.16 3.51-45.74 10.46-67.49H158.6z" p-id="3819"></path><path d="M241.55 377.75h201.17v47.11H241.55zM241.55 533.56h386.72v47.11H241.55zM241.55 689.36h386.72v47.11H241.55z" p-id="3820"></path></svg>