<?xml version="1.0" standalone="no"?><!DOCTYPE svg PUBLIC "-//W3C//DTD SVG 1.1//EN" "http://www.w3.org/Graphics/SVG/1.1/DTD/svg11.dtd"><svg t="1641886957368" class="icon" viewBox="0 0 1024 1024" version="1.1" xmlns="http://www.w3.org/2000/svg" p-id="4038" xmlns:xlink="http://www.w3.org/1999/xlink" width="200" height="200"><defs><style type="text/css"></style></defs><path d="M815.45996094 281.68261719L551.70898438 127.30273437a78.81152344 78.81152344 0 0 0-79.62890626 1e-8L208.51367187 281.68261719A79.62890625 79.62890625 0 0 0 169.2265625 350.421875v327.66503906c0 28.66113281 15.34570312 55.10742188 40.15722656 69.21386719l263.671875 149.89746094a78.70605469 78.70605469 0 0 0 77.86230469 0l263.671875-149.89746094A79.57617188 79.57617188 0 0 0 854.7734375 678.08691406V350.421875a79.62890625 79.62890625 0 0 0-39.31347656-68.73925781zM802.0390625 678.08691406c0 9.54492188-5.11523438 18.37792969-13.39453125 23.07128907l-263.671875 149.89746093a26.18261719 26.18261719 0 0 1-25.9453125 0l-263.671875-149.89746093A26.52539063 26.52539063 0 0 1 221.9609375 678.08691406V350.421875c0-9.43945313 4.98339844-18.16699219 13.10449219-22.91308594l263.56640625-154.37988281a26.23535156 26.23535156 0 0 1 26.52539062 0l263.77734375 154.40625c8.12109375 4.71972656 13.10449219 13.44726563 13.10449219 22.88671875v327.66503906z" p-id="4039"></path><path d="M512 353.796875a158.203125 158.203125 0 1 0 0 316.40625 158.203125 158.203125 0 0 0 0-316.40625z m0 263.671875a105.46875 105.46875 0 1 1 0-210.9375 105.46875 105.46875 0 0 1 0 210.9375z" p-id="4040"></path></svg>