<?xml version="1.0" standalone="no"?><!DOCTYPE svg PUBLIC "-//W3C//DTD SVG 1.1//EN" "http://www.w3.org/Graphics/SVG/1.1/DTD/svg11.dtd"><svg t="1641886975639" class="icon" viewBox="0 0 1024 1024" version="1.1" xmlns="http://www.w3.org/2000/svg" p-id="4831" xmlns:xlink="http://www.w3.org/1999/xlink" width="200" height="200"><defs><style type="text/css"></style></defs><path d="M680.75 342.19999971v-51.14999971C680.75 195.72499971 605.50624971 118.25 512.41249971 118.25s-168.33750029 77.47499971-168.33749942 172.8v51.14999971h37.49999942v-51.14999971c0-74.85000029 58.68749971-135.29999971 130.8375-135.29999971C584.54375029 155.75000029 643.24999971 216.19999971 643.24999971 291.05v51.14999971h37.50000029z" fill="#3D3D3D" p-id="4832"></path><path d="M190.53125 381.91249971A22.01249971 22.01249971 0 0 1 212.00000029 361.99999971h599.99999942c10.81874971 0 20.7 9.20625029 21.46875029 19.9125L865.62500029 832.24999971c0.71250029 9.7875-6.24375 17.25000029-16.06875029 17.25000029H174.44375a15.69375 15.69375 0 0 1-16.06875029-17.25000029l32.15625029-450.3375zM153.125 379.25L120.96874971 829.5875A53.19375029 53.19375029 0 0 0 174.44375 887.00000029h675.1125a53.06249971 53.06249971 0 0 0 53.47500029-57.41250029L870.875 379.25C868.69999971 348.93125 842.50625029 324.50000029 811.99999971 324.50000029H212.00000029c-30.61874971 0-56.7 24.28125029-58.87500029 54.74999971z" fill="#3D3D3D" p-id="4833"></path><path d="M643.24999971 474.49999971m-37.49999942 0a37.50000029 37.50000029 0 1 0 74.99999971 0 37.50000029 37.50000029 0 1 0-74.99999971 0Z" fill="#3D3D3D" p-id="4834"></path><path d="M380.75000029 474.49999971m-37.50000029 0a37.50000029 37.50000029 0 1 0 74.99999971 0 37.50000029 37.50000029 0 1 0-74.99999971 0Z" fill="#3D3D3D" p-id="4835"></path></svg>