<?xml version="1.0" standalone="no"?><!DOCTYPE svg PUBLIC "-//W3C//DTD SVG 1.1//EN" "http://www.w3.org/Graphics/SVG/1.1/DTD/svg11.dtd"><svg t="1642236450815" class="icon" viewBox="0 0 1024 1024" version="1.1" xmlns="http://www.w3.org/2000/svg" p-id="6341" xmlns:xlink="http://www.w3.org/1999/xlink" width="200" height="200"><defs><style type="text/css"></style></defs><path d="M541.67050171 141.20771789a81.80708313 81.80708313 0 0 0-81.57348633 81.57348633 81.78483581 81.78483581 0 0 0 81.57348633 81.57348633 81.78483581 81.78483581 0 0 0 81.57348633-81.57348633 81.79225159 81.79225159 0 0 0-81.57348633-81.57348633z m0 29.66308594a51.68792724 51.68792724 0 0 1 51.91040039 51.91040039 51.65826416 51.65826416 0 0 1-51.91040039 51.91040039 51.66567993 51.66567993 0 0 1-36.77851868-15.12817383A51.63230896 51.63230896 0 0 1 489.76010132 222.78491211a51.71017456 51.71017456 0 0 1 51.91040039-51.91040039z m-140.44729614 118.65234375a39.9190979 39.9190979 0 0 0-14.83154297 2.78833008 127.18048096 127.18048096 0 0 0-18.05369568 6.94116211 192.57275391 192.57275391 0 0 0-43.12271119 28.74353028C295.44093323 354.18496704 267.27954102 395.92834473 267.27954102 452.66270447a73.76097107 73.76097107 0 0 0 74.15771484 74.15771485 99.61976623 99.61976623 0 0 0 35.22491455-6.03273011 114.74794006 114.74794006 0 0 0 10.20410156 53.30085754 16.37402344 16.37402344 0 0 0-0.48202515 1.85394288l-28.72128296 100.11291503-0.47460937 1.39416505c-0.69708252 1.72045898-32.12882995 77.12402344-51.91040039 117.28042602-8.36128235 16.98953247-12.9776001 32.1177063-12.97760009 46.34857177s6.82621765 28.87701416 19.46269226 35.69581604a42.94102478 42.94102478 0 0 0 42.17720031-0.47090148c12.91456604-7.83105469 23.1965332-21.09786987 35.22491455-39.85606385a513.49026489 513.49026489 0 0 0 42.64068604-82.50787353c9.32904052-22.64405823 15.42480469-40.1786499 17.60133361-44.4946289a14.08996583 14.08996583 0 0 0 0.47460938-1.38304139l21.31292724-51.91040039 47.28666687 39.85235595-12.0654602 121.90045167v0.45236205c-1.56472778 19.0881958-1.56472778 32.87040711 4.64968872 44.97665406s19.73707581 18.09448242 31.97309875 18.97695923a37.82043458 37.82043458 0 0 0 26.41868592-8.33532715 53.49737549 53.49737549 0 0 0 14.36805725-18.99549866 122.81629943 122.81629943 0 0 0 8.79510498-30.59376526V823.46240234c0-0.30775451 3.73384094-30.10432434 7.89038086-62.57798767s9.03240967-68.22509766 10.1966858-75.07356262c2.96630859-17.69032287 6.22554016-43.4564209-12.04692078-62.11450195L515.69676208 541.66308594q10.91972351-49.35195922 21.78753662-98.71504212l54.2241211 38.00212097c12.55860901 9.01016235 29.47027588 14.23086547 46.34857178 6.94857789a14.19007873 14.19007873 0 0 0 1.85394287-0.93438721c0.58955383-0.35224914 20.80123901-12.52894592 42.64068604-25.9552002V867.95703125a14.83154297 14.83154297 0 0 0 14.83154297 14.83154297 14.83154297 14.83154297 0 0 0 14.83154296-14.83154297V442.47343445c2.37304688-1.4831543 7.12284851-4.44946289 8.8173523-5.56182862a128.48565674 128.48565674 0 0 0 26.87104797-22.24731445 42.38113403 42.38113403 0 0 0 9.26971435-15.74739075 29.94488526 29.94488526 0 0 0-1.85394286-21.32775878c-0.03707886-0.08528138 0.05932617-0.37078857 0-0.44123841h-0.45236206a36.37065125 36.37065125 0 0 0-33.8344574-18.53942871 56.28199768 56.28199768 0 0 0-8.8173523 1.85394287v-36.61907958a14.79075623 14.79075623 0 0 0-4.82025147-11.49444581 14.83154297 14.83154297 0 0 0-11.86523437-3.78204346 14.83154297 14.83154297 0 0 0-12.97760009 15.27648927v49.13690185l-51.91040039 24.56845093-87.59138489-68.13240052a14.90940857 14.90940857 0 0 0-6.49250794-3.25923156 77.49481201 77.49481201 0 0 0-8.79510498-3.70788575 27.2010498 27.2010498 0 0 0-0.93438721-0.45606995l-56.55638122-15.7585144c-0.14831543-0.04820252-0.29663086 0.03707886-0.44494629 0a39.81898498 39.81898498 0 0 0-17.15638733-1.39787292 34.24232482 34.24232482 0 0 0-12.9776001 5.10205078 52.65197754 52.65197754 0 0 0-5.10205078-6.01789856 53.13400268 53.13400268 0 0 0-33.37097168-14.37176514z m-0.91584778 29.66308594a26.03677368 26.03677368 0 0 1 14.36064148 6.49250794 18.67662049 18.67662049 0 0 1 6.48880005 12.5066986v0.45606995l-40.78674317 145.9980011a26.64115906 26.64115906 0 0 1-5.10205078 4.186203c-5.6434021 3.81170654-15.6806488 8.33532715-33.82333374 8.33532715-24.4720459 0-44.49462891-16.25537109-44.4946289-44.49462891 0-47.09014893 22.51428223-80.23493958 47.73902893-102.42663574a163.64012146 163.64012146 0 0 1 36.62278747-24.10125732 101.87416076 101.87416076 0 0 1 13.89715576-5.56182862c3.55586242-1.11236573 6.48138427-1.33854675 5.10205078-1.39045715z m57.00132752 14.83154297a8.66903687 8.66903687 0 0 1 4.17507934 0.45977783h0.46348572l55.61828613 15.7585144 0.9343872 0.47090149a30.61972046 30.61972046 0 0 1 6.93374635 3.70788575c0.02966309 0.05932617 0.93438721 1.52394104-0.45236206 7.86442566-3.41867065 15.61390686-40.32325745 180.77426148-40.32325745 180.77426147a14.83154297 14.83154297 0 0 0 4.17507935 13.43367004l88.51835631 88.06599427c6.57037354 6.70014953 6.81509399 20.32662964 4.17507935 36.1481781-1.68338013 9.93713379-6.04756164 43.51574707-10.20410156 76.01165771q-4.03417969 31.51702881-8.34274292 63.03405762a98.03649903 98.03649903 0 0 1-6.02902222 22.7033844 24.86878967 24.86878967 0 0 1-6.01789856 8.35386657 6.24778747 6.24778747 0 0 1-5.56182861 1.85394288c-7.24891662-0.55247497-6.60003662-0.30404663-7.87184143-2.79945374s-3.15170288-12.20265198-1.85394288-28.72128295c0.01853943-0.27067566-0.01853943-0.19281006 0-0.4709015l13.4447937-129.3013916a14.88716125 14.88716125 0 0 0-5.10205078-12.52153015l-114.01748657-95.94895935c0.46348572 0.4931488 0.25584412 0.47460938-0.47460937-0.45236206a14.19749451 14.19749451 0 0 0-0.91584778-0.47460937 14.40142823 14.40142823 0 0 0-0.46348571-1.38674927c-24.86878967-22.75158691-25.58441162-54.80255127-19.47010804-86.21205139a13.31130982 13.31130982 0 0 0 0.4709015-0.91584778 3.60035706 3.60035706 0 0 1 0-0.46348572 3.7709198 3.7709198 0 0 0 0-0.47460938 14.19749451 14.19749451 0 0 0 0.45236205-2.31001281l40.3343811-143.2170868v-0.9343872a13.25569153 13.25569153 0 0 0 0.44123841-1.85394288c0.04820252-0.24101257 0.45236206-0.2335968 0.48202514-0.47090148q0.04449463-0.92326355 0-1.85394287a12.84040833 12.84040833 0 0 1 4.16766358-6.4776764 6.05868531 6.05868531 0 0 1 2.32484436-1.39416503z m95.01828002 40.31954956l67.66520691 52.37388611a14.83154297 14.83154297 0 0 0 15.7585144 1.39787292l68.13240052-31.99163818a85.65216065 85.65216065 0 0 1 20.39337158-7.86071778c3.15170288-0.37078857 2.96630859-0.14460755 4.15653991 2.29518128a13.51524353 13.51524353 0 0 1-2.77720641 4.64598083 109.86836243 109.86836243 0 0 1-20.85314942 16.68548585c-15.72143555 10.26342773-76.09693909 47.03453064-78.7962799 48.6548767-0.05932617 0.02966309-0.37078857-0.03337097-0.44123841 0a25.10238648 25.10238648 0 0 1-16.70402527-3.70788574l-64.40597534-45.41418457c2.96630859-13.57456971 6.75947571-32.0398407 7.86071777-37.07885742z m-142.75360107 229.88891601l37.53492736 31.51702882-24.10125732 60.25314331-0.45236206 0.92697143c-5.12059021 10.31163025-9.39578247 24.77238464-18.08335876 45.88137818a486.78607177 486.78607177 0 0 1-40.32325745 77.86560058c-11.02354432 17.21942138-20.02258301 26.79318237-25.48059082 30.13027954s-6.4220581 3.07383728-12.9776001-0.47460937c-3.12203979-1.6907959-3.70788575-2.36933899-3.70788574-9.26971436a82.46708679 82.46708679 0 0 1 9.7517395-33.37097168c21.05708313-42.75933838 53.29714966-120.05021667 53.29714966-120.05021667a13.01838684 13.01838684 0 0 0 0.45236206-1.85394288z m0 0" p-id="6342"></path></svg>