<?xml version="1.0" standalone="no"?><!DOCTYPE svg PUBLIC "-//W3C//DTD SVG 1.1//EN" "http://www.w3.org/Graphics/SVG/1.1/DTD/svg11.dtd"><svg t="1642310971229" class="icon" viewBox="0 0 1024 1024" version="1.1" xmlns="http://www.w3.org/2000/svg" p-id="2314" xmlns:xlink="http://www.w3.org/1999/xlink" width="200" height="200"><defs><style type="text/css"></style></defs><path d="M294.39999969 704c-38.4 0-73.60000031-16.00000031-99.19999969-44.80000031s-35.20000031-67.2-28.8-105.6L227.19999969 220.80000031c3.19999969-22.39999969 19.2-41.59999969 41.60000062-51.20000062 19.2-9.6 44.80000031-6.40000031 63.99999938 6.40000031l19.2 12.79999969 41.60000062-41.59999969c19.2-19.2 44.80000031-22.39999969 67.2-12.79999969 22.39999969 9.6 38.4 31.99999969 38.4 57.6v31.99999969c35.20000031 6.40000031 64.00000031 38.4 63.99999938 76.8s-25.60000031 67.2-60.79999969 76.8c12.79999969 31.99999969 51.19999969 99.19999969 172.8 99.19999969 92.80000031 0 175.99999969 79.99999969 175.99999969 144 0 70.39999969-105.6 79.99999969-111.99999938 80.00000062L294.39999969 704z m0-508.8c-6.40000031 0-9.6 0-15.99999938 3.19999969-9.6 6.40000031-19.2 16.00000031-19.2 28.8L198.39999969 560c-6.40000031 28.8 3.19999969 57.6 22.40000062 76.8S265.59999969 672.00000031 294.39999969 672.00000031H735.99999969s79.99999969-6.40000031 80.00000062-48c0-48-70.39999969-112.00000031-144-112.00000031-179.20000031 0-208.00000031-140.80000031-208.00000031-140.80000031 0-3.19999969 0-9.6 3.19999969-12.79999969 3.19999969-3.19999969 6.40000031-6.40000031 12.80000062-6.40000031 25.60000031 0 48-22.39999969 48-48S505.59999969 255.99999969 480.00000031 255.99999969c-9.6 0-16.00000031-6.40000031-16.00000031-15.99999938V188.79999969c0-12.79999969-6.40000031-22.39999969-19.2-28.8-12.79999969-3.19999969-22.39999969-3.19999969-31.99999969 6.40000031l-51.20000062 51.19999969c-3.19999969 6.40000031-12.79999969 6.40000031-19.2 3.20000062l-28.8-19.2c-6.40000031-3.19999969-12.79999969-6.40000031-19.2-6.40000031z" fill="#2D3545" p-id="2315"></path><path d="M495.99999969 320H351.99999969c-9.6 0-16.00000031-6.40000031-15.99999938-16.00000031s6.40000031-16.00000031 15.99999938-15.99999938h144c9.6 0 16.00000031 6.40000031 16.00000031 15.99999938s-6.40000031 16.00000031-16.00000031 16.00000031zM240.00000031 896c-54.40000031 0-96-41.59999969-96-96 0-6.40000031 0-12.79999969 3.19999969-19.2 0-6.40000031 9.6-12.79999969 16.00000031-12.79999969H320c6.40000031 0 12.79999969 6.40000031 16.00000031 12.79999969 0 6.40000031 3.19999969 12.79999969 3.19999969 19.2-3.19999969 51.19999969-44.80000031 96-99.19999969 96z m-64.00000031-96c0 35.20000031 28.8 64.00000031 64.00000031 64.00000031s64.00000031-28.8 63.99999938-64.00000031h-127.99999969z" fill="#2D3545" p-id="2316"></path><path d="M432.00000031 896c-54.40000031 0-96-41.59999969-96-96 0-6.40000031 0-12.79999969 3.19999969-19.2 0-6.40000031 9.6-12.79999969 16.00000031-12.79999969H512c6.40000031 0 12.79999969 6.40000031 16.00000031 12.79999969 0 6.40000031 3.19999969 12.79999969 3.19999969 19.2-3.19999969 51.19999969-44.80000031 96-99.19999969 96z m-64.00000031-96c0 35.20000031 28.8 64.00000031 64.00000031 64.00000031s64.00000031-28.8 63.99999938-64.00000031h-127.99999969z" fill="#2D3545" p-id="2317"></path><path d="M624.00000031 896c-54.40000031 0-96-41.59999969-96-96 0-6.40000031 0-12.79999969 3.19999969-19.2 0-6.40000031 9.6-12.79999969 16.00000031-12.79999969H704c6.40000031 0 12.79999969 6.40000031 16.00000031 12.79999969 0 6.40000031 3.19999969 12.79999969 3.19999969 19.2-3.19999969 51.19999969-44.80000031 96-99.19999969 96z m-64.00000031-96c0 35.20000031 28.8 64.00000031 64.00000031 64.00000031s64.00000031-28.8 63.99999938-64.00000031h-127.99999969z" fill="#2D3545" p-id="2318"></path><path d="M816.00000031 896c-54.40000031 0-96-41.59999969-96-96 0-6.40000031 0-12.79999969 3.19999969-19.2 0-6.40000031 9.6-12.79999969 16.00000031-12.79999969h63.99999938c9.6 0 12.79999969-9.6 16.00000031-9.6 0-3.19999969 3.19999969-12.79999969-6.40000031-19.2l-9.6-6.40000031c-6.40000031-3.19999969-6.40000031-9.6-6.39999938-16.00000031s6.40000031-9.6 12.79999969-12.79999969h6.40000031c54.40000031 0 96 41.59999969 96 96s-41.59999969 96-96 96z m-64.00000031-96c0 35.20000031 28.8 64.00000031 64.00000031 64.00000031s64.00000031-28.8 63.99999938-64.00000031c0-22.39999969-12.79999969-44.80000031-31.99999969-54.40000031 0 6.40000031 0 16.00000031-3.19999969 22.40000062-6.40000031 19.2-25.60000031 31.99999969-44.80000031 31.99999969h-48z" fill="#2D3545" p-id="2319"></path><path d="M800 800H159.99999969c-6.40000031 0-9.6-3.19999969-12.79999969-6.40000031-3.19999969-3.19999969-3.19999969-9.6-3.19999969-15.99999938l48-128.00000062c3.19999969-9.6 12.79999969-12.79999969 19.2-9.6 9.6 3.19999969 12.79999969 12.79999969 9.6 19.2L182.40000031 768.00000031H800c9.6 0 12.79999969-9.6 16.00000031-9.6 0-3.19999969 3.19999969-12.79999969-6.40000031-19.2l-51.19999969-38.4c-6.40000031-6.40000031-9.6-16.00000031-3.20000062-22.40000062 6.40000031-6.40000031 16.00000031-9.6 22.40000062-3.19999969l51.19999969 38.4c16.00000031 12.79999969 22.39999969 31.99999969 16.00000031 54.40000031-6.40000031 19.2-22.39999969 31.99999969-44.80000031 31.99999969zM416 543.99999969c-6.40000031 0-12.79999969-3.19999969-12.79999969-9.6-3.19999969-6.40000031 0-16.00000031 6.39999938-22.39999969l64.00000031-31.99999969c6.40000031-3.19999969 16.00000031 0 22.39999969 6.39999938 3.19999969 6.40000031 0 16.00000031-6.39999938 22.40000062l-64.00000031 31.99999969c-3.19999969 3.19999969-6.40000031 3.19999969-9.6 3.19999969zM543.99999969 576.00000031c-3.19999969 0-9.6 0-12.79999969-3.20000062-6.40000031-6.40000031-6.40000031-16.00000031 0-22.39999969l31.99999969-31.99999969c6.40000031-6.40000031 16.00000031-6.40000031 22.40000062 0s6.40000031 16.00000031 0 22.39999969l-32.00000062 31.99999969s-6.40000031 3.19999969-9.6 3.20000062z" fill="#2D3545" p-id="2320"></path></svg>