<?xml version="1.0" standalone="no"?><!DOCTYPE svg PUBLIC "-//W3C//DTD SVG 1.1//EN" "http://www.w3.org/Graphics/SVG/1.1/DTD/svg11.dtd"><svg t="1642310902660" class="icon" viewBox="0 0 1024 1024" version="1.1" xmlns="http://www.w3.org/2000/svg" p-id="4896" xmlns:xlink="http://www.w3.org/1999/xlink" width="200" height="200"><defs><style type="text/css"></style></defs><path d="M839.22991949 848.40538599L654.14721756 848.40538599c-0.17032214-0.56408643-0.36762616-1.12479951-0.60202963-1.67876834l-41.91608111-98.98491935c30.49944653-12.25812689 58.38756922-29.67060223 82.59268936-51.15141348l17.71602017 17.71517643-19.86190878 19.86190877c-6.41911651 6.41911651-6.41911651 16.82646624 0 23.2455836 3.20998013 3.20829346 7.41575336 4.81370498 11.62237033 4.81370498s8.4123902-1.60541153 11.62237032-4.81370498l62.96687073-62.96687073c6.41911651-6.41911651 6.41911651-16.82646624 0-23.24558359-6.42080319-6.41742983-16.82478039-6.41742983-23.24558359 0l-19.8602221 19.8602221-17.66542896-17.66542894c41.70107071-46.59909302 68.25865815-107.01281992 71.84553909-173.44093855l23.56852067 0 0 27.94208642c0 9.07765823 7.35926001 16.43607532 16.43607532 16.43607533s16.43607532-7.35841708 16.43607531-16.43607533L845.80249469 439.13927475c0-9.07765823-7.35926001-16.43607532-16.43607532-16.43607531s-16.43607532 7.35841708-16.43607532 16.43607531l0 27.94208643-23.69331079 0c-3.97895857-65.34969323-30.18494119-124.78533343-71.14401451-170.83551765l17.08785158-17.08785158 19.8602221 19.85937917c3.20998013 3.20913638 7.41575336 4.81370498 11.62237034 4.813705 4.2074599 0 8.4123902-1.60541153 11.62237034-4.81454792 6.41911651-6.41911651 6.41911651-16.82562332 0-23.24473984l-62.96687073-62.96518488c-6.42080319-6.41911651-16.82478039-6.41827358-23.2455836 0.00084293-6.41911651 6.41911651-6.41911651 16.82562332 0 23.24473984l19.86106586 19.8602221-17.06424307 17.06424307c-46.4869509-41.5088259-106.68313779-67.96185919-172.86504786-71.61366439L522.00515371 177.80121143l27.94208643 0c9.07681448 0 16.43607532-7.35841708 16.43607532-16.43607532s-7.35926001-16.43607532-16.43607532-16.43607532L461.19260334 144.92906162c-9.07681448 0-16.43607532 7.35841708-16.43607532 16.43607532s7.35926001 16.43607532 16.43607532 16.43607531l27.94208643 0 0 23.64356332c-65.79151831 3.92752442-125.60574517 30.38055853-171.82625154 71.74351457l-17.27588095-17.27588096 19.86022211-19.86022211c6.41911651-6.41911651 6.41911651-16.82646624 0-23.24558359-6.42080319-6.41911651-16.82478039-6.41911651-23.24558359 0l-62.96518487 62.96518488c-6.41911651 6.41911651-6.41911651 16.82646624 0 23.24558359 3.20913638 3.20913638 7.41659629 4.81370498 11.62237033 4.81370498s8.41323312-1.6045686 11.62237033-4.81370498l19.8602221-19.86022211 17.32562842 17.32562841c-40.83849865 46.0173002-66.96016314 105.36103427-70.93237664 170.59858457l-24.96988313 0 0-27.94208643c0-9.07765823-7.35841708-16.43607532-16.43607531-16.43607531s-16.43607532 7.35841708-16.43607532 16.43607531l0 88.75632349c0 9.07765823 7.35841708 16.43607532 16.43607532 16.43607532s16.43607532-7.35841708 16.43607531-16.43607532L198.21034317 499.95435474l24.84593591 0c3.58013507 66.31513192 30.05509103 126.63695271 71.63474414 173.20316171l-17.90320578 17.90320578-19.8602221-19.86022211c-6.41911651-6.41574399-16.82646624-6.41742983-23.24473984 0-6.41911651 6.41911651-6.41995944 16.82646624-0.00084292 23.24558359l62.96518486 62.96687073c3.20998013 3.20829346 7.41575336 4.81370498 11.62237034 4.81370498 4.20577322 0 8.4123902-1.60541153 11.62237033-4.81370498 6.41911651-6.41911651 6.41911651-16.82646624 0-23.24558359l-19.86022211-19.86106586 17.9268143-17.9268143c25.49012421 22.67137876 55.0789379 40.82079227 87.50589011 53.18684583l-39.29042341 97.42166647c-0.18887228 0.46880694-0.34654642 0.9426731-0.48988667 1.417383L181.77426785 848.40538599c-9.07765823 0-16.43607532 7.35926001-16.43607532 16.43607531s7.35841708 16.43607532 16.43607532 16.43607532l657.45565164 0c9.07681448 0 16.43607532-7.35926001 16.43607532-16.43607532S848.30673398 848.40538599 839.22991949 848.40538599zM598.81026767 717.47159687l-68.92308243-162.76208506c5.38959567-1.82295154 10.50600173-4.23950098 15.2632142-7.18978161l125.79798999 125.79714707C649.73570859 691.84825079 625.38724817 706.87031564 598.81026767 717.47159687zM464.96666989 484.4955232c0-22.74220596 18.50186206-41.24322427 41.24322428-41.24322428 21.08451736 0 38.51217032 15.90740249 40.94136694 36.34941742-0.30776028 1.25717927-0.48904376 2.56410516-0.48904377 3.91656308 0 1.55144778 0.22934426 3.04640304 0.63154029 4.46884525-1.77994912 21.11234216-19.51873489 37.75077988-41.08386429 37.75077987C483.46853195 525.73790454 464.96666989 507.2368854 464.96666989 484.4955232zM489.13469058 734.608353c-13.58950507-0.91822083-26.88811331-2.91065158-39.80391943-5.9182685l39.80391943-98.69402335L489.13469058 734.608353zM522.00768332 620.40153519l45.40768258 107.23035993c-14.66961631 3.69396386-29.84851236 6.08521811-45.40768258 7.05740267L522.00768332 620.40153519zM694.24371966 650.12188489L568.57810861 524.45795968c4.74625113-7.38202643 8.22604751-15.64854675 10.11308121-24.50360494l177.73440244 0C752.91797024 557.32505112 730.03411069 609.53718195 694.24371966 650.12188489zM756.30080129 467.08136118l-178.06239871 0c-1.89124914-7.8213219-5.02197034-15.16034592-9.17968276-21.79953205l125.76257639-125.76257638C729.87727948 359.54745643 752.41965183 410.78656058 756.30080129 467.08136118zM671.59932278 296.25090274L545.89914105 421.95108447c-7.21760642-4.59700791-15.27417554-7.98068272-23.89145773-9.85928384L522.00768332 234.30090484C579.13301489 237.87092233 631.12929321 260.65022775 671.59932278 296.25090274zM489.13469058 234.38185047l0 178.00506243c-8.24544058 1.95280088-15.95799289 5.28251194-22.88807584 9.73871L340.58184661 296.46169769C380.78543247 261.00689175 432.39890701 238.216625 489.13469058 234.38185047zM317.38685425 319.75702793l125.79714707 125.79714707c-4.07255137 6.56667307-7.14003415 13.81379014-9.00514436 21.52718618L256.1181441 467.08136118C259.99254853 410.89870271 282.45060355 359.74981963 317.38685425 319.75702793zM255.9941969 499.95435474l177.73271575 0c1.86342434 8.74544568 5.27998233 16.91753028 9.93685693 24.23041533L317.96443078 649.88410806C282.29461527 609.33313288 259.49507303 557.21206525 255.9941969 499.95435474zM341.23277997 673.1060823L466.99535718 547.34434885c5.22770526 3.27321853 10.88374549 5.91995517 16.87368493 7.81794937L417.76217472 719.07447879C389.46763974 708.37117303 363.5997718 692.69480148 341.23277997 673.1060823zM436.90738132 759.49476089c16.86440946 4.25130524 34.32494641 6.98236001 52.22730844 8.05066699l0 24.97662818-27.94208643 0c-9.07681448 0-16.43607532 7.35926001-16.43607532 16.43607531s7.35926001 16.43607532 16.43607532 16.43607533l88.7563235 0c9.07681448 0 16.43607532-7.35926001 16.4360753-16.43607533s-7.35926001-16.43607532-16.43607531-16.43607531l-27.94208643 0 0-24.89484045c20.07691919-1.10793604 39.59902661-4.3212887 58.35974442-9.40986996l38.19176202 90.18888326L401.04953726 848.40622891 436.90738132 759.49476089z" p-id="4897"></path></svg>