<?xml version="1.0" standalone="no"?><!DOCTYPE svg PUBLIC "-//W3C//DTD SVG 1.1//EN" "http://www.w3.org/Graphics/SVG/1.1/DTD/svg11.dtd"><svg t="1642236453101" class="icon" viewBox="0 0 1024 1024" version="1.1" xmlns="http://www.w3.org/2000/svg" p-id="6479" xmlns:xlink="http://www.w3.org/1999/xlink" width="200" height="200"><defs><style type="text/css"></style></defs><path d="M848.34643529 721.28955053a88.98925781 88.98925781 0 0 0-63.28125-26.20239258 90.14282201 90.14282201 0 0 0-89.81323191 89.81323267A89.48364258 89.48364258 0 0 0 784.57080053 874.54882787 90.14282201 90.14282201 0 0 0 874.54882787 784.73559596a88.98925781 88.98925781 0 0 0-26.20239258-63.44604543zM784.57080053 841.589844a56.52465795 56.52465795 0 0 1-56.52465795-56.68945338 57.18383814 57.18383814 0 0 1 57.01904271-57.01904271A56.52465795 56.52465795 0 0 1 841.589844 784.57080053 57.18383814 57.18383814 0 0 1 784.57080053 841.589844zM848.67602539 299.74414088A88.49487305 88.49487305 0 0 0 841.589844 168.89697266a90.63720678 90.63720678 0 0 0-120.79467824 8.07495091l-150.78735351 150.95214895a735.97412135 735.97412135 0 0 0-90.96679688 112.06054637l-22.74169922 34.11254883a703.67431615 703.67431615 0 0 1-87.67089818 107.11669947l-143.5363767 143.5363767a53.72314478 53.72314478 0 0 0-60.31494141 9.39331054 52.56957982 52.56957982 0 0 0 0 74.15771485L215.36914062 859.22290014a52.23999049 52.23999049 0 0 0 83.71582006-60.47973608l91.95556641-92.12036107 51.25122096-51.41601563a703.83911158 703.83911158 0 0 1 106.95190404-87.83569361L583.68579102 544.95898463a738.28124975 738.28124975 0 0 0 112.06054712-91.95556641zM328.91284205 667.40161108l27.52075145 27.5207522-78.27758764 78.44238307-27.52075221-27.52075221zM266.45556615 835.82202148a19.94018529 19.94018529 0 0 1-27.52075144 0l-50.75683619-50.75683619a19.44580053 19.44580053 0 0 1 0-27.52075144 19.44580053 19.44580053 0 0 1 27.1911621 0L266.45556615 808.63085938a19.44580053 19.44580053 0 0 1 0 27.1911621z m298.93798854-318.54858373l-33.94775416 22.74169922a736.63330078 736.63330078 0 0 0-112.06054637 91.95556641L380.16406225 671.6862793 352.14892603 643.83593775l39.71557592-39.71557668a737.62207031 737.62207031 0 0 0 91.79077174-112.06054636l22.74169922-34.11254883A703.83911158 703.83911158 0 0 1 594.39746119 351.1601565l150.78735352-150.95214894a57.51342748 57.51342748 0 0 1 76.46484324-5.93261719 55.53588842 55.53588842 0 0 1 4.11987355 82.39746119L672.51025416 429.60253881a704.82788111 704.82788111 0 0 1-107.11669947 87.67089894z" p-id="6480"></path></svg>