<?xml version="1.0" standalone="no"?><!DOCTYPE svg PUBLIC "-//W3C//DTD SVG 1.1//EN" "http://www.w3.org/Graphics/SVG/1.1/DTD/svg11.dtd"><svg t="1642310906659" class="icon" viewBox="0 0 1024 1024" version="1.1" xmlns="http://www.w3.org/2000/svg" p-id="5038" xmlns:xlink="http://www.w3.org/1999/xlink" width="200" height="200"><defs><style type="text/css"></style></defs><path d="M618.23237451 593.63634498c-0.02967979 6.05109727 1.86803349 11.46092959 6.07088408 15.71324678 16.41027393 16.59374912 32.76118828 33.25675166 49.54560821 49.46286445 9.08294151 8.77085332 23.71691953 7.89574658 32.5471333-1.01900918 8.87248477-8.96152412 9.53983213-23.40483135 0.69073154-32.53094385-16.24568555-16.74844453-32.73420586-33.28013584-49.53301699-49.47365654-7.28056406-7.01704248-16.44265195-8.08012178-25.65060908-3.76214941C622.91549903 576.24303814 618.44642949 583.69538531 618.23237451 593.63634498z" p-id="5039"></path><path d="M818.76941035 736.6501814c-1.0945582-2.74943584-1.01271357-4.54551855 1.29602109-6.37038105 1.41024375-1.1116459 2.58844482-2.51919229 3.86108262-3.80532041 18.44829229-18.64885606 20.29653896-43.9711875 4.41330821-64.79117138-22.03056299-28.87672148-44.26169062-57.60594316-66.41007364-86.39452442-38.25106612-49.71919043-76.48594277-99.44827383-114.77568251-149.13688535l-5.94946671 5.89010625c14.89030401-55.17219287 8.30676797-113.0047831-18.79365761-163.60537588-28.18778906-52.63141553-75.1836252-91.13521026-132.3317795-108.4187918-57.14635518-17.28358154-117.60516386-11.27925263-170.23568027 16.90853643-52.63141553 28.18778906-91.13521026 75.1836252-108.4187918 132.33087949-6.36048721 21.03044151-9.66304863 42.97196513-9.65675302 64.9458668 0.00359737 10.96356709 0.82474102 21.92533506 2.45533535 32.76658389 2.81509102 18.71720948 6.39466435 43.08708691 30.71237695 43.08708691 15.08277393 0 27.30998408-12.22271279 27.30998408-27.30009024 0-7.6996793-3.36821661-15.61791094-4.54102119-23.25643242-1.27353691-8.29417676-1.9237957-16.68278935-1.94268252-25.07410019-0.03777451-16.76193575 2.46343008-33.50408467 7.31564033-49.54650733 13.11131074-43.35060849 42.3190081-79.0006377 82.24383867-100.38364013 24.97696523-13.37752969 52.27615635-20.16792598 79.83167432-20.16792598 16.49031943 0 33.07507471 2.43285029 49.30457168 7.34172188 43.35060849 13.11131074 79.0006377 42.3190081 100.38364014 82.24383867s25.93751396 85.78653662 12.8262041 129.13714511c-13.11131074 43.35060849-42.3190081 79.0006377-82.24383867 100.38364014-39.92573057 21.38210332-85.78653662 25.93571573-129.13714512 12.8262041-12.27307852-3.71178369-24.17201104-8.73217969-35.29566914-15.12054843-10.04079199-5.76599062-18.89618818-15.05849063-31.17196582-15.05849063-15.15022822 0-27.43140146 12.13457256-27.43140146 27.10312383 0 15.72943535 14.15010586 24.05059365 26.04903838 31.3356542 16.31673721 9.99042627 33.91600518 17.85379482 52.22758974 23.39134101 21.3982919 6.47201162 43.25437354 9.67743896 64.99713164 9.67743897 18.70911562 0 37.32919102-2.38158545 55.48877842-7.09528975l-3.9573167 3.91774395c36.59079112 28.14461807 73.1743875 56.29822998 109.76158125 84.44824365 42.33339756 32.57321572 84.62542412 65.2030919 127.04426367 97.66748144 19.86663076 15.20329219 44.99739141 13.78585283 63.01937285-3.1595581 1.02260654-0.96054873 2.10457354-1.86173789 4.53472559-4.00228682 2.66399385 13.56820049 5.15350635 25.90063945 7.40557881 38.27534942 0.2401374 1.31850615-0.49646338 3.34123506-1.4929875 4.28469521-16.30414599 15.43623398-35.02675195 24.2007917-57.84608057 18.26841445-19.35667617-5.02849073-38.74213301-10.24675312-57.57986074-16.90313994-85.81531729-30.33103535-173.78467383-48.39528779-265.05929004-50.21385469-49.34234619-0.98303379-97.25646006 5.51506114-144.03644297 21.05742305-22.9479416 7.62233203-45.32656817 16.57756055-66.62053125 28.06457257-13.83172207 7.46224102-17.36002969 24.23316973-7.90923779 36.14109609 7.35971045 9.2673167 19.57702675 11.26036582 31.12609658 5.34687451 44.46135528-22.76356641 91.35016435-37.52975479 141.25103174-41.78477021 35.0105625-2.98597588 69.99414434-0.83823135 104.87609384 2.38068632 52.8571626 4.87649355 104.44258828 16.0945875 154.9649338 32.3007003 28.2750293 9.06945117 56.42864122 18.56701143 84.90423515 26.96641698 21.33983145 6.29393291 43.23188848 8.52711856 65.16621738 2.35820127 21.14556328-5.94586846 38.14493731-18.66594463 53.97600411-33.33949541 5.93867373-5.50516729 9.81594492-12.04643232 10.85564003-19.90620351 0.85531992-6.46841426 1.24925273-13.12839932 0.77617354-19.622896C834.62745869 779.85508922 827.30642187 758.05836715 818.76941035 736.6501814zM742.70798018 738.65582174c-71.38909776-54.9221625-143.25757119-110.21487451-215.44173018-165.75042129 1.21507646-0.62327724 2.42745381-1.25464922 3.63443555-1.90041152 40.97531865-21.94512099 73.38394599-55.29361114 93.88644521-95.95414336 55.49597403 72.1292959 110.80577373 144.01755615 165.88443077 215.60541943C774.71907646 706.62134127 758.96355869 722.38675201 742.70798018 738.65582174z" p-id="5040"></path></svg>