<?xml version="1.0" standalone="no"?><!DOCTYPE svg PUBLIC "-//W3C//DTD SVG 1.1//EN" "http://www.w3.org/Graphics/SVG/1.1/DTD/svg11.dtd"><svg t="1642234873059" class="icon" viewBox="0 0 1024 1024" version="1.1" xmlns="http://www.w3.org/2000/svg" p-id="6424" xmlns:xlink="http://www.w3.org/1999/xlink" width="200" height="200"><defs><style type="text/css"></style></defs><path d="M333.46823233 357.40265292a22.85996146 22.85996146 0 0 1-16.17570875-39.02652581L487.09631709 148.52661363a22.88556471 22.88556471 0 0 1 32.36056123 32.36970492l-169.80379352 169.80379352a22.78680967 22.78680967 0 0 1-16.18485247 6.70254085zM325.83300472 698.2629658a22.78680967 22.78680967 0 0 1-16.17570804-6.70254083L164.35023763 546.23507852a22.88556471 22.88556471 0 1 1 32.36056123-32.36970567l145.30705904 145.32534646a22.85996146 22.85996146 0 0 1-16.18485318 39.07224649zM517.18917015 875.97630604a22.85996146 22.85996146 0 0 1-16.18485244-39.07224649l163.43957986-163.43957987a22.88922189 22.88922189 0 1 1 32.36970567 32.36970493L533.37402263 869.27376521a22.85996146 22.85996146 0 0 1-16.18485247 6.70254083zM854.41932097 538.7461545a22.79595336 22.79595336 0 0 1-16.17570877-6.71168454L661.8927259 355.70187179a22.88282144 22.88282144 0 0 1 32.36056123-32.36056123L870.60417343 499.67390875a22.85996146 22.85996146 0 0 1-16.18485246 39.07224575z" fill="#515151" p-id="6425"></path><path d="M510.41347753 527.77337346a22.85996146 22.85996146 0 0 1-22.85996146-22.85996146V164.09881907a22.85996146 22.85996146 0 0 1 22.85996146-22.85996146h340.76887295a22.85996146 22.85996146 0 0 1 16.18485248 39.06310207L526.56175445 521.08912077a22.85996146 22.85996146 0 0 1-16.14827692 6.68425269z m22.85996146-340.81459293v262.69753253L795.93439595 186.98621238z" fill="#515151" p-id="6426"></path><path d="M851.18235048 882.78857422a22.85996146 22.85996146 0 0 1-16.15742062-6.70254083L494.1920488 535.27144047a22.85996146 22.85996146 0 0 1 16.22142873-39.07224578h340.76887295a22.85996146 22.85996146 0 0 1 22.85996146 22.85996146v340.84202478a22.92396956 22.92396956 0 0 1-14.12745603 21.1500359 23.17085682 23.17085682 0 0 1-8.73250543 1.73735739zM565.63400022 541.98312572l262.66095697 262.66095625V541.98312572z" fill="#515151" p-id="6427"></path><path d="M510.41347753 868.58796639H169.57145277a22.85996146 22.85996146 0 0 1-16.18485248-39.06310207l340.80544851-340.81459292a22.85996146 22.85996146 0 0 1 39.08139019 16.2031406v340.7871611a22.85996146 22.85996146 0 0 1-22.85996146 22.88739329zM224.81940729 822.81317979h262.67010066V560.1430784z" fill="#515151" p-id="6428"></path><path d="M510.41347753 541.98312572H169.57145277a22.85996146 22.85996146 0 0 1-22.85996146-22.85996146V178.2811395a22.85996146 22.85996146 0 0 1 39.06310205-16.18485319l340.78716109 340.81459292a22.85996146 22.85996146 0 0 1-16.14827692 39.07224649zM192.45884606 496.19919469h262.66095696L192.45884606 233.53823773z" fill="#515151" p-id="6429"></path></svg>