<?xml version="1.0" standalone="no"?><!DOCTYPE svg PUBLIC "-//W3C//DTD SVG 1.1//EN" "http://www.w3.org/Graphics/SVG/1.1/DTD/svg11.dtd"><svg t="1642235402680" class="icon" viewBox="0 0 1024 1024" version="1.1" xmlns="http://www.w3.org/2000/svg" p-id="4705" xmlns:xlink="http://www.w3.org/1999/xlink" width="200" height="200"><defs><style type="text/css"></style></defs><path d="M510.41796875 192.25390625c42.09960938 0 83.14453125 7.99804688 121.9921875 23.73046875 40.16601563 16.25976563 76.2890625 40.25390625 107.2265625 71.19140625s54.93164063 67.06054688 71.19140625 107.2265625c15.73242188 38.84765625 23.73046875 79.89257813 23.73046875 121.9921875s-7.99804688 83.14453125-23.73046875 121.9921875c-16.25976563 40.16601563-40.25390625 76.2890625-71.19140625 107.2265625s-67.06054688 54.93164063-107.2265625 71.19140625c-38.84765625 15.73242188-79.89257813 23.73046875-121.9921875 23.73046875s-83.14453125-7.99804688-121.9921875-23.73046875c-40.16601563-16.25976563-76.2890625-40.25390625-107.2265625-71.19140625s-54.93164063-67.06054688-71.19140625-107.2265625c-15.73242188-38.84765625-23.73046875-79.89257813-23.73046875-121.9921875s7.99804688-83.14453125 23.73046875-121.9921875c16.25976563-40.16601563 40.25390625-76.2890625 71.19140625-107.2265625s67.06054688-54.93164063 107.2265625-71.19140625c38.84765625-15.8203125 79.89257813-23.73046875 121.9921875-23.73046875m0-43.9453125C416.19921875 148.30859375 322.06835937 184.16796875 250.17382812 256.0625c-143.7890625 143.7890625-143.7890625 376.875 1e-8 520.57617188 71.89453125 71.89453125 166.11328125 107.84179688 260.33203124 107.84179687s188.4375-35.94726563 260.33203126-107.84179687c143.7890625-143.7890625 143.7890625-376.875-1e-8-520.57617188C698.85546875 184.16796875 604.63671875 148.30859375 510.41796875 148.30859375z" fill="#515151" p-id="4706"></path><path d="M566.31640625 435.0078125l35.5078125 114.08203125-91.14257813 69.08203125-91.14257812-69.08203125 35.5078125-114.08203125h111.26953125m32.34375-43.9453125H422.79101562l-54.31640624 174.46289063 142.29492187 107.84179687 142.29492188-107.84179688-54.40429688-174.46289062z" fill="#515151" p-id="4707"></path><path d="M420.50585937 866.55078125l-26.98242187-34.71679688 95.88867188-74.79492187V646.6484375h43.94531249v109.86328125L629.33398438 831.921875l-27.15820313 34.54101563L512 795.62304688zM817.33203125 715.46679688l-41.39648438 14.67773437-40.95703125-114.609375-104.76562499-34.71679688 13.79882812-41.66015625 104.32617188 34.54101563 101.77734375-67.41210938 24.2578125 36.65039063-95.625 63.36914063zM788.15234375 280.14453125l1.7578125 43.85742188-121.55273438 5.09765625-64.24804687 89.82421874-35.77148438-25.57617187 63.984375-89.38476563L598.1328125 186.8046875l42.1875-12.3046875 32.08007813 110.12695313zM379.37304687 174.67578125l42.27539063 11.953125L388.6015625 303.69921875l65.21484375 89.03320313-35.41992188 26.01562499L353.4453125 330.06640625l-121.9921875-4.04296875 1.49414063-43.85742188 114.60937499 3.77929688zM148.66015625 559.72460938l22.1484375-37.96875 105.20507813 61.171875L378.49414062 541.8828125l16.34765626 40.78125-102.04101563 40.86914063-34.18945313 117.15820312-42.1875-12.39257813 32.16796875-110.03906249z" fill="#515151" p-id="4708"></path></svg>