<?xml version="1.0" standalone="no"?><!DOCTYPE svg PUBLIC "-//W3C//DTD SVG 1.1//EN" "http://www.w3.org/Graphics/SVG/1.1/DTD/svg11.dtd"><svg t="1642310969481" class="icon" viewBox="0 0 1057 1024" version="1.1" xmlns="http://www.w3.org/2000/svg" p-id="2171" xmlns:xlink="http://www.w3.org/1999/xlink" width="206.4453125" height="200"><defs><style type="text/css"></style></defs><path d="M929.0439627 680.68408203c-38.6114502-8.53637695-73.2019043-5.64422607-102.90618895 8.62701416-22.32147217 10.76110839-33.35449219 24.06829834-42.22869874 34.75524902-6.45996094 7.78656006-11.56036377 13.94165039-21.43157959 19.98962403-32.43164063 19.82482911-79.08508301 15.57312012-108.70697021 3.23822021-20.30273438-8.46221924-29.32525635-20.26153565-38.88336182-32.74475098-12.39257813-16.22406006-29.36645508-38.43017578-66.95617674-38.43017578-43.32458497 0-59.63928223 16.47949219-75.418396 32.41516114-10.75286865 10.87646484-21.87652588 22.10723877-48.07891846 33.85711669-31.52526857 14.12292481-58.7411499 26.21887209-86.45965577 21.4151001-21.68701172-3.87268067-31.59118653-15.45776367-47.23022461-35.59570312-15.93566895-20.54168701-35.76873779-46.0848999-75.6161499-50.61676026-32.62939453-3.72436523-79.66186523 3.93035888-118.26507568 61.4932251l-1.13708497 1.66442872c-9.22027588 12.31842041-6.81427002 29.78668213 5.43823243 39.13879394 12.32666016 9.37683106 29.92675781 7.03674317 39.34478759-5.28167723 0.69213867-0.91461182 1.6973877-2.35656739 2.9663086-4.25994875 11.88995362-17.70721435 31.52526857-40.65490723 65.29998779-36.98822021 15.65551758 1.7880249 23.25256348 10.76110839 37.61444092 29.25933838 15.92742921 20.52520752 37.73803711 48.60626221 81.746521 56.4505005a129.05914307 129.05914307 0 0 0 22.92297363 2.02697752c35.06011963 0 66.1239624-13.94165039 96.35559082-27.50427245 35.74401856-16.02630615 52.64373779-33.11553955 64.98687744-45.57403565 12.31018067-12.42553711 15.60607911-15.77087403 35.51330566-15.77087403 9.00604249 0 10.89294434 1.36779786 22.35443115 16.37237549 11.70043945 15.30944825 27.71850586 36.25488281 61.91345216 50.49316406 40.56427002 16.86676026 106.67999268 25.14770508 159.5626831-7.18505859 17.84729004-10.90942383 27.55371094-22.62634278 35.35675049-32.03613281 7.28393555-8.77532959 12.09594727-14.58435059 23.35968018-20.00610352 18.06976318-8.70117188 40.41595459-10.17608643 66.39587402-4.38354492 15.1940918 3.2711792 30.12451172-6.19628906 33.48632812-21.32446289 3.3782959-15.13641357-6.17156982-30.13275146-21.29974365-33.49456787z" fill="#666666" p-id="2172"></path><path d="M369.90303253 698.16882325c57.34039307 7.20153809 87.39898682-25.43609619 109.37438966-49.29840088 6.82250977-7.39929199 13.2824707-14.41955567 19.62707519-19.33044434 41.69311523-26.45782471 66.61010742-9.90417481 113.11523436 33.88183593l1.73858643 1.51611328c40.35003662 32.17620849 75.07232666 48.31787109 103.79608154 48.30139161 13.98284912 0 26.54846192-3.82324219 37.63092042-11.4944458 23.69750977-16.35589599 30.87432862-48.515625 16.69372559-74.80865479l-10.64575196-19.74243164c19.37988281 10.78582763 41.64367676 16.9821167 65.35766602 16.98211671 74.35546875 0 134.85168458-60.48797607 134.85168456-134.84344484S900.94642853 354.45605469 826.59095978 354.45605469c-70.93597412 0-129.12506103 55.10742188-134.33258056 124.73327637L597.60841584 303.5838623c-7.8112793-14.46899414-20.72296143-25.23834229-36.33728028-30.28106689l-204.36218262-66.31347656c-38.83392334-13.02703857-81.05438231 7.86071778-94.13909912 46.68640136-6.3446045 18.80310059-4.9685669 38.94104004 3.84796143 56.72241211 8.81652833 17.78137209 24.03533935 31.06384278 42.0639038 37.12829591l147.11242676 54.4152832a75.15884399 75.15884399 0 0 1 31.11328125 21.72821045L240.48134064 556.27215575c-12.55737305 6.74011231-20.7888794 19.23980713-22.00012208 33.42041017-1.21124268 14.12292481 4.72137451 27.79266357 15.88623047 36.52679444 38.14178467 29.93499756 92.63946533 66.70074463 135.5355835 71.94946288z m456.68792724-287.57537843c43.39874268 0 78.71429443 35.32379151 78.71429444 78.72253419s-35.31555177 78.70605469-78.71429444 78.70605468-78.71429443-35.30731201-78.71429443-78.70605468 35.31555177-78.72253418 78.71429443-78.72253419z m-265.55877685 36.930542l-9.13787842-23.18664551c-13.67797852-34.73876953-41.61071778-62.09472656-76.62139893-75.04760743l-147.89520263-54.69543456c-4.59777833-1.53259278-8.31390381-4.78729248-10.47271729-9.13787843-2.15881348-4.35058594-2.48840333-9.26147461-0.93933105-13.85101318 3.19702148-9.48394775 13.53790283-14.60083008 23.31848144-11.31317138l204.68353271 66.40411377c1.82098388 0.60150146 3.32885742 1.86218262 4.24346924 3.54309082l174.27062989 323.31939697c0.55206299 1.02172852 0.48614502 2.26593018 0.80749511 1.99401856-5.73486327 4.00451661-28.52600097 1.93634033-73.62213135-33.80767823-39.58374023-37.26013184-99.12414551-92.40875244-182.07366943-38.8092041l-1.60675049 1.11236572c-10.69519043 8.0255127-19.48699951 17.55889893-27.98217773 26.78741456-21.31622315 23.17016602-33.65936279 35.15899658-61.16363525 31.61590576-19.83306885-2.4142456-52.80853271-19.7341919-90.36529541-47.16430665l274.55657959-147.76336669z" fill="#666666" p-id="2173"></path></svg>