<?xml version="1.0" standalone="no"?><!DOCTYPE svg PUBLIC "-//W3C//DTD SVG 1.1//EN" "http://www.w3.org/Graphics/SVG/1.1/DTD/svg11.dtd"><svg t="1642310909495" class="icon" viewBox="0 0 1024 1024" version="1.1" xmlns="http://www.w3.org/2000/svg" p-id="5193" xmlns:xlink="http://www.w3.org/1999/xlink" width="200" height="200"><defs><style type="text/css"></style></defs><path d="M786.38354492 141.21142578C741.51812744 141.21142578 704.81005859 177.94915771 704.81005859 222.78491211c0 44.86541748 36.70806885 81.57348633 81.57348633 81.57348633 44.90991211 0 81.57348633-36.69323731 81.57348633-81.57348633C867.95703125 177.94915771 831.27862549 141.21142578 786.38354492 141.21142578z m0 29.66308594C815.26055908 170.87451172 838.29394531 194.01171875 838.29394531 222.78491211 838.29394531 251.61743164 815.24572754 274.6953125 786.38354492 274.6953125A51.70275879 51.70275879 0 0 1 734.47314453 222.78491211C734.47314453 193.99688721 757.56585693 170.87451172 786.38354492 170.87451172zM614.42663574 215.36914062c-7.89038086 0.04449463-15.63244628 0.74157715-23.16687012 1.85394287-45.22137451 6.67419434-84.45080567 31.88781739-114.02490234 57.47222901-11.98388672 10.38208008-21.80236817 20.48236084-30.5826416 30.12286377l-140.8996582-82.49304199a14.83154297 14.83154297 0 0 0-8.35015869-2.32855225 14.83154297 14.83154297 0 0 0-6.48138429 27.80914307l136.25738526 79.71954345c-7.47509766 9.64050293-12.28051758 16.80413818-12.50299072 17.16009522l-0.47460937 0.45977784c-23.90844727 33.08917237-25.0949707 68.25476074-15.75109864 95.48547362 9.3883667 27.36419677 27.58666992 47.28295898 43.5602417 58.39178467 27.24554443 18.91021729 57.51672363 36.51525879 73.69793701 48.66229248 7.50476075 5.63598633 10.05578614 10.23376465 10.66387939 12.9776001 0.59326172 2.74383545 0.44494629 6.19958497-4.64227294 12.9776001-11.88006592 15.86975098-79.4229126 100.21673584-85.28137208 107.52868653L182.45794677 542.59747315a14.83154297 14.83154297 0 0 0-10.18927001-1.85394288 14.83154297 14.83154297 0 0 0-4.16766358 27.80914307l556.18286133 302.65246582a14.83154297 14.83154297 0 0 0 0.91955567 0.91955566s19.81494141 8.51330566 44.95440673 10.20410156c25.13946533 1.67596435 58.49560547-4.6571045 80.65393067-34.76513671a14.83154297 14.83154297 0 1 0-24.10125732-17.14526368c-15.17266846 20.61584473-35.4473877 23.99743653-54.69873047 22.70709229-18.45043945-1.23101807-32.18444825-7.37127685-33.37097169-7.87554932l-1.37933349-0.47460937-205.32788086-111.68151855c6.91149902-7.78656006 53.98681641-60.60168457 101.96685791-119.58673096 28.6842041-35.26940917 31.11657715-69.69342041 20.85314941-95.0256958-10.26342773-25.31744385-30.28601075-41.91394042-41.24652099-50.51623535-6.67419434-5.23553467-28.65454102-20.64550781-49.13690186-35.22491455l19.47381592-13.43737794 6.02160644 3.70788575a14.83154297 14.83154297 0 0 0 7.87554932 2.78833008c0.22247315 7.57891846 0.8602295 15.02435302 3.24810791 22.24731445 3.0701294 9.26971435 9.3883667 15.46929932 17.14526367 21.77270508 7.75689698 6.30340576 17.27874756 12.36950684 29.20330811 19.01403808 23.84912109 13.27423096 56.55267334 28.13543701 96.40502929 44.9395752 13.42254638 5.68048096 24.41271973 8.40948487 34.76513672 8.35015869 10.33758545-0.05932617 22.03967286-3.85620117 27.3345337-13.89715577 5.30969238-10.04095459 2.44720459-20.91247559-2.31372071-29.66308593-4.74609375-8.7654419-12.01354981-16.80413818-22.24731445-25.03564454-11.22747802-9.04724122-35.59570313-23.98260498-58.8515625-37.99841308-17.64953614-10.63421631-26.97857666-15.9142456-33.84558106-19.93359375 2.96630859-7.23779297 6.555542-15.32098388 12.9776001-34.30535888C710.34222412 355.43823242 719.64160156 325.12255859 719.64160156 300.20556641c0-25.68823242-13.03692627-46.49688721-29.2033081-59.78594971a109.63476563 109.63476563 0 0 0-51.91040039-23.18170166A151.19274903 151.19274903 0 0 0 614.42663574 215.36914062z m1e-8 30.12286378a123.3984375 123.3984375 0 0 1 19.47381591 1.39416503c11.36096191 1.77978516 26.41497802 7.53442383 37.53863525 16.68548584 11.12365723 9.15106201 18.53942872 20.54168701 18.53942871 36.6190796 0 16.81896972-7.86071778 47.13464355-16.22570801 71.84399414-8.36499023 24.69451904-16.68548584 44.02001953-16.68548584 44.02001953a14.83154297 14.83154297 0 0 0 6.036438 19.01403808s21.00146484 12.07287597 44.02001953 25.9552002c23.01855469 13.86749268 48.9440918 30.22668457 55.1585083 35.22491454 7.54925537 6.06610107 12.10253906 11.90972901 14.37176513 15.75109864-4.4197998-0.2076416-11.65759278-1.27551269-21.78753661-5.56182862-39.40740967-16.62615967-71.14691162-31.29455567-93.15692139-43.57507323-11.01983643-6.12542724-19.42932129-11.65759278-25.03564453-16.21087647-5.60632325-4.56811523-7.51959229-8.18701172-7.41577148-7.89038085-2.03192138-6.14025879-2.96630859-21.77270508-2.31372071-34.29052735 0.63775635-12.51782227 1.85394287-22.24731445 1.85394287-22.24731445a14.83154297 14.83154297 0 0 0-23.18170166-14.37176515l-23.62664795 16.22570802-109.3826294-63.96844483a330.25396729 330.25396729 0 0 1 24.10125733-23.16687012c31.51702881-27.27520752 72.67456055-51.34680176 117.71795655-51.45062255zM452.67382812 342.8314209l102.42663574 59.7859497-25.02081298 17.61987305a14.83154297 14.83154297 0 0 0 0 24.10125733c30.74578857 21.77270508 58.18414307 41.54315185 64.88800048 46.80834961 9.93713379 7.80139161 25.70306396 21.84686279 32.43658448 38.45819092 6.74835205 16.62615967 7.50476075 35.72918701-16.21087647 64.88800049a4273.36798096 4273.36798096 0 0 1-105.67474365 124.21417235l-42.64068603-23.16687011c10.61938477-13.31872559 69.24847412-86.61621094 82.49304198-104.28057862 8.33532715-11.12365723 12.93310547-24.0567627 10.20410157-36.61907958-2.74383545-12.5623169-11.53894043-22.54394531-22.24731446-30.59747315-19.13269043-14.34210205-48.79577637-31.19073487-74.63232421-49.12207031-10.26342773-7.13397217-25.58441162-24.0567627-32.43658447-44.03485107-6.8670044-19.97808838-7.01531982-42.52203369 12.04321289-68.59588623a14.83154297 14.83154297 0 0 0 0.47460938-0.45977784s5.04272461-7.89038086 13.89715575-18.99920654z" fill="" p-id="5194"></path></svg>