<?xml version="1.0" standalone="no"?><!DOCTYPE svg PUBLIC "-//W3C//DTD SVG 1.1//EN" "http://www.w3.org/Graphics/SVG/1.1/DTD/svg11.dtd"><svg t="1642236481864" class="icon" viewBox="0 0 1031 1024" version="1.1" xmlns="http://www.w3.org/2000/svg" p-id="8038" xmlns:xlink="http://www.w3.org/1999/xlink" width="201.3671875" height="200"><defs><style type="text/css"></style></defs><path d="M827.98011278 325.27310455a370.88336212 370.88336212 0 0 1 24.25459072 50.40494301l-324.73272989 187.45732143 242.49015123 205.99117382A368.48020605 368.48020605 0 0 1 693.27513238 827.97877447c-176.01026921 101.61837242-401.07614632 41.31644143-502.70009433-134.6994041-101.61837242-176.01026921-41.31644143-401.07614632 134.69940482-502.70009433 176.01026921-101.61837242 401.07614632-41.31644143 502.70009433 134.69940409z m-65.69927502 20.75300825C675.87873622 211.87313376 498.42434327 167.86359697 358.73462612 248.52265711 214.72368969 331.66293447 165.3837181 515.80824924 248.52957102 659.8136108c83.14027735 144.01093643 267.28559212 193.35090804 411.29652928 110.20505512l4.07588615-2.39758049 0.56872884-0.34569734-252.64920124-214.6224634L764.28253842 349.1875735l-2.00170066-3.1614607z" fill="#515151" p-id="8039"></path><path d="M733.29799533 495.83027237c48.00736253-27.71714259 109.38541754-11.26862686 137.09698455 36.73316009 27.71714259 48.00736253 11.26862686 109.38541754-36.73315935 137.09698456-48.00736253 27.71714259-109.38541754 11.26862686-137.10256015-36.73316008-27.71156701-48.00736253-11.26305128-109.38541754 36.73873495-137.10256015z" fill="#515151" p-id="8040"></path></svg>