<?xml version="1.0" standalone="no"?><!DOCTYPE svg PUBLIC "-//W3C//DTD SVG 1.1//EN" "http://www.w3.org/Graphics/SVG/1.1/DTD/svg11.dtd"><svg t="1642310965338" class="icon" viewBox="0 0 1024 1024" version="1.1" xmlns="http://www.w3.org/2000/svg" p-id="1885" xmlns:xlink="http://www.w3.org/1999/xlink" width="200" height="200"><defs><style type="text/css"></style></defs><path d="M502.29312646 193.33235761c-4.91947295 168.14055674-140.8199124 303.95314776-308.96046914 308.96046827 5.0073205-168.14055674 140.8199124-304.04099531 308.96046914-308.96046826m9.48755479-37.68667647C315.17746016 155.64568115 155.73382842 315.08931201 155.73382842 511.78038066c0 9.04831612 0.70278223 17.92093711 1.31771601 26.79355811 8.87262099 0.70278223 17.745242 1.31771602 26.79355811 1.31771602 196.69106865 0 356.04685195-159.44363086 356.04685196-356.04685284 0-9.04831612-0.70278223-17.92093711-1.31771602-26.79355722-8.87262099-0.70278223-17.745242-1.40556357-26.79355723-1.40556358z" p-id="1886"></path><path d="M511.78068125 193.15666162c175.69546084 0 318.62371904 142.92825732 318.62371817 318.62371904S687.47614209 830.31625215 511.78068125 830.31625215 193.24480977 687.47584151 193.24480977 511.78038066s142.92825732-318.62371904 318.53587148-318.62371904m0-37.51098047C315.17746016 155.64568115 155.73382842 315.08931201 155.73382842 511.78038066s159.44363086 356.04685195 356.04685283 356.04685196 356.04685195-159.44363086 356.04685195-356.04685196-159.3557833-356.13469951-356.04685195-356.13469951z" p-id="1887"></path><path d="M829.78946562 531.10688135c-9.66325078 160.3221082-138.36017549 289.01903379-298.68228369 298.68228369 9.66325078-160.3221082 138.36017549-289.10688135 298.6822837-298.68228369m19.32650068-38.12591513C652.51274521 492.98096621 493.06911435 652.42459707 493.06911435 849.11566661c0 6.06149385 0.61493379 11.85944326 0.87847735 17.83308867 5.97364541 0.26354356 11.85944326 0.87847734 17.83308955 0.87847734 196.69106865 0 356.04685195-159.44363086 356.04685195-356.04685195 0-6.06149385-0.61493379-11.85944326-0.87847734-17.83308955-5.88579785-0.35139112-11.7715957-0.9663249-17.83308955-0.9663249z" p-id="1888"></path></svg>