<?xml version="1.0" standalone="no"?><!DOCTYPE svg PUBLIC "-//W3C//DTD SVG 1.1//EN" "http://www.w3.org/Graphics/SVG/1.1/DTD/svg11.dtd"><svg t="1642310967476" class="icon" viewBox="0 0 1024 1024" version="1.1" xmlns="http://www.w3.org/2000/svg" p-id="2029" xmlns:xlink="http://www.w3.org/1999/xlink" width="200" height="200"><defs><style type="text/css"></style></defs><path d="M859.23937989 742.6552124L775.74603271 659.15362549c30.13275146-51.53137208 46.04370117-109.76165771 46.04370117-170.22491455 0-186.47369385-151.71020508-338.18389893-338.18389892-338.18389893S145.41369628 302.45501709 145.41369628 488.92871094s151.71844482 338.19213867 338.19213869 338.19213867c66.02508545 0 128.83666992-18.64654541 183.41674803-54.06921387l80.91430665 80.90606689c12.57385254 12.58209229 29.29229737 19.51171875 47.08190918 19.51171875 17.78961182 0 34.50805664-6.92962646 47.09014893-19.51171875l17.13043213-17.13043212c12.58209229-12.58209229 19.51171875-29.30053711 19.51171875-47.09014893s-6.92962646-34.50805664-19.51171875-47.08190918zM200.1173706 488.92871094c0-156.3079834 127.17224122-283.48022461 283.48846436-283.48022461 99.28894043 0 186.67144776 51.40777588 237.32116699 128.90258789L329.01995849 726.25811768C251.52514648 675.60015869 200.1173706 588.21765137 200.1173706 488.92871094z m283.48846436 283.48846435c-36.55975342 0-71.4138794-7.19329834-103.53240967-19.84954834l367.16308594-367.16308593c12.65625 32.11853028 19.84954834 66.96441651 19.84954834 103.52416992 0 45.7800293-10.90942383 90.01098633-31.59942627 129.97375489l-35.81817627-35.82641603c-25.97991943-25.97991943-68.22509766-25.96343994-94.1720581 0l-17.13867188 17.13867188c-25.96343994 25.96343994-25.96343994 68.20861817 0 94.17205811l38.81744384 38.81744384c-43.33282471 25.60913086-92.24395752 39.21295166-143.56933593 39.21295166z m336.95617676 25.73272705l-17.13043213 17.13043214c-3.03222656 3.03222656-6.56707763 3.4854126-8.41278076 3.48541259-1.83746338 0-5.37231445-0.44494629-8.39630127-3.48541259L627.03509521 655.70941162c-4.63073731-4.63897705-4.63073731-12.17834473 0-16.81732178l17.13867188-17.13867187c2.3236084-2.31536865 5.37231445-3.4689331 8.41278077-3.4689331 3.03222656 0 6.08093262 1.15356445 8.40454101 3.4689331l159.57092285 159.58740234c3.03222656 3.02398682 3.47717286 6.55883789 3.47717286 8.39630127 0.00823974 1.84570313-0.43670654 5.3805542-3.47717286 8.41278076z" fill="#666666" p-id="2030"></path></svg>