<?xml version="1.0" standalone="no"?><!DOCTYPE svg PUBLIC "-//W3C//DTD SVG 1.1//EN" "http://www.w3.org/Graphics/SVG/1.1/DTD/svg11.dtd"><svg t="1642235787532" class="icon" viewBox="0 0 1024 1024" version="1.1" xmlns="http://www.w3.org/2000/svg" p-id="5905" xmlns:xlink="http://www.w3.org/1999/xlink" width="200" height="200"><defs><style type="text/css"></style></defs><path d="M649.20000031 806.40000031H372.00000031a115.99999969 115.99999969 0 0 1-121.2-109.8V347a115.39999969 115.39999969 0 0 1 110.4-109.39999969H659.79999969a115.60000031 115.60000031 0 0 1 110.80000031 109.39999969v349.60000031c0 60.6-54.40000031 109.8-121.39999969 109.8zM372.00000031 277.20000031h-7.60000031a75 75 0 0 0-73.60000031 69.39999938v350.00000062A76.2 76.2 0 0 0 372.00000031 766.4h277.2a76.39999969 76.39999969 0 0 0 81.39999938-69.79999969V347a75.19999969 75.19999969 0 0 0-73.8-69.40000031h-7.59999938z" p-id="5906"></path><path d="M396.2 884.40000031a19.99999969 19.99999969 0 0 1-19.99999969-20.00000062v-56.19999938a19.99999969 19.99999969 0 0 1 39.99999938 0v56.19999938a19.99999969 19.99999969 0 0 1-19.99999969 20.00000062zM624.00000031 884.40000031a19.99999969 19.99999969 0 0 1-20.00000062-20.00000062v-56.19999938a19.99999969 19.99999969 0 0 1 40.00000031 0v56.19999938a19.99999969 19.99999969 0 0 1-19.99999969 20.00000062zM650.6 278.79999969l-15.19999969-1.39999969H384.8l-15.19999969 1.39999969-5.4-14.19999938a68.20000031 68.20000031 0 0 1-4.2-23.60000062V195.99999969A64.2 64.2 0 0 1 423.39999969 132.00000031h173.4a64.2 64.2 0 0 1 63.40000031 63.99999938v45a68.20000031 68.20000031 0 0 1-4.2 23.60000062zM399.99999969 237.2h220.00000031V195.99999969A24.19999969 24.19999969 0 0 0 596.79999969 171.99999969h-173.4a24.19999969 24.19999969 0 0 0-23.4 24zM383.6 710a19.99999969 19.99999969 0 0 1-19.99999969-19.99999969v-200.00000062a19.99999969 19.99999969 0 0 1 39.99999938 0v200.00000062a19.99999969 19.99999969 0 0 1-19.99999969 19.99999969zM510.2 710a19.99999969 19.99999969 0 0 1-19.99999969-19.99999969v-200.00000062a19.99999969 19.99999969 0 0 1 39.99999938 0v200.00000062a19.99999969 19.99999969 0 0 1-19.99999969 19.99999969zM636.60000031 710a19.99999969 19.99999969 0 0 1-20.00000062-19.99999969v-200.00000062a19.99999969 19.99999969 0 0 1 40.00000031 0v200.00000062a19.99999969 19.99999969 0 0 1-19.99999969 19.99999969zM649.20000031 418.20000031H372.00000031a19.99999969 19.99999969 0 0 1 0-40.00000031h277.2a19.99999969 19.99999969 0 0 1 0 40.00000031z" p-id="5907"></path></svg>