<?xml version="1.0" standalone="no"?><!DOCTYPE svg PUBLIC "-//W3C//DTD SVG 1.1//EN" "http://www.w3.org/Graphics/SVG/1.1/DTD/svg11.dtd"><svg t="1641886898588" class="icon" viewBox="0 0 1024 1024" version="1.1" xmlns="http://www.w3.org/2000/svg" p-id="2545" xmlns:xlink="http://www.w3.org/1999/xlink" width="200" height="200"><defs><style type="text/css"></style></defs><path d="M514.66666635 570.66666636v40.00000031h60c12 0 19.99999969 7.99999969 20.00000062 19.99999969s-7.99999969 19.99999969-20.00000062 20.00000062H514.66666635v60c0 12-7.99999969 19.99999969-19.99999969 19.99999969s-19.99999969-7.99999969-19.99999969-19.99999969V650.66666698h-60c-12 0-19.99999969-7.99999969-20.00000062-20.00000062s7.99999969-19.99999969 20.00000062-19.99999969H474.66666697v-40.00000031h-60c-12 0-19.99999969-7.99999969-20.00000062-19.99999969s7.99999969-19.99999969 20.00000062-19.99999969h51.99999938l-43.99999969-44.00000062c-7.99999969-7.99999969-7.99999969-19.99999969 0-27.99999938s19.99999969-7.99999969 28.00000031 0l43.99999969 43.99999969 43.99999969-43.99999969c7.99999969-7.99999969 19.99999969-7.99999969 28.00000031 0 7.99999969 7.99999969 7.99999969 19.99999969 0 27.99999938L522.66666697 530.66666698h51.99999938c12 0 19.99999969 7.99999969 20.00000062 19.99999969s-7.99999969 19.99999969-20.00000062 19.99999969H514.66666635z m60 240h-279.99999938c-31.99999969 0-60-28.00000031-60-60v-519.99999938C234.66666697 198.66666636 262.66666635 170.66666698 294.66666697 170.66666698h435.99999938c36 0 64.00000031 28.00000031 64.00000031 60v279.99999938c0 12 7.99999969 19.99999969 19.99999969 20.00000062s19.99999969-7.99999969 20.00000062-20.00000062v-279.99999938C834.66666697 174.66666636 786.66666697 130.66666667 734.66666666 130.66666667h-439.99999969C242.66666666 130.66666667 194.66666666 174.66666636 194.66666666 230.66666698v519.99999938C194.66666666 806.66666698 242.66666666 850.66666667 294.66666697 850.66666667h279.99999938c12 0 19.99999969-7.99999969 20.00000062-19.99999969s-7.99999969-19.99999969-20.00000062-20.00000062z m108-555.99999938c-60 52.00000031-124.00000031 79.99999969-183.99999938 75.99999938-91.99999969-7.99999969-148.00000031-72-148.00000031-72-7.99999969-7.99999969-19.99999969-12-28.00000031-3.99999938-7.99999969 7.99999969-12 19.99999969-3.99999938 27.99999938 4.00000031 4.00000031 67.99999969 79.99999969 171.99999938 88.00000031h16.00000031c67.99999969 0 132-28.00000031 196.00000031-84 7.99999969-7.99999969 7.99999969-19.99999969 0-28.00000031 0-7.99999969-12-12-20.00000062-3.99999938zM754.66666635 610.66666667c-67.99999969 0-120 52.00000031-120 120s52.00000031 120 120 120 120-52.00000031 120-120h-120v-120z m40.00000031 79.99999969h120c0-67.99999969-52.00000031-120-120-120v120z" fill="" p-id="2546"></path></svg>