<?xml version="1.0" standalone="no"?><!DOCTYPE svg PUBLIC "-//W3C//DTD SVG 1.1//EN" "http://www.w3.org/Graphics/SVG/1.1/DTD/svg11.dtd"><svg t="1641886970188" class="icon" viewBox="0 0 1024 1024" version="1.1" xmlns="http://www.w3.org/2000/svg" p-id="4567" xmlns:xlink="http://www.w3.org/1999/xlink" width="200" height="200"><defs><style type="text/css"></style></defs><path d="M508.484375 867.78125c-43.59375 0-81.5625-14.0625-108.984375-40.078125l-0.703125-0.703125H179.421875c-33.75 0-61.171875-27.421875-61.171875-61.171875V213.171875c0-33.75 27.421875-61.171875 61.171875-61.171875h209.53125c45.703125 0 88.59375 20.390625 117.421875 56.25l2.8125 2.8125 2.8125-2.8125c28.828125-35.859375 71.71875-56.25 117.421875-56.25h209.53125c33.75 0 61.171875 27.421875 61.171875 61.171875v553.359375c0 33.75-27.421875 61.171875-61.171875 61.171875H618.171875l-0.703125 0.703125c-27.421875 26.015625-65.390625 39.375-108.984375 39.375z m119.53125-679.21875c-63.28125 7.734375-97.03125 35.15625-97.03125 78.75v561.796875l3.515625-0.703125c18.984375-4.21875 35.859375-13.359375 48.515625-27.421875l2.109375-2.8125c3.515625-5.625 8.4375-9.140625 10.546875-9.140625h265.078125l-1.40625-600.46875H628.015625z m-194.0625 613.125c12.65625 13.359375 29.53125 22.5 50.625 26.71875l3.515625 0.703125V267.3125c0-54.84375-53.4375-75.9375-99.140625-78.046875H155.515625v600.46875H420.59375c1.40625 0 8.4375 4.921875 11.25 9.140625l2.109375 2.8125z" fill="" p-id="4568"></path></svg>