<?xml version="1.0" standalone="no"?><!DOCTYPE svg PUBLIC "-//W3C//DTD SVG 1.1//EN" "http://www.w3.org/Graphics/SVG/1.1/DTD/svg11.dtd"><svg t="1640500117977" class="icon" viewBox="0 0 1024 1024" version="1.1" xmlns="http://www.w3.org/2000/svg" p-id="3550" xmlns:xlink="http://www.w3.org/1999/xlink" width="200" height="200"><defs><style type="text/css"></style></defs><path d="M943.5 520.5c0-51-40.7-92.7-91.4-94.2V248.5c0-57.9-47.1-105-105-105H276.9c-57.9 0-105 47.1-105 105v177.8c-24.1 0.7-46.7 10.4-63.8 27.6-17.8 17.8-27.6 41.5-27.6 66.7 0 51 40.7 92.7 91.4 94.2v40.4c0 44.3 27.6 82.3 66.4 97.7v65.5c0 34.3 27.9 62.2 62.2 62.2H335c34.3 0 62.2-27.9 62.2-62.2v-58.1h229.3v58.1c0 34.3 27.9 62.2 62.2 62.2h34.5c34.3 0 62.2-27.9 62.2-62.2v-65.5c38.9-15.4 66.4-53.4 66.4-97.7v-40.4c24.1-0.7 46.7-10.4 63.8-27.6 18.1-17.8 27.9-41.5 27.9-66.7z m-721.6-272c0-30.3 24.7-55 55-55h470.2c30.3 0 55 24.7 55 55v215.2H221.9V248.5z m-91.4 272c0-11.8 4.6-22.9 13-31.3 7.7-7.7 17.7-12.2 28.4-12.9v88.3c-23.1-1.4-41.4-20.6-41.4-44.1z m216.8 297.8c0 6.8-5.5 12.2-12.2 12.2h-34.5c-6.8 0-12.2-5.5-12.2-12.2v-58.1h59v58.1z m376.1 12.2h-34.5c-6.8 0-12.2-5.5-12.2-12.2v-58.1h59v58.1c0 6.7-5.5 12.2-12.3 12.2z m23.7-120.4H276.9c-30.3 0-55-24.7-55-55V650h105.9c13.8 0 25-11.2 25-25s-11.2-25-25-25H221.9v-86.3h580.2V600H696.2c-13.8 0-25 11.2-25 25s11.2 25 25 25h105.9v5.1c0 30.4-24.7 55-55 55z m133.4-158.3c-7.7 7.7-17.7 12.2-28.4 12.9V494c0.4-1.7 0.6-3.5 0.6-5.3s-0.2-3.6-0.6-5.3v-7.1c23.1 1.5 41.4 20.7 41.4 44.2 0 11.8-4.6 23-13 31.3z" p-id="3551"></path></svg>