<?xml version="1.0" standalone="no"?><!DOCTYPE svg PUBLIC "-//W3C//DTD SVG 1.1//EN" "http://www.w3.org/Graphics/SVG/1.1/DTD/svg11.dtd"><svg t="1641886982914" class="icon" viewBox="0 0 1024 1024" version="1.1" xmlns="http://www.w3.org/2000/svg" p-id="5230" xmlns:xlink="http://www.w3.org/1999/xlink" width="200" height="200"><defs><style type="text/css"></style></defs><path d="M462.90909131 818.81818174c-8.18181826 0-16.36363653-2.04545479-22.5-6.13636348-10.22727305-6.13636347-22.5-18.40909131-24.54545478-47.04545479v-4.09090868l32.72727216-116.59090958-145.22727217 71.59090958c-6.13636347 4.09090869-28.63636347 18.40909131-53.18181826 14.31818173-10.22727305-2.04545479-26.59090869-8.18181826-36.81818174-28.63636347L78.36363652 542.68181826c-4.09090869-4.09090869-22.5-32.72727305-10.22727304-59.31818174 8.18181826-18.40909131 26.59090869-28.63636347 57.27272783-32.72727305h4.09090869l157.5 57.27272784 2.04545479 2.0454539c2.04545479 2.04545479 18.40909131 10.22727305 40.90909042-14.31818174l2.04545479-2.04545478L644.95454521 266.54545479c14.31818174-14.31818174 100.22727305-98.18181826 251.59090958-42.9545461 12.27272695 4.09090869 59.31818174 16.36363653 65.45454521 51.13636436 4.09090869 20.45454521-8.18181826 40.90909131-34.77272695 61.36363564l-175.90909131 126.81818262-180 288.40909043s-24.54545479 45-75.68181827 57.27272695c-6.13636347 4.09090869-18.40909131 10.22727305-32.72727216 10.22727305z m-6.13636436-53.18181827c0 6.13636347 2.04545479 10.22727305 4.09090958 10.22727305 4.09090869 2.04545479 14.31818174 0 18.40909042-4.09090957l4.09090958-2.0454539c34.77272695-8.18181826 53.18181826-38.86363653 53.18181826-38.86363653l186.13636347-296.59090957 182.04545479-130.90909043c16.36363653-12.27272695 18.40909131-18.40909131 18.40909043-20.45454521-2.04545479-6.13636347-20.45454521-16.36363653-36.81818174-20.4545461h-2.04545479C749.27272695 213.36363653 675.63636347 295.18181826 675.63636347 295.18181826l-4.09090868 4.09090869-315 222.9545461c-36.81818174 36.81818174-75.68181826 28.63636347-92.04545479 18.40909043l-143.18181826-51.13636348c-14.31818174 2.04545479-18.40909131 6.13636347-20.45454521 8.18181826-2.04545479 4.09090869 2.04545479 14.31818174 6.13636347 18.40909043l139.09090869 163.63636436c4.09090869 8.18181826 10.22727305 10.22727305 10.22727305 10.22727216 8.18181826 2.04545479 20.45454521-4.09090869 22.5-8.18181826l4.09090957-2.0454539L512 571.31818174l-55.22727305 194.31818174z" p-id="5231"></path></svg>