<?xml version="1.0" standalone="no"?><!DOCTYPE svg PUBLIC "-//W3C//DTD SVG 1.1//EN" "http://www.w3.org/Graphics/SVG/1.1/DTD/svg11.dtd"><svg t="1642236871641" class="icon" viewBox="0 0 1024 1024" version="1.1" xmlns="http://www.w3.org/2000/svg" p-id="4486" xmlns:xlink="http://www.w3.org/1999/xlink" width="200" height="200"><defs><style type="text/css"></style></defs><path d="M634.82371542 859.61428833h-231.74285932c-20.8568573 0-39.39628623-16.2219999-39.39628557-37.07885721L326.60571267 502.73028586c0-2.31742837 0-6.95228576 2.31742903-9.26971479s6.95228576-4.6348574 9.26971413-4.63485674h347.61428834c2.31742837 0 6.95228576 2.31742837 9.26971413 4.63485674 2.31742837 2.31742837 2.31742837 4.6348574 2.31742902 9.26971479l-23.17428632 322.12257364c-2.31742837 18.53942893-18.53942893 34.76142883-39.39628557 34.76142883zM352.09742737 512l32.44400046 308.2180021c0 9.26971414 9.26971414 16.2219999 16.2219999 16.22200056h231.74285867c9.26971414 0 16.2219999-6.95228576 16.22200056-16.22200056L674.220001 512H352.09742737z" fill="" p-id="4487"></path><path d="M593.11000083 790.09143067H372.95428467c-6.95228576 0-11.58714316-4.6348574-11.58714316-11.58714317s4.6348574-11.58714316 11.58714316-11.5871425h220.15571616c6.95228576 0 11.58714316 4.6348574 11.5871425 11.5871425s-4.6348574 11.58714316-11.5871425 11.58714316zM444.7945707 507.3651426c-6.95228576 0-11.58714316-4.6348574-11.5871425-9.26971413L419.30285667 363.68457053 389.17628458 301.11399863 372.95428467 361.36714151l11.58714316 132.09342956c0 6.95228576-4.6348574 11.58714316-11.58714316 11.58714317s-11.58714316-4.6348574-11.58714316-11.58714317L349.779999 361.36714151v-4.63485674l23.17428567-92.697144c2.31742837-2.31742837 4.6348574-6.95228576 9.26971413-6.95228577s9.26971414 2.31742837 11.58714317 6.95228577l46.34857199 92.697144c0 2.31742837 0 2.31742837 2.31742838 4.63485674l13.90457152 134.41085859c2.31742837 4.6348574-2.31742837 9.26971414-11.58714316 11.5871425 2.31742837-2.31742837 0 0 0 0zM546.76142883 280.25714133h-69.52285766c-6.95228576 0-11.58714316-4.6348574-11.58714317-11.58714316s4.6348574-11.58714316 11.58714317-11.58714317h69.52285766c6.95228576 0 11.58714316 4.6348574 11.58714317 11.58714317s-4.6348574 11.58714316-11.58714317 11.58714316zM593.11000083 512c-6.95228576 0-11.58714316-4.6348574-11.58714317-11.58714316v-278.09143067c0-6.95228576 4.6348574-11.58714316 11.58714317-11.5871425h46.34857134c6.95228576 0 11.58714316 4.6348574 11.58714316 11.5871425v273.45657393c0 6.95228576-4.6348574 11.58714316-11.58714316 11.5871425s-11.58714316-6.95228576-11.58714251-11.5871425V233.90856933h-23.17428633v266.5042875c0 6.95228576-4.6348574 11.58714316-11.5871425 11.58714317z" fill="" p-id="4488"></path><path d="M639.45857217 372.95428467h-46.34857134c-6.95228576 0-11.58714316-4.6348574-11.58714317-11.58714316s4.6348574-11.58714316 11.58714317-11.58714251h46.34857134c6.95228576 0 11.58714316 4.6348574 11.58714316 11.58714251s-4.6348574 11.58714316-11.58714316 11.58714316zM616.2842865 233.90856933c-6.95228576 0-11.58714316-4.6348574-11.58714317-11.58714316v-46.34857133c0-6.95228576 4.6348574-11.58714316 11.58714317-11.58714317s11.58714316 4.6348574 11.58714316 11.58714317v46.34857133c0 6.95228576-4.6348574 11.58714316-11.58714316 11.58714317zM384.54142783 280.25714133c-4.6348574 0-9.26971414-4.6348574-11.58714316-9.26971479l-11.58714316-46.34857134c-2.31742837-4.6348574 2.31742837-11.58714316 9.26971479-13.90457153 6.95228576-2.31742837 11.58714316 2.31742837 13.90457153 9.26971414l11.58714251 46.34857199c2.31742837 4.6348574-2.31742837 11.58714316-9.26971414 13.90457153h-2.31742837zM477.23857117 512c-6.95228576 0-11.58714316-4.6348574-11.58714317-11.58714316V210.73428367c0-25.49171469 20.8568573-46.348572 46.348572-46.348572s46.348572 20.8568573 46.348572 46.348572v278.09143066c0 6.95228576-4.6348574 11.58714316-11.58714317 11.58714251s-11.58714316-4.6348574-11.58714316-11.58714251V210.73428367c0-13.90457153-9.26971414-23.17428567-23.17428567-23.17428633s-23.17428567 9.26971414-23.17428567 23.17428633v289.67857317c0 6.95228576-4.6348574 11.58714316-11.58714316 11.58714316z" fill="" p-id="4489"></path></svg>