<?xml version="1.0" standalone="no"?><!DOCTYPE svg PUBLIC "-//W3C//DTD SVG 1.1//EN" "http://www.w3.org/Graphics/SVG/1.1/DTD/svg11.dtd"><svg t="1642235794882" class="icon" viewBox="0 0 1024 1024" version="1.1" xmlns="http://www.w3.org/2000/svg" p-id="6330" xmlns:xlink="http://www.w3.org/1999/xlink" width="200" height="200"><defs><style type="text/css"></style></defs><path d="M857.92776519 187.45118995H696.08859207V164.33130787a23.11988209 23.11988209 0 0 0-46.23976414 0V187.45118995H534.24941824V164.33130787a23.11988209 23.11988209 0 0 0-46.23976343 0V187.45118995H372.41024514V164.33130787a23.11988209 23.11988209 0 0 0-46.23976416 0V187.45118995H164.33130787a23.11988209 23.11988209 0 0 0-23.11988209 23.11988134v647.3566939a23.11988209 23.11988209 0 0 0 23.11988209 23.11988208h239.05957911a23.11988209 23.11988209 0 1 0 0-46.23976416H187.45118995V233.69095337h138.71929103v23.11988208a23.11988209 23.11988209 0 0 0 46.23976416 0V233.69095337h115.59940967v23.11988208a23.11988209 23.11988209 0 0 0 46.23976343 0V233.69095337H649.84882792v23.11988208a23.11988209 23.11988209 0 0 0 46.23976415 0V233.69095337h138.71929104v209.00373251a23.11988209 23.11988209 0 1 0 46.23976416 0v-231.19881936a23.11988209 23.11988209 0 0 0-23.11988208-24.04467657z" p-id="6331"></path><path d="M303.0505989 395.53012722m-23.11988136 0a23.11988209 23.11988209 0 1 0 46.23976343 0 23.11988209 23.11988209 0 1 0-46.23976343 0Z" p-id="6332"></path><path d="M395.53012722 395.53012722m-23.11988208 0a23.11988209 23.11988209 0 1 0 46.23976343 0 23.11988209 23.11988209 0 1 0-46.23976343 0Z" p-id="6333"></path><path d="M488.00965481 395.53012722m-23.11988208 0a23.11988209 23.11988209 0 1 0 46.23976343 0 23.11988209 23.11988209 0 1 0-46.23976343 0Z" p-id="6334"></path><path d="M580.4891824 395.53012722m-23.11988208 0a23.11988209 23.11988209 0 1 0 46.23976344 0 23.11988209 23.11988209 0 1 0-46.23976345 0Z" p-id="6335"></path><path d="M672.96871 395.53012722m-23.11988207 0a23.11988209 23.11988209 0 1 0 46.23976415 0 23.11988209 23.11988209 0 1 0-46.23976415 0Z" p-id="6336"></path><path d="M303.0505989 488.00965481m-23.11988136 0a23.11988209 23.11988209 0 1 0 46.23976343 0 23.11988209 23.11988209 0 1 0-46.23976343 0Z" p-id="6337"></path><path d="M395.53012722 488.00965481m-23.11988208 0a23.11988209 23.11988209 0 1 0 46.23976343 0 23.11988209 23.11988209 0 1 0-46.23976343 0Z" p-id="6338"></path><path d="M488.00965481 488.00965481m-23.11988208 0a23.11988209 23.11988209 0 1 0 46.23976343 0 23.11988209 23.11988209 0 1 0-46.23976343 0Z" p-id="6339"></path><path d="M303.0505989 580.4891824m-23.11988136 0a23.11988209 23.11988209 0 1 0 46.23976343 0 23.11988209 23.11988209 0 1 0-46.23976343 0Z" p-id="6340"></path><path d="M395.53012722 580.4891824m-23.11988208 0a23.11988209 23.11988209 0 1 0 46.23976343 0 23.11988209 23.11988209 0 1 0-46.23976343 0Z" p-id="6341"></path><path d="M395.53012722 672.96871m-23.11988208 0a23.11988209 23.11988209 0 1 0 46.23976343 0 23.11988209 23.11988209 0 1 0-46.23976343 0Z" p-id="6342"></path><path d="M303.0505989 672.96871m-23.11988136 0a23.11988209 23.11988209 0 1 0 46.23976343 0 23.11988209 23.11988209 0 1 0-46.23976343 0Z" p-id="6343"></path><path d="M856.07817474 692.85180843a80.91958691 80.91958691 0 0 0 7.86075978-92.47952759 79.06999646 79.06999646 0 0 0-50.40134231-37.45420916 83.23157462 83.23157462 0 0 0-36.06701596 0 79.53239371 79.53239371 0 0 0-150.74163041 3.23678365 79.53239371 79.53239371 0 0 0-72.59642916 132.24572446 83.6939726 83.6939726 0 0 0-15.72151956 30.98064185 79.06999646 79.06999646 0 0 0 58.26210208 98.02829967 83.6939726 83.6939726 0 0 0 19.88309843 2.31198771 84.61876782 84.61876782 0 0 0 16.18391753 0 79.53239371 79.53239371 0 0 0 151.20402767-3.69918091 65.66046461 65.66046461 0 0 0 32.36783505 0 79.06999646 79.06999646 0 0 0 57.79970484-99.87789012 83.6939726 83.6939726 0 0 0-18.03350798-33.29262956z m-74.44601961-81.84438215a38.37900366 38.37900366 0 0 1 21.2702909 0 33.29263028 33.29263028 0 0 1 21.27029163 15.72151956 35.14222073 35.14222073 0 0 1-8.32315776 43.0029805 38.84140163 38.84140163 0 0 1-6.47356657 5.54877136 147.04244879 147.04244879 0 0 1-61.49888575 2.77438639h-11.09754342l4.62397612-9.71035094a147.96724401 147.96724401 0 0 1 33.75502754-52.25093277 38.84140163 38.84140163 0 0 1 6.47356731-5.0863741zM703.02455663 557.36930031a35.14222073 35.14222073 0 0 1 32.8302323 29.13105141 38.37900366 38.37900366 0 0 1 0 8.78555501 147.04244879 147.04244879 0 0 1-26.35666572 54.56292119l-6.47356657 9.24795298L696.08859207 649.84882792a147.96724401 147.96724401 0 0 1-28.66865415-55.02531916 38.37900366 38.37900366 0 0 1 0-7.39836181 35.14222073 35.14222073 0 0 1 35.60461871-30.05584663z m-118.83619332 71.20923598a34.2174255 34.2174255 0 0 1 30.05584663-16.64631478 39.3037996 39.3037996 0 0 1 11.55994068 0l8.32315775 3.6991809a147.04244879 147.04244879 0 0 1 33.29262955 51.78853552l4.62397685 10.17274819h-10.63514617a147.50484675 147.50484675 0 0 1-61.96128299-2.77438566 38.37900366 38.37900366 0 0 1-6.01116933-5.08637412 35.14222073 35.14222073 0 0 1-9.24795297-41.15339005z m46.23976415 152.59122086a39.3037996 39.3037996 0 0 1-21.27029163 0 32.83023231 32.83023231 0 0 1-25.89426776-38.84140163 37.45420843 37.45420843 0 0 1 11.55994069-17.57111001 39.76619687 39.76619687 0 0 1 6.4735673-5.54877208 77.68280327 77.68280327 0 0 1 32.36783432-4.62397612h40.6909921l-4.62397614 9.71035023a148.89203923 148.89203923 0 0 1-33.75502753 52.71333073 38.37900366 38.37900366 0 0 1-6.93596455 4.16157888zM707.64853276 834.80788311a35.14222073 35.14222073 0 0 1-33.29263028-29.1310514 38.37900366 38.37900366 0 0 1 0-8.785555 146.58005153 146.58005153 0 0 1 26.81906298-54.56292119l6.4735673-9.24795298 6.01116932 8.78555572a147.96724401 147.96724401 0 0 1 28.66865344 55.48771641 38.37900366 38.37900366 0 0 1 0 7.39836181 35.14222073 35.14222073 0 0 1-34.67982276 30.05584663z m118.83619332-71.20923596a32.83023231 32.83023231 0 0 1-21.27029162 15.72151954 37.91660641 37.91660641 0 0 1-20.34549641 0 39.76619687 39.76619687 0 0 1-8.32315703-2.77438566 147.50484675 147.50484675 0 0 1-34.2174255-53.63812597l-4.62397613-10.1727482h10.63514546a149.81683447 149.81683447 0 0 1 61.96128371 2.77438567 39.76619687 39.76619687 0 0 1 5.54877134 5.0863741 37.91660641 37.91660641 0 0 1 12.48473664 17.57111001 33.29263028 33.29263028 0 0 1-1.84959046 25.43187051z" p-id="6344"></path></svg>