<?xml version="1.0" standalone="no"?><!DOCTYPE svg PUBLIC "-//W3C//DTD SVG 1.1//EN" "http://www.w3.org/Graphics/SVG/1.1/DTD/svg11.dtd"><svg t="1642236847186" class="icon" viewBox="0 0 1024 1024" version="1.1" xmlns="http://www.w3.org/2000/svg" p-id="3058" xmlns:xlink="http://www.w3.org/1999/xlink" width="200" height="200"><defs><style type="text/css"></style></defs><path d="M880.44024658 340.94287109c-0.15655518-23.99414063-9.83825684-47.21374512-26.91101074-64.28649902-17.22106934-17.22106934-40.44891357-27.06756592-64.89624024-27.06756592H672.66680908v-27.5289917c0-48.13659668-39.06463623-87.34954834-87.20123291-87.34954833H437.5291748c-48.13659668 0-87.20123291 39.21295166-87.2012329 87.34954833v27.5289917H235.14453125c-24.60388184 0-47.98004151 9.68994141-65.35766602 27.06756592-16.61132813 16.61132813-25.98815918 39.06463623-26.76269531 62.4407959 0 0.92285156-0.15655518 1.84570313-0.15655518 2.92510986v416.00006104c0 0.92285156 0.15655518 1.84570313 0.15655518 2.76855469 1.38427734 49.6774292 41.98150635 89.65667724 92.12036133 89.65667724h553.17535401c50.60028076 0 91.65893555-40.91033935 92.12036132-91.50238037 0-0.3048706 0.15655518-0.61798096 0.15655518-0.92285156V342.01403808c-0.00823974-0.3048706-0.15655518-0.60974122-0.15655518-1.07116699zM396.46228027 222.05981445c0-22.75817872 18.45703125-41.21520997 41.05865479-41.21520996h147.94464111c22.60986328 0 41.05865479 18.45703125 41.05865479 41.21520996v27.5289917H396.46228027v-27.5289917z m289.89074707 73.67156983v63.51196289c0 12.7633667-10.29968262 23.07128906-23.07128906 23.07128906H360.17443847c-12.7633667 0-23.07128906-10.29968262-23.07128905-23.07128906v-63.51196289H686.35302734z m147.94464112 462.74414062c-0.15655518 25.22186279-20.91247559 45.82946778-45.98602296 45.82946778H235.14453125c-24.91699219 0-44.90661622-19.37988281-45.98602295-44.28863526V339.86346435c0.46142578-11.53564453 5.23223877-22.4533081 13.38134766-30.60241698 8.61053467-8.76708984 20.30273438-13.52966309 32.60467529-13.52966309h55.82427979v63.51196289c0 38.14178467 31.06384278 69.20562744 69.20562743 69.20562744h303.11553955c38.2901001 0 69.20562744-31.06384278 69.20562745-69.20562744v-63.51196289h55.98083496c12.30194092 0 23.83758545 4.77081299 32.44812012 13.52966309 8.46221924 8.61053467 13.38134766 19.98962403 13.38134765 31.68182372v417.53265381z" fill="#8A8A8A" p-id="3059"></path><path d="M686.42718506 568.85424805H337.07019042c-12.73864747 0-23.07128906 10.35736084-23.07128905 23.13720703s10.32440185 23.13720703 23.07128906 23.13720703h349.35699463c12.73864747 0 23.07128906-10.35736084 23.07128906-23.13720703s-10.33264161-23.13720703-23.07128906-23.13720703z" fill="#007AFF" p-id="3060"></path></svg>