<?xml version="1.0" standalone="no"?><!DOCTYPE svg PUBLIC "-//W3C//DTD SVG 1.1//EN" "http://www.w3.org/Graphics/SVG/1.1/DTD/svg11.dtd"><svg t="1642236476525" class="icon" viewBox="0 0 1028 1024" version="1.1" xmlns="http://www.w3.org/2000/svg" p-id="7751" xmlns:xlink="http://www.w3.org/1999/xlink" width="200.78125" height="200"><defs><style type="text/css"></style></defs><path d="M565.39355469 698.38305664v106.29272461h159.68627929a26.69677734 26.69677734 0 1 1 0 53.39355469H352.3137207a26.69677734 26.69677734 0 1 1 0-53.39355469H512v-106.29272461H272.22338867A106.29272461 106.29272461 0 0 1 165.93066406 592.09033203V272.22338867A106.29272461 106.29272461 0 0 1 272.22338867 165.93066406h532.45239258a106.29272461 106.29272461 0 0 1 106.29272461 106.29272461v319.86694336a106.29272461 106.29272461 0 0 1-106.29272461 106.29272461zM272.22338867 219.32421875a53.88793945 53.88793945 0 0 0-52.89916992 52.89916992v319.86694336a53.88793945 53.88793945 0 0 0 53.39355469 53.39355469h531.95800781A53.88793945 53.88793945 0 0 0 858.06933594 592.09033203V272.22338867a53.88793945 53.88793945 0 0 0-53.39355469-53.39355469z" p-id="7752"></path></svg>