<?xml version="1.0" standalone="no"?><!DOCTYPE svg PUBLIC "-//W3C//DTD SVG 1.1//EN" "http://www.w3.org/Graphics/SVG/1.1/DTD/svg11.dtd"><svg t="1642235797328" class="icon" viewBox="0 0 1024 1024" version="1.1" xmlns="http://www.w3.org/2000/svg" p-id="6481" xmlns:xlink="http://www.w3.org/1999/xlink" width="200" height="200"><defs><style type="text/css"></style></defs><path d="M446.02854167 305.87799234m-124.61362961 0a124.61363029 124.61363029 0 1 0 249.2272599 0 124.61363029 124.61363029 0 1 0-249.2272599 0Z" fill="#E6E6E6" p-id="6482"></path><path d="M512 452.48163121c-41.11739451 0-79.77353728-16.01175911-108.84770984-45.08593166-29.07417257-29.07417257-45.08593167-67.73031466-45.085931-108.84770984 0-41.11739451 16.01175911-79.77353728 45.085931-108.84770918S470.88260549 144.6136319 512 144.6136319c41.11739451 0 79.77353728 16.01175911 108.84770984 45.08593167s45.08593167 67.73103161 45.085931 108.84770918c0 41.11739451-16.01175911 79.77353728-45.085931 108.84770985-29.07417257 29.07488885-67.73031466 45.08664863-108.84770984 45.08664861z m0-263.88654958c-60.62823225 0-109.95290807 49.32467581-109.95290807 109.95290807S451.37176775 408.50089777 512 408.50089777s109.95290807-49.32467581 109.95290807-109.95290807S572.62823225 188.59508163 512 188.59508163zM453.35854499 745.68962457H189.47127913c-12.14499825 0-21.99072488-9.84501035-21.99072486-21.99072485V489.13307832c0-12.14499825 9.84501035-21.99072488 21.99072486-21.99072555h263.88726586c12.14499825 0 21.99072488 9.84501035 21.99072486 21.99072556v234.56582139c-0.00071696 12.1457152-9.84572662 21.99072488-21.99072486 21.99072486z m-241.89654098-43.98073345H431.36781944V511.12380318H211.46200401v190.58508794zM834.52872087 745.68962457H570.64145501c-12.14499825 0-21.99072488-9.84501035-21.99072486-21.99072485V489.13307832c0-12.14499825 9.84501035-21.99072488 21.99072486-21.99072555H834.52872087c12.14499825 0 21.99072488 9.84501035 21.99072486 21.99072556v67.38700072c0 12.14499825-9.84501035 21.99072488-21.99072486 21.99072487s-21.99072488-9.84501035-21.99072488-21.99072487v-45.39627587H592.63218056v190.58508794h219.90581543v-60.93785949c0-12.14499825 9.84501035-21.99072488 21.99072488-21.99072488s21.99072488 9.84501035 21.99072486 21.99072488v82.92858435c0 12.14499825-9.84572662 21.99000791-21.99072486 21.9900086z" p-id="6483"></path><path d="M321.39986009 511.12881983c-3.13641237 0-6.32227969-0.6744437-9.34903197-2.09858683-10.98891188-5.17192691-15.70499831-18.27232741-10.53378837-29.26123861l58.6414557-124.61363031c5.17192691-10.98891188 18.27161047-15.70499831 29.26123861-10.53378836 10.98891188 5.17121064 15.70499831 18.27232741 10.53378837 29.26123929l-58.64145569 124.61363029c-3.7470668 7.96287587-11.65833824 12.63237521-19.91220664 12.63237453zM687.94013396 511.12881983c-8.25458535 0-16.16513984-4.66949933-19.91220666-12.63237452L609.3864723 373.88281501c-5.17121064-10.98962883-0.45512419-24.09002866 10.53378769-29.2612393 10.98819492-5.16977673 24.08931171-0.45512419 29.26123929 10.53378837l58.64145569 124.6136303c5.17121064 10.98962883 0.45512419 24.08931171-10.53378836 29.26123862a21.90615071 21.90615071 0 0 1-9.34903265 2.09858683zM321.41491206 833.65252405c-12.14499825 0-21.99072488-9.84501035-21.99072554-21.99072487V723.69889972c0-12.14499825 9.84501035-21.99072488 21.99072555-21.99072555s21.99072488 9.84501035 21.99072486 21.99072555V811.66179919c-0.00071696 12.14499825-9.84572662 21.99072488-21.99072486 21.99072486zM702.58508794 833.65252405c-12.14499825 0-21.99072488-9.84501035-21.99072487-21.99072487V723.69889972c0-12.14499825 9.84501035-21.99072488 21.99072486-21.99072555s21.99072488 9.84501035 21.99072555 21.99072555V811.66179919c0 12.14499825-9.84572662 21.99072488-21.99072555 21.99072486z" p-id="6484"></path><path d="M834.52872087 839.22653682H189.47127913c-12.14499825 0-21.99072488-9.84501035-21.99072486-21.99072487S177.32628089 795.24580404 189.47127913 795.24580404h645.05744175c12.14499825 0 21.99072488 9.84501035 21.99072484 21.99072486S846.67371911 839.22653682 834.52872087 839.22653682z" p-id="6485"></path></svg>