<?xml version="1.0" standalone="no"?><!DOCTYPE svg PUBLIC "-//W3C//DTD SVG 1.1//EN" "http://www.w3.org/Graphics/SVG/1.1/DTD/svg11.dtd"><svg t="1642236851569" class="icon" viewBox="0 0 1536 1024" version="1.1" xmlns="http://www.w3.org/2000/svg" p-id="3344" xmlns:xlink="http://www.w3.org/1999/xlink" width="300" height="200"><defs><style type="text/css"></style></defs><path d="M506.10833333 709.9775l418.14-368.2125c6.75-5.9625 18.27-19.1475 26.7075-22.5 14.355-5.625 20.4075 5.5125 27.81 15.03 13.3875 17.19 24.975 36.1125 37.35 54.0675l66.6 96.4125 140.895 203.985c10.53 15.255 35.6625 0.765 25.02-14.625L1091.73833333 446.975c-27.1575-39.3075-54.135-78.75-81.45-117.9225-15.3225-21.9825-34.38-49.5-65.25-38.8125-16.0875 5.5575-28.845 20.07-41.2875 31.0275l-59.715 52.605-119.475 105.1875-238.95 210.42c-13.995 12.3525 6.57 32.7825 20.52 20.475" p-id="3345"></path><path d="M775.77083333 439.325c-54.09-45.09-106.7175-93.51-163.035-135.81-41.8725-31.455-81.81 13.95-109.8 44.55-92.43 101.0925-173.475 212.85-263.34 316.26-12.1725 14.04 8.2575 34.65 20.52 20.52 76.9275-88.5825 150.1425-180.6075 224.8875-271.0125 16.65-20.1375 33.075-40.68 51.6375-59.13 6.705-6.705 13.68-13.275 21.06-19.2825 21.825-17.775 36.855-9.6075 55.395 5.8725 47.4075 39.4875 94.77 79.02 142.1775 118.53 14.2425 11.8575 34.8525-8.5275 20.475-20.475M752.52833333 512.54c27.855-35.1 55.7325 14.9625 65.205 37.35 4.905 11.6325 8.5725 22.635 21.3075 28.08 29.6325 12.7125 50.265-19.665 58.3425-42.93 27-77.85 61.8975 27.2025 102.15 13.4775 13.95-4.7475 17.8875-20.3175 22.455-32.5125 10.44-27.9225 20.4975-56.025 30.735-83.9925 6.4125-17.55-21.6-25.11-27.945-7.695l-15.3675 41.985c-3.87 10.575-7.695 34.02-15.39 42.0075-10.845 11.25-9.8775 4.095-19.71-5.175-7.2675-6.8625-15.1425-13.6575-24.12-18.225-28.305-14.445-59.7375-6.435-73.665 22.8825-3.6 7.605-5.13 15.9525-8.37 23.625-11.3175 26.8875-21.87 10.26-29.025-6.0975-6.345-14.4-14.5575-27.81-26.82-37.845-23.715-19.395-60.21-20.745-80.2575 4.5675-11.475 14.4675 8.8875 35.1 20.475 20.475" p-id="3346"></path><path d="M425.51333333 473.1425c22.2975 20.9025 11.025 60.84 42.435 77.085 26.1 13.4775 44.4825-8.1675 58.815-27.0225 26.1-34.425 55.845-72.945 103.95-69.03 39.825 3.2175 76.275 24.84 116.055 30.0375 18.45 2.4075 18.27-26.6175 0-29.025-65.79-8.55-124.6275-54.3375-187.65-9.09-23.265 16.695-40.2525 39.96-57.375 62.4825-11.025 14.4675-25.4025 11.115-32.625-4.1175-2.88-6.075-3.0825-15.1425-5.085-21.6-3.69-11.97-8.865-21.645-18-30.2175-13.6125-12.7575-34.155 7.7175-20.52 20.475M153.66833333 724.31c393.6825-1.44 787.365-5.94 1180.9125-15.3 18.63-0.45 18.6975-29.4075 0-28.9575-393.525 9.315-787.23 13.815-1180.9125 15.255-18.6525 0.0675-18.675 29.07 0 29.0025" p-id="3347"></path><path d="M1280.67083333 352.1825l21.3075 328.3875c1.215 18.5175 30.2175 18.675 28.98 0-7.0875-109.4625-14.175-218.925-21.3075-328.3875-1.215-18.5175-30.195-18.6525-28.98 0" p-id="3348"></path><path d="M1246.08833333 413.135l27.5625-30.7575 15.2775-17.0775 6.1425-6.84c6.57-7.965 7.9425-9.27 4.14-3.87-2.8125 2.205-2.6325 4.3875 0.5175 6.525l4.9725 7.155 12.465 17.865 24.9525 35.775c10.575 15.165 35.7075 0.6975 25.02-14.625l-39.8925-57.2175c-6.66-9.585-13.7025-24.57-26.64-26.55-12.1275-1.9125-18.63 6.3675-26.0325 14.4675-16.5375 18.0225-32.67 36.45-48.9825 54.675-12.42 13.8375 8.01 34.425 20.4975 20.475M1248.20333333 515.915c8.055-9.1575 16.335-18.045 25.245-26.415 5.85-5.5125 24.795-26.505 32.4-26.73 10.125-0.2925 26.955 20.205 34.0425 26.46l30.3525 26.8875c13.905 12.3075 34.4925-8.1225 20.475-20.52-17.685-15.6375-35.28-31.4325-53.1-46.98-9.1575-7.9875-18.315-17.64-31.545-16.7625-12.1725 0.7875-23.4 11.97-32.4 19.1925a368.01 368.01 0 0 0-45.9675 44.3925c-12.285 13.95 8.1 34.5375 20.475 20.475" p-id="3349"></path><path d="M1241.13833333 597.5c11.8575-9.27 23.58-20.52 36.36-28.44 14.49-8.9775 21.8925-13.725 38.07-4.95 22.185 12.015 42.5475 31.455 62.8425 46.44 15.0075 11.0925 29.475-14.04 14.625-25.02l-53.8875-39.825C1327.76333333 537.2675 1315.09583333 524.24 1299.81833333 523.9925 1289.85083333 523.8575 1283.03333333 528.92 1275.18083333 534.3425c-18.8325 13.05-36.45 28.53-54.54 42.66-14.67 11.4975 5.9625 31.86 20.4975 20.4975" p-id="3350"></path><path d="M170.88083333 352.1825l21.33 328.3875c1.1925 18.5175 30.195 18.675 28.98 0L199.88333333 352.1825c-1.215-18.5175-30.2175-18.6525-29.0025 0" p-id="3351"></path><path d="M136.29833333 413.135L163.88333333 382.4l15.3-17.0775c2.0475-2.25 4.0725-4.545 6.12-6.84 6.57-7.965 7.965-9.27 4.14-3.87-2.79 2.205-2.61 4.3875 0.5175 6.525l4.995 7.155 12.465 17.865 24.93 35.775c10.5975 15.165 35.73 0.6975 25.02-14.625-13.275-19.08-26.595-38.16-39.8925-57.2175-6.66-9.585-13.7025-24.57-26.64-26.55-12.1275-1.9125-18.6075 6.3675-26.0325 14.4675-16.5375 18.0225-32.67 36.45-48.9825 54.675-12.42 13.8375 8.01 34.425 20.4975 20.475M138.41333333 515.915c8.055-9.1575 16.335-18.045 25.245-26.415 5.8725-5.5125 24.795-26.505 32.4-26.73 10.1475-0.2925 26.955 20.205 34.065 26.46l30.33 26.8875c13.905 12.3075 34.4925-8.1225 20.475-20.52-17.685-15.6375-35.28-31.4325-53.0775-46.98-9.1575-7.9875-18.315-17.64-31.545-16.7625-12.195 0.7875-23.4225 11.97-32.4225 19.1925a369.36 369.36 0 0 0-45.9675 44.3925c-12.285 13.95 8.145 34.5375 20.4975 20.475M131.37083333 597.5c11.8575-9.27 23.5575-20.52 36.36-28.44 14.4675-8.9775 21.87-13.7475 38.0475-4.9725 22.2075 12.0375 42.57 31.4775 62.8425 46.4625 15.03 11.0925 29.4975-14.04 14.625-25.02l-53.865-39.825c-11.385-8.4375-24.0525-21.465-39.33-21.7125-9.9675-0.135-16.785 4.905-24.6375 10.35-18.855 13.05-36.4725 28.53-54.54 42.66-14.67 11.4975 5.9625 31.86 20.4975 20.4975M776.60333333 107.36c-45.0675 9.495-80.3475 51.3675-75.375 98.5275 4.86 45.6075 48.2625 83.475 94.3425 79.245 44.3025-4.0725 82.6425-44.19 79.605-89.505-3.1725-47.5425-47.655-83.8125-94.23-80.865-18.5175 1.17-18.675 30.15 0 28.98 30.87-1.9575 59.7375 18.72 64.6875 49.95 5.22 32.7375-25.7625 63.225-57.8475 62.865-30.2625-0.36-57.3975-28.395-58.1625-58.455-0.81-31.95 25.1775-56.565 54.675-62.775 18.225-3.8475 10.5525-31.7925-7.695-27.9675M267.27083333 834.065c18.675 0 18.6975-29.0025 0-29.0025-18.6525 0-18.675 29.025 0 29.025M425.17583333 808.82c18.6525 0 18.675-29.025 0-29.025s-18.6975 29.025 0 29.025M602.00333333 890.9c18.6525 0 18.675-28.98 0-28.98s-18.675 29.0025 0 29.0025M740.94083333 815.12c18.6525 0 18.675-28.98 0-28.98s-18.675 28.98 0 28.98M936.71333333 821.4425c18.6525 0 18.675-28.98 0-28.98-18.6525 0-18.675 28.98 0 28.98M1164.07583333 802.475c18.63 0 18.675-28.98 0-28.98-18.63 0-18.675 29.0025 0 29.0025M1069.32833333 903.545c18.675 0 18.675-28.98 0-28.98-18.6525 0-18.675 28.98 0 28.98" p-id="3352"></path></svg>