<?xml version="1.0" standalone="no"?><!DOCTYPE svg PUBLIC "-//W3C//DTD SVG 1.1//EN" "http://www.w3.org/Graphics/SVG/1.1/DTD/svg11.dtd"><svg t="1642236869376" class="icon" viewBox="0 0 1024 1024" version="1.1" xmlns="http://www.w3.org/2000/svg" p-id="4343" xmlns:xlink="http://www.w3.org/1999/xlink" width="200" height="200"><defs><style type="text/css"></style></defs><path d="M512 511.15755267c-17.27017036 0-31.59177503-13.90038102-31.59177503-31.59177504V380.99943953c0-17.27017036 13.90038102-31.59177503 31.59177503-31.59177504 17.27017036 0 31.59177503 13.90038102 31.59177503 31.59177504v98.5663381c0 17.69139401-14.32160467 31.59177503-31.59177503 31.59177504z" fill="#2c2c2c" p-id="4344"></path><path d="M624.04549544 218.40710404h-85.50840442v-14.32160468c0-29.90688037-16.42772302-57.70764239-42.54359037-72.45047075l-24.85219637-13.90038101c-12.63671001-7.16080235-28.64320936-2.52734199-35.80401169 10.10936802-7.16080235 12.63671001-2.52734199 28.64320936 10.109368 35.8040117l24.85219637 13.90038101c9.68814434 5.47590767 15.58527568 15.58527568 15.58527567 26.53709103v14.32160468H399.95450456c-83.82350975 0-151.64052016 68.23823407-151.64052017 151.64052014v230.83056957c0 140.26748113 114.15161378 254.84031859 254.84031859 254.84031859h18.1126177c140.26748113 0 254.84031859-114.15161378 254.84031859-254.84031859V370.04762418c-0.42122367-83.40228609-68.23823407-151.64052016-152.06174383-151.64052014z m98.98756178 382.89231338c0 111.20304811-90.56308842 202.18736019-202.1873602 202.18736022h-18.1126177c-111.20304811 0-201.76613655-90.56308842-201.76613654-202.18736022V370.04762418c0-54.75907672 44.6497087-98.98756177 98.98756178-98.98756176h224.09099088c54.75907672 0 98.98756177 44.6497087 98.98756178 98.98756176v231.25179324z" fill="#2c2c2c" p-id="4345"></path></svg>