<?xml version="1.0" standalone="no"?><!DOCTYPE svg PUBLIC "-//W3C//DTD SVG 1.1//EN" "http://www.w3.org/Graphics/SVG/1.1/DTD/svg11.dtd"><svg t="1642310896753" class="icon" viewBox="0 0 1024 1024" version="1.1" xmlns="http://www.w3.org/2000/svg" p-id="4612" xmlns:xlink="http://www.w3.org/1999/xlink" width="200" height="200"><defs><style type="text/css"></style></defs><path d="M544.94909668 905.55828857c-75.81555176 0-137.50982666-57.70129395-137.50982666-128.63067626l0-431.92501832c0-55.80615234 45.4034729-101.19149781 101.21044922-101.1914978 55.80615234 0 101.17254638 45.38534546 101.17254639 101.1914978l0 373.85211182c0 13.18936157-10.68283081 23.89031982-23.87301636 23.89031982-13.1885376 0-23.87219238-10.70095825-23.87219239-23.89031982l0-373.85211182c0-29.46450805-23.96530151-53.4289856-53.4289856-53.42898559s-53.42980957 23.96530151-53.42980956 53.42898559l0 431.92584229c0 44.58526612 40.23880005 80.86816406 89.72918701 80.86816406 69.0704956 0 104.10754394-46.33209229 104.10754395-137.65979003l0-416.45159913c0-75.90701294-61.75030518-137.64001464-137.65896607-137.64001465-75.90783691 0-137.65896607 61.73382568-137.65896606 137.64001465l0 416.45159913c0 13.19100953-10.68200684 23.89031982-23.87219239 23.89031982-13.20913696 0-23.89031982-10.70013427-23.89031982-23.89031982l0-416.45159913c0-102.23052979 83.19012451-185.40170288 185.42230224-185.40170288 102.23052979 0 185.42230224 83.1711731 185.42230225 185.40170288l0 416.45159913c-0.00082398 117.83743286-55.34307862 185.42230224-151.87088012 185.42230224z" p-id="4613"></path></svg>