<?xml version="1.0" standalone="no"?><!DOCTYPE svg PUBLIC "-//W3C//DTD SVG 1.1//EN" "http://www.w3.org/Graphics/SVG/1.1/DTD/svg11.dtd"><svg t="1642236849158" class="icon" viewBox="0 0 1092 1024" version="1.1" xmlns="http://www.w3.org/2000/svg" p-id="3201" xmlns:xlink="http://www.w3.org/1999/xlink" width="213.28125" height="200"><defs><style type="text/css"></style></defs><path d="M839.91145832 111.45833333a73.828125 73.828125 0 0 1 73.7859375 71.296875L913.73958332 185.28645833v548.4375a73.828125 73.828125 0 0 1-71.296875 73.7859375L839.91145832 807.55208333h-52.734375v21.09375a73.828125 73.828125 0 0 1-71.296875 73.7859375L713.34895832 902.47395833H249.28645832a73.828125 73.828125 0 0 1-73.828125-73.828125V301.30208333a73.828125 73.828125 0 0 1 73.828125-73.828125h31.640625v-42.1875a73.828125 73.828125 0 0 1 71.296875-73.7859375L354.75520832 111.45833333h485.15625zM713.34895832 290.75520833H249.28645832a10.546875 10.546875 0 0 0-10.546875 10.546875v527.34375a10.546875 10.546875 0 0 0 10.546875 10.546875h464.0625a10.546875 10.546875 0 0 0 10.546875-10.546875V301.30208333a10.546875 10.546875 0 0 0-10.546875-10.546875zM839.91145832 174.73958333H354.75520832a10.546875 10.546875 0 0 0-10.47304688 9.31289062L344.20833332 185.28645833v42.1875h369.140625a73.828125 73.828125 0 0 1 73.7859375 71.296875L787.17708332 301.30208333v442.96875h52.734375a10.546875 10.546875 0 0 0 10.47304688-9.31289062L850.45833332 733.72395833V185.28645833a10.546875 10.546875 0 0 0-9.31289062-10.47304688L839.91145832 174.73958333z" fill="#303133" p-id="3202"></path><path d="M607.88020832 691.53645833a31.640625 31.640625 0 0 1 1.85625 63.22851562L607.88020832 754.81770833H354.75520832a31.640625 31.640625 0 0 1-1.85625-63.22851562L354.75520832 691.53645833h253.125zM502.41145832 533.33333333a31.640625 31.640625 0 0 1 1.85625 63.22851562L502.41145832 596.61458333H354.75520832a31.640625 31.640625 0 0 1-1.85625-63.22851562L354.75520832 533.33333333h147.65625z m105.46875-158.203125a31.640625 31.640625 0 0 1 1.85625 63.22851562L607.88020832 438.41145833H354.75520832a31.640625 31.640625 0 0 1-1.85625-63.22851562L354.75520832 375.13020833h253.125z" fill="#FF6F26" p-id="3203"></path></svg>