<?xml version="1.0" standalone="no"?><!DOCTYPE svg PUBLIC "-//W3C//DTD SVG 1.1//EN" "http://www.w3.org/Graphics/SVG/1.1/DTD/svg11.dtd"><svg t="1642235766764" class="icon" viewBox="0 0 1024 1024" version="1.1" xmlns="http://www.w3.org/2000/svg" p-id="4609" xmlns:xlink="http://www.w3.org/1999/xlink" width="200" height="200"><defs><style type="text/css"></style></defs><path d="M873.35375 161.555H162.44c-30.9890625 0-54.68625 23.6971875-54.68625 54.6853125v455.7140625c0 30.9890625 23.6971875 54.68625 54.68625 54.68625h182.285625l-27.343125 109.370625h-54.6853125V872.46875h492.170625v-36.4575h-56.50875L671.016875 726.640625h202.336875c30.988125 0 54.6853125-23.6971875 54.6853125-54.68625V216.2403125c0-30.988125-23.6971875-54.6853125-54.6853125-54.6853125z m-710.91375 36.4565625h710.91375c10.936875 0 18.22875 7.291875 18.22875 18.22875V580.8125H144.21125V216.2403125c0-10.936875 7.2909375-18.22875 18.22875-18.22875zM660.078125 836.01125H353.84L381.18125 726.640625h251.5546875l27.3421875 109.370625z m213.2746875-145.828125H162.44c-10.9378125 0-18.22875-7.2909375-18.22875-18.22875v-54.6853125h747.37125v54.6853125c0 10.9378125-7.291875 18.22875-18.22875 18.22875z" p-id="4610"></path><path d="M481.439375 270.9265625h309.8859375v36.4565625H481.439375z m0 109.370625h309.8859375v36.4575H481.439375z m0 109.3715625h204.159375v36.4575h-204.159375z" p-id="4611"></path></svg>