<?xml version="1.0" standalone="no"?><!DOCTYPE svg PUBLIC "-//W3C//DTD SVG 1.1//EN" "http://www.w3.org/Graphics/SVG/1.1/DTD/svg11.dtd"><svg t="1642234804420" class="icon" viewBox="0 0 1024 1024" version="1.1" xmlns="http://www.w3.org/2000/svg" p-id="12362" xmlns:xlink="http://www.w3.org/1999/xlink" width="200" height="200"><defs><style type="text/css"></style></defs><path d="M835.32763672 264.80761719l-107.03430176-102.83203125A70.94421387 70.94421387 0 0 0 675.39416504 141.21142578a74.15771484 74.15771484 0 0 0-51.9104004 22.74169922L212.65002441 591.59594727a24.71923828 24.71923828 0 0 0-4.44946288 6.92138671V602.22521973L141.21142578 848.67602539a24.71923828 24.71923828 0 0 0 24.71923828 30.89904786 24.71923828 24.71923828 0 0 0 7.16857911 0l243.23730468-74.15771486h3.46069337a24.71923828 24.71923828 0 0 0 6.67419433-4.69665527l136.6973877-142.3828125a24.71923828 24.71923828 0 0 0-35.59570314-34.11254882l-119.88830566 123.5961914L264.80761719 608.15783692 660.31542969 198.31286621a24.71923828 24.71923828 0 0 1 17.30346679-7.66296387 26.20239258 26.20239258 0 0 1 17.55065919 6.92138672l107.03430175 102.83203125a24.71923828 24.71923828 0 0 1 0 34.85412598l-18.29223633 17.79785157A24.71923828 24.71923828 0 0 0 820.24890137 388.40380859l17.05627441-17.79785156A74.15771484 74.15771484 0 0 0 835.32763672 264.80761719zM200.53759766 818.27136231l43.01147461-162.40539551 117.66357421 112.96691895z" fill="#515151" p-id="12363"></path><path d="M648.20300293 473.93237305l-51.41601563 53.39355468A24.71923828 24.71923828 0 1 0 632.62988281 561.43847656L685.03466797 508.29211425a24.71923828 24.71923828 0 0 0-35.59570313-34.11254882zM752.02380372 402.24658203a24.71923828 24.71923828 0 0 0-34.85412599 0 24.71923828 24.71923828 0 0 0-5.43823242 8.15734864A24.71923828 24.71923828 0 0 0 717.16967773 437.84228516a24.71923828 24.71923828 0 0 0 17.3034668 7.1685791 24.71923828 24.71923828 0 0 0 9.64050294-1.73034668 24.71923828 24.71923828 0 0 0 7.91015624-5.43823242 24.71923828 24.71923828 0 0 0 5.43823243-26.94396974 29.66308594 29.66308594 0 0 0-5.43823242-8.65173339z" fill="#515151" p-id="12364"></path></svg>