<?xml version="1.0" standalone="no"?><!DOCTYPE svg PUBLIC "-//W3C//DTD SVG 1.1//EN" "http://www.w3.org/Graphics/SVG/1.1/DTD/svg11.dtd"><svg t="1640183866919" class="icon" viewBox="0 0 1024 1024" version="1.1" xmlns="http://www.w3.org/2000/svg" p-id="4660" xmlns:xlink="http://www.w3.org/1999/xlink" width="200" height="200"><defs><style type="text/css"></style></defs><path d="M311.11783 155.598824c-38.113039 0-69.073168 31.008224-69.073168 69.121264l0 132.021849 138.146337 0L380.190999 224.720088C380.190999 186.607048 349.230869 155.598824 311.11783 155.598824zM339.258751 315.809689l-55.258535 0 0-91.089601c0-15.359826 12.270465-27.854395 27.629267-27.854395s27.629267 12.494569 27.629267 27.854395L339.258751 315.809689z" p-id="4661"></path><path d="M503.499395 155.598824c-38.113039 0-69.073168 31.008224-69.073168 69.121264l0 132.021849 138.146337 0L572.572564 224.720088C572.572564 186.607048 541.612435 155.598824 503.499395 155.598824zM531.640316 315.809689l-56.281841 0 0-91.089601c0-15.359826 12.782118-27.854395 28.14092-27.854395 15.358803 0 28.14092 12.494569 28.14092 27.854395L531.640316 315.809689z" p-id="4662"></path><path d="M311.11783 401.133983c-38.113039 0-69.073168 31.008224-69.073168 69.121264l0 295.809169 138.146337 0L380.190999 470.255247C380.190999 432.142208 349.230869 401.133983 311.11783 401.133983zM339.258751 724.108862l-55.258535 0L284.000216 470.255247c0-15.359826 12.270465-27.854395 27.629267-27.854395s27.629267 12.494569 27.629267 27.854395L339.258751 724.108862z" p-id="4663"></path><path d="M503.499395 401.133983c-38.113039 0-69.073168 31.008224-69.073168 69.121264l0 295.809169 138.146337 0L572.572564 470.255247C572.572564 432.142208 541.612435 401.133983 503.499395 401.133983zM531.640316 724.108862l-56.281841 0L475.358475 470.255247c0-15.359826 12.782118-27.854395 28.14092-27.854395 15.358803 0 28.14092 12.494569 28.14092 27.854395L531.640316 724.108862z" p-id="4664"></path><path d="M939.084005 829.509401l-49.28652 0L889.797485 279.398408c0-62.575174-49.077765-114.013707-111.652939-114.013707L667.575288 165.384701c-8.018627-54.235229-55.30049-97.214089-112.26897-97.214089L262.314311 68.170612c-62.575174 0-114.413819 51.676963-114.413819 114.252137l0 647.087675-60.968583 0c-11.395538 0-21.919219 10.034541-21.919219 21.429055l0 86.659709c0 11.394515 10.523681 19.824511 21.919219 19.824511l852.152097 0c11.395538 0 19.274996-8.429996 19.274996-19.824511l0-86.659709C958.359001 839.543941 950.479543 829.509401 939.084005 829.509401zM848.865237 279.398408l0 550.112016-181.125197 0 0-623.193475 110.404506 0C817.96446 206.315926 848.865237 239.578494 848.865237 279.398408zM188.832739 182.421726c0-39.819914 33.661657-73.319889 73.481571-73.319889l292.992007 0c39.819914 0 70.478168 33.499975 70.478168 73.319889l0 647.087675-436.951747 0L188.832739 182.421726zM917.426753 916.490427l-811.481815 0 0-46.048779 811.481815 0L917.426753 916.490427z" p-id="4665"></path></svg>